M48
; DRILL file {KiCad 9.0.1} date 2025-05-04T22:53:25+0200
; FORMAT={-:-/ absolute / metric / decimal}
; #@! TF.CreationDate,2025-05-04T22:53:25+02:00
; #@! TF.GenerationSoftware,Kicad,Pcbnew,9.0.1
; #@! TF.FileFunction,Plated,1,2,PTH
FMAT,2
METRIC
; #@! TA.AperFunction,Plated,PTH,ViaDrill
T1C0.300
; #@! TA.AperFunction,Plated,PTH,ComponentDrill
T2C0.600
; #@! TA.AperFunction,Plated,PTH,ComponentDrill
T3C1.100
; #@! TA.AperFunction,Plated,PTH,ComponentDrill
T4C4.300
%
G90
G05
T1
X19.7Y-56.5
X20.0Y-84.7
X20.0Y-87.8
X20.6Y-91.6
X20.7Y-88.6
X21.154Y-42.5
X21.4Y-90.6
X22.0Y-84.1
X22.1Y-92.5
X22.2Y-87.4
X22.3Y-60.8
X22.5Y-32.4
X22.5Y-58.6
X22.8Y-62.2
X22.8Y-66.8
X23.0Y-63.2
X23.4Y-38.1
X23.5Y-84.2
X23.5Y-87.5
X23.5Y-90.6
X23.5Y-94.4
X23.7Y-50.3
X23.975Y-62.887
X24.5Y-80.5
X24.5Y-84.2
X24.575Y-59.387
X24.6Y-64.2
X25.254Y-77.854
X25.3Y-92.5
X25.5Y-98.2
X25.6Y-31.9
X25.6Y-40.1
X25.6Y-52.2
X25.8Y-64.1
X25.9Y-86.6
X26.1Y-96.4
X26.4Y-65.2
X26.454Y-68.75
X26.5Y-80.4
X26.654Y-45.6
X26.8Y-66.7
X27.4Y-76.9
X27.5Y-83.0
X27.6Y-45.9
X27.724Y-57.4
X27.775Y-61.987
X28.1Y-69.4
X28.154Y-74.2
X28.2Y-91.3
X28.3Y-85.7
X28.5Y-44.396
X28.524Y-57.4
X28.754Y-33.2
X28.8Y-72.2
X29.254Y-67.7
X29.5Y-57.4
X30.0Y-70.3
X30.0Y-76.8
X30.0Y-81.5
X30.054Y-68.2
X30.175Y-64.087
X30.4Y-57.4
X30.454Y-35.6
X30.6Y-52.2
X31.154Y-47.1
X31.2Y-59.2
X31.3Y-53.2
X31.4Y-49.3
X31.4Y-50.8
X31.454Y-45.6
X31.8Y-62.4
X31.9Y-57.4
X31.9Y-67.6
X32.154Y-70.85
X32.754Y-73.7
X33.03Y-64.5
X33.1Y-70.4
X33.2Y-53.7
X33.677Y-50.123
X33.854Y-67.6
X34.0Y-42.0
X34.0Y-58.3
X34.204Y-70.9
X34.5Y-54.7
X34.8Y-74.6
X34.9Y-29.7
X35.054Y-77.2
X35.1Y-53.8
X35.1Y-63.0
X35.131Y-37.9
X35.208Y-60.808
X35.3Y-91.3
X35.4Y-86.0
X35.454Y-65.1
X35.731Y-44.797
X35.8Y-56.5
X35.954Y-71.0
X36.0Y-42.0
X36.0Y-61.4
X36.0Y-67.5
X36.0Y-74.7
X36.9Y-71.4
X37.754Y-77.1
X37.8Y-79.5
X38.0Y-68.5
X38.0Y-72.2
X38.0Y-92.5
X38.754Y-65.1
X38.8Y-74.7
X38.9Y-59.7
X39.0Y-67.5
X39.0Y-73.4
X39.6Y-47.5
X40.0Y-39.0
X40.0Y-91.6
X40.3Y-48.716
X40.5Y-41.0
X40.754Y-70.9
X40.8Y-36.8
X40.8Y-76.0
X41.34Y-48.66
X41.4Y-27.3
X41.554Y-79.2
X41.7Y-85.6
X42.2Y-28.149
X42.254Y-55.3
X42.554Y-66.8
X42.654Y-81.0
X43.75Y-45.25
X44.6Y-32.8
X44.7Y-46.2
X45.0Y-47.2
X45.154Y-40.8
X46.011Y-52.743
X46.2Y-61.0
X46.9Y-48.2
X47.054Y-40.5
X47.8Y-35.9
X47.8Y-52.9
X47.8Y-83.6
X47.854Y-44.9
X48.0Y-47.2
X49.5Y-64.6
X49.541Y-29.075
X50.1Y-55.8
X50.2Y-26.6
X50.651Y-41.351
X50.754Y-50.3
X50.9Y-43.4
X51.03Y-28.77
X51.05Y-80.3
X52.2Y-45.1
X52.2Y-53.4
X52.629Y-37.8
X52.629Y-46.5
X52.7Y-55.8
X52.75Y-79.6
X52.9Y-30.27
X53.87Y-41.17
X53.9Y-76.2
X54.4Y-86.4
X55.3Y-72.5
X55.371Y-50.0
X55.7Y-75.0
X55.8Y-77.3
X56.1Y-71.3
X56.4Y-74.5
X56.5Y-78.9
X56.8Y-48.1
X57.0Y-82.6
X57.1Y-74.0
X57.1Y-77.9
X57.2Y-50.2
X57.2Y-72.7
X57.3Y-80.2
X57.8Y-74.9
X58.0Y-81.3
X58.215Y-36.785
X58.3Y-39.7
X59.2Y-52.2
X59.9Y-45.1
X60.2Y-70.8
X60.7Y-71.6
X60.854Y-40.2
X61.1Y-32.8
X61.15Y-72.85
X61.3Y-76.5
X61.8Y-45.9
X61.8Y-81.0
X61.8Y-84.8
X62.9Y-52.7
X62.9Y-82.1
X63.3Y-45.7
X63.4Y-85.8
X63.7Y-82.1
X64.0Y-79.0
X64.3Y-72.4
X64.4Y-74.4
X64.5Y-36.4
X64.9Y-85.8
X65.4Y-79.2
X65.6Y-81.2
X65.7Y-83.3
X66.3Y-76.6
X66.4Y-73.0
X66.405Y-42.595
X66.5Y-74.9
X66.7Y-30.4
X66.9Y-83.7
X67.0Y-65.1
X67.3Y-73.0
X67.9Y-64.6
X67.9Y-78.6
X67.9Y-79.6
X67.9Y-80.6
X68.0Y-83.0
X68.3Y-73.0
X68.8Y-42.8
X68.8Y-83.7
X69.0Y-40.2
X69.1Y-81.4
X69.15Y-64.35
X69.7Y-73.1
X70.2Y-75.7
X70.499Y-75.005
X70.503Y-76.394
X70.6Y-28.8
X70.7Y-80.3
X70.8Y-55.6
X71.3Y-42.2
X71.5Y-65.1
X71.5Y-69.6
X71.9Y-75.2
X71.9Y-76.1
X72.4Y-79.3
X72.6Y-59.345
X72.8Y-72.4
X72.8Y-73.1
X73.0Y-44.75
X73.0Y-78.3
X73.254Y-36.2
X73.8Y-50.2
X73.9Y-73.1
X73.9Y-78.3
X74.2Y-71.0
X74.3Y-39.3
X74.74Y-48.56
X74.8Y-69.9
X75.0Y-64.145
X75.0Y-73.1
X75.0Y-75.7
X75.0Y-78.3
X75.6Y-54.9
X75.8Y-74.2
X75.9Y-69.6
X76.2Y-52.3
X76.8Y-61.745
X76.954Y-46.3
X78.0Y-60.145
X78.4Y-40.6
X79.0Y-64.9
X79.2Y-86.2
X79.3Y-47.2
X79.4Y-44.396
X80.1Y-72.1
X80.7Y-66.5
X80.8Y-32.3
X80.8Y-35.4
X81.2Y-45.8
X81.954Y-44.996
X82.0Y-61.0
X82.1Y-69.0
X82.5Y-62.3
X82.5Y-63.5
X82.6Y-66.2
X83.1Y-59.4
X83.1Y-70.2
X83.4Y-68.8
X84.0Y-42.0
X84.2Y-62.3
X84.2Y-63.5
X84.6Y-61.0
X84.6Y-65.9
X85.2Y-53.5
X86.0Y-41.6
X86.4Y-54.4
X86.535Y-58.215
X86.6Y-55.8
X86.601Y-59.012
X86.8Y-30.6
X87.5Y-72.5
X87.8Y-66.4
X88.2Y-30.5
X88.2Y-62.7
X88.8Y-58.0
X89.0Y-69.4
X89.0Y-73.001
X89.0Y-75.9
X89.154Y-42.6
X89.89Y-35.743
X90.4Y-61.0
X90.454Y-44.7
X91.4Y-69.0
X91.5Y-51.9
X91.8Y-39.2
X92.4Y-69.0
X92.8Y-61.2
X93.8Y-52.4
X94.0Y-73.8
X94.2Y-72.4
X95.0Y-46.0
X95.6Y-69.2
X95.954Y-35.0
X96.1Y-47.0
X96.2Y-44.396
X96.2Y-62.0
X97.0Y-40.9
X97.254Y-35.4
X97.7Y-37.5
X97.8Y-60.6
X98.0Y-48.1
X98.5Y-45.2
X99.829Y-34.4
X99.9Y-68.2
X100.0Y-66.9
X100.77Y-53.9
X100.9Y-64.0
X101.4Y-49.8
X101.9Y-61.0
X102.2Y-67.0
X102.6Y-30.8
X102.8Y-57.8
X103.1Y-42.4
X103.4Y-61.0
X104.0Y-38.3
X104.5Y-64.0
X105.2Y-61.7
X105.5Y-55.1
X105.8Y-61.0
X105.8Y-66.6
X106.4Y-62.0
X106.654Y-38.0
X107.2Y-58.0
X107.2Y-70.6
X107.9Y-48.5
X108.4Y-67.6
X108.459Y-37.3
X109.6Y-40.4
X109.8Y-72.2
X110.4Y-73.0
X110.89Y-38.71
X111.0Y-32.4
X111.6Y-59.4
X112.654Y-46.5
X112.8Y-65.8
X113.3Y-43.7
X113.454Y-36.5
X114.0Y-59.3
X114.1Y-34.9
X114.4Y-72.0
X115.2Y-44.9
X115.4Y-46.8
X115.6Y-39.0
X115.7Y-78.3
X116.0Y-71.3
X116.0Y-76.1
X116.954Y-43.0
X117.725Y-62.3
X117.725Y-63.7
X118.9Y-31.4
X119.576Y-43.424
X120.2Y-31.8
X120.4Y-35.4
X120.4Y-47.0
X120.6Y-29.6
X120.6Y-33.2
X120.6Y-37.0
X120.6Y-41.0
X120.6Y-44.8
X121.0Y-39.2
X149.554Y-56.5
X149.854Y-84.7
X149.854Y-87.8
X150.454Y-91.6
X150.554Y-88.6
X151.007Y-42.5
X151.254Y-90.6
X151.854Y-84.1
X151.954Y-92.5
X152.054Y-87.4
X152.154Y-60.8
X152.354Y-32.4
X152.354Y-58.6
X152.654Y-62.2
X152.654Y-66.8
X152.854Y-63.2
X153.254Y-38.1
X153.354Y-84.2
X153.354Y-87.5
X153.354Y-90.6
X153.354Y-94.4
X153.554Y-50.3
X153.829Y-62.887
X154.354Y-80.5
X154.354Y-84.2
X154.429Y-59.387
X154.454Y-64.2
X155.107Y-77.854
X155.154Y-92.5
X155.354Y-98.2
X155.454Y-31.9
X155.454Y-40.1
X155.454Y-52.2
X155.654Y-64.1
X155.754Y-86.6
X155.954Y-96.4
X156.254Y-65.2
X156.307Y-68.75
X156.354Y-80.4
X156.507Y-45.6
X156.654Y-66.7
X157.254Y-76.9
X157.354Y-83.0
X157.454Y-45.9
X157.578Y-57.4
X157.629Y-61.987
X157.954Y-69.4
X158.007Y-74.2
X158.054Y-91.3
X158.154Y-85.7
X158.354Y-44.396
X158.378Y-57.4
X158.607Y-33.2
X158.654Y-72.2
X159.107Y-67.7
X159.354Y-57.4
X159.854Y-70.3
X159.854Y-76.8
X159.854Y-81.5
X159.907Y-68.2
X160.029Y-64.087
X160.254Y-57.4
X160.307Y-35.6
X160.454Y-52.2
X161.007Y-47.1
X161.054Y-59.2
X161.154Y-53.2
X161.254Y-49.3
X161.254Y-50.8
X161.307Y-45.6
X161.654Y-62.4
X161.754Y-57.4
X161.754Y-67.6
X162.007Y-70.85
X162.607Y-73.7
X162.884Y-64.5
X162.954Y-70.4
X163.054Y-53.7
X163.53Y-50.123
X163.707Y-67.6
X163.854Y-42.0
X163.854Y-58.3
X164.057Y-70.9
X164.354Y-54.7
X164.654Y-74.6
X164.754Y-29.7
X164.907Y-77.2
X164.954Y-53.8
X164.954Y-63.0
X164.985Y-37.9
X165.061Y-60.808
X165.154Y-91.3
X165.254Y-86.0
X165.307Y-65.1
X165.585Y-44.797
X165.654Y-56.5
X165.807Y-71.0
X165.854Y-42.0
X165.854Y-61.4
X165.854Y-67.5
X165.854Y-74.7
X166.754Y-71.4
X167.607Y-77.1
X167.654Y-79.5
X167.854Y-68.5
X167.854Y-72.2
X167.854Y-92.5
X168.607Y-65.1
X168.654Y-74.7
X168.754Y-59.7
X168.854Y-67.5
X168.854Y-73.4
X169.454Y-47.5
X169.854Y-39.0
X169.854Y-91.6
X170.154Y-48.716
X170.354Y-41.0
X170.607Y-70.9
X170.654Y-36.8
X170.654Y-76.0
X171.194Y-48.66
X171.254Y-27.3
X171.407Y-79.2
X171.554Y-85.6
X172.054Y-28.149
X172.107Y-55.3
X172.407Y-66.8
X172.507Y-81.0
X173.604Y-45.25
X174.454Y-32.8
X174.554Y-46.2
X174.854Y-47.2
X175.007Y-40.8
X175.864Y-52.743
X176.054Y-61.0
X176.754Y-48.2
X176.907Y-40.5
X177.654Y-35.9
X177.654Y-52.9
X177.654Y-83.6
X177.707Y-44.9
X177.854Y-47.2
X179.354Y-64.6
X179.394Y-29.075
X179.954Y-55.8
X180.054Y-26.6
X180.504Y-41.351
X180.607Y-50.3
X180.754Y-43.4
X180.884Y-28.77
X180.904Y-80.3
X182.054Y-45.1
X182.054Y-53.4
X182.483Y-37.8
X182.483Y-46.5
X182.554Y-55.8
X182.604Y-79.6
X182.754Y-30.27
X183.724Y-41.17
X183.754Y-76.2
X184.254Y-86.4
X185.154Y-72.5
X185.225Y-50.0
X185.554Y-75.0
X185.654Y-77.3
X185.954Y-71.3
X186.254Y-74.5
X186.354Y-78.9
X186.654Y-48.1
X186.854Y-82.6
X186.954Y-74.0
X186.954Y-77.9
X187.054Y-50.2
X187.054Y-72.7
X187.154Y-80.2
X187.654Y-74.9
X187.854Y-81.3
X188.069Y-36.785
X188.154Y-39.7
X189.054Y-52.2
X189.754Y-45.1
X190.054Y-70.8
X190.554Y-71.6
X190.707Y-40.2
X190.954Y-32.8
X191.004Y-72.85
X191.154Y-76.5
X191.654Y-45.9
X191.654Y-81.0
X191.654Y-84.8
X192.754Y-52.7
X192.754Y-82.1
X193.154Y-45.7
X193.254Y-85.8
X193.554Y-82.1
X193.854Y-79.0
X194.154Y-72.4
X194.254Y-74.4
X194.354Y-36.4
X194.754Y-85.8
X195.254Y-79.2
X195.454Y-81.2
X195.554Y-83.3
X196.154Y-76.6
X196.254Y-73.0
X196.259Y-42.595
X196.354Y-74.9
X196.554Y-30.4
X196.754Y-83.7
X196.854Y-65.1
X197.154Y-73.0
X197.754Y-64.6
X197.754Y-78.6
X197.754Y-79.6
X197.754Y-80.6
X197.854Y-83.0
X198.154Y-73.0
X198.654Y-42.8
X198.654Y-83.7
X198.854Y-40.2
X198.954Y-81.4
X199.004Y-64.35
X199.554Y-73.1
X200.054Y-75.7
X200.353Y-75.005
X200.356Y-76.394
X200.454Y-28.8
X200.554Y-80.3
X200.654Y-55.6
X201.154Y-42.2
X201.354Y-65.1
X201.354Y-69.6
X201.754Y-75.2
X201.754Y-76.1
X202.254Y-79.3
X202.454Y-59.345
X202.654Y-72.4
X202.654Y-73.1
X202.854Y-44.75
X202.854Y-78.3
X203.107Y-36.2
X203.654Y-50.2
X203.754Y-73.1
X203.754Y-78.3
X204.054Y-71.0
X204.154Y-39.3
X204.594Y-48.56
X204.654Y-69.9
X204.854Y-64.145
X204.854Y-73.1
X204.854Y-75.7
X204.854Y-78.3
X205.454Y-54.9
X205.654Y-74.2
X205.754Y-69.6
X206.054Y-52.3
X206.654Y-61.745
X206.807Y-46.3
X207.854Y-60.145
X208.254Y-40.6
X208.854Y-64.9
X209.054Y-86.2
X209.154Y-47.2
X209.254Y-44.396
X209.954Y-72.1
X210.554Y-66.5
X210.654Y-32.3
X210.654Y-35.4
X211.054Y-45.8
X211.807Y-44.996
X211.854Y-61.0
X211.954Y-69.0
X212.354Y-62.3
X212.354Y-63.5
X212.454Y-66.2
X212.954Y-59.4
X212.954Y-70.2
X213.254Y-68.8
X213.854Y-42.0
X214.054Y-62.3
X214.054Y-63.5
X214.454Y-61.0
X214.454Y-65.9
X215.054Y-53.5
X215.854Y-41.6
X216.254Y-54.4
X216.389Y-58.215
X216.454Y-55.8
X216.455Y-59.012
X216.654Y-30.6
X217.354Y-72.5
X217.654Y-66.4
X218.054Y-30.5
X218.054Y-62.7
X218.654Y-58.0
X218.854Y-69.4
X218.854Y-73.001
X218.854Y-75.9
X219.007Y-42.6
X219.743Y-35.743
X220.254Y-61.0
X220.307Y-44.7
X221.254Y-69.0
X221.354Y-51.9
X221.654Y-39.2
X222.254Y-69.0
X222.654Y-61.2
X223.654Y-52.4
X223.854Y-73.8
X224.054Y-72.4
X224.854Y-46.0
X225.454Y-69.2
X225.807Y-35.0
X225.954Y-47.0
X226.054Y-44.396
X226.054Y-62.0
X226.854Y-40.9
X227.107Y-35.4
X227.554Y-37.5
X227.654Y-60.6
X227.854Y-48.1
X228.354Y-45.2
X229.683Y-34.4
X229.754Y-68.2
X229.854Y-66.9
X230.624Y-53.9
X230.754Y-64.0
X231.254Y-49.8
X231.754Y-61.0
X232.054Y-67.0
X232.454Y-30.8
X232.654Y-57.8
X232.954Y-42.4
X233.254Y-61.0
X233.854Y-38.3
X234.354Y-64.0
X235.054Y-61.7
X235.354Y-55.1
X235.654Y-61.0
X235.654Y-66.6
X236.254Y-62.0
X236.507Y-38.0
X237.054Y-58.0
X237.054Y-70.6
X237.754Y-48.5
X238.254Y-67.6
X238.313Y-37.3
X239.454Y-40.4
X239.654Y-72.2
X240.254Y-73.0
X240.744Y-38.71
X240.854Y-32.4
X241.454Y-59.4
X242.507Y-46.5
X242.654Y-65.8
X243.154Y-43.7
X243.307Y-36.5
X243.854Y-59.3
X243.954Y-34.9
X244.254Y-72.0
X245.054Y-44.9
X245.254Y-46.8
X245.454Y-39.0
X245.554Y-78.3
X245.854Y-71.3
X245.854Y-76.1
X246.807Y-43.0
X247.579Y-62.3
X247.579Y-63.7
X248.754Y-31.4
X249.429Y-43.424
X250.054Y-31.8
X250.254Y-35.4
X250.254Y-47.0
X250.454Y-29.6
X250.454Y-33.2
X250.454Y-37.0
X250.454Y-41.0
X250.454Y-44.8
X250.854Y-39.2
T3
X41.6Y-51.7
X41.6Y-64.4
X171.454Y-51.7
X171.454Y-64.4
T4
X30.0Y-24.0
X33.0Y-105.0
X102.0Y-73.7
X109.0Y-24.0
X159.854Y-24.0
X162.854Y-105.0
X231.854Y-73.7
X238.854Y-24.0
T2
X116.27Y-59.18G85X117.37Y-59.18
G05
X116.27Y-67.82G85X117.37Y-67.82
G05
X120.6Y-59.18G85X121.4Y-59.18
G05
X120.6Y-67.82G85X121.4Y-67.82
G05
X246.124Y-59.18G85X247.224Y-59.18
G05
X246.124Y-67.82G85X247.224Y-67.82
G05
X250.454Y-59.18G85X251.254Y-59.18
G05
X250.454Y-67.82G85X251.254Y-67.82
G05
M30
