G04 #@! TF.GenerationSoftware,KiCad,Pcbnew,9.0.0*
G04 #@! TF.CreationDate,2025-03-19T00:16:02+01:00*
G04 #@! TF.ProjectId,dc2025_badge_cover,64633230-3235-45f6-9261-6467655f636f,rev?*
G04 #@! TF.SameCoordinates,Original*
G04 #@! TF.FileFunction,Copper,L1,Top*
G04 #@! TF.FilePolarity,Positive*
%FSLAX46Y46*%
G04 Gerber Fmt 4.6, Leading zero omitted, Abs format (unit mm)*
G04 Created by KiCad (PCBNEW 9.0.0) date 2025-03-19 00:16:02*
%MOMM*%
%LPD*%
G01*
G04 APERTURE LIST*
G04 #@! TA.AperFunction,NonConductor*
%ADD10C,0.250000*%
G04 #@! TD*
G04 #@! TA.AperFunction,Conductor*
%ADD11C,1.000000*%
G04 #@! TD*
G04 #@! TA.AperFunction,Conductor*
%ADD12C,0.200000*%
G04 #@! TD*
G04 APERTURE END LIST*
D10*
X173753947Y-93034876D02*
X171286447Y-95267376D01*
X135423947Y-82117376D02*
X132956447Y-83347376D01*
X171266447Y-82322376D02*
X173733947Y-81092376D01*
X154442697Y-82117376D02*
X156910197Y-83347376D01*
X132918947Y-71414876D02*
X135393947Y-69189876D01*
X183418947Y-93034876D02*
X185886447Y-95267376D01*
X200418947Y-71414876D02*
X202893947Y-69189876D01*
X202923947Y-82117376D02*
X200456447Y-83347376D01*
X149718947Y-93034876D02*
X152186447Y-95267376D01*
X140053947Y-71414876D02*
X137578947Y-69189876D01*
X154466447Y-82322376D02*
X156933947Y-81092376D01*
X118700197Y-82345000D02*
X116232697Y-81115000D01*
X152223947Y-82117376D02*
X149756447Y-83347376D01*
X156953947Y-93034876D02*
X154486447Y-95267376D01*
X156953947Y-71414876D02*
X154478947Y-69189876D01*
X116218947Y-93057500D02*
X118686447Y-95290000D01*
X106553947Y-71437500D02*
X104078947Y-69212500D01*
X152200197Y-82322376D02*
X149732697Y-81092376D01*
X104066447Y-82345000D02*
X106533947Y-81115000D01*
X137566447Y-82322376D02*
X140033947Y-81092376D01*
X116218947Y-71437500D02*
X118693947Y-69212500D01*
X166618947Y-93034876D02*
X169086447Y-95267376D01*
X137542697Y-82117376D02*
X140010197Y-83347376D01*
X188266447Y-82322376D02*
X190733947Y-81092376D01*
X185923947Y-82117376D02*
X183456447Y-83347376D01*
X135400197Y-82322376D02*
X132932697Y-81092376D01*
X188242697Y-82117376D02*
X190710197Y-83347376D01*
X123253947Y-71414876D02*
X120778947Y-69189876D01*
X104042697Y-82140000D02*
X106510197Y-83370000D01*
X120766447Y-82322376D02*
X123233947Y-81092376D01*
X140053947Y-93034876D02*
X137586447Y-95267376D01*
X123253947Y-93034876D02*
X120786447Y-95267376D01*
X149718947Y-71414876D02*
X152193947Y-69189876D01*
X202900197Y-82322376D02*
X200432697Y-81092376D01*
X200418947Y-93034876D02*
X202886447Y-95267376D01*
X132918947Y-93034876D02*
X135386447Y-95267376D01*
X169123947Y-82117376D02*
X166656447Y-83347376D01*
X183418947Y-71414876D02*
X185893947Y-69189876D01*
X118723947Y-82140000D02*
X116256447Y-83370000D01*
X171242697Y-82117376D02*
X173710197Y-83347376D01*
X190753947Y-93034876D02*
X188286447Y-95267376D01*
X173753947Y-71414876D02*
X171278947Y-69189876D01*
X190753947Y-71414876D02*
X188278947Y-69189876D01*
X120742697Y-82117376D02*
X123210197Y-83347376D01*
X169100197Y-82322376D02*
X166632697Y-81092376D01*
X185900197Y-82322376D02*
X183432697Y-81092376D01*
X166618947Y-71414876D02*
X169093947Y-69189876D01*
X106553947Y-93057500D02*
X104086447Y-95290000D01*
D11*
G04 #@! TO.N,*
X152356447Y-95687376D02*
X152396447Y-95647376D01*
D12*
X125421447Y-135000000D02*
X125421447Y-113500000D01*
X140021447Y-83352376D02*
X140021447Y-85252376D01*
X123221447Y-71427376D02*
X123221447Y-73327376D01*
X149746447Y-91727376D02*
X149746447Y-83352376D01*
X156921447Y-81102376D02*
X156921447Y-73327376D01*
D11*
X135596447Y-95647376D02*
X135596447Y-68777376D01*
D12*
X147796447Y-93027376D02*
X149746447Y-93027376D01*
D11*
X120546447Y-95687376D02*
X135556447Y-95687376D01*
D12*
X124571447Y-71427376D02*
X123221447Y-71427376D01*
X192071447Y-83352376D02*
X190721447Y-83352376D01*
X123221447Y-85252376D02*
X123221447Y-93027376D01*
X123221447Y-73327376D02*
X129996447Y-80102376D01*
X166646447Y-79802376D02*
X166646447Y-71427376D01*
X173721447Y-71427376D02*
X173721447Y-73327376D01*
D11*
X186096447Y-95647376D02*
X186096447Y-68777376D01*
D12*
X140021447Y-73327376D02*
X146796447Y-80102376D01*
X173721447Y-93027376D02*
X181496447Y-93027376D01*
X190721447Y-85252376D02*
X190721447Y-93027376D01*
X149746447Y-71427376D02*
X141371447Y-71427376D01*
X124571447Y-83352376D02*
X123221447Y-83352376D01*
D11*
X203096447Y-95647376D02*
X203096447Y-68777376D01*
D12*
X129646447Y-111225000D02*
X108396447Y-111225000D01*
X173721447Y-83352376D02*
X173721447Y-85252376D01*
X183446447Y-81102376D02*
X183446447Y-79802376D01*
X149746447Y-81102376D02*
X149746447Y-79802376D01*
X126396447Y-114475000D02*
X108396447Y-114475000D01*
D11*
X203096447Y-68777376D02*
X188046447Y-68777376D01*
X169296447Y-68777376D02*
X154246447Y-68777376D01*
D12*
X149746447Y-93027376D02*
X149746447Y-91727376D01*
X106521447Y-81125000D02*
X106521447Y-73350000D01*
X181496447Y-81102376D02*
X173721447Y-81102376D01*
X130996447Y-81102376D02*
X132946447Y-81102376D01*
X140021447Y-81102376D02*
X140021447Y-73327376D01*
X175071447Y-83352376D02*
X173721447Y-83352376D01*
X113246447Y-92000000D02*
X114296447Y-93050000D01*
X122271447Y-122000000D02*
X122271447Y-113500000D01*
X132946447Y-93027376D02*
X132946447Y-91727376D01*
D11*
X186056447Y-95687376D02*
X186096447Y-95647376D01*
D12*
X110621447Y-124225000D02*
X102396447Y-124225000D01*
D11*
X154246447Y-95687376D02*
X169256447Y-95687376D01*
D12*
X190721447Y-83352376D02*
X190721447Y-85252376D01*
X110646447Y-130725000D02*
X102396447Y-130725000D01*
X190721447Y-93027376D02*
X198496447Y-93027376D01*
D11*
X120546447Y-68777376D02*
X120546447Y-95677376D01*
D12*
X128571447Y-131825000D02*
X128571447Y-116750000D01*
X200446447Y-79802376D02*
X200446447Y-71427376D01*
X129671447Y-120975000D02*
X121146447Y-120975000D01*
X103371447Y-135000000D02*
X103371447Y-120000000D01*
X116246447Y-79825000D02*
X116246447Y-71450000D01*
D11*
X171046447Y-68777376D02*
X171046447Y-95677376D01*
D12*
X183446447Y-91727376D02*
X183446447Y-83352376D01*
X156921447Y-85252376D02*
X163696447Y-92027376D01*
D11*
X152396447Y-95647376D02*
X152396447Y-68777376D01*
D12*
X132946447Y-81102376D02*
X132946447Y-79802376D01*
X116246447Y-79825000D02*
X107871447Y-71450000D01*
X200446447Y-91727376D02*
X192071447Y-83352376D01*
X192071447Y-83352376D02*
X200446447Y-83352376D01*
X122271447Y-112250000D02*
X122271447Y-100500000D01*
X115971447Y-141500000D02*
X115971447Y-136250000D01*
X141371447Y-83352376D02*
X149746447Y-83352376D01*
D11*
X103846447Y-68800000D02*
X103846447Y-95700000D01*
D12*
X116921447Y-140475000D02*
X108696447Y-140475000D01*
X175071447Y-71427376D02*
X173721447Y-71427376D01*
X173721447Y-85252376D02*
X180496447Y-92027376D01*
X113896447Y-133975000D02*
X102396447Y-133975000D01*
D11*
X188046447Y-68777376D02*
X188046447Y-95677376D01*
D12*
X129646447Y-107975000D02*
X111671447Y-107975000D01*
X166646447Y-79802376D02*
X158271447Y-71427376D01*
X140021447Y-71427376D02*
X140021447Y-73327376D01*
X123221447Y-81102376D02*
X123221447Y-73327376D01*
X126421447Y-133975000D02*
X121146447Y-133975000D01*
X122271447Y-135000000D02*
X122271447Y-129775000D01*
D11*
X186096447Y-68777376D02*
X171046447Y-68777376D01*
D12*
X123221447Y-85252376D02*
X129996447Y-92027376D01*
X156921447Y-93027376D02*
X164696447Y-93027376D01*
X106521447Y-83375000D02*
X106521447Y-85275000D01*
X123296447Y-101475000D02*
X114896447Y-101475000D01*
X106521447Y-71450000D02*
X106521447Y-73350000D01*
D11*
X103846447Y-95710000D02*
X118856447Y-95710000D01*
D12*
X128571447Y-112250000D02*
X128571447Y-107000000D01*
D11*
X171046447Y-95687376D02*
X186056447Y-95687376D01*
D12*
X129946447Y-91977376D02*
X130996447Y-93027376D01*
X181496447Y-81102376D02*
X183446447Y-81102376D01*
X200446447Y-91727376D02*
X200446447Y-83352376D01*
X156921447Y-85252376D02*
X156921447Y-93027376D01*
D11*
X169256447Y-95687376D02*
X169296447Y-95647376D01*
D12*
X123221447Y-93027376D02*
X130996447Y-93027376D01*
D11*
X118896447Y-68800000D02*
X103846447Y-68800000D01*
D12*
X112821447Y-121975000D02*
X112821447Y-103500000D01*
X124571447Y-83352376D02*
X132946447Y-83352376D01*
X147796447Y-81102376D02*
X149746447Y-81102376D01*
X183446447Y-79802376D02*
X175071447Y-71427376D01*
D11*
X169296447Y-95647376D02*
X169296447Y-68777376D01*
D12*
X110646447Y-127475000D02*
X102396447Y-127475000D01*
X129671447Y-124225000D02*
X124396447Y-124225000D01*
X183446447Y-79802376D02*
X183446447Y-71427376D01*
X190721447Y-73327376D02*
X197496447Y-80102376D01*
X106521447Y-138250000D02*
X106521447Y-116750000D01*
X107871447Y-83375000D02*
X116246447Y-83375000D01*
D11*
X154246447Y-68777376D02*
X154246447Y-95677376D01*
D12*
X166646447Y-93027376D02*
X166646447Y-91727376D01*
X116246447Y-93050000D02*
X116246447Y-91750000D01*
X190721447Y-71427376D02*
X190721447Y-73327376D01*
X140021447Y-85252376D02*
X140021447Y-93027376D01*
X156921447Y-71427376D02*
X156921447Y-73327376D01*
X147796447Y-81102376D02*
X140021447Y-81102376D01*
X109671447Y-141500000D02*
X109671447Y-110250000D01*
X181496447Y-93027376D02*
X183446447Y-93027376D01*
X106521447Y-93050000D02*
X114296447Y-93050000D01*
X200446447Y-93027376D02*
X200446447Y-91727376D01*
X163646447Y-80052376D02*
X164696447Y-81102376D01*
D11*
X118856447Y-95710000D02*
X118896447Y-95670000D01*
D12*
X158271447Y-71427376D02*
X156921447Y-71427376D01*
X132946447Y-79802376D02*
X132946447Y-71427376D01*
X200446447Y-81102376D02*
X200446447Y-79802376D01*
X114296447Y-81125000D02*
X106521447Y-81125000D01*
X116246447Y-71450000D02*
X107871447Y-71450000D01*
X116246447Y-91750000D02*
X107871447Y-83375000D01*
X180446447Y-91977376D02*
X181496447Y-93027376D01*
D11*
X203056447Y-95687376D02*
X203096447Y-95647376D01*
D12*
X200446447Y-79802376D02*
X192071447Y-71427376D01*
X163646447Y-91977376D02*
X164696447Y-93027376D01*
X112821447Y-141500000D02*
X112821447Y-133000000D01*
X198496447Y-81102376D02*
X190721447Y-81102376D01*
X114296447Y-81125000D02*
X116246447Y-81125000D01*
X116246447Y-81125000D02*
X116246447Y-79825000D01*
X164696447Y-81102376D02*
X166646447Y-81102376D01*
X183446447Y-71427376D02*
X175071447Y-71427376D01*
X146746447Y-80052376D02*
X147796447Y-81102376D01*
X132946447Y-91727376D02*
X124571447Y-83352376D01*
X141371447Y-83352376D02*
X140021447Y-83352376D01*
X173721447Y-81102376D02*
X173721447Y-73327376D01*
X129646447Y-117725000D02*
X105396447Y-117725000D01*
D11*
X135556447Y-95687376D02*
X135596447Y-95647376D01*
D12*
X129646447Y-127475000D02*
X124421447Y-127475000D01*
D11*
X137346447Y-95687376D02*
X152356447Y-95687376D01*
D12*
X164696447Y-93027376D02*
X166646447Y-93027376D01*
X129621447Y-130725000D02*
X121146447Y-130725000D01*
D11*
X188046447Y-95687376D02*
X203056447Y-95687376D01*
D12*
X132946447Y-71427376D02*
X124571447Y-71427376D01*
X132946447Y-79802376D02*
X124571447Y-71427376D01*
X173721447Y-85252376D02*
X173721447Y-93027376D01*
X114296447Y-93050000D02*
X116246447Y-93050000D01*
X141371447Y-71427376D02*
X140021447Y-71427376D01*
X190721447Y-81102376D02*
X190721447Y-73327376D01*
D11*
X152396447Y-68777376D02*
X137346447Y-68777376D01*
D12*
X129946447Y-80052376D02*
X130996447Y-81102376D01*
X197446447Y-80052376D02*
X198496447Y-81102376D01*
X130996447Y-81102376D02*
X123221447Y-81102376D01*
X198496447Y-93027376D02*
X200446447Y-93027376D01*
X140021447Y-93027376D02*
X147796447Y-93027376D01*
X156921447Y-73327376D02*
X163696447Y-80102376D01*
D11*
X137346447Y-68777376D02*
X137346447Y-95677376D01*
D12*
X106521447Y-85275000D02*
X113296447Y-92050000D01*
X197446447Y-91977376D02*
X198496447Y-93027376D01*
X146746447Y-91977376D02*
X147796447Y-93027376D01*
X166646447Y-81102376D02*
X166646447Y-79802376D01*
X183446447Y-91727376D02*
X175071447Y-83352376D01*
X175071447Y-83352376D02*
X183446447Y-83352376D01*
X166646447Y-91727376D02*
X166646447Y-83352376D01*
X106521447Y-73350000D02*
X113296447Y-80125000D01*
D11*
X118896447Y-95670000D02*
X118896447Y-68800000D01*
D12*
X192071447Y-71427376D02*
X190721447Y-71427376D01*
X113896447Y-120975000D02*
X102396447Y-120975000D01*
X140021447Y-85252376D02*
X146796447Y-92027376D01*
X126396447Y-104725000D02*
X111646447Y-104725000D01*
X200446447Y-71427376D02*
X192071447Y-71427376D01*
X130996447Y-93027376D02*
X132946447Y-93027376D01*
X164696447Y-81102376D02*
X156921447Y-81102376D01*
X158271447Y-83352376D02*
X156921447Y-83352376D01*
X166646447Y-91727376D02*
X158271447Y-83352376D01*
X107871447Y-71450000D02*
X106521447Y-71450000D01*
X125421447Y-112250000D02*
X125421447Y-103750000D01*
X106521447Y-85275000D02*
X106521447Y-93050000D01*
X183446447Y-93027376D02*
X183446447Y-91727376D01*
X149746447Y-79802376D02*
X149746447Y-71427376D01*
X156921447Y-83352376D02*
X156921447Y-85252376D01*
X180446447Y-80052376D02*
X181496447Y-81102376D01*
X149746447Y-79802376D02*
X141371447Y-71427376D01*
X116246447Y-91750000D02*
X116246447Y-83375000D01*
X166646447Y-71427376D02*
X158271447Y-71427376D01*
X123221447Y-83352376D02*
X123221447Y-85252376D01*
X198496447Y-81102376D02*
X200446447Y-81102376D01*
X190721447Y-85252376D02*
X197496447Y-92027376D01*
X132946447Y-91727376D02*
X132946447Y-83352376D01*
X158271447Y-83352376D02*
X166646447Y-83352376D01*
X113246447Y-80075000D02*
X114296447Y-81125000D01*
X173721447Y-73327376D02*
X180496447Y-80102376D01*
X116921447Y-137225000D02*
X105421447Y-137225000D01*
D11*
X135596447Y-68777376D02*
X120546447Y-68777376D01*
D12*
X119121447Y-118750000D02*
X119121447Y-100500000D01*
X149746447Y-91727376D02*
X141371447Y-83352376D01*
X115971447Y-118750000D02*
X115971447Y-100500000D01*
X107871447Y-83375000D02*
X106521447Y-83375000D01*
G04 #@! TD*
M02*
