%TF.GenerationSoftware,KiCad,Pcbnew,9.0.0*%
%TF.CreationDate,2025-03-19T00:16:02+01:00*%
%TF.ProjectId,dc2025_badge_cover,64633230-3235-45f6-9261-6467655f636f,rev?*%
%TF.SameCoordinates,Original*%
%TF.FileFunction,Drillmap*%
%TF.FilePolarity,Positive*%
%FSLAX45Y45*%
G04 Gerber Fmt 4.5, Leading zero omitted, Abs format (unit mm)*
G04 Created by KiCad (PCBNEW 9.0.0) date 2025-03-19 00:16:02*
%MOMM*%
%LPD*%
G01*
G04 APERTURE LIST*
%ADD10C,0.100000*%
%ADD11C,0.200000*%
%ADD12C,0.320000*%
G04 APERTURE END LIST*
D10*
X12114709Y-14347468D02*
G75*
G02*
X12164645Y-14299995I49941J-2532D01*
G01*
X20667261Y-6700069D02*
G75*
G02*
X20714640Y-6750000I-2621J-49931D01*
G01*
X15714645Y-12550000D02*
G75*
G02*
X15664645Y-12600005I-50005J0D01*
G01*
X11962112Y-6199936D02*
G75*
G02*
X11914640Y-6150000I2528J49936D01*
G01*
X19814571Y-6047383D02*
X19814704Y-6652533D01*
X10614640Y-14750000D02*
X10614571Y-14347383D01*
X10164645Y-14300000D02*
G75*
G02*
X10114640Y-14250000I-5J50000D01*
G01*
X15914645Y-11950000D02*
X15914645Y-12050000D01*
X12114709Y-14347468D02*
X12114645Y-14750000D01*
X10964645Y-6000005D02*
X11864645Y-6000000D01*
X18414576Y-6352617D02*
G75*
G02*
X18367262Y-6399936I-49936J2617D01*
G01*
X10114645Y-11750000D02*
G75*
G02*
X10064645Y-11800005I-50005J0D01*
G01*
X15714645Y-12150000D02*
G75*
G02*
X15764645Y-12099995I50005J0D01*
G01*
X19814645Y-9750000D02*
X19814645Y-11650000D01*
X15714645Y-12150000D02*
X15714645Y-12550000D01*
X11864645Y-6000000D02*
G75*
G02*
X11914640Y-6050000I-5J-50000D01*
G01*
X20714576Y-9452617D02*
G75*
G02*
X20664645Y-9500005I-49936J2617D01*
G01*
X9614640Y-13750000D02*
X9614645Y-11850000D01*
X19814645Y-9750000D02*
G75*
G02*
X19862112Y-9700069I49995J0D01*
G01*
X15864645Y-12100005D02*
X15764645Y-12100000D01*
X18814645Y-6150000D02*
G75*
G02*
X18767262Y-6199936I-50005J0D01*
G01*
X19614645Y-11750000D02*
X19614645Y-11850000D01*
X19764645Y-6000000D02*
G75*
G02*
X19814572Y-6047383I-5J-50000D01*
G01*
X20464645Y-9700005D02*
X19862112Y-9700069D01*
X10162112Y-11300069D02*
X10564645Y-11300005D01*
X12314640Y-6250000D02*
X12314704Y-6352533D01*
X12364645Y-6400000D02*
G75*
G02*
X12314704Y-6352533I-5J50000D01*
G01*
X10114640Y-9750000D02*
X10114645Y-6750000D01*
X15914645Y-12050000D02*
G75*
G02*
X15864645Y-12100005I-50005J0D01*
G01*
X19764645Y-11700005D02*
X19664645Y-11700000D01*
X11962112Y-6199936D02*
X12264645Y-6200000D01*
X19814645Y-11650000D02*
G75*
G02*
X19764645Y-11700005I-50005J0D01*
G01*
X18414576Y-6352617D02*
X18414645Y-6250000D01*
X19614645Y-11850000D02*
G75*
G02*
X19564645Y-11900005I-50005J0D01*
G01*
X10114645Y-6750000D02*
G75*
G02*
X10162112Y-6700069I49995J0D01*
G01*
X10614576Y-11252617D02*
X10614645Y-9850000D01*
X13114645Y-13850000D02*
G75*
G02*
X13057073Y-13900582I-51235J260D01*
G01*
X10914645Y-6650000D02*
G75*
G02*
X10864645Y-6700005I-50005J0D01*
G01*
X9664645Y-11800005D02*
X10064645Y-11800005D01*
X20664645Y-9500005D02*
X20564645Y-9500000D01*
X13114709Y-12647468D02*
G75*
G02*
X13164645Y-12600005I49931J-2532D01*
G01*
X13114709Y-12647468D02*
X13114645Y-13850000D01*
X13014645Y-14250000D02*
G75*
G02*
X12967261Y-14299936I-50005J0D01*
G01*
X12364645Y-6400000D02*
X18367262Y-6399936D01*
X15914645Y-11950000D02*
G75*
G02*
X15964645Y-11899995I50005J0D01*
G01*
X18814645Y-6150000D02*
X18814645Y-6050000D01*
X10567261Y-14300069D02*
X10164645Y-14300000D01*
X19864645Y-6700000D02*
X20667261Y-6700069D01*
X18464645Y-6200005D02*
X18767262Y-6199936D01*
X10664645Y-14800000D02*
G75*
G02*
X10614640Y-14750000I-5J50000D01*
G01*
X10164645Y-9800000D02*
G75*
G02*
X10114640Y-9750000I-5J50000D01*
G01*
X20514645Y-9550000D02*
G75*
G02*
X20564645Y-9499995I50005J0D01*
G01*
X10614576Y-11252617D02*
G75*
G02*
X10564645Y-11300005I-49936J2617D01*
G01*
X10067261Y-13800069D02*
G75*
G02*
X10114572Y-13847383I-2621J-49931D01*
G01*
X20514645Y-9650000D02*
G75*
G02*
X20464645Y-9700005I-50005J0D01*
G01*
X19564645Y-11900005D02*
X15964645Y-11900000D01*
X11914640Y-6050000D02*
X11914640Y-6150000D01*
X10567261Y-14300069D02*
G75*
G02*
X10614572Y-14347383I-2621J-49931D01*
G01*
X15664645Y-12600005D02*
X13164645Y-12600000D01*
X10114709Y-11347468D02*
G75*
G02*
X10162112Y-11300069I49931J-2532D01*
G01*
X18814645Y-6050000D02*
G75*
G02*
X18864645Y-6000005I49995J0D01*
G01*
X10567261Y-9800069D02*
X10164645Y-9800000D01*
X12967261Y-14299936D02*
X12164645Y-14300000D01*
X12264645Y-6200000D02*
G75*
G02*
X12314640Y-6250000I-5J-50000D01*
G01*
X10114640Y-14250000D02*
X10114571Y-13847383D01*
X10114645Y-11750000D02*
X10114709Y-11347468D01*
X20514645Y-9550000D02*
X20514645Y-9650000D01*
X18414645Y-6250000D02*
G75*
G02*
X18464645Y-6200005I49995J0D01*
G01*
X18864645Y-6000005D02*
X19764645Y-6000000D01*
X12114645Y-14750000D02*
G75*
G02*
X12064645Y-14800005I-50005J0D01*
G01*
X9664645Y-13800000D02*
G75*
G02*
X9614640Y-13750000I-5J50000D01*
G01*
X20714640Y-6750000D02*
X20714576Y-9452617D01*
X19614645Y-11750000D02*
G75*
G02*
X19664645Y-11699995I50005J0D01*
G01*
X12064645Y-14800005D02*
X10664645Y-14800000D01*
X10567261Y-9800069D02*
G75*
G02*
X10614640Y-9850000I-2621J-49931D01*
G01*
X19864645Y-6700000D02*
G75*
G02*
X19814704Y-6652533I-5J50000D01*
G01*
X13014645Y-13950000D02*
X13014645Y-14250000D01*
X10914645Y-6650000D02*
X10914709Y-6047468D01*
X9614645Y-11850000D02*
G75*
G02*
X9664645Y-11800005I49995J0D01*
G01*
X10162112Y-6700069D02*
X10864645Y-6700005D01*
X10067261Y-13800069D02*
X9664645Y-13800000D01*
X10914709Y-6047468D02*
G75*
G02*
X10964645Y-6000005I49931J-2532D01*
G01*
X13014645Y-13950000D02*
G75*
G02*
X13057073Y-13900581I49995J0D01*
G01*
D11*
D12*
X11254645Y-6240000D02*
X11574645Y-6560000D01*
X11574645Y-6240000D02*
X11254645Y-6560000D01*
X11554645Y-14340000D02*
X11874645Y-14660000D01*
X11874645Y-14340000D02*
X11554645Y-14660000D01*
X18454645Y-11210000D02*
X18774645Y-11530000D01*
X18774645Y-11210000D02*
X18454645Y-11530000D01*
X19154645Y-6240000D02*
X19474645Y-6560000D01*
X19474645Y-6240000D02*
X19154645Y-6560000D01*
D11*
X9870417Y-15116488D02*
X9870417Y-14916488D01*
X9870417Y-14916488D02*
X9918036Y-14916488D01*
X9918036Y-14916488D02*
X9946607Y-14926012D01*
X9946607Y-14926012D02*
X9965655Y-14945060D01*
X9965655Y-14945060D02*
X9975179Y-14964107D01*
X9975179Y-14964107D02*
X9984703Y-15002203D01*
X9984703Y-15002203D02*
X9984703Y-15030774D01*
X9984703Y-15030774D02*
X9975179Y-15068869D01*
X9975179Y-15068869D02*
X9965655Y-15087917D01*
X9965655Y-15087917D02*
X9946607Y-15106965D01*
X9946607Y-15106965D02*
X9918036Y-15116488D01*
X9918036Y-15116488D02*
X9870417Y-15116488D01*
X10070417Y-15116488D02*
X10070417Y-14983155D01*
X10070417Y-15021250D02*
X10079941Y-15002203D01*
X10079941Y-15002203D02*
X10089464Y-14992679D01*
X10089464Y-14992679D02*
X10108512Y-14983155D01*
X10108512Y-14983155D02*
X10127560Y-14983155D01*
X10194226Y-15116488D02*
X10194226Y-14983155D01*
X10194226Y-14916488D02*
X10184703Y-14926012D01*
X10184703Y-14926012D02*
X10194226Y-14935536D01*
X10194226Y-14935536D02*
X10203750Y-14926012D01*
X10203750Y-14926012D02*
X10194226Y-14916488D01*
X10194226Y-14916488D02*
X10194226Y-14935536D01*
X10318036Y-15116488D02*
X10298988Y-15106965D01*
X10298988Y-15106965D02*
X10289464Y-15087917D01*
X10289464Y-15087917D02*
X10289464Y-14916488D01*
X10422798Y-15116488D02*
X10403750Y-15106965D01*
X10403750Y-15106965D02*
X10394226Y-15087917D01*
X10394226Y-15087917D02*
X10394226Y-14916488D01*
X10651369Y-15116488D02*
X10651369Y-14916488D01*
X10651369Y-14916488D02*
X10718036Y-15059345D01*
X10718036Y-15059345D02*
X10784703Y-14916488D01*
X10784703Y-14916488D02*
X10784703Y-15116488D01*
X10965655Y-15116488D02*
X10965655Y-15011726D01*
X10965655Y-15011726D02*
X10956131Y-14992679D01*
X10956131Y-14992679D02*
X10937084Y-14983155D01*
X10937084Y-14983155D02*
X10898988Y-14983155D01*
X10898988Y-14983155D02*
X10879941Y-14992679D01*
X10965655Y-15106965D02*
X10946607Y-15116488D01*
X10946607Y-15116488D02*
X10898988Y-15116488D01*
X10898988Y-15116488D02*
X10879941Y-15106965D01*
X10879941Y-15106965D02*
X10870417Y-15087917D01*
X10870417Y-15087917D02*
X10870417Y-15068869D01*
X10870417Y-15068869D02*
X10879941Y-15049822D01*
X10879941Y-15049822D02*
X10898988Y-15040298D01*
X10898988Y-15040298D02*
X10946607Y-15040298D01*
X10946607Y-15040298D02*
X10965655Y-15030774D01*
X11060893Y-14983155D02*
X11060893Y-15183155D01*
X11060893Y-14992679D02*
X11079941Y-14983155D01*
X11079941Y-14983155D02*
X11118036Y-14983155D01*
X11118036Y-14983155D02*
X11137084Y-14992679D01*
X11137084Y-14992679D02*
X11146607Y-15002203D01*
X11146607Y-15002203D02*
X11156131Y-15021250D01*
X11156131Y-15021250D02*
X11156131Y-15078393D01*
X11156131Y-15078393D02*
X11146607Y-15097441D01*
X11146607Y-15097441D02*
X11137084Y-15106965D01*
X11137084Y-15106965D02*
X11118036Y-15116488D01*
X11118036Y-15116488D02*
X11079941Y-15116488D01*
X11079941Y-15116488D02*
X11060893Y-15106965D01*
X11241845Y-15097441D02*
X11251369Y-15106965D01*
X11251369Y-15106965D02*
X11241845Y-15116488D01*
X11241845Y-15116488D02*
X11232322Y-15106965D01*
X11232322Y-15106965D02*
X11241845Y-15097441D01*
X11241845Y-15097441D02*
X11241845Y-15116488D01*
X11241845Y-14992679D02*
X11251369Y-15002203D01*
X11251369Y-15002203D02*
X11241845Y-15011726D01*
X11241845Y-15011726D02*
X11232322Y-15002203D01*
X11232322Y-15002203D02*
X11241845Y-14992679D01*
X11241845Y-14992679D02*
X11241845Y-15011726D01*
X9409640Y-15345005D02*
X9609640Y-15545005D01*
X9609640Y-15345005D02*
X9409640Y-15545005D01*
X9851369Y-15336488D02*
X9975179Y-15336488D01*
X9975179Y-15336488D02*
X9908512Y-15412679D01*
X9908512Y-15412679D02*
X9937084Y-15412679D01*
X9937084Y-15412679D02*
X9956131Y-15422203D01*
X9956131Y-15422203D02*
X9965655Y-15431726D01*
X9965655Y-15431726D02*
X9975179Y-15450774D01*
X9975179Y-15450774D02*
X9975179Y-15498393D01*
X9975179Y-15498393D02*
X9965655Y-15517441D01*
X9965655Y-15517441D02*
X9956131Y-15526965D01*
X9956131Y-15526965D02*
X9937084Y-15536488D01*
X9937084Y-15536488D02*
X9879941Y-15536488D01*
X9879941Y-15536488D02*
X9860893Y-15526965D01*
X9860893Y-15526965D02*
X9851369Y-15517441D01*
X10060893Y-15517441D02*
X10070417Y-15526965D01*
X10070417Y-15526965D02*
X10060893Y-15536488D01*
X10060893Y-15536488D02*
X10051369Y-15526965D01*
X10051369Y-15526965D02*
X10060893Y-15517441D01*
X10060893Y-15517441D02*
X10060893Y-15536488D01*
X10146607Y-15355536D02*
X10156131Y-15346012D01*
X10156131Y-15346012D02*
X10175179Y-15336488D01*
X10175179Y-15336488D02*
X10222798Y-15336488D01*
X10222798Y-15336488D02*
X10241845Y-15346012D01*
X10241845Y-15346012D02*
X10251369Y-15355536D01*
X10251369Y-15355536D02*
X10260893Y-15374584D01*
X10260893Y-15374584D02*
X10260893Y-15393631D01*
X10260893Y-15393631D02*
X10251369Y-15422203D01*
X10251369Y-15422203D02*
X10137084Y-15536488D01*
X10137084Y-15536488D02*
X10260893Y-15536488D01*
X10384703Y-15336488D02*
X10403750Y-15336488D01*
X10403750Y-15336488D02*
X10422798Y-15346012D01*
X10422798Y-15346012D02*
X10432322Y-15355536D01*
X10432322Y-15355536D02*
X10441845Y-15374584D01*
X10441845Y-15374584D02*
X10451369Y-15412679D01*
X10451369Y-15412679D02*
X10451369Y-15460298D01*
X10451369Y-15460298D02*
X10441845Y-15498393D01*
X10441845Y-15498393D02*
X10432322Y-15517441D01*
X10432322Y-15517441D02*
X10422798Y-15526965D01*
X10422798Y-15526965D02*
X10403750Y-15536488D01*
X10403750Y-15536488D02*
X10384703Y-15536488D01*
X10384703Y-15536488D02*
X10365655Y-15526965D01*
X10365655Y-15526965D02*
X10356131Y-15517441D01*
X10356131Y-15517441D02*
X10346607Y-15498393D01*
X10346607Y-15498393D02*
X10337084Y-15460298D01*
X10337084Y-15460298D02*
X10337084Y-15412679D01*
X10337084Y-15412679D02*
X10346607Y-15374584D01*
X10346607Y-15374584D02*
X10356131Y-15355536D01*
X10356131Y-15355536D02*
X10365655Y-15346012D01*
X10365655Y-15346012D02*
X10384703Y-15336488D01*
X10575179Y-15336488D02*
X10594226Y-15336488D01*
X10594226Y-15336488D02*
X10613274Y-15346012D01*
X10613274Y-15346012D02*
X10622798Y-15355536D01*
X10622798Y-15355536D02*
X10632322Y-15374584D01*
X10632322Y-15374584D02*
X10641845Y-15412679D01*
X10641845Y-15412679D02*
X10641845Y-15460298D01*
X10641845Y-15460298D02*
X10632322Y-15498393D01*
X10632322Y-15498393D02*
X10622798Y-15517441D01*
X10622798Y-15517441D02*
X10613274Y-15526965D01*
X10613274Y-15526965D02*
X10594226Y-15536488D01*
X10594226Y-15536488D02*
X10575179Y-15536488D01*
X10575179Y-15536488D02*
X10556131Y-15526965D01*
X10556131Y-15526965D02*
X10546607Y-15517441D01*
X10546607Y-15517441D02*
X10537084Y-15498393D01*
X10537084Y-15498393D02*
X10527560Y-15460298D01*
X10527560Y-15460298D02*
X10527560Y-15412679D01*
X10527560Y-15412679D02*
X10537084Y-15374584D01*
X10537084Y-15374584D02*
X10546607Y-15355536D01*
X10546607Y-15355536D02*
X10556131Y-15346012D01*
X10556131Y-15346012D02*
X10575179Y-15336488D01*
X10727560Y-15536488D02*
X10727560Y-15403155D01*
X10727560Y-15422203D02*
X10737084Y-15412679D01*
X10737084Y-15412679D02*
X10756131Y-15403155D01*
X10756131Y-15403155D02*
X10784703Y-15403155D01*
X10784703Y-15403155D02*
X10803750Y-15412679D01*
X10803750Y-15412679D02*
X10813274Y-15431726D01*
X10813274Y-15431726D02*
X10813274Y-15536488D01*
X10813274Y-15431726D02*
X10822798Y-15412679D01*
X10822798Y-15412679D02*
X10841845Y-15403155D01*
X10841845Y-15403155D02*
X10870417Y-15403155D01*
X10870417Y-15403155D02*
X10889465Y-15412679D01*
X10889465Y-15412679D02*
X10898988Y-15431726D01*
X10898988Y-15431726D02*
X10898988Y-15536488D01*
X10994226Y-15536488D02*
X10994226Y-15403155D01*
X10994226Y-15422203D02*
X11003750Y-15412679D01*
X11003750Y-15412679D02*
X11022798Y-15403155D01*
X11022798Y-15403155D02*
X11051369Y-15403155D01*
X11051369Y-15403155D02*
X11070417Y-15412679D01*
X11070417Y-15412679D02*
X11079941Y-15431726D01*
X11079941Y-15431726D02*
X11079941Y-15536488D01*
X11079941Y-15431726D02*
X11089465Y-15412679D01*
X11089465Y-15412679D02*
X11108512Y-15403155D01*
X11108512Y-15403155D02*
X11137084Y-15403155D01*
X11137084Y-15403155D02*
X11156131Y-15412679D01*
X11156131Y-15412679D02*
X11165655Y-15431726D01*
X11165655Y-15431726D02*
X11165655Y-15536488D01*
X11556131Y-15326965D02*
X11384703Y-15584107D01*
X11813274Y-15336488D02*
X11832322Y-15336488D01*
X11832322Y-15336488D02*
X11851369Y-15346012D01*
X11851369Y-15346012D02*
X11860893Y-15355536D01*
X11860893Y-15355536D02*
X11870417Y-15374584D01*
X11870417Y-15374584D02*
X11879941Y-15412679D01*
X11879941Y-15412679D02*
X11879941Y-15460298D01*
X11879941Y-15460298D02*
X11870417Y-15498393D01*
X11870417Y-15498393D02*
X11860893Y-15517441D01*
X11860893Y-15517441D02*
X11851369Y-15526965D01*
X11851369Y-15526965D02*
X11832322Y-15536488D01*
X11832322Y-15536488D02*
X11813274Y-15536488D01*
X11813274Y-15536488D02*
X11794226Y-15526965D01*
X11794226Y-15526965D02*
X11784703Y-15517441D01*
X11784703Y-15517441D02*
X11775179Y-15498393D01*
X11775179Y-15498393D02*
X11765655Y-15460298D01*
X11765655Y-15460298D02*
X11765655Y-15412679D01*
X11765655Y-15412679D02*
X11775179Y-15374584D01*
X11775179Y-15374584D02*
X11784703Y-15355536D01*
X11784703Y-15355536D02*
X11794226Y-15346012D01*
X11794226Y-15346012D02*
X11813274Y-15336488D01*
X11965655Y-15517441D02*
X11975179Y-15526965D01*
X11975179Y-15526965D02*
X11965655Y-15536488D01*
X11965655Y-15536488D02*
X11956131Y-15526965D01*
X11956131Y-15526965D02*
X11965655Y-15517441D01*
X11965655Y-15517441D02*
X11965655Y-15536488D01*
X12165655Y-15536488D02*
X12051369Y-15536488D01*
X12108512Y-15536488D02*
X12108512Y-15336488D01*
X12108512Y-15336488D02*
X12089465Y-15365060D01*
X12089465Y-15365060D02*
X12070417Y-15384107D01*
X12070417Y-15384107D02*
X12051369Y-15393631D01*
X12241846Y-15355536D02*
X12251369Y-15346012D01*
X12251369Y-15346012D02*
X12270417Y-15336488D01*
X12270417Y-15336488D02*
X12318036Y-15336488D01*
X12318036Y-15336488D02*
X12337084Y-15346012D01*
X12337084Y-15346012D02*
X12346607Y-15355536D01*
X12346607Y-15355536D02*
X12356131Y-15374584D01*
X12356131Y-15374584D02*
X12356131Y-15393631D01*
X12356131Y-15393631D02*
X12346607Y-15422203D01*
X12346607Y-15422203D02*
X12232322Y-15536488D01*
X12232322Y-15536488D02*
X12356131Y-15536488D01*
X12527560Y-15336488D02*
X12489465Y-15336488D01*
X12489465Y-15336488D02*
X12470417Y-15346012D01*
X12470417Y-15346012D02*
X12460893Y-15355536D01*
X12460893Y-15355536D02*
X12441846Y-15384107D01*
X12441846Y-15384107D02*
X12432322Y-15422203D01*
X12432322Y-15422203D02*
X12432322Y-15498393D01*
X12432322Y-15498393D02*
X12441846Y-15517441D01*
X12441846Y-15517441D02*
X12451369Y-15526965D01*
X12451369Y-15526965D02*
X12470417Y-15536488D01*
X12470417Y-15536488D02*
X12508512Y-15536488D01*
X12508512Y-15536488D02*
X12527560Y-15526965D01*
X12527560Y-15526965D02*
X12537084Y-15517441D01*
X12537084Y-15517441D02*
X12546607Y-15498393D01*
X12546607Y-15498393D02*
X12546607Y-15450774D01*
X12546607Y-15450774D02*
X12537084Y-15431726D01*
X12537084Y-15431726D02*
X12527560Y-15422203D01*
X12527560Y-15422203D02*
X12508512Y-15412679D01*
X12508512Y-15412679D02*
X12470417Y-15412679D01*
X12470417Y-15412679D02*
X12451369Y-15422203D01*
X12451369Y-15422203D02*
X12441846Y-15431726D01*
X12441846Y-15431726D02*
X12432322Y-15450774D01*
X12670417Y-15336488D02*
X12689465Y-15336488D01*
X12689465Y-15336488D02*
X12708512Y-15346012D01*
X12708512Y-15346012D02*
X12718036Y-15355536D01*
X12718036Y-15355536D02*
X12727560Y-15374584D01*
X12727560Y-15374584D02*
X12737084Y-15412679D01*
X12737084Y-15412679D02*
X12737084Y-15460298D01*
X12737084Y-15460298D02*
X12727560Y-15498393D01*
X12727560Y-15498393D02*
X12718036Y-15517441D01*
X12718036Y-15517441D02*
X12708512Y-15526965D01*
X12708512Y-15526965D02*
X12689465Y-15536488D01*
X12689465Y-15536488D02*
X12670417Y-15536488D01*
X12670417Y-15536488D02*
X12651369Y-15526965D01*
X12651369Y-15526965D02*
X12641846Y-15517441D01*
X12641846Y-15517441D02*
X12632322Y-15498393D01*
X12632322Y-15498393D02*
X12622798Y-15460298D01*
X12622798Y-15460298D02*
X12622798Y-15412679D01*
X12622798Y-15412679D02*
X12632322Y-15374584D01*
X12632322Y-15374584D02*
X12641846Y-15355536D01*
X12641846Y-15355536D02*
X12651369Y-15346012D01*
X12651369Y-15346012D02*
X12670417Y-15336488D01*
X12813274Y-15336488D02*
X12813274Y-15374584D01*
X12889465Y-15336488D02*
X12889465Y-15374584D01*
X13184703Y-15612679D02*
X13175179Y-15603155D01*
X13175179Y-15603155D02*
X13156131Y-15574584D01*
X13156131Y-15574584D02*
X13146608Y-15555536D01*
X13146608Y-15555536D02*
X13137084Y-15526965D01*
X13137084Y-15526965D02*
X13127560Y-15479345D01*
X13127560Y-15479345D02*
X13127560Y-15441250D01*
X13127560Y-15441250D02*
X13137084Y-15393631D01*
X13137084Y-15393631D02*
X13146608Y-15365060D01*
X13146608Y-15365060D02*
X13156131Y-15346012D01*
X13156131Y-15346012D02*
X13175179Y-15317441D01*
X13175179Y-15317441D02*
X13184703Y-15307917D01*
X13346608Y-15403155D02*
X13346608Y-15536488D01*
X13298988Y-15326965D02*
X13251369Y-15469822D01*
X13251369Y-15469822D02*
X13375179Y-15469822D01*
X13603750Y-15536488D02*
X13603750Y-15336488D01*
X13689465Y-15536488D02*
X13689465Y-15431726D01*
X13689465Y-15431726D02*
X13679941Y-15412679D01*
X13679941Y-15412679D02*
X13660893Y-15403155D01*
X13660893Y-15403155D02*
X13632322Y-15403155D01*
X13632322Y-15403155D02*
X13613274Y-15412679D01*
X13613274Y-15412679D02*
X13603750Y-15422203D01*
X13813274Y-15536488D02*
X13794227Y-15526965D01*
X13794227Y-15526965D02*
X13784703Y-15517441D01*
X13784703Y-15517441D02*
X13775179Y-15498393D01*
X13775179Y-15498393D02*
X13775179Y-15441250D01*
X13775179Y-15441250D02*
X13784703Y-15422203D01*
X13784703Y-15422203D02*
X13794227Y-15412679D01*
X13794227Y-15412679D02*
X13813274Y-15403155D01*
X13813274Y-15403155D02*
X13841846Y-15403155D01*
X13841846Y-15403155D02*
X13860893Y-15412679D01*
X13860893Y-15412679D02*
X13870417Y-15422203D01*
X13870417Y-15422203D02*
X13879941Y-15441250D01*
X13879941Y-15441250D02*
X13879941Y-15498393D01*
X13879941Y-15498393D02*
X13870417Y-15517441D01*
X13870417Y-15517441D02*
X13860893Y-15526965D01*
X13860893Y-15526965D02*
X13841846Y-15536488D01*
X13841846Y-15536488D02*
X13813274Y-15536488D01*
X13994227Y-15536488D02*
X13975179Y-15526965D01*
X13975179Y-15526965D02*
X13965655Y-15507917D01*
X13965655Y-15507917D02*
X13965655Y-15336488D01*
X14146608Y-15526965D02*
X14127560Y-15536488D01*
X14127560Y-15536488D02*
X14089465Y-15536488D01*
X14089465Y-15536488D02*
X14070417Y-15526965D01*
X14070417Y-15526965D02*
X14060893Y-15507917D01*
X14060893Y-15507917D02*
X14060893Y-15431726D01*
X14060893Y-15431726D02*
X14070417Y-15412679D01*
X14070417Y-15412679D02*
X14089465Y-15403155D01*
X14089465Y-15403155D02*
X14127560Y-15403155D01*
X14127560Y-15403155D02*
X14146608Y-15412679D01*
X14146608Y-15412679D02*
X14156131Y-15431726D01*
X14156131Y-15431726D02*
X14156131Y-15450774D01*
X14156131Y-15450774D02*
X14060893Y-15469822D01*
X14232322Y-15526965D02*
X14251370Y-15536488D01*
X14251370Y-15536488D02*
X14289465Y-15536488D01*
X14289465Y-15536488D02*
X14308512Y-15526965D01*
X14308512Y-15526965D02*
X14318036Y-15507917D01*
X14318036Y-15507917D02*
X14318036Y-15498393D01*
X14318036Y-15498393D02*
X14308512Y-15479345D01*
X14308512Y-15479345D02*
X14289465Y-15469822D01*
X14289465Y-15469822D02*
X14260893Y-15469822D01*
X14260893Y-15469822D02*
X14241846Y-15460298D01*
X14241846Y-15460298D02*
X14232322Y-15441250D01*
X14232322Y-15441250D02*
X14232322Y-15431726D01*
X14232322Y-15431726D02*
X14241846Y-15412679D01*
X14241846Y-15412679D02*
X14260893Y-15403155D01*
X14260893Y-15403155D02*
X14289465Y-15403155D01*
X14289465Y-15403155D02*
X14308512Y-15412679D01*
X14384703Y-15612679D02*
X14394227Y-15603155D01*
X14394227Y-15603155D02*
X14413274Y-15574584D01*
X14413274Y-15574584D02*
X14422798Y-15555536D01*
X14422798Y-15555536D02*
X14432322Y-15526965D01*
X14432322Y-15526965D02*
X14441846Y-15479345D01*
X14441846Y-15479345D02*
X14441846Y-15441250D01*
X14441846Y-15441250D02*
X14432322Y-15393631D01*
X14432322Y-15393631D02*
X14422798Y-15365060D01*
X14422798Y-15365060D02*
X14413274Y-15346012D01*
X14413274Y-15346012D02*
X14394227Y-15317441D01*
X14394227Y-15317441D02*
X14384703Y-15307917D01*
X14746608Y-15612679D02*
X14737084Y-15603155D01*
X14737084Y-15603155D02*
X14718036Y-15574584D01*
X14718036Y-15574584D02*
X14708512Y-15555536D01*
X14708512Y-15555536D02*
X14698989Y-15526965D01*
X14698989Y-15526965D02*
X14689465Y-15479345D01*
X14689465Y-15479345D02*
X14689465Y-15441250D01*
X14689465Y-15441250D02*
X14698989Y-15393631D01*
X14698989Y-15393631D02*
X14708512Y-15365060D01*
X14708512Y-15365060D02*
X14718036Y-15346012D01*
X14718036Y-15346012D02*
X14737084Y-15317441D01*
X14737084Y-15317441D02*
X14746608Y-15307917D01*
X14822798Y-15403155D02*
X14822798Y-15536488D01*
X14822798Y-15422203D02*
X14832322Y-15412679D01*
X14832322Y-15412679D02*
X14851370Y-15403155D01*
X14851370Y-15403155D02*
X14879941Y-15403155D01*
X14879941Y-15403155D02*
X14898989Y-15412679D01*
X14898989Y-15412679D02*
X14908512Y-15431726D01*
X14908512Y-15431726D02*
X14908512Y-15536488D01*
X15032322Y-15536488D02*
X15013274Y-15526965D01*
X15013274Y-15526965D02*
X15003751Y-15517441D01*
X15003751Y-15517441D02*
X14994227Y-15498393D01*
X14994227Y-15498393D02*
X14994227Y-15441250D01*
X14994227Y-15441250D02*
X15003751Y-15422203D01*
X15003751Y-15422203D02*
X15013274Y-15412679D01*
X15013274Y-15412679D02*
X15032322Y-15403155D01*
X15032322Y-15403155D02*
X15060893Y-15403155D01*
X15060893Y-15403155D02*
X15079941Y-15412679D01*
X15079941Y-15412679D02*
X15089465Y-15422203D01*
X15089465Y-15422203D02*
X15098989Y-15441250D01*
X15098989Y-15441250D02*
X15098989Y-15498393D01*
X15098989Y-15498393D02*
X15089465Y-15517441D01*
X15089465Y-15517441D02*
X15079941Y-15526965D01*
X15079941Y-15526965D02*
X15060893Y-15536488D01*
X15060893Y-15536488D02*
X15032322Y-15536488D01*
X15156132Y-15403155D02*
X15232322Y-15403155D01*
X15184703Y-15336488D02*
X15184703Y-15507917D01*
X15184703Y-15507917D02*
X15194227Y-15526965D01*
X15194227Y-15526965D02*
X15213274Y-15536488D01*
X15213274Y-15536488D02*
X15232322Y-15536488D01*
X15451370Y-15403155D02*
X15451370Y-15603155D01*
X15451370Y-15412679D02*
X15470417Y-15403155D01*
X15470417Y-15403155D02*
X15508513Y-15403155D01*
X15508513Y-15403155D02*
X15527560Y-15412679D01*
X15527560Y-15412679D02*
X15537084Y-15422203D01*
X15537084Y-15422203D02*
X15546608Y-15441250D01*
X15546608Y-15441250D02*
X15546608Y-15498393D01*
X15546608Y-15498393D02*
X15537084Y-15517441D01*
X15537084Y-15517441D02*
X15527560Y-15526965D01*
X15527560Y-15526965D02*
X15508513Y-15536488D01*
X15508513Y-15536488D02*
X15470417Y-15536488D01*
X15470417Y-15536488D02*
X15451370Y-15526965D01*
X15660893Y-15536488D02*
X15641846Y-15526965D01*
X15641846Y-15526965D02*
X15632322Y-15507917D01*
X15632322Y-15507917D02*
X15632322Y-15336488D01*
X15822798Y-15536488D02*
X15822798Y-15431726D01*
X15822798Y-15431726D02*
X15813274Y-15412679D01*
X15813274Y-15412679D02*
X15794227Y-15403155D01*
X15794227Y-15403155D02*
X15756132Y-15403155D01*
X15756132Y-15403155D02*
X15737084Y-15412679D01*
X15822798Y-15526965D02*
X15803751Y-15536488D01*
X15803751Y-15536488D02*
X15756132Y-15536488D01*
X15756132Y-15536488D02*
X15737084Y-15526965D01*
X15737084Y-15526965D02*
X15727560Y-15507917D01*
X15727560Y-15507917D02*
X15727560Y-15488869D01*
X15727560Y-15488869D02*
X15737084Y-15469822D01*
X15737084Y-15469822D02*
X15756132Y-15460298D01*
X15756132Y-15460298D02*
X15803751Y-15460298D01*
X15803751Y-15460298D02*
X15822798Y-15450774D01*
X15889465Y-15403155D02*
X15965655Y-15403155D01*
X15918036Y-15336488D02*
X15918036Y-15507917D01*
X15918036Y-15507917D02*
X15927560Y-15526965D01*
X15927560Y-15526965D02*
X15946608Y-15536488D01*
X15946608Y-15536488D02*
X15965655Y-15536488D01*
X16108513Y-15526965D02*
X16089465Y-15536488D01*
X16089465Y-15536488D02*
X16051370Y-15536488D01*
X16051370Y-15536488D02*
X16032322Y-15526965D01*
X16032322Y-15526965D02*
X16022798Y-15507917D01*
X16022798Y-15507917D02*
X16022798Y-15431726D01*
X16022798Y-15431726D02*
X16032322Y-15412679D01*
X16032322Y-15412679D02*
X16051370Y-15403155D01*
X16051370Y-15403155D02*
X16089465Y-15403155D01*
X16089465Y-15403155D02*
X16108513Y-15412679D01*
X16108513Y-15412679D02*
X16118036Y-15431726D01*
X16118036Y-15431726D02*
X16118036Y-15450774D01*
X16118036Y-15450774D02*
X16022798Y-15469822D01*
X16289465Y-15536488D02*
X16289465Y-15336488D01*
X16289465Y-15526965D02*
X16270417Y-15536488D01*
X16270417Y-15536488D02*
X16232322Y-15536488D01*
X16232322Y-15536488D02*
X16213274Y-15526965D01*
X16213274Y-15526965D02*
X16203751Y-15517441D01*
X16203751Y-15517441D02*
X16194227Y-15498393D01*
X16194227Y-15498393D02*
X16194227Y-15441250D01*
X16194227Y-15441250D02*
X16203751Y-15422203D01*
X16203751Y-15422203D02*
X16213274Y-15412679D01*
X16213274Y-15412679D02*
X16232322Y-15403155D01*
X16232322Y-15403155D02*
X16270417Y-15403155D01*
X16270417Y-15403155D02*
X16289465Y-15412679D01*
X16365655Y-15612679D02*
X16375179Y-15603155D01*
X16375179Y-15603155D02*
X16394227Y-15574584D01*
X16394227Y-15574584D02*
X16403751Y-15555536D01*
X16403751Y-15555536D02*
X16413274Y-15526965D01*
X16413274Y-15526965D02*
X16422798Y-15479345D01*
X16422798Y-15479345D02*
X16422798Y-15441250D01*
X16422798Y-15441250D02*
X16413274Y-15393631D01*
X16413274Y-15393631D02*
X16403751Y-15365060D01*
X16403751Y-15365060D02*
X16394227Y-15346012D01*
X16394227Y-15346012D02*
X16375179Y-15317441D01*
X16375179Y-15317441D02*
X16365655Y-15307917D01*
M02*
