G04 #@! TF.GenerationSoftware,KiCad,Pcbnew,9.0.0*
G04 #@! TF.CreationDate,2025-03-19T00:13:36+01:00*
G04 #@! TF.ProjectId,dc2025_badge-panel,64633230-3235-45f6-9261-6467652d7061,rev?*
G04 #@! TF.SameCoordinates,Original*
G04 #@! TF.FileFunction,Soldermask,Top*
G04 #@! TF.FilePolarity,Negative*
%FSLAX46Y46*%
G04 Gerber Fmt 4.6, Leading zero omitted, Abs format (unit mm)*
G04 Created by KiCad (PCBNEW 9.0.0) date 2025-03-19 00:13:36*
%MOMM*%
%LPD*%
G01*
G04 APERTURE LIST*
G04 Aperture macros list*
%AMRoundRect*
0 Rectangle with rounded corners*
0 $1 Rounding radius*
0 $2 $3 $4 $5 $6 $7 $8 $9 X,Y pos of 4 corners*
0 Add a 4 corners polygon primitive as box body*
4,1,4,$2,$3,$4,$5,$6,$7,$8,$9,$2,$3,0*
0 Add four circle primitives for the rounded corners*
1,1,$1+$1,$2,$3*
1,1,$1+$1,$4,$5*
1,1,$1+$1,$6,$7*
1,1,$1+$1,$8,$9*
0 Add four rect primitives between the rounded corners*
20,1,$1+$1,$2,$3,$4,$5,0*
20,1,$1+$1,$4,$5,$6,$7,0*
20,1,$1+$1,$6,$7,$8,$9,0*
20,1,$1+$1,$8,$9,$2,$3,0*%
G04 Aperture macros list end*
%ADD10RoundRect,0.135000X0.185000X-0.135000X0.185000X0.135000X-0.185000X0.135000X-0.185000X-0.135000X0*%
%ADD11RoundRect,0.135000X-0.226274X-0.035355X-0.035355X-0.226274X0.226274X0.035355X0.035355X0.226274X0*%
%ADD12RoundRect,0.218750X0.335876X0.026517X0.026517X0.335876X-0.335876X-0.026517X-0.026517X-0.335876X0*%
%ADD13RoundRect,0.140000X-0.140000X-0.170000X0.140000X-0.170000X0.140000X0.170000X-0.140000X0.170000X0*%
%ADD14RoundRect,0.218750X0.218750X0.256250X-0.218750X0.256250X-0.218750X-0.256250X0.218750X-0.256250X0*%
%ADD15RoundRect,0.218750X-0.218750X-0.256250X0.218750X-0.256250X0.218750X0.256250X-0.218750X0.256250X0*%
%ADD16RoundRect,0.135000X-0.185000X0.135000X-0.185000X-0.135000X0.185000X-0.135000X0.185000X0.135000X0*%
%ADD17RoundRect,0.050000X-0.362500X-0.050000X0.362500X-0.050000X0.362500X0.050000X-0.362500X0.050000X0*%
%ADD18RoundRect,0.050000X-0.050000X-0.362500X0.050000X-0.362500X0.050000X0.362500X-0.050000X0.362500X0*%
%ADD19R,2.300000X2.300000*%
%ADD20RoundRect,0.218750X-0.256250X0.218750X-0.256250X-0.218750X0.256250X-0.218750X0.256250X0.218750X0*%
%ADD21RoundRect,0.135000X-0.135000X-0.185000X0.135000X-0.185000X0.135000X0.185000X-0.135000X0.185000X0*%
%ADD22RoundRect,0.225000X-0.225000X-0.375000X0.225000X-0.375000X0.225000X0.375000X-0.225000X0.375000X0*%
%ADD23RoundRect,0.218750X0.256250X-0.218750X0.256250X0.218750X-0.256250X0.218750X-0.256250X-0.218750X0*%
%ADD24RoundRect,0.250000X-0.450000X0.400000X-0.450000X-0.400000X0.450000X-0.400000X0.450000X0.400000X0*%
%ADD25RoundRect,0.225000X0.250000X-0.225000X0.250000X0.225000X-0.250000X0.225000X-0.250000X-0.225000X0*%
%ADD26RoundRect,0.225000X0.225000X0.250000X-0.225000X0.250000X-0.225000X-0.250000X0.225000X-0.250000X0*%
%ADD27RoundRect,0.102000X0.700000X-0.800000X0.700000X0.800000X-0.700000X0.800000X-0.700000X-0.800000X0*%
%ADD28C,6.200000*%
%ADD29R,1.400000X1.200000*%
%ADD30RoundRect,0.135000X0.135000X0.185000X-0.135000X0.185000X-0.135000X-0.185000X0.135000X-0.185000X0*%
%ADD31RoundRect,0.075000X-0.700000X-0.075000X0.700000X-0.075000X0.700000X0.075000X-0.700000X0.075000X0*%
%ADD32RoundRect,0.075000X-0.075000X-0.700000X0.075000X-0.700000X0.075000X0.700000X-0.075000X0.700000X0*%
%ADD33RoundRect,0.075000X-0.175000X-0.175000X0.175000X-0.175000X0.175000X0.175000X-0.175000X0.175000X0*%
%ADD34RoundRect,0.140000X0.140000X0.170000X-0.140000X0.170000X-0.140000X-0.170000X0.140000X-0.170000X0*%
%ADD35RoundRect,0.140000X0.170000X-0.140000X0.170000X0.140000X-0.170000X0.140000X-0.170000X-0.140000X0*%
%ADD36RoundRect,0.225000X-0.250000X0.225000X-0.250000X-0.225000X0.250000X-0.225000X0.250000X0.225000X0*%
%ADD37C,1.000000*%
%ADD38RoundRect,0.225000X-0.225000X-0.250000X0.225000X-0.250000X0.225000X0.250000X-0.225000X0.250000X0*%
%ADD39RoundRect,0.112500X0.112500X-0.187500X0.112500X0.187500X-0.112500X0.187500X-0.112500X-0.187500X0*%
%ADD40RoundRect,0.112500X-0.187500X-0.112500X0.187500X-0.112500X0.187500X0.112500X-0.187500X0.112500X0*%
%ADD41RoundRect,0.150000X-0.587500X-0.150000X0.587500X-0.150000X0.587500X0.150000X-0.587500X0.150000X0*%
%ADD42RoundRect,0.250000X-0.400000X-0.450000X0.400000X-0.450000X0.400000X0.450000X-0.400000X0.450000X0*%
%ADD43RoundRect,0.150000X0.425000X-0.150000X0.425000X0.150000X-0.425000X0.150000X-0.425000X-0.150000X0*%
%ADD44RoundRect,0.075000X0.500000X-0.075000X0.500000X0.075000X-0.500000X0.075000X-0.500000X-0.075000X0*%
%ADD45O,2.100000X1.000000*%
%ADD46O,1.800000X1.000000*%
%ADD47RoundRect,0.140000X-0.170000X0.140000X-0.170000X-0.140000X0.170000X-0.140000X0.170000X0.140000X0*%
%ADD48RoundRect,0.150000X0.150000X-0.512500X0.150000X0.512500X-0.150000X0.512500X-0.150000X-0.512500X0*%
%ADD49RoundRect,0.150000X-0.150000X0.512500X-0.150000X-0.512500X0.150000X-0.512500X0.150000X0.512500X0*%
%ADD50RoundRect,0.112500X-0.112500X0.187500X-0.112500X-0.187500X0.112500X-0.187500X0.112500X0.187500X0*%
%ADD51RoundRect,0.150000X0.512500X0.150000X-0.512500X0.150000X-0.512500X-0.150000X0.512500X-0.150000X0*%
%ADD52RoundRect,0.250000X0.400000X0.450000X-0.400000X0.450000X-0.400000X-0.450000X0.400000X-0.450000X0*%
%ADD53RoundRect,0.160000X-0.222500X-0.160000X0.222500X-0.160000X0.222500X0.160000X-0.222500X0.160000X0*%
%ADD54RoundRect,0.102000X0.750000X-0.350000X0.750000X0.350000X-0.750000X0.350000X-0.750000X-0.350000X0*%
%ADD55RoundRect,0.102000X0.400000X-0.500000X0.400000X0.500000X-0.400000X0.500000X-0.400000X-0.500000X0*%
%ADD56RoundRect,0.062500X0.062500X-0.375000X0.062500X0.375000X-0.062500X0.375000X-0.062500X-0.375000X0*%
%ADD57RoundRect,0.062500X0.375000X-0.062500X0.375000X0.062500X-0.375000X0.062500X-0.375000X-0.062500X0*%
%ADD58R,3.500000X3.500000*%
%ADD59C,2.540000*%
G04 APERTURE END LIST*
D10*
G04 #@! TO.C,R128*
X84990055Y-40250000D03*
X84990055Y-39230000D03*
G04 #@! TD*
G04 #@! TO.C,R181*
X156000047Y-61110000D03*
X156000047Y-60090000D03*
G04 #@! TD*
D11*
G04 #@! TO.C,R78*
X177010720Y-34451980D03*
X177731968Y-35173228D03*
G04 #@! TD*
D12*
G04 #@! TO.C,D82*
X161999457Y-46319396D03*
X160885763Y-45205702D03*
G04 #@! TD*
D11*
G04 #@! TO.C,R123*
X242021704Y-43962963D03*
X242742952Y-44684211D03*
G04 #@! TD*
G04 #@! TO.C,R29*
X160281326Y-34462585D03*
X161002574Y-35183833D03*
G04 #@! TD*
D13*
G04 #@! TO.C,C36*
X202720047Y-72200000D03*
X203680047Y-72200000D03*
G04 #@! TD*
D11*
G04 #@! TO.C,R29*
X28281326Y-34462585D03*
X29002574Y-35183833D03*
G04 #@! TD*
D14*
G04 #@! TO.C,D172*
X210247557Y-49269999D03*
X208672557Y-49269999D03*
G04 #@! TD*
D15*
G04 #@! TO.C,D81*
X30047592Y-25269999D03*
X31622592Y-25269999D03*
G04 #@! TD*
D10*
G04 #@! TO.C,R109*
X183250047Y-35269998D03*
X183250047Y-34249998D03*
G04 #@! TD*
D12*
G04 #@! TO.C,D71*
X224535566Y-29355505D03*
X223421872Y-28241811D03*
G04 #@! TD*
D16*
G04 #@! TO.C,R20*
X19740019Y-27294996D03*
X19740019Y-28314996D03*
G04 #@! TD*
D17*
G04 #@! TO.C,U3*
X25862547Y-55762500D03*
X25862547Y-56162500D03*
X25862547Y-56562500D03*
X25862547Y-56962500D03*
X25862547Y-57362500D03*
X25862547Y-57762500D03*
X25862547Y-58162500D03*
D18*
X26600047Y-58900000D03*
X27000047Y-58900000D03*
X27400047Y-58900000D03*
X27800047Y-58900000D03*
X28200047Y-58900000D03*
X28600047Y-58900000D03*
X29000047Y-58900000D03*
D17*
X29737547Y-58162500D03*
X29737547Y-57762500D03*
X29737547Y-57362500D03*
X29737547Y-56962500D03*
X29737547Y-56562500D03*
X29737547Y-56162500D03*
X29737547Y-55762500D03*
D18*
X29000047Y-55025000D03*
X28600047Y-55025000D03*
X28200047Y-55025000D03*
X27800047Y-55025000D03*
X27400047Y-55025000D03*
X27000047Y-55025000D03*
X26600047Y-55025000D03*
D19*
X27800047Y-56962500D03*
G04 #@! TD*
D12*
G04 #@! TO.C,D111*
X229499459Y-46319398D03*
X228385765Y-45205704D03*
G04 #@! TD*
D15*
G04 #@! TO.C,D4*
X161712547Y-61500000D03*
X163287547Y-61500000D03*
G04 #@! TD*
D11*
G04 #@! TO.C,R111*
X56800366Y-29491627D03*
X57521614Y-30212875D03*
G04 #@! TD*
D20*
G04 #@! TO.C,D80*
X117450059Y-42462500D03*
X117450059Y-44037500D03*
G04 #@! TD*
D21*
G04 #@! TO.C,R160*
X158580026Y-50769998D03*
X159600026Y-50769998D03*
G04 #@! TD*
D22*
G04 #@! TO.C,D212*
X241550047Y-65000000D03*
X244850047Y-65000000D03*
G04 #@! TD*
D20*
G04 #@! TO.C,D187*
X100450059Y-45947500D03*
X100450059Y-47522500D03*
G04 #@! TD*
D14*
G04 #@! TO.C,D158*
X230767557Y-37274998D03*
X229192557Y-37274998D03*
G04 #@! TD*
D23*
G04 #@! TO.C,D90*
X170010031Y-28547497D03*
X170010031Y-26972497D03*
G04 #@! TD*
D15*
G04 #@! TO.C,D102*
X93667563Y-25269998D03*
X95242563Y-25269998D03*
G04 #@! TD*
D24*
G04 #@! TO.C,D206*
X239200047Y-58750000D03*
X239200047Y-61650000D03*
G04 #@! TD*
D15*
G04 #@! TO.C,D15*
X32712547Y-68000000D03*
X34287547Y-68000000D03*
G04 #@! TD*
D23*
G04 #@! TO.C,D147*
X54750047Y-32057498D03*
X54750047Y-30482498D03*
G04 #@! TD*
D20*
G04 #@! TO.C,D89*
X33010031Y-30467497D03*
X33010031Y-32042497D03*
G04 #@! TD*
D16*
G04 #@! TO.C,R163*
X70040055Y-30759998D03*
X70040055Y-31779998D03*
G04 #@! TD*
D11*
G04 #@! TO.C,R78*
X45010720Y-34451980D03*
X45731968Y-35173228D03*
G04 #@! TD*
D20*
G04 #@! TO.C,D89*
X165010031Y-30467497D03*
X165010031Y-32042497D03*
G04 #@! TD*
D14*
G04 #@! TO.C,D60*
X64947551Y-37274998D03*
X63372551Y-37274998D03*
G04 #@! TD*
D11*
G04 #@! TO.C,R50*
X225028775Y-31970034D03*
X225750023Y-32691282D03*
G04 #@! TD*
D21*
G04 #@! TO.C,R136*
X205415059Y-50769999D03*
X206435059Y-50769999D03*
G04 #@! TD*
D15*
G04 #@! TO.C,D17*
X161712547Y-71000000D03*
X163287547Y-71000000D03*
G04 #@! TD*
D11*
G04 #@! TO.C,R21*
X25788775Y-31970034D03*
X26510023Y-32691282D03*
G04 #@! TD*
D15*
G04 #@! TO.C,D65*
X158522593Y-25269998D03*
X160097593Y-25269998D03*
G04 #@! TD*
D12*
G04 #@! TO.C,D193*
X78006906Y-31826845D03*
X76893212Y-30713151D03*
G04 #@! TD*
G04 #@! TO.C,D46*
X207610447Y-41556847D03*
X206496753Y-40443153D03*
G04 #@! TD*
D25*
G04 #@! TO.C,C10*
X155275047Y-55762500D03*
X155275047Y-54212500D03*
G04 #@! TD*
D26*
G04 #@! TO.C,C14*
X190575047Y-66300000D03*
X189025047Y-66300000D03*
G04 #@! TD*
D15*
G04 #@! TO.C,D20*
X23227547Y-74500000D03*
X24802547Y-74500000D03*
G04 #@! TD*
D14*
G04 #@! TO.C,D60*
X196947551Y-37274998D03*
X195372551Y-37274998D03*
G04 #@! TD*
D10*
G04 #@! TO.C,R125*
X183250047Y-28269998D03*
X183250047Y-27249998D03*
G04 #@! TD*
D27*
G04 #@! TO.C,S2*
X182750047Y-92200000D03*
X182750047Y-83800000D03*
X187250047Y-92200000D03*
X187250047Y-83800000D03*
X185000047Y-83800000D03*
G04 #@! TD*
D23*
G04 #@! TO.C,D64*
X237450059Y-47552500D03*
X237450059Y-45977500D03*
G04 #@! TD*
D20*
G04 #@! TO.C,D69*
X83490055Y-33987498D03*
X83490055Y-35562498D03*
G04 #@! TD*
D21*
G04 #@! TO.C,R38*
X39875037Y-50769998D03*
X40895037Y-50769998D03*
G04 #@! TD*
D15*
G04 #@! TO.C,D19*
X170712547Y-71000000D03*
X172287547Y-71000000D03*
G04 #@! TD*
D14*
G04 #@! TO.C,D121*
X156392527Y-37274996D03*
X154817527Y-37274996D03*
G04 #@! TD*
D10*
G04 #@! TO.C,R172*
X101950059Y-40250000D03*
X101950059Y-39230000D03*
G04 #@! TD*
D15*
G04 #@! TO.C,D73*
X155012594Y-25269998D03*
X156587594Y-25269998D03*
G04 #@! TD*
D10*
G04 #@! TO.C,R76*
X34510031Y-35254997D03*
X34510031Y-34234997D03*
G04 #@! TD*
D20*
G04 #@! TO.C,D72*
X249450059Y-45947500D03*
X249450059Y-47522500D03*
G04 #@! TD*
D15*
G04 #@! TO.C,D39*
X26212547Y-94000000D03*
X27787547Y-94000000D03*
G04 #@! TD*
D20*
G04 #@! TO.C,D59*
X181750047Y-38952500D03*
X181750047Y-40527500D03*
G04 #@! TD*
D28*
G04 #@! TO.C,H4*
X109000047Y-19000000D03*
G04 #@! TD*
D16*
G04 #@! TO.C,R28*
X19740019Y-34294996D03*
X19740019Y-35314996D03*
G04 #@! TD*
G04 #@! TO.C,R170*
X202040055Y-34279998D03*
X202040055Y-35299998D03*
G04 #@! TD*
D14*
G04 #@! TO.C,D150*
X95257556Y-37274998D03*
X93682556Y-37274998D03*
G04 #@! TD*
D12*
G04 #@! TO.C,D58*
X162259457Y-34319396D03*
X161145763Y-33205702D03*
G04 #@! TD*
G04 #@! TO.C,D144*
X109524962Y-41344901D03*
X108411268Y-40231207D03*
G04 #@! TD*
D21*
G04 #@! TO.C,R31*
X195660051Y-38774998D03*
X196680051Y-38774998D03*
G04 #@! TD*
D12*
G04 #@! TO.C,D74*
X27506906Y-43826845D03*
X26393212Y-42713151D03*
G04 #@! TD*
D10*
G04 #@! TO.C,R112*
X216990055Y-47245000D03*
X216990055Y-46225000D03*
G04 #@! TD*
D29*
G04 #@! TO.C,Y1*
X54950047Y-75800000D03*
X52750047Y-75800000D03*
X52750047Y-77500000D03*
X54950047Y-77500000D03*
G04 #@! TD*
D30*
G04 #@! TO.C,R65*
X98460062Y-23769998D03*
X97440064Y-23769998D03*
G04 #@! TD*
D31*
G04 #@! TO.C,U2*
X86325047Y-56250000D03*
X86325047Y-56750000D03*
X86325047Y-57250000D03*
X86325047Y-57750000D03*
X86325047Y-58250000D03*
X86325047Y-58750000D03*
X86325047Y-59250000D03*
X86325047Y-59750000D03*
X86325047Y-60250000D03*
X86325047Y-60750000D03*
X86325047Y-61250000D03*
X86325047Y-61750000D03*
X86325047Y-62250000D03*
X86325047Y-62750000D03*
X86325047Y-63250000D03*
X86325047Y-63750000D03*
D32*
X88250047Y-65675000D03*
X88750047Y-65675000D03*
X89250047Y-65675000D03*
X89750047Y-65675000D03*
X90250047Y-65675000D03*
X90750047Y-65675000D03*
X91250047Y-65675000D03*
X91750047Y-65675000D03*
X92250047Y-65675000D03*
X92750047Y-65675000D03*
X93250047Y-65675000D03*
X93750047Y-65675000D03*
X94250047Y-65675000D03*
X94750047Y-65675000D03*
X95250047Y-65675000D03*
X95750047Y-65675000D03*
D31*
X97675047Y-63750000D03*
X97675047Y-63250000D03*
X97675047Y-62750000D03*
X97675047Y-62250000D03*
X97675047Y-61750000D03*
X97675047Y-61250000D03*
X97675047Y-60750000D03*
X97675047Y-60250000D03*
X97675047Y-59750000D03*
X97675047Y-59250000D03*
X97675047Y-58750000D03*
X97675047Y-58250000D03*
X97675047Y-57750000D03*
X97675047Y-57250000D03*
X97675047Y-56750000D03*
X97675047Y-56250000D03*
D32*
X95750047Y-54325000D03*
X95250047Y-54325000D03*
X94750047Y-54325000D03*
X94250047Y-54325000D03*
X93750047Y-54325000D03*
X93250047Y-54325000D03*
X92750047Y-54325000D03*
X92250047Y-54325000D03*
X91750047Y-54325000D03*
X91250047Y-54325000D03*
X90750047Y-54325000D03*
X90250047Y-54325000D03*
X89750047Y-54325000D03*
X89250047Y-54325000D03*
X88750047Y-54325000D03*
X88250047Y-54325000D03*
G04 #@! TD*
D20*
G04 #@! TO.C,D134*
X232450059Y-26972498D03*
X232450059Y-28547498D03*
G04 #@! TD*
D21*
G04 #@! TO.C,R3*
X74490047Y-54145000D03*
X75510047Y-54145000D03*
G04 #@! TD*
D23*
G04 #@! TO.C,D133*
X203540055Y-47537500D03*
X203540055Y-45962500D03*
G04 #@! TD*
D14*
G04 #@! TO.C,D132*
X196922551Y-49269999D03*
X195347551Y-49269999D03*
G04 #@! TD*
D30*
G04 #@! TO.C,R73*
X94965062Y-23769999D03*
X93945064Y-23769999D03*
G04 #@! TD*
D10*
G04 #@! TO.C,R48*
X216990055Y-31779998D03*
X216990055Y-30759998D03*
G04 #@! TD*
G04 #@! TO.C,R138*
X118950059Y-35269998D03*
X118950059Y-34249998D03*
G04 #@! TD*
D33*
G04 #@! TO.C,AE1*
X76200047Y-77200000D03*
X79200047Y-81200000D03*
G04 #@! TD*
D16*
G04 #@! TO.C,R126*
X185250047Y-34289998D03*
X185250047Y-35309998D03*
G04 #@! TD*
D14*
G04 #@! TO.C,D179*
X213787555Y-49269999D03*
X212212555Y-49269999D03*
G04 #@! TD*
D15*
G04 #@! TO.C,D53*
X76987552Y-25269998D03*
X78562552Y-25269998D03*
G04 #@! TD*
D16*
G04 #@! TO.C,R12*
X19740019Y-30774996D03*
X19740019Y-31794996D03*
G04 #@! TD*
D34*
G04 #@! TO.C,C15*
X190880047Y-67700000D03*
X189920047Y-67700000D03*
G04 #@! TD*
D20*
G04 #@! TO.C,D88*
X117450059Y-38952500D03*
X117450059Y-40527500D03*
G04 #@! TD*
D14*
G04 #@! TO.C,D169*
X176682538Y-37274998D03*
X175107538Y-37274998D03*
G04 #@! TD*
D23*
G04 #@! TO.C,D185*
X71540055Y-28577498D03*
X71540055Y-27002498D03*
G04 #@! TD*
D16*
G04 #@! TO.C,R27*
X235950059Y-42740000D03*
X235950059Y-43760000D03*
G04 #@! TD*
D21*
G04 #@! TO.C,R34*
X229455057Y-50769999D03*
X230475057Y-50769999D03*
G04 #@! TD*
G04 #@! TO.C,R15*
X56625055Y-38700000D03*
X57645055Y-38700000D03*
G04 #@! TD*
D12*
G04 #@! TO.C,D50*
X27766906Y-31826845D03*
X26653212Y-30713151D03*
G04 #@! TD*
D15*
G04 #@! TO.C,D177*
X188477568Y-25269998D03*
X190052568Y-25269998D03*
G04 #@! TD*
G04 #@! TO.C,D122*
X175242581Y-25269998D03*
X176817581Y-25269998D03*
G04 #@! TD*
D12*
G04 #@! TO.C,D95*
X92546174Y-41366113D03*
X91432480Y-40252419D03*
G04 #@! TD*
D15*
G04 #@! TO.C,D3*
X35712547Y-58000000D03*
X37287547Y-58000000D03*
G04 #@! TD*
D14*
G04 #@! TO.C,D109*
X213812555Y-37274998D03*
X212237555Y-37274998D03*
G04 #@! TD*
D20*
G04 #@! TO.C,D51*
X181750047Y-42462500D03*
X181750047Y-44037500D03*
G04 #@! TD*
D12*
G04 #@! TO.C,D99*
X176506906Y-31826845D03*
X175393212Y-30713151D03*
G04 #@! TD*
D16*
G04 #@! TO.C,R47*
X185250047Y-42740000D03*
X185250047Y-43760000D03*
G04 #@! TD*
D34*
G04 #@! TO.C,C21*
X191680047Y-76300000D03*
X190720047Y-76300000D03*
G04 #@! TD*
D30*
G04 #@! TO.C,R130*
X240470057Y-23769999D03*
X239450059Y-23769999D03*
G04 #@! TD*
D21*
G04 #@! TO.C,R54*
X46860039Y-50769999D03*
X47880039Y-50769999D03*
G04 #@! TD*
D15*
G04 #@! TO.C,D38*
X26197547Y-90500000D03*
X27772547Y-90500000D03*
G04 #@! TD*
D21*
G04 #@! TO.C,R34*
X97455057Y-50769999D03*
X98475057Y-50769999D03*
G04 #@! TD*
D15*
G04 #@! TO.C,D22*
X170712547Y-74500000D03*
X172287547Y-74500000D03*
G04 #@! TD*
D14*
G04 #@! TO.C,D195*
X112237560Y-37274998D03*
X110662560Y-37274998D03*
G04 #@! TD*
D26*
G04 #@! TO.C,C8*
X25375047Y-52600000D03*
X23825047Y-52600000D03*
G04 #@! TD*
D16*
G04 #@! TO.C,R180*
X71600047Y-54235000D03*
X71600047Y-55255000D03*
G04 #@! TD*
D21*
G04 #@! TO.C,R136*
X73415059Y-50769999D03*
X74435059Y-50769999D03*
G04 #@! TD*
D23*
G04 #@! TO.C,D139*
X54750047Y-28577498D03*
X54750047Y-27002498D03*
G04 #@! TD*
D12*
G04 #@! TO.C,D178*
X63745921Y-46315860D03*
X62632227Y-45202166D03*
G04 #@! TD*
D34*
G04 #@! TO.C,C33*
X203680047Y-67100000D03*
X202720047Y-67100000D03*
G04 #@! TD*
D23*
G04 #@! TO.C,D86*
X88490055Y-35577498D03*
X88490055Y-34002498D03*
G04 #@! TD*
D10*
G04 #@! TO.C,R7*
X85400047Y-53620000D03*
X85400047Y-52600000D03*
G04 #@! TD*
D16*
G04 #@! TO.C,R77*
X168510031Y-34249997D03*
X168510031Y-35269997D03*
G04 #@! TD*
D20*
G04 #@! TO.C,D161*
X33010031Y-45962499D03*
X33010031Y-47537499D03*
G04 #@! TD*
D15*
G04 #@! TO.C,D25*
X23212547Y-78000000D03*
X24787547Y-78000000D03*
G04 #@! TD*
D35*
G04 #@! TO.C,C39*
X72700047Y-72200000D03*
X72700047Y-71240000D03*
G04 #@! TD*
D15*
G04 #@! TO.C,D6*
X167712547Y-61500000D03*
X169287547Y-61500000D03*
G04 #@! TD*
D36*
G04 #@! TO.C,C28*
X63400047Y-78225000D03*
X63400047Y-79775000D03*
G04 #@! TD*
D10*
G04 #@! TO.C,R56*
X84990055Y-28269998D03*
X84990055Y-27249998D03*
G04 #@! TD*
D37*
G04 #@! TO.C,KiKit_FID_T_1*
X5000000Y-2500000D03*
G04 #@! TD*
D13*
G04 #@! TO.C,C37*
X70720047Y-69200000D03*
X71680047Y-69200000D03*
G04 #@! TD*
D11*
G04 #@! TO.C,R58*
X227510720Y-34451980D03*
X228231968Y-35173228D03*
G04 #@! TD*
D20*
G04 #@! TO.C,D187*
X232450059Y-45947500D03*
X232450059Y-47522500D03*
G04 #@! TD*
D10*
G04 #@! TO.C,R9*
X246000047Y-56110000D03*
X246000047Y-55090000D03*
G04 #@! TD*
D15*
G04 #@! TO.C,D30*
X151712547Y-84500000D03*
X153287547Y-84500000D03*
G04 #@! TD*
D11*
G04 #@! TO.C,R115*
X239546831Y-41488090D03*
X240268079Y-42209338D03*
G04 #@! TD*
D10*
G04 #@! TO.C,R158*
X233950059Y-47245000D03*
X233950059Y-46225000D03*
G04 #@! TD*
D16*
G04 #@! TO.C,R182*
X25000047Y-60090000D03*
X25000047Y-61110000D03*
G04 #@! TD*
D10*
G04 #@! TO.C,R79*
X200040055Y-40250000D03*
X200040055Y-39230000D03*
G04 #@! TD*
D23*
G04 #@! TO.C,D127*
X237450059Y-32057498D03*
X237450059Y-30482498D03*
G04 #@! TD*
D16*
G04 #@! TO.C,R104*
X202040055Y-46255000D03*
X202040055Y-47275000D03*
G04 #@! TD*
D12*
G04 #@! TO.C,D148*
X193256906Y-31826845D03*
X192143212Y-30713151D03*
G04 #@! TD*
D15*
G04 #@! TO.C,D24*
X19712547Y-77970000D03*
X21287547Y-77970000D03*
G04 #@! TD*
D14*
G04 #@! TO.C,D158*
X98767557Y-37274998D03*
X97192557Y-37274998D03*
G04 #@! TD*
D16*
G04 #@! TO.C,R118*
X53250047Y-30759998D03*
X53250047Y-31779998D03*
G04 #@! TD*
D21*
G04 #@! TO.C,R166*
X242940060Y-38774998D03*
X243960060Y-38774998D03*
G04 #@! TD*
D35*
G04 #@! TO.C,C3*
X210000047Y-56825000D03*
X210000047Y-55865000D03*
G04 #@! TD*
D16*
G04 #@! TO.C,R41*
X86990055Y-27279998D03*
X86990055Y-28299998D03*
G04 #@! TD*
D10*
G04 #@! TO.C,R165*
X101950059Y-43760000D03*
X101950059Y-42740000D03*
G04 #@! TD*
D34*
G04 #@! TO.C,C45*
X228080047Y-67400000D03*
X227120047Y-67400000D03*
G04 #@! TD*
D10*
G04 #@! TO.C,R30*
X183250047Y-40250000D03*
X183250047Y-39230000D03*
G04 #@! TD*
D21*
G04 #@! TO.C,R95*
X192105053Y-50769999D03*
X193125053Y-50769999D03*
G04 #@! TD*
D16*
G04 #@! TO.C,R151*
X86990055Y-46265000D03*
X86990055Y-47285000D03*
G04 #@! TD*
D14*
G04 #@! TO.C,D182*
X24367527Y-49269997D03*
X22792527Y-49269997D03*
G04 #@! TD*
D15*
G04 #@! TO.C,D61*
X205417554Y-25269998D03*
X206992554Y-25269998D03*
G04 #@! TD*
D12*
G04 #@! TO.C,D200*
X212510063Y-34330002D03*
X211396369Y-33216308D03*
G04 #@! TD*
G04 #@! TO.C,D66*
X25024963Y-41344900D03*
X23911269Y-40231206D03*
G04 #@! TD*
D21*
G04 #@! TO.C,R121*
X225960056Y-38774998D03*
X226980056Y-38774998D03*
G04 #@! TD*
D15*
G04 #@! TO.C,D32*
X174212547Y-84500000D03*
X175787547Y-84500000D03*
G04 #@! TD*
G04 #@! TO.C,D7*
X170712547Y-61500000D03*
X172287547Y-61500000D03*
G04 #@! TD*
D21*
G04 #@! TO.C,R87*
X188600055Y-50769999D03*
X189620055Y-50769999D03*
G04 #@! TD*
D28*
G04 #@! TO.C,H3*
X162000047Y-19000000D03*
G04 #@! TD*
D23*
G04 #@! TO.C,D180*
X220490055Y-47552500D03*
X220490055Y-45977500D03*
G04 #@! TD*
D20*
G04 #@! TO.C,D141*
X215490055Y-45947500D03*
X215490055Y-47522500D03*
G04 #@! TD*
D23*
G04 #@! TO.C,D64*
X105450059Y-47552500D03*
X105450059Y-45977500D03*
G04 #@! TD*
D16*
G04 #@! TO.C,R10*
X246000047Y-59290000D03*
X246000047Y-60310000D03*
G04 #@! TD*
D14*
G04 #@! TO.C,D202*
X115752559Y-37274998D03*
X114177559Y-37274998D03*
G04 #@! TD*
D20*
G04 #@! TO.C,D157*
X215490055Y-38952500D03*
X215490055Y-40527500D03*
G04 #@! TD*
D30*
G04 #@! TO.C,R52*
X31330092Y-23769999D03*
X30310094Y-23769999D03*
G04 #@! TD*
D23*
G04 #@! TO.C,D133*
X71540055Y-47537500D03*
X71540055Y-45962500D03*
G04 #@! TD*
D15*
G04 #@! TO.C,D9*
X32712547Y-64500000D03*
X34287547Y-64500000D03*
G04 #@! TD*
D21*
G04 #@! TO.C,R26*
X93945056Y-50769999D03*
X94965056Y-50769999D03*
G04 #@! TD*
D14*
G04 #@! TO.C,D188*
X240727561Y-37274998D03*
X239152561Y-37274998D03*
G04 #@! TD*
D12*
G04 #@! TO.C,D164*
X191010447Y-41556847D03*
X189896753Y-40443153D03*
G04 #@! TD*
D38*
G04 #@! TO.C,C34*
X198425047Y-77000000D03*
X199975047Y-77000000D03*
G04 #@! TD*
D15*
G04 #@! TO.C,D130*
X39742580Y-25269998D03*
X41317580Y-25269998D03*
G04 #@! TD*
D31*
G04 #@! TO.C,U2*
X218325047Y-56250000D03*
X218325047Y-56750000D03*
X218325047Y-57250000D03*
X218325047Y-57750000D03*
X218325047Y-58250000D03*
X218325047Y-58750000D03*
X218325047Y-59250000D03*
X218325047Y-59750000D03*
X218325047Y-60250000D03*
X218325047Y-60750000D03*
X218325047Y-61250000D03*
X218325047Y-61750000D03*
X218325047Y-62250000D03*
X218325047Y-62750000D03*
X218325047Y-63250000D03*
X218325047Y-63750000D03*
D32*
X220250047Y-65675000D03*
X220750047Y-65675000D03*
X221250047Y-65675000D03*
X221750047Y-65675000D03*
X222250047Y-65675000D03*
X222750047Y-65675000D03*
X223250047Y-65675000D03*
X223750047Y-65675000D03*
X224250047Y-65675000D03*
X224750047Y-65675000D03*
X225250047Y-65675000D03*
X225750047Y-65675000D03*
X226250047Y-65675000D03*
X226750047Y-65675000D03*
X227250047Y-65675000D03*
X227750047Y-65675000D03*
D31*
X229675047Y-63750000D03*
X229675047Y-63250000D03*
X229675047Y-62750000D03*
X229675047Y-62250000D03*
X229675047Y-61750000D03*
X229675047Y-61250000D03*
X229675047Y-60750000D03*
X229675047Y-60250000D03*
X229675047Y-59750000D03*
X229675047Y-59250000D03*
X229675047Y-58750000D03*
X229675047Y-58250000D03*
X229675047Y-57750000D03*
X229675047Y-57250000D03*
X229675047Y-56750000D03*
X229675047Y-56250000D03*
D32*
X227750047Y-54325000D03*
X227250047Y-54325000D03*
X226750047Y-54325000D03*
X226250047Y-54325000D03*
X225750047Y-54325000D03*
X225250047Y-54325000D03*
X224750047Y-54325000D03*
X224250047Y-54325000D03*
X223750047Y-54325000D03*
X223250047Y-54325000D03*
X222750047Y-54325000D03*
X222250047Y-54325000D03*
X221750047Y-54325000D03*
X221250047Y-54325000D03*
X220750047Y-54325000D03*
X220250047Y-54325000D03*
G04 #@! TD*
D21*
G04 #@! TO.C,R177*
X210090047Y-57945000D03*
X211110047Y-57945000D03*
G04 #@! TD*
D12*
G04 #@! TO.C,D74*
X159506906Y-43826845D03*
X158393212Y-42713151D03*
G04 #@! TD*
D26*
G04 #@! TO.C,C2*
X96375047Y-68800000D03*
X94825047Y-68800000D03*
G04 #@! TD*
D30*
G04 #@! TO.C,R36*
X27820092Y-23769998D03*
X26800094Y-23769998D03*
G04 #@! TD*
D39*
G04 #@! TO.C,D210*
X253000047Y-41050000D03*
X253000047Y-38950000D03*
G04 #@! TD*
D23*
G04 #@! TO.C,D192*
X71540055Y-32057498D03*
X71540055Y-30482498D03*
G04 #@! TD*
D15*
G04 #@! TO.C,D28*
X23212547Y-81500000D03*
X24787547Y-81500000D03*
G04 #@! TD*
D14*
G04 #@! TO.C,D96*
X240702561Y-49269999D03*
X239127561Y-49269999D03*
G04 #@! TD*
G04 #@! TO.C,D129*
X27902526Y-37274997D03*
X26327526Y-37274997D03*
G04 #@! TD*
D15*
G04 #@! TO.C,D23*
X174212547Y-74500000D03*
X175787547Y-74500000D03*
G04 #@! TD*
D36*
G04 #@! TO.C,C25*
X61800047Y-77225000D03*
X61800047Y-78775000D03*
G04 #@! TD*
D16*
G04 #@! TO.C,R49*
X218990055Y-30759998D03*
X218990055Y-31779998D03*
G04 #@! TD*
D23*
G04 #@! TO.C,D98*
X38010031Y-32027497D03*
X38010031Y-30452497D03*
G04 #@! TD*
D10*
G04 #@! TO.C,R117*
X51250047Y-31769998D03*
X51250047Y-30749998D03*
G04 #@! TD*
D23*
G04 #@! TO.C,D56*
X237450059Y-44037500D03*
X237450059Y-42462500D03*
G04 #@! TD*
D11*
G04 #@! TO.C,R53*
X28021326Y-46462586D03*
X28742574Y-47183834D03*
G04 #@! TD*
D30*
G04 #@! TO.C,R65*
X230460062Y-23769998D03*
X229440064Y-23769998D03*
G04 #@! TD*
D10*
G04 #@! TO.C,R1*
X203600047Y-59255000D03*
X203600047Y-58235000D03*
G04 #@! TD*
D21*
G04 #@! TO.C,R100*
X26620026Y-38774997D03*
X27640026Y-38774997D03*
G04 #@! TD*
D16*
G04 #@! TO.C,R47*
X53250047Y-42740000D03*
X53250047Y-43760000D03*
G04 #@! TD*
D11*
G04 #@! TO.C,R45*
X25528775Y-43970034D03*
X26250023Y-44691282D03*
G04 #@! TD*
D15*
G04 #@! TO.C,D29*
X42212547Y-81500000D03*
X43787547Y-81500000D03*
G04 #@! TD*
D35*
G04 #@! TO.C,C5*
X87335047Y-54095000D03*
X87335047Y-53135000D03*
G04 #@! TD*
D20*
G04 #@! TO.C,D118*
X100450059Y-33972498D03*
X100450059Y-35547498D03*
G04 #@! TD*
D16*
G04 #@! TO.C,R6*
X217400047Y-50690000D03*
X217400047Y-51710000D03*
G04 #@! TD*
D23*
G04 #@! TO.C,D119*
X237450059Y-28577498D03*
X237450059Y-27002498D03*
G04 #@! TD*
D12*
G04 #@! TO.C,D111*
X97499459Y-46319398D03*
X96385765Y-45205704D03*
G04 #@! TD*
D15*
G04 #@! TO.C,D34*
X155227547Y-87500000D03*
X156802547Y-87500000D03*
G04 #@! TD*
D35*
G04 #@! TO.C,C40*
X204700047Y-70160000D03*
X204700047Y-69200000D03*
G04 #@! TD*
D23*
G04 #@! TO.C,D84*
X186750047Y-47552500D03*
X186750047Y-45977500D03*
G04 #@! TD*
D27*
G04 #@! TO.C,S2*
X50750047Y-92200000D03*
X50750047Y-83800000D03*
X55250047Y-92200000D03*
X55250047Y-83800000D03*
X53000047Y-83800000D03*
G04 #@! TD*
D10*
G04 #@! TO.C,R59*
X118950059Y-40250000D03*
X118950059Y-39230000D03*
G04 #@! TD*
G04 #@! TO.C,R112*
X84990055Y-47245000D03*
X84990055Y-46225000D03*
G04 #@! TD*
D25*
G04 #@! TO.C,C4*
X215400047Y-62775000D03*
X215400047Y-61225000D03*
G04 #@! TD*
D15*
G04 #@! TO.C,D16*
X26212547Y-71000000D03*
X27787547Y-71000000D03*
G04 #@! TD*
D37*
G04 #@! TO.C,KiKit_FID_T_3*
X5000000Y-112500046D03*
G04 #@! TD*
D20*
G04 #@! TO.C,D105*
X165010031Y-33957497D03*
X165010031Y-35532497D03*
G04 #@! TD*
D25*
G04 #@! TO.C,C42*
X110400047Y-70775000D03*
X110400047Y-69225000D03*
G04 #@! TD*
D21*
G04 #@! TO.C,R150*
X212500055Y-50769999D03*
X213520055Y-50769999D03*
G04 #@! TD*
D15*
G04 #@! TO.C,D151*
X110687557Y-25269998D03*
X112262557Y-25269998D03*
G04 #@! TD*
G04 #@! TO.C,D33*
X19712547Y-87500000D03*
X21287547Y-87500000D03*
G04 #@! TD*
D30*
G04 #@! TO.C,R134*
X64800063Y-23769998D03*
X63780065Y-23769998D03*
G04 #@! TD*
D23*
G04 #@! TO.C,D78*
X220490055Y-32042498D03*
X220490055Y-30467498D03*
G04 #@! TD*
D10*
G04 #@! TO.C,R48*
X84990055Y-31779998D03*
X84990055Y-30759998D03*
G04 #@! TD*
G04 #@! TO.C,R120*
X84990055Y-43760000D03*
X84990055Y-42740000D03*
G04 #@! TD*
D16*
G04 #@! TO.C,R137*
X218990055Y-39260000D03*
X218990055Y-40280000D03*
G04 #@! TD*
D14*
G04 #@! TO.C,D109*
X81812555Y-37274998D03*
X80237555Y-37274998D03*
G04 #@! TD*
D23*
G04 #@! TO.C,D166*
X88490055Y-40557500D03*
X88490055Y-38982500D03*
G04 #@! TD*
D10*
G04 #@! TO.C,R68*
X166510031Y-28254997D03*
X166510031Y-27234997D03*
G04 #@! TD*
D16*
G04 #@! TO.C,R57*
X86990055Y-34289998D03*
X86990055Y-35309998D03*
G04 #@! TD*
D15*
G04 #@! TO.C,D21*
X158212547Y-74500000D03*
X159787547Y-74500000D03*
G04 #@! TD*
D20*
G04 #@! TO.C,D154*
X49750047Y-26972498D03*
X49750047Y-28547498D03*
G04 #@! TD*
D38*
G04 #@! TO.C,C34*
X66425047Y-77000000D03*
X67975047Y-77000000D03*
G04 #@! TD*
D21*
G04 #@! TO.C,R143*
X76950057Y-50769999D03*
X77970057Y-50769999D03*
G04 #@! TD*
D23*
G04 #@! TO.C,D84*
X54750047Y-47552500D03*
X54750047Y-45977500D03*
G04 #@! TD*
D15*
G04 #@! TO.C,D10*
X35712547Y-64500000D03*
X37287547Y-64500000D03*
G04 #@! TD*
D23*
G04 #@! TO.C,D197*
X170010031Y-47552499D03*
X170010031Y-45977499D03*
G04 #@! TD*
D21*
G04 #@! TO.C,R23*
X192130053Y-38774998D03*
X193150053Y-38774998D03*
G04 #@! TD*
D14*
G04 #@! TO.C,D93*
X206737559Y-37274998D03*
X205162559Y-37274998D03*
G04 #@! TD*
D22*
G04 #@! TO.C,D212*
X109550047Y-65000000D03*
X112850047Y-65000000D03*
G04 #@! TD*
D34*
G04 #@! TO.C,C15*
X58880047Y-67700000D03*
X57920047Y-67700000D03*
G04 #@! TD*
D40*
G04 #@! TO.C,D208*
X50750047Y-81400000D03*
X52850047Y-81400000D03*
G04 #@! TD*
D10*
G04 #@! TO.C,R128*
X216990055Y-40250000D03*
X216990055Y-39230000D03*
G04 #@! TD*
D21*
G04 #@! TO.C,R46*
X175360038Y-50769999D03*
X176380038Y-50769999D03*
G04 #@! TD*
D20*
G04 #@! TO.C,D97*
X165010031Y-26957497D03*
X165010031Y-28532497D03*
G04 #@! TD*
D15*
G04 #@! TO.C,D27*
X151712547Y-81500000D03*
X153287547Y-81500000D03*
G04 #@! TD*
D14*
G04 #@! TO.C,D113*
X163427525Y-37274997D03*
X161852525Y-37274997D03*
G04 #@! TD*
G04 #@! TO.C,D124*
X193402553Y-49269999D03*
X191827553Y-49269999D03*
G04 #@! TD*
D26*
G04 #@! TO.C,C8*
X157375047Y-52600000D03*
X155825047Y-52600000D03*
G04 #@! TD*
D41*
G04 #@! TO.C,Q1*
X113000047Y-68850000D03*
X113000047Y-70750000D03*
X114875047Y-69800000D03*
G04 #@! TD*
D12*
G04 #@! TO.C,D140*
X58778497Y-29348436D03*
X57664803Y-28234742D03*
G04 #@! TD*
D16*
G04 #@! TO.C,R108*
X19740019Y-39259998D03*
X19740019Y-40279998D03*
G04 #@! TD*
D30*
G04 #@! TO.C,R24*
X210270051Y-23769998D03*
X209250053Y-23769998D03*
G04 #@! TD*
D15*
G04 #@! TO.C,D3*
X167712547Y-58000000D03*
X169287547Y-58000000D03*
G04 #@! TD*
D11*
G04 #@! TO.C,R70*
X174528775Y-31970034D03*
X175250023Y-32691282D03*
G04 #@! TD*
D42*
G04 #@! TO.C,D203*
X173550047Y-56000000D03*
X176450047Y-56000000D03*
G04 #@! TD*
D16*
G04 #@! TO.C,R96*
X202040055Y-42740000D03*
X202040055Y-43760000D03*
G04 #@! TD*
D10*
G04 #@! TO.C,R71*
X200040055Y-43750000D03*
X200040055Y-42730000D03*
G04 #@! TD*
D30*
G04 #@! TO.C,R24*
X78270051Y-23769998D03*
X77250053Y-23769998D03*
G04 #@! TD*
D10*
G04 #@! TO.C,R79*
X68040055Y-40250000D03*
X68040055Y-39230000D03*
G04 #@! TD*
D14*
G04 #@! TO.C,D195*
X244237560Y-37274998D03*
X242662560Y-37274998D03*
G04 #@! TD*
D12*
G04 #@! TO.C,D42*
X157284962Y-29344899D03*
X156171268Y-28231205D03*
G04 #@! TD*
D23*
G04 #@! TO.C,D68*
X54750047Y-40557500D03*
X54750047Y-38982500D03*
G04 #@! TD*
D15*
G04 #@! TO.C,D114*
X46727582Y-25269999D03*
X48302582Y-25269999D03*
G04 #@! TD*
D30*
G04 #@! TO.C,R32*
X74720053Y-23769998D03*
X73700055Y-23769998D03*
G04 #@! TD*
D23*
G04 #@! TO.C,D76*
X54750047Y-44037500D03*
X54750047Y-42462500D03*
G04 #@! TD*
D15*
G04 #@! TO.C,D170*
X59997566Y-25269998D03*
X61572566Y-25269998D03*
G04 #@! TD*
D11*
G04 #@! TO.C,R119*
X191278775Y-31970034D03*
X192000023Y-32691282D03*
G04 #@! TD*
D12*
G04 #@! TO.C,D136*
X114492386Y-34312325D03*
X113378692Y-33198631D03*
G04 #@! TD*
D28*
G04 #@! TO.C,H4*
X241000047Y-19000000D03*
G04 #@! TD*
D12*
G04 #@! TO.C,D103*
X95006906Y-43826845D03*
X93893212Y-42713151D03*
G04 #@! TD*
D20*
G04 #@! TO.C,D92*
X66540055Y-45947500D03*
X66540055Y-47522500D03*
G04 #@! TD*
D12*
G04 #@! TO.C,D87*
X229488852Y-34308791D03*
X228375158Y-33195097D03*
G04 #@! TD*
D23*
G04 #@! TO.C,D135*
X237450059Y-35577498D03*
X237450059Y-34002498D03*
G04 #@! TD*
D12*
G04 #@! TO.C,D123*
X176506906Y-43826845D03*
X175393212Y-42713151D03*
G04 #@! TD*
D24*
G04 #@! TO.C,D206*
X107200047Y-58750000D03*
X107200047Y-61650000D03*
G04 #@! TD*
D14*
G04 #@! TO.C,D116*
X57897555Y-49269999D03*
X56322555Y-49269999D03*
G04 #@! TD*
D21*
G04 #@! TO.C,R153*
X23070027Y-50769997D03*
X24090027Y-50769997D03*
G04 #@! TD*
G04 #@! TO.C,R173*
X246455059Y-38774998D03*
X247475059Y-38774998D03*
G04 #@! TD*
D23*
G04 #@! TO.C,D70*
X220490055Y-28577498D03*
X220490055Y-27002498D03*
G04 #@! TD*
D14*
G04 #@! TO.C,D55*
X227247556Y-49269999D03*
X225672556Y-49269999D03*
G04 #@! TD*
D35*
G04 #@! TO.C,C6*
X216600047Y-62480000D03*
X216600047Y-61520000D03*
G04 #@! TD*
D23*
G04 #@! TO.C,D41*
X21240019Y-32072496D03*
X21240019Y-30497496D03*
G04 #@! TD*
D15*
G04 #@! TO.C,D11*
X38712547Y-64500000D03*
X40287547Y-64500000D03*
G04 #@! TD*
D21*
G04 #@! TO.C,R100*
X158620026Y-38774997D03*
X159640026Y-38774997D03*
G04 #@! TD*
D15*
G04 #@! TO.C,D9*
X164712547Y-64500000D03*
X166287547Y-64500000D03*
G04 #@! TD*
G04 #@! TO.C,D35*
X167712547Y-71000000D03*
X169287547Y-71000000D03*
G04 #@! TD*
D35*
G04 #@! TO.C,C32*
X201700047Y-70160000D03*
X201700047Y-69200000D03*
G04 #@! TD*
D16*
G04 #@! TO.C,R96*
X70040055Y-42740000D03*
X70040055Y-43760000D03*
G04 #@! TD*
D30*
G04 #@! TO.C,R114*
X115495055Y-23769998D03*
X114475057Y-23769998D03*
G04 #@! TD*
D39*
G04 #@! TO.C,D211*
X253000047Y-33250000D03*
X253000047Y-31150000D03*
G04 #@! TD*
D15*
G04 #@! TO.C,D21*
X26212547Y-74500000D03*
X27787547Y-74500000D03*
G04 #@! TD*
G04 #@! TO.C,D18*
X164712547Y-71000000D03*
X166287547Y-71000000D03*
G04 #@! TD*
D12*
G04 #@! TO.C,D131*
X178981780Y-46301719D03*
X177868086Y-45188025D03*
G04 #@! TD*
G04 #@! TO.C,D54*
X78006906Y-43826845D03*
X76893212Y-42713151D03*
G04 #@! TD*
D20*
G04 #@! TO.C,D174*
X117450059Y-30482498D03*
X117450059Y-32057498D03*
G04 #@! TD*
G04 #@! TO.C,D168*
X165010031Y-42477499D03*
X165010031Y-44052499D03*
G04 #@! TD*
D14*
G04 #@! TO.C,D52*
X61427553Y-37274998D03*
X59852553Y-37274998D03*
G04 #@! TD*
D30*
G04 #@! TO.C,R114*
X247495055Y-23769998D03*
X246475057Y-23769998D03*
G04 #@! TD*
D12*
G04 #@! TO.C,D87*
X97488852Y-34308791D03*
X96375158Y-33195097D03*
G04 #@! TD*
D10*
G04 #@! TO.C,R63*
X200040055Y-47235000D03*
X200040055Y-46215000D03*
G04 #@! TD*
D12*
G04 #@! TO.C,D107*
X46981780Y-34301719D03*
X45868086Y-33188025D03*
G04 #@! TD*
D15*
G04 #@! TO.C,D26*
X42212547Y-78000000D03*
X43787547Y-78000000D03*
G04 #@! TD*
D21*
G04 #@! TO.C,R175*
X205690047Y-72200000D03*
X206710047Y-72200000D03*
G04 #@! TD*
D37*
G04 #@! TO.C,KiKit_FID_T_2*
X264000047Y-2500000D03*
G04 #@! TD*
D43*
G04 #@! TO.C,J1*
X248245047Y-61200000D03*
X248245047Y-60400000D03*
D44*
X248245048Y-59250000D03*
X248245047Y-58250000D03*
X248245047Y-57750000D03*
X248245048Y-56750000D03*
D43*
X248245047Y-55600000D03*
X248245047Y-54800000D03*
X248245047Y-54800000D03*
X248245047Y-55600000D03*
D44*
X248245047Y-56250000D03*
X248245047Y-57250000D03*
X248245047Y-58750000D03*
X248245047Y-59750000D03*
D43*
X248245047Y-60400000D03*
X248245047Y-61200000D03*
D45*
X248820047Y-62320000D03*
D46*
X253000047Y-62320000D03*
D45*
X248820047Y-53680000D03*
D46*
X253000047Y-53680000D03*
G04 #@! TD*
D14*
G04 #@! TO.C,D129*
X159902526Y-37274997D03*
X158327526Y-37274997D03*
G04 #@! TD*
D15*
G04 #@! TO.C,D65*
X26522593Y-25269998D03*
X28097593Y-25269998D03*
G04 #@! TD*
D35*
G04 #@! TO.C,C32*
X69700047Y-70160000D03*
X69700047Y-69200000D03*
G04 #@! TD*
D28*
G04 #@! TO.C,H3*
X30000047Y-19000000D03*
G04 #@! TD*
D20*
G04 #@! TO.C,D100*
X66540055Y-42462500D03*
X66540055Y-44037500D03*
G04 #@! TD*
D10*
G04 #@! TO.C,R146*
X34510031Y-40264999D03*
X34510031Y-39244999D03*
G04 #@! TD*
D39*
G04 #@! TO.C,D213*
X253000047Y-29650000D03*
X253000047Y-27550000D03*
G04 #@! TD*
D15*
G04 #@! TO.C,D36*
X170712547Y-87500000D03*
X172287547Y-87500000D03*
G04 #@! TD*
D47*
G04 #@! TO.C,C9*
X31075047Y-58007500D03*
X31075047Y-58967500D03*
G04 #@! TD*
D36*
G04 #@! TO.C,C44*
X236450047Y-60087500D03*
X236450047Y-61637500D03*
G04 #@! TD*
D21*
G04 #@! TO.C,R173*
X114455059Y-38774998D03*
X115475059Y-38774998D03*
G04 #@! TD*
D15*
G04 #@! TO.C,D39*
X158212547Y-94000000D03*
X159787547Y-94000000D03*
G04 #@! TD*
G04 #@! TO.C,D30*
X19712547Y-84500000D03*
X21287547Y-84500000D03*
G04 #@! TD*
D14*
G04 #@! TO.C,D189*
X159877526Y-49269998D03*
X158302526Y-49269998D03*
G04 #@! TD*
D16*
G04 #@! TO.C,R161*
X168510031Y-42739999D03*
X168510031Y-43759999D03*
G04 #@! TD*
G04 #@! TO.C,R156*
X202040055Y-27289998D03*
X202040055Y-28309998D03*
G04 #@! TD*
D21*
G04 #@! TO.C,R159*
X239430061Y-38600000D03*
X240450061Y-38600000D03*
G04 #@! TD*
D10*
G04 #@! TO.C,R7*
X217400047Y-53620000D03*
X217400047Y-52600000D03*
G04 #@! TD*
D21*
G04 #@! TO.C,R4*
X208290047Y-59145000D03*
X209310047Y-59145000D03*
G04 #@! TD*
G04 #@! TO.C,R92*
X155110027Y-38600000D03*
X156130027Y-38600000D03*
G04 #@! TD*
D15*
G04 #@! TO.C,D34*
X23227547Y-87500000D03*
X24802547Y-87500000D03*
G04 #@! TD*
G04 #@! TO.C,D94*
X229162564Y-25269998D03*
X230737564Y-25269998D03*
G04 #@! TD*
G04 #@! TO.C,D14*
X29712547Y-68000000D03*
X31287547Y-68000000D03*
G04 #@! TD*
D48*
G04 #@! TO.C,U6*
X100900047Y-61637500D03*
X102800047Y-61637500D03*
X101850047Y-59362500D03*
G04 #@! TD*
D16*
G04 #@! TO.C,R19*
X235950059Y-39260000D03*
X235950059Y-40280000D03*
G04 #@! TD*
D21*
G04 #@! TO.C,R54*
X178860039Y-50769999D03*
X179880039Y-50769999D03*
G04 #@! TD*
D24*
G04 #@! TO.C,D205*
X111600047Y-57150000D03*
X111600047Y-60050000D03*
G04 #@! TD*
D16*
G04 #@! TO.C,R110*
X185250047Y-27279998D03*
X185250047Y-28299998D03*
G04 #@! TD*
D11*
G04 #@! TO.C,R157*
X205529154Y-29470412D03*
X206250402Y-30191660D03*
G04 #@! TD*
D20*
G04 #@! TO.C,D77*
X215490055Y-30482498D03*
X215490055Y-32057498D03*
G04 #@! TD*
G04 #@! TO.C,D191*
X66540055Y-30482498D03*
X66540055Y-32057498D03*
G04 #@! TD*
D14*
G04 #@! TO.C,D176*
X48197539Y-37274998D03*
X46622539Y-37274998D03*
G04 #@! TD*
D10*
G04 #@! TO.C,R56*
X216990055Y-28269998D03*
X216990055Y-27249998D03*
G04 #@! TD*
D14*
G04 #@! TO.C,D202*
X247752559Y-37274998D03*
X246177559Y-37274998D03*
G04 #@! TD*
D30*
G04 #@! TO.C,R85*
X180015081Y-23769999D03*
X178995083Y-23769999D03*
G04 #@! TD*
D35*
G04 #@! TO.C,C39*
X204700047Y-72200000D03*
X204700047Y-71240000D03*
G04 #@! TD*
D10*
G04 #@! TO.C,R162*
X200040055Y-31779998D03*
X200040055Y-30759998D03*
G04 #@! TD*
D20*
G04 #@! TO.C,D51*
X49750047Y-42462500D03*
X49750047Y-44037500D03*
G04 #@! TD*
D23*
G04 #@! TO.C,D155*
X186750047Y-35592498D03*
X186750047Y-34017498D03*
G04 #@! TD*
D15*
G04 #@! TO.C,D14*
X161712547Y-68000000D03*
X163287547Y-68000000D03*
G04 #@! TD*
D16*
G04 #@! TO.C,R108*
X151740019Y-39259998D03*
X151740019Y-40279998D03*
G04 #@! TD*
D15*
G04 #@! TO.C,D159*
X107172558Y-25269998D03*
X108747558Y-25269998D03*
G04 #@! TD*
D16*
G04 #@! TO.C,R154*
X168510031Y-39269999D03*
X168510031Y-40289999D03*
G04 #@! TD*
D20*
G04 #@! TO.C,D167*
X117450059Y-33972498D03*
X117450059Y-35547498D03*
G04 #@! TD*
D38*
G04 #@! TO.C,C41*
X239025047Y-67000000D03*
X240575047Y-67000000D03*
G04 #@! TD*
D16*
G04 #@! TO.C,R35*
X103950059Y-46245000D03*
X103950059Y-47265000D03*
G04 #@! TD*
D12*
G04 #@! TO.C,D46*
X75610447Y-41556847D03*
X74496753Y-40443153D03*
G04 #@! TD*
D16*
G04 #@! TO.C,R170*
X70040055Y-34279998D03*
X70040055Y-35299998D03*
G04 #@! TD*
D23*
G04 #@! TO.C,D145*
X153240019Y-44037498D03*
X153240019Y-42462498D03*
G04 #@! TD*
D36*
G04 #@! TO.C,C28*
X195400047Y-78225000D03*
X195400047Y-79775000D03*
G04 #@! TD*
D21*
G04 #@! TO.C,R160*
X26580026Y-50769998D03*
X27600026Y-50769998D03*
G04 #@! TD*
G04 #@! TO.C,R121*
X93960056Y-38774998D03*
X94980056Y-38774998D03*
G04 #@! TD*
D16*
G04 #@! TO.C,R106*
X103950059Y-34279998D03*
X103950059Y-35299998D03*
G04 #@! TD*
D14*
G04 #@! TO.C,D150*
X227257556Y-37274998D03*
X225682556Y-37274998D03*
G04 #@! TD*
D30*
G04 #@! TO.C,R93*
X176540080Y-23769998D03*
X175520082Y-23769998D03*
G04 #@! TD*
D14*
G04 #@! TO.C,D176*
X180197539Y-37274998D03*
X178622539Y-37274998D03*
G04 #@! TD*
D15*
G04 #@! TO.C,D13*
X26212547Y-68000000D03*
X27787547Y-68000000D03*
G04 #@! TD*
D16*
G04 #@! TO.C,R90*
X235950059Y-27279998D03*
X235950059Y-28299998D03*
G04 #@! TD*
D23*
G04 #@! TO.C,D173*
X88490055Y-44037500D03*
X88490055Y-42462500D03*
G04 #@! TD*
D12*
G04 #@! TO.C,D66*
X157024963Y-41344900D03*
X155911269Y-40231206D03*
G04 #@! TD*
D39*
G04 #@! TO.C,D211*
X121000047Y-33250000D03*
X121000047Y-31150000D03*
G04 #@! TD*
D30*
G04 #@! TO.C,R32*
X206720053Y-23769998D03*
X205700055Y-23769998D03*
G04 #@! TD*
D11*
G04 #@! TO.C,R33*
X210531931Y-46473191D03*
X211253179Y-47194439D03*
G04 #@! TD*
D15*
G04 #@! TO.C,D8*
X29712547Y-64500000D03*
X31287547Y-64500000D03*
G04 #@! TD*
D11*
G04 #@! TO.C,R74*
X93039382Y-43980641D03*
X93760630Y-44701889D03*
G04 #@! TD*
D20*
G04 #@! TO.C,D141*
X83490055Y-45947500D03*
X83490055Y-47522500D03*
G04 #@! TD*
D11*
G04 #@! TO.C,R157*
X73529154Y-29470412D03*
X74250402Y-30191660D03*
G04 #@! TD*
D20*
G04 #@! TO.C,D85*
X215490055Y-26972498D03*
X215490055Y-28547498D03*
G04 #@! TD*
D14*
G04 #@! TO.C,D196*
X163402525Y-49269998D03*
X161827525Y-49269998D03*
G04 #@! TD*
D21*
G04 #@! TO.C,R84*
X162145025Y-38774997D03*
X163165025Y-38774997D03*
G04 #@! TD*
D23*
G04 #@! TO.C,D48*
X237450059Y-40557500D03*
X237450059Y-38982500D03*
G04 #@! TD*
D21*
G04 #@! TO.C,R3*
X206490047Y-54145000D03*
X207510047Y-54145000D03*
G04 #@! TD*
D20*
G04 #@! TO.C,D181*
X249450059Y-26972498D03*
X249450059Y-28547498D03*
G04 #@! TD*
D16*
G04 #@! TO.C,R161*
X36510031Y-42739999D03*
X36510031Y-43759999D03*
G04 #@! TD*
G04 #@! TO.C,R137*
X86990055Y-39260000D03*
X86990055Y-40280000D03*
G04 #@! TD*
D12*
G04 #@! TO.C,D50*
X159766906Y-31826845D03*
X158653212Y-30713151D03*
G04 #@! TD*
D20*
G04 #@! TO.C,D201*
X232450059Y-38952500D03*
X232450059Y-40527500D03*
G04 #@! TD*
D17*
G04 #@! TO.C,U3*
X157862547Y-55762500D03*
X157862547Y-56162500D03*
X157862547Y-56562500D03*
X157862547Y-56962500D03*
X157862547Y-57362500D03*
X157862547Y-57762500D03*
X157862547Y-58162500D03*
D18*
X158600047Y-58900000D03*
X159000047Y-58900000D03*
X159400047Y-58900000D03*
X159800047Y-58900000D03*
X160200047Y-58900000D03*
X160600047Y-58900000D03*
X161000047Y-58900000D03*
D17*
X161737547Y-58162500D03*
X161737547Y-57762500D03*
X161737547Y-57362500D03*
X161737547Y-56962500D03*
X161737547Y-56562500D03*
X161737547Y-56162500D03*
X161737547Y-55762500D03*
D18*
X161000047Y-55025000D03*
X160600047Y-55025000D03*
X160200047Y-55025000D03*
X159800047Y-55025000D03*
X159400047Y-55025000D03*
X159000047Y-55025000D03*
X158600047Y-55025000D03*
D19*
X159800047Y-56962500D03*
G04 #@! TD*
D15*
G04 #@! TO.C,D17*
X29712547Y-71000000D03*
X31287547Y-71000000D03*
G04 #@! TD*
D26*
G04 #@! TO.C,C43*
X234625047Y-63300000D03*
X233075047Y-63300000D03*
G04 #@! TD*
D11*
G04 #@! TO.C,R149*
X193767789Y-46459049D03*
X194489037Y-47180297D03*
G04 #@! TD*
D10*
G04 #@! TO.C,R71*
X68040055Y-43750000D03*
X68040055Y-42730000D03*
G04 #@! TD*
D11*
G04 #@! TO.C,R91*
X107546831Y-29488090D03*
X108268079Y-30209338D03*
G04 #@! TD*
D12*
G04 #@! TO.C,D140*
X190778497Y-29348436D03*
X189664803Y-28234742D03*
G04 #@! TD*
D21*
G04 #@! TO.C,R150*
X80500055Y-50769999D03*
X81520055Y-50769999D03*
G04 #@! TD*
D16*
G04 #@! TO.C,R180*
X203600047Y-54235000D03*
X203600047Y-55255000D03*
G04 #@! TD*
D15*
G04 #@! TO.C,D122*
X43242581Y-25269998D03*
X44817581Y-25269998D03*
G04 #@! TD*
D21*
G04 #@! TO.C,R72*
X208975057Y-38774998D03*
X209995057Y-38774998D03*
G04 #@! TD*
D40*
G04 #@! TO.C,D207*
X59950047Y-81400000D03*
X62050047Y-81400000D03*
G04 #@! TD*
D16*
G04 #@! TO.C,R154*
X36510031Y-39269999D03*
X36510031Y-40289999D03*
G04 #@! TD*
D35*
G04 #@! TO.C,C11*
X24575047Y-55967500D03*
X24575047Y-55007500D03*
G04 #@! TD*
D15*
G04 #@! TO.C,D151*
X242687557Y-25269998D03*
X244262557Y-25269998D03*
G04 #@! TD*
D49*
G04 #@! TO.C,U5*
X108750047Y-68662500D03*
X106850047Y-68662500D03*
X107800047Y-70937500D03*
G04 #@! TD*
D47*
G04 #@! TO.C,C20*
X63100047Y-75445000D03*
X63100047Y-76405000D03*
G04 #@! TD*
D21*
G04 #@! TO.C,R143*
X208950057Y-50769999D03*
X209970057Y-50769999D03*
G04 #@! TD*
D16*
G04 #@! TO.C,R6*
X85400047Y-50690000D03*
X85400047Y-51710000D03*
G04 #@! TD*
D21*
G04 #@! TO.C,R129*
X97470057Y-38774998D03*
X98490057Y-38774998D03*
G04 #@! TD*
D30*
G04 #@! TO.C,R81*
X91455061Y-23769998D03*
X90435063Y-23769998D03*
G04 #@! TD*
D15*
G04 #@! TO.C,D12*
X174212547Y-64500000D03*
X175787547Y-64500000D03*
G04 #@! TD*
D10*
G04 #@! TO.C,R120*
X216990055Y-43760000D03*
X216990055Y-42740000D03*
G04 #@! TD*
D30*
G04 #@! TO.C,R16*
X213805049Y-23769998D03*
X212785051Y-23769998D03*
G04 #@! TD*
D23*
G04 #@! TO.C,D106*
X38010031Y-35547497D03*
X38010031Y-33972497D03*
G04 #@! TD*
D11*
G04 #@! TO.C,R33*
X78531931Y-46473191D03*
X79253179Y-47194439D03*
G04 #@! TD*
D12*
G04 #@! TO.C,D62*
X80510063Y-46330002D03*
X79396369Y-45216308D03*
G04 #@! TD*
D40*
G04 #@! TO.C,D207*
X191950047Y-81400000D03*
X194050047Y-81400000D03*
G04 #@! TD*
D12*
G04 #@! TO.C,D123*
X44506906Y-43826845D03*
X43393212Y-42713151D03*
G04 #@! TD*
D15*
G04 #@! TO.C,D40*
X29212547Y-94000000D03*
X30787547Y-94000000D03*
G04 #@! TD*
G04 #@! TO.C,D45*
X80507550Y-25269998D03*
X82082550Y-25269998D03*
G04 #@! TD*
D38*
G04 #@! TO.C,C24*
X66925047Y-70700000D03*
X68475047Y-70700000D03*
G04 #@! TD*
D21*
G04 #@! TO.C,R178*
X244690047Y-67000000D03*
X245710047Y-67000000D03*
G04 #@! TD*
G04 #@! TO.C,R75*
X242915060Y-50769999D03*
X243935060Y-50769999D03*
G04 #@! TD*
G04 #@! TO.C,R64*
X205443600Y-38700000D03*
X206463600Y-38700000D03*
G04 #@! TD*
D20*
G04 #@! TO.C,D184*
X66540055Y-33972498D03*
X66540055Y-35547498D03*
G04 #@! TD*
D13*
G04 #@! TO.C,C22*
X66120047Y-73600000D03*
X67080047Y-73600000D03*
G04 #@! TD*
D14*
G04 #@! TO.C,D172*
X78247557Y-49269999D03*
X76672557Y-49269999D03*
G04 #@! TD*
D11*
G04 #@! TO.C,R115*
X107546831Y-41488090D03*
X108268079Y-42209338D03*
G04 #@! TD*
D13*
G04 #@! TO.C,C37*
X202720047Y-69200000D03*
X203680047Y-69200000D03*
G04 #@! TD*
D49*
G04 #@! TO.C,U5*
X240750047Y-68662500D03*
X238850047Y-68662500D03*
X239800047Y-70937500D03*
G04 #@! TD*
D23*
G04 #@! TO.C,D90*
X38010031Y-28547497D03*
X38010031Y-26972497D03*
G04 #@! TD*
D16*
G04 #@! TO.C,R12*
X151740019Y-30774996D03*
X151740019Y-31794996D03*
G04 #@! TD*
D10*
G04 #@! TO.C,R132*
X34510031Y-47259999D03*
X34510031Y-46239999D03*
G04 #@! TD*
D14*
G04 #@! TO.C,D47*
X91737555Y-49269999D03*
X90162555Y-49269999D03*
G04 #@! TD*
D12*
G04 #@! TO.C,D82*
X29999457Y-46319396D03*
X28885763Y-45205702D03*
G04 #@! TD*
D21*
G04 #@! TO.C,R147*
X178885039Y-38774998D03*
X179905039Y-38774998D03*
G04 #@! TD*
D16*
G04 #@! TO.C,R69*
X36510031Y-30729997D03*
X36510031Y-31749997D03*
G04 #@! TD*
G04 #@! TO.C,R39*
X185250047Y-39260000D03*
X185250047Y-40280000D03*
G04 #@! TD*
D38*
G04 #@! TO.C,C41*
X107025047Y-67000000D03*
X108575047Y-67000000D03*
G04 #@! TD*
D20*
G04 #@! TO.C,D59*
X49750047Y-38952500D03*
X49750047Y-40527500D03*
G04 #@! TD*
D35*
G04 #@! TO.C,C3*
X78000047Y-56825000D03*
X78000047Y-55865000D03*
G04 #@! TD*
D11*
G04 #@! TO.C,R66*
X90568043Y-41509303D03*
X91289291Y-42230551D03*
G04 #@! TD*
D12*
G04 #@! TO.C,D148*
X61256906Y-31826845D03*
X60143212Y-30713151D03*
G04 #@! TD*
D15*
G04 #@! TO.C,D6*
X35712547Y-61500000D03*
X37287547Y-61500000D03*
G04 #@! TD*
D21*
G04 #@! TO.C,R15*
X188625055Y-38700000D03*
X189645055Y-38700000D03*
G04 #@! TD*
D11*
G04 #@! TO.C,R135*
X188800367Y-41491626D03*
X189521615Y-42212874D03*
G04 #@! TD*
D15*
G04 #@! TO.C,D12*
X42212547Y-64500000D03*
X43787547Y-64500000D03*
G04 #@! TD*
D12*
G04 #@! TO.C,D186*
X207507284Y-29327223D03*
X206393590Y-28213529D03*
G04 #@! TD*
D10*
G04 #@! TO.C,R152*
X118950059Y-28269998D03*
X118950059Y-27249998D03*
G04 #@! TD*
D29*
G04 #@! TO.C,Y1*
X186950047Y-75800000D03*
X184750047Y-75800000D03*
X184750047Y-77500000D03*
X186950047Y-77500000D03*
G04 #@! TD*
D21*
G04 #@! TO.C,R176*
X73690047Y-69200000D03*
X74710047Y-69200000D03*
G04 #@! TD*
D14*
G04 #@! TO.C,D75*
X44657538Y-49269999D03*
X43082538Y-49269999D03*
G04 #@! TD*
D50*
G04 #@! TO.C,D1*
X243600047Y-52950000D03*
X243600047Y-55050000D03*
G04 #@! TD*
D35*
G04 #@! TO.C,C31*
X69700047Y-72200000D03*
X69700047Y-71240000D03*
G04 #@! TD*
D13*
G04 #@! TO.C,C1*
X205320047Y-59145000D03*
X206280047Y-59145000D03*
G04 #@! TD*
D16*
G04 #@! TO.C,R126*
X53250047Y-34289998D03*
X53250047Y-35309998D03*
G04 #@! TD*
D15*
G04 #@! TO.C,D53*
X208987552Y-25269998D03*
X210562552Y-25269998D03*
G04 #@! TD*
D12*
G04 #@! TO.C,D144*
X241524962Y-41344901D03*
X240411268Y-40231207D03*
G04 #@! TD*
D15*
G04 #@! TO.C,D10*
X167712547Y-64500000D03*
X169287547Y-64500000D03*
G04 #@! TD*
D10*
G04 #@! TO.C,R51*
X118950059Y-43750000D03*
X118950059Y-42730000D03*
G04 #@! TD*
D11*
G04 #@! TO.C,R99*
X242028775Y-31970034D03*
X242750023Y-32691282D03*
G04 #@! TD*
D20*
G04 #@! TO.C,D198*
X198540055Y-26972498D03*
X198540055Y-28547498D03*
G04 #@! TD*
D10*
G04 #@! TO.C,R181*
X24000047Y-61110000D03*
X24000047Y-60090000D03*
G04 #@! TD*
D15*
G04 #@! TO.C,D8*
X161712547Y-64500000D03*
X163287547Y-64500000D03*
G04 #@! TD*
D23*
G04 #@! TO.C,D135*
X105450059Y-35577498D03*
X105450059Y-34002498D03*
G04 #@! TD*
D15*
G04 #@! TO.C,D38*
X158197547Y-90500000D03*
X159772547Y-90500000D03*
G04 #@! TD*
D23*
G04 #@! TO.C,D183*
X38010031Y-40572499D03*
X38010031Y-38997499D03*
G04 #@! TD*
D10*
G04 #@! TO.C,R109*
X51250047Y-35269998D03*
X51250047Y-34249998D03*
G04 #@! TD*
D23*
G04 #@! TO.C,D86*
X220490055Y-35577498D03*
X220490055Y-34002498D03*
G04 #@! TD*
D24*
G04 #@! TO.C,D205*
X243600047Y-57150000D03*
X243600047Y-60050000D03*
G04 #@! TD*
D16*
G04 #@! TO.C,R163*
X202040055Y-30759998D03*
X202040055Y-31779998D03*
G04 #@! TD*
D15*
G04 #@! TO.C,D24*
X151712547Y-77970000D03*
X153287547Y-77970000D03*
G04 #@! TD*
D30*
G04 #@! TO.C,R93*
X44540080Y-23769998D03*
X43520082Y-23769998D03*
G04 #@! TD*
D14*
G04 #@! TO.C,D83*
X180157539Y-49269999D03*
X178582539Y-49269999D03*
G04 #@! TD*
D20*
G04 #@! TO.C,D138*
X181750047Y-33972498D03*
X181750047Y-35547498D03*
G04 #@! TD*
D10*
G04 #@! TO.C,R162*
X68040055Y-31779998D03*
X68040055Y-30759998D03*
G04 #@! TD*
D51*
G04 #@! TO.C,U1*
X207537547Y-57695000D03*
X207537547Y-56745000D03*
X207537547Y-55795000D03*
X205262547Y-55795000D03*
X205262547Y-56745000D03*
X205262547Y-57695000D03*
G04 #@! TD*
D15*
G04 #@! TO.C,D177*
X56477568Y-25269998D03*
X58052568Y-25269998D03*
G04 #@! TD*
D20*
G04 #@! TO.C,D174*
X249450059Y-30482498D03*
X249450059Y-32057498D03*
G04 #@! TD*
D21*
G04 #@! TO.C,R5*
X82890047Y-56000000D03*
X83910047Y-56000000D03*
G04 #@! TD*
D10*
G04 #@! TO.C,R14*
X51250047Y-47245000D03*
X51250047Y-46225000D03*
G04 #@! TD*
D34*
G04 #@! TO.C,C16*
X59080047Y-75200000D03*
X58120047Y-75200000D03*
G04 #@! TD*
D21*
G04 #@! TO.C,R38*
X171875037Y-50769998D03*
X172895037Y-50769998D03*
G04 #@! TD*
D16*
G04 #@! TO.C,R179*
X71600047Y-56235000D03*
X71600047Y-57255000D03*
G04 #@! TD*
D23*
G04 #@! TO.C,D199*
X71540055Y-35577498D03*
X71540055Y-34002498D03*
G04 #@! TD*
D10*
G04 #@! TO.C,R165*
X233950059Y-43760000D03*
X233950059Y-42740000D03*
G04 #@! TD*
D21*
G04 #@! TO.C,R80*
X212525055Y-38774998D03*
X213545055Y-38774998D03*
G04 #@! TD*
G04 #@! TO.C,R95*
X60105053Y-50769999D03*
X61125053Y-50769999D03*
G04 #@! TD*
D14*
G04 #@! TO.C,D112*
X115727559Y-49269999D03*
X114152559Y-49269999D03*
G04 #@! TD*
D20*
G04 #@! TO.C,D138*
X49750047Y-33972498D03*
X49750047Y-35547498D03*
G04 #@! TD*
D10*
G04 #@! TO.C,R11*
X52553600Y-70920000D03*
X52553600Y-69900000D03*
G04 #@! TD*
D12*
G04 #@! TO.C,D131*
X46981780Y-46301719D03*
X45868086Y-45188025D03*
G04 #@! TD*
D10*
G04 #@! TO.C,R152*
X250950059Y-28269998D03*
X250950059Y-27249998D03*
G04 #@! TD*
D39*
G04 #@! TO.C,D209*
X121000047Y-37250000D03*
X121000047Y-35150000D03*
G04 #@! TD*
D14*
G04 #@! TO.C,D162*
X173197537Y-37274997D03*
X171622537Y-37274997D03*
G04 #@! TD*
D23*
G04 #@! TO.C,D98*
X170010031Y-32027497D03*
X170010031Y-30452497D03*
G04 #@! TD*
D12*
G04 #@! TO.C,D171*
X193256906Y-43826845D03*
X192143212Y-42713151D03*
G04 #@! TD*
D10*
G04 #@! TO.C,R51*
X250950059Y-43750000D03*
X250950059Y-42730000D03*
G04 #@! TD*
D16*
G04 #@! TO.C,R27*
X103950059Y-42740000D03*
X103950059Y-43760000D03*
G04 #@! TD*
D15*
G04 #@! TO.C,D73*
X23012594Y-25269998D03*
X24587594Y-25269998D03*
G04 #@! TD*
D20*
G04 #@! TO.C,D108*
X198540055Y-38952500D03*
X198540055Y-40527500D03*
G04 #@! TD*
G04 #@! TO.C,D181*
X117450059Y-26972498D03*
X117450059Y-28547498D03*
G04 #@! TD*
D11*
G04 #@! TO.C,R13*
X23306831Y-29488089D03*
X24028079Y-30209337D03*
G04 #@! TD*
D12*
G04 #@! TO.C,D171*
X61256906Y-43826845D03*
X60143212Y-42713151D03*
G04 #@! TD*
D33*
G04 #@! TO.C,AE1*
X208200047Y-77200000D03*
X211200047Y-81200000D03*
G04 #@! TD*
D30*
G04 #@! TO.C,R148*
X189775067Y-23769998D03*
X188755069Y-23769998D03*
G04 #@! TD*
D15*
G04 #@! TO.C,D45*
X212507550Y-25269998D03*
X214082550Y-25269998D03*
G04 #@! TD*
D35*
G04 #@! TO.C,C31*
X201700047Y-72200000D03*
X201700047Y-71240000D03*
G04 #@! TD*
D15*
G04 #@! TO.C,D11*
X170712547Y-64500000D03*
X172287547Y-64500000D03*
G04 #@! TD*
D11*
G04 #@! TO.C,R13*
X155306831Y-29488089D03*
X156028079Y-30209337D03*
G04 #@! TD*
G04 #@! TO.C,R111*
X188800366Y-29491627D03*
X189521614Y-30212875D03*
G04 #@! TD*
D23*
G04 #@! TO.C,D197*
X38010031Y-47552499D03*
X38010031Y-45977499D03*
G04 #@! TD*
D11*
G04 #@! TO.C,R123*
X110021704Y-43962963D03*
X110742952Y-44684211D03*
G04 #@! TD*
D14*
G04 #@! TO.C,D44*
X189922555Y-37274998D03*
X188347555Y-37274998D03*
G04 #@! TD*
D12*
G04 #@! TO.C,D54*
X210006906Y-43826845D03*
X208893212Y-42713151D03*
G04 #@! TD*
D21*
G04 #@! TO.C,R87*
X56600055Y-50769999D03*
X57620055Y-50769999D03*
G04 #@! TD*
G04 #@! TO.C,R133*
X171900037Y-38600000D03*
X172920037Y-38600000D03*
G04 #@! TD*
D23*
G04 #@! TO.C,D166*
X220490055Y-40557500D03*
X220490055Y-38982500D03*
G04 #@! TD*
D10*
G04 #@! TO.C,R105*
X233950059Y-28269998D03*
X233950059Y-27249998D03*
G04 #@! TD*
D40*
G04 #@! TO.C,D208*
X182750047Y-81400000D03*
X184850047Y-81400000D03*
G04 #@! TD*
D21*
G04 #@! TO.C,R167*
X30105025Y-50769998D03*
X31125025Y-50769998D03*
G04 #@! TD*
G04 #@! TO.C,R140*
X43395038Y-38774998D03*
X44415038Y-38774998D03*
G04 #@! TD*
D15*
G04 #@! TO.C,D7*
X38712547Y-61500000D03*
X40287547Y-61500000D03*
G04 #@! TD*
D36*
G04 #@! TO.C,C44*
X104450047Y-60087500D03*
X104450047Y-61637500D03*
G04 #@! TD*
D12*
G04 #@! TO.C,D95*
X224546174Y-41366113D03*
X223432480Y-40252419D03*
G04 #@! TD*
D16*
G04 #@! TO.C,R144*
X86990055Y-42740000D03*
X86990055Y-43760000D03*
G04 #@! TD*
D30*
G04 #@! TO.C,R183*
X63510047Y-67400000D03*
X62490047Y-67400000D03*
G04 #@! TD*
D23*
G04 #@! TO.C,D78*
X88490055Y-32042498D03*
X88490055Y-30467498D03*
G04 #@! TD*
D11*
G04 #@! TO.C,R17*
X205536225Y-41477484D03*
X206257473Y-42198732D03*
G04 #@! TD*
D21*
G04 #@! TO.C,R64*
X73443600Y-38700000D03*
X74463600Y-38700000D03*
G04 #@! TD*
D15*
G04 #@! TO.C,D20*
X155227547Y-74500000D03*
X156802547Y-74500000D03*
G04 #@! TD*
D52*
G04 #@! TO.C,D204*
X112650047Y-62600000D03*
X109750047Y-62600000D03*
G04 #@! TD*
D12*
G04 #@! TO.C,D79*
X95006906Y-31826845D03*
X93893212Y-30713151D03*
G04 #@! TD*
G04 #@! TO.C,D136*
X246492386Y-34312325D03*
X245378692Y-33198631D03*
G04 #@! TD*
D14*
G04 #@! TO.C,D63*
X230742557Y-49269999D03*
X229167557Y-49269999D03*
G04 #@! TD*
D36*
G04 #@! TO.C,C27*
X201100047Y-73925000D03*
X201100047Y-75475000D03*
G04 #@! TD*
D10*
G04 #@! TO.C,R89*
X233950059Y-35269998D03*
X233950059Y-34249998D03*
G04 #@! TD*
D12*
G04 #@! TO.C,D193*
X210006906Y-31826845D03*
X208893212Y-30713151D03*
G04 #@! TD*
D20*
G04 #@! TO.C,D167*
X249450059Y-33972498D03*
X249450059Y-35547498D03*
G04 #@! TD*
G04 #@! TO.C,D184*
X198540055Y-33972498D03*
X198540055Y-35547498D03*
G04 #@! TD*
D15*
G04 #@! TO.C,D114*
X178727582Y-25269999D03*
X180302582Y-25269999D03*
G04 #@! TD*
D20*
G04 #@! TO.C,D105*
X33010031Y-33957497D03*
X33010031Y-35532497D03*
G04 #@! TD*
D11*
G04 #@! TO.C,R66*
X222568043Y-41509303D03*
X223289291Y-42230551D03*
G04 #@! TD*
G04 #@! TO.C,R171*
X210531931Y-34473191D03*
X211253179Y-35194439D03*
G04 #@! TD*
D16*
G04 #@! TO.C,R168*
X168510031Y-46254999D03*
X168510031Y-47274999D03*
G04 #@! TD*
D14*
G04 #@! TO.C,D162*
X41197537Y-37274997D03*
X39622537Y-37274997D03*
G04 #@! TD*
D30*
G04 #@! TO.C,R122*
X243985056Y-23769998D03*
X242965058Y-23769998D03*
G04 #@! TD*
D21*
G04 #@! TO.C,R147*
X46885039Y-38774998D03*
X47905039Y-38774998D03*
G04 #@! TD*
D30*
G04 #@! TO.C,R148*
X57775067Y-23769998D03*
X56755069Y-23769998D03*
G04 #@! TD*
D34*
G04 #@! TO.C,C7*
X89180047Y-67400000D03*
X88220047Y-67400000D03*
G04 #@! TD*
D20*
G04 #@! TO.C,D194*
X232450059Y-42462500D03*
X232450059Y-44037500D03*
G04 #@! TD*
D12*
G04 #@! TO.C,D99*
X44506906Y-31826845D03*
X43393212Y-30713151D03*
G04 #@! TD*
D20*
G04 #@! TO.C,D126*
X232450059Y-30482498D03*
X232450059Y-32057498D03*
G04 #@! TD*
G04 #@! TO.C,D126*
X100450059Y-30482498D03*
X100450059Y-32057498D03*
G04 #@! TD*
D21*
G04 #@! TO.C,R18*
X222450055Y-50769999D03*
X223470055Y-50769999D03*
G04 #@! TD*
D11*
G04 #@! TO.C,R86*
X40075114Y-41516374D03*
X40796362Y-42237622D03*
G04 #@! TD*
D21*
G04 #@! TO.C,R67*
X239405061Y-50769999D03*
X240425061Y-50769999D03*
G04 #@! TD*
D15*
G04 #@! TO.C,D33*
X151712547Y-87500000D03*
X153287547Y-87500000D03*
G04 #@! TD*
D20*
G04 #@! TO.C,D118*
X232450059Y-33972498D03*
X232450059Y-35547498D03*
G04 #@! TD*
D21*
G04 #@! TO.C,R92*
X23110027Y-38600000D03*
X24130027Y-38600000D03*
G04 #@! TD*
D13*
G04 #@! TO.C,C22*
X198120047Y-73600000D03*
X199080047Y-73600000D03*
G04 #@! TD*
D12*
G04 #@! TO.C,D200*
X80510063Y-34330002D03*
X79396369Y-33216308D03*
G04 #@! TD*
D14*
G04 #@! TO.C,D101*
X78272557Y-37274998D03*
X76697557Y-37274998D03*
G04 #@! TD*
D23*
G04 #@! TO.C,D117*
X71540055Y-40542500D03*
X71540055Y-38967500D03*
G04 #@! TD*
D16*
G04 #@! TO.C,R151*
X218990055Y-46265000D03*
X218990055Y-47285000D03*
G04 #@! TD*
D11*
G04 #@! TO.C,R62*
X172071579Y-29512837D03*
X172792827Y-30234085D03*
G04 #@! TD*
D14*
G04 #@! TO.C,D47*
X223737555Y-49269999D03*
X222162555Y-49269999D03*
G04 #@! TD*
D10*
G04 #@! TO.C,R139*
X166510031Y-43774999D03*
X166510031Y-42754999D03*
G04 #@! TD*
D23*
G04 #@! TO.C,D173*
X220490055Y-44037500D03*
X220490055Y-42462500D03*
G04 #@! TD*
G04 #@! TO.C,D49*
X153240019Y-28592496D03*
X153240019Y-27017496D03*
G04 #@! TD*
D14*
G04 #@! TO.C,D67*
X173172537Y-49269998D03*
X171597537Y-49269998D03*
G04 #@! TD*
D16*
G04 #@! TO.C,R98*
X235950059Y-30759998D03*
X235950059Y-31779998D03*
G04 #@! TD*
D11*
G04 #@! TO.C,R149*
X61767789Y-46459049D03*
X62489037Y-47180297D03*
G04 #@! TD*
D16*
G04 #@! TO.C,R8*
X154800047Y-60070000D03*
X154800047Y-61090000D03*
G04 #@! TD*
D15*
G04 #@! TO.C,D16*
X158212547Y-71000000D03*
X159787547Y-71000000D03*
G04 #@! TD*
D23*
G04 #@! TO.C,D147*
X186750047Y-32057498D03*
X186750047Y-30482498D03*
G04 #@! TD*
D21*
G04 #@! TO.C,R113*
X90465055Y-38774998D03*
X91485055Y-38774998D03*
G04 #@! TD*
D34*
G04 #@! TO.C,C21*
X59680047Y-76300000D03*
X58720047Y-76300000D03*
G04 #@! TD*
D47*
G04 #@! TO.C,C13*
X183050047Y-76120000D03*
X183050047Y-77080000D03*
G04 #@! TD*
D21*
G04 #@! TO.C,R83*
X246430059Y-50769999D03*
X247450059Y-50769999D03*
G04 #@! TD*
D23*
G04 #@! TO.C,D185*
X203540055Y-28577498D03*
X203540055Y-27002498D03*
G04 #@! TD*
D12*
G04 #@! TO.C,D152*
X112006906Y-43826845D03*
X110893212Y-42713151D03*
G04 #@! TD*
G04 #@! TO.C,D103*
X227006906Y-43826845D03*
X225893212Y-42713151D03*
G04 #@! TD*
G04 #@! TO.C,D186*
X75507284Y-29327223D03*
X74393590Y-28213529D03*
G04 #@! TD*
D14*
G04 #@! TO.C,D104*
X244212560Y-49269999D03*
X242637560Y-49269999D03*
G04 #@! TD*
D16*
G04 #@! TO.C,R179*
X203600047Y-56235000D03*
X203600047Y-57255000D03*
G04 #@! TD*
D12*
G04 #@! TO.C,D62*
X212510063Y-46330002D03*
X211396369Y-45216308D03*
G04 #@! TD*
D14*
G04 #@! TO.C,D169*
X44682538Y-37274998D03*
X43107538Y-37274998D03*
G04 #@! TD*
D25*
G04 #@! TO.C,C4*
X83400047Y-62775000D03*
X83400047Y-61225000D03*
G04 #@! TD*
D23*
G04 #@! TO.C,D48*
X105450059Y-40557500D03*
X105450059Y-38982500D03*
G04 #@! TD*
D14*
G04 #@! TO.C,D124*
X61402553Y-49269999D03*
X59827553Y-49269999D03*
G04 #@! TD*
D30*
G04 #@! TO.C,R73*
X226965062Y-23769999D03*
X225945064Y-23769999D03*
G04 #@! TD*
D10*
G04 #@! TO.C,R89*
X101950059Y-35269998D03*
X101950059Y-34249998D03*
G04 #@! TD*
D14*
G04 #@! TO.C,D116*
X189897555Y-49269999D03*
X188322555Y-49269999D03*
G04 #@! TD*
D23*
G04 #@! TO.C,D183*
X170010031Y-40572499D03*
X170010031Y-38997499D03*
G04 #@! TD*
G04 #@! TO.C,D70*
X88490055Y-28577498D03*
X88490055Y-27002498D03*
G04 #@! TD*
D15*
G04 #@! TO.C,D159*
X239172558Y-25269998D03*
X240747558Y-25269998D03*
G04 #@! TD*
D12*
G04 #@! TO.C,D42*
X25284962Y-29344899D03*
X24171268Y-28231205D03*
G04 #@! TD*
D15*
G04 #@! TO.C,D13*
X158212547Y-68000000D03*
X159787547Y-68000000D03*
G04 #@! TD*
D16*
G04 #@! TO.C,R98*
X103950059Y-30759998D03*
X103950059Y-31779998D03*
G04 #@! TD*
D21*
G04 #@! TO.C,R75*
X110915060Y-50769999D03*
X111935060Y-50769999D03*
G04 #@! TD*
D30*
G04 #@! TO.C,R130*
X108470057Y-23769999D03*
X107450059Y-23769999D03*
G04 #@! TD*
D20*
G04 #@! TO.C,D149*
X83490055Y-42462500D03*
X83490055Y-44037500D03*
G04 #@! TD*
D47*
G04 #@! TO.C,C17*
X64100047Y-75420000D03*
X64100047Y-76380000D03*
G04 #@! TD*
D10*
G04 #@! TO.C,R60*
X34510031Y-31764997D03*
X34510031Y-30744997D03*
G04 #@! TD*
D11*
G04 #@! TO.C,R62*
X40071579Y-29512837D03*
X40792827Y-30234085D03*
G04 #@! TD*
D16*
G04 #@! TO.C,R20*
X151740019Y-27294996D03*
X151740019Y-28314996D03*
G04 #@! TD*
D21*
G04 #@! TO.C,R103*
X195625051Y-50769999D03*
X196645051Y-50769999D03*
G04 #@! TD*
D26*
G04 #@! TO.C,C14*
X58575047Y-66300000D03*
X57025047Y-66300000D03*
G04 #@! TD*
D11*
G04 #@! TO.C,R127*
X193767789Y-34459049D03*
X194489037Y-35180297D03*
G04 #@! TD*
D15*
G04 #@! TO.C,D163*
X63502564Y-25269998D03*
X65077564Y-25269998D03*
G04 #@! TD*
G04 #@! TO.C,D29*
X174212547Y-81500000D03*
X175787547Y-81500000D03*
G04 #@! TD*
D23*
G04 #@! TO.C,D57*
X21240019Y-35592496D03*
X21240019Y-34017496D03*
G04 #@! TD*
D11*
G04 #@! TO.C,R99*
X110028775Y-31970034D03*
X110750023Y-32691282D03*
G04 #@! TD*
D14*
G04 #@! TO.C,D63*
X98742557Y-49269999D03*
X97167557Y-49269999D03*
G04 #@! TD*
D16*
G04 #@! TO.C,R8*
X22800047Y-60070000D03*
X22800047Y-61090000D03*
G04 #@! TD*
D21*
G04 #@! TO.C,R83*
X114430059Y-50769999D03*
X115450059Y-50769999D03*
G04 #@! TD*
D36*
G04 #@! TO.C,C23*
X196900047Y-78225000D03*
X196900047Y-79775000D03*
G04 #@! TD*
D10*
G04 #@! TO.C,R60*
X166510031Y-31764997D03*
X166510031Y-30744997D03*
G04 #@! TD*
D20*
G04 #@! TO.C,D69*
X215490055Y-33987498D03*
X215490055Y-35562498D03*
G04 #@! TD*
D16*
G04 #@! TO.C,R61*
X168510031Y-27259997D03*
X168510031Y-28279997D03*
G04 #@! TD*
D53*
G04 #@! TO.C,L2*
X199427547Y-69200000D03*
X200572547Y-69200000D03*
G04 #@! TD*
D20*
G04 #@! TO.C,D191*
X198540055Y-30482498D03*
X198540055Y-32057498D03*
G04 #@! TD*
D23*
G04 #@! TO.C,D49*
X21240019Y-28592496D03*
X21240019Y-27017496D03*
G04 #@! TD*
D14*
G04 #@! TO.C,D182*
X156367527Y-49269997D03*
X154792527Y-49269997D03*
G04 #@! TD*
D30*
G04 #@! TO.C,R44*
X156295093Y-23769998D03*
X155275095Y-23769998D03*
G04 #@! TD*
D10*
G04 #@! TO.C,R40*
X84990055Y-35269998D03*
X84990055Y-34249998D03*
G04 #@! TD*
G04 #@! TO.C,R169*
X200040055Y-28269998D03*
X200040055Y-27249998D03*
G04 #@! TD*
D14*
G04 #@! TO.C,D93*
X74737559Y-37274998D03*
X73162559Y-37274998D03*
G04 #@! TD*
D20*
G04 #@! TO.C,D92*
X198540055Y-45947500D03*
X198540055Y-47522500D03*
G04 #@! TD*
D14*
G04 #@! TO.C,D96*
X108702561Y-49269999D03*
X107127561Y-49269999D03*
G04 #@! TD*
D15*
G04 #@! TO.C,D170*
X191997566Y-25269998D03*
X193572566Y-25269998D03*
G04 #@! TD*
D34*
G04 #@! TO.C,C16*
X191080047Y-75200000D03*
X190120047Y-75200000D03*
G04 #@! TD*
D16*
G04 #@! TO.C,R106*
X235950059Y-34279998D03*
X235950059Y-35299998D03*
G04 #@! TD*
D11*
G04 #@! TO.C,R37*
X155046831Y-41488090D03*
X155768079Y-42209338D03*
G04 #@! TD*
D12*
G04 #@! TO.C,D120*
X241514355Y-29334294D03*
X240400661Y-28220600D03*
G04 #@! TD*
D15*
G04 #@! TO.C,D5*
X164712547Y-61500000D03*
X166287547Y-61500000D03*
G04 #@! TD*
D12*
G04 #@! TO.C,D128*
X112006906Y-31826845D03*
X110893212Y-30713151D03*
G04 #@! TD*
D11*
G04 #@! TO.C,R107*
X112514255Y-34455515D03*
X113235503Y-35176763D03*
G04 #@! TD*
D23*
G04 #@! TO.C,D119*
X105450059Y-28577498D03*
X105450059Y-27002498D03*
G04 #@! TD*
D11*
G04 #@! TO.C,R25*
X208028775Y-43970034D03*
X208750023Y-44691282D03*
G04 #@! TD*
D15*
G04 #@! TO.C,D143*
X114197556Y-25269998D03*
X115772556Y-25269998D03*
G04 #@! TD*
D10*
G04 #@! TO.C,R138*
X250950059Y-35269998D03*
X250950059Y-34249998D03*
G04 #@! TD*
D15*
G04 #@! TO.C,D35*
X35712547Y-71000000D03*
X37287547Y-71000000D03*
G04 #@! TD*
D21*
G04 #@! TO.C,R159*
X107430061Y-38600000D03*
X108450061Y-38600000D03*
G04 #@! TD*
G04 #@! TO.C,R46*
X43360038Y-50769999D03*
X44380038Y-50769999D03*
G04 #@! TD*
D11*
G04 #@! TO.C,R17*
X73536225Y-41477484D03*
X74257473Y-42198732D03*
G04 #@! TD*
D21*
G04 #@! TO.C,R18*
X90450055Y-50769999D03*
X91470055Y-50769999D03*
G04 #@! TD*
D20*
G04 #@! TO.C,D194*
X100450059Y-42462500D03*
X100450059Y-44037500D03*
G04 #@! TD*
D12*
G04 #@! TO.C,D115*
X174067388Y-41359042D03*
X172953694Y-40245348D03*
G04 #@! TD*
D14*
G04 #@! TO.C,D55*
X95247556Y-49269999D03*
X93672556Y-49269999D03*
G04 #@! TD*
D12*
G04 #@! TO.C,D156*
X63745920Y-34315859D03*
X62632226Y-33202165D03*
G04 #@! TD*
D16*
G04 #@! TO.C,R88*
X202040055Y-39270000D03*
X202040055Y-40290000D03*
G04 #@! TD*
D11*
G04 #@! TO.C,R119*
X59278775Y-31970034D03*
X60000023Y-32691282D03*
G04 #@! TD*
D12*
G04 #@! TO.C,D160*
X114492386Y-46312325D03*
X113378692Y-45198631D03*
G04 #@! TD*
D15*
G04 #@! TO.C,D2*
X32727547Y-58000000D03*
X34302547Y-58000000D03*
G04 #@! TD*
D10*
G04 #@! TO.C,R139*
X34510031Y-43774999D03*
X34510031Y-42754999D03*
G04 #@! TD*
D23*
G04 #@! TO.C,D106*
X170010031Y-35547497D03*
X170010031Y-33972497D03*
G04 #@! TD*
D21*
G04 #@! TO.C,R153*
X155070027Y-50769997D03*
X156090027Y-50769997D03*
G04 #@! TD*
D15*
G04 #@! TO.C,D23*
X42212547Y-74500000D03*
X43787547Y-74500000D03*
G04 #@! TD*
D13*
G04 #@! TO.C,C12*
X185970047Y-74300000D03*
X186930047Y-74300000D03*
G04 #@! TD*
D16*
G04 #@! TO.C,R69*
X168510031Y-30729997D03*
X168510031Y-31749997D03*
G04 #@! TD*
D20*
G04 #@! TO.C,D149*
X215490055Y-42462500D03*
X215490055Y-44037500D03*
G04 #@! TD*
D13*
G04 #@! TO.C,C35*
X202720047Y-73300000D03*
X203680047Y-73300000D03*
G04 #@! TD*
D10*
G04 #@! TO.C,R155*
X200040055Y-35269998D03*
X200040055Y-34249998D03*
G04 #@! TD*
D16*
G04 #@! TO.C,R10*
X114000047Y-59290000D03*
X114000047Y-60310000D03*
G04 #@! TD*
D11*
G04 #@! TO.C,R82*
X95521328Y-46462587D03*
X96242576Y-47183835D03*
G04 #@! TD*
D14*
G04 #@! TO.C,D52*
X193427553Y-37274998D03*
X191852553Y-37274998D03*
G04 #@! TD*
D15*
G04 #@! TO.C,D37*
X155212547Y-90500000D03*
X156787547Y-90500000D03*
G04 #@! TD*
D16*
G04 #@! TO.C,R116*
X19740019Y-42739998D03*
X19740019Y-43759998D03*
G04 #@! TD*
D21*
G04 #@! TO.C,R31*
X63660051Y-38774998D03*
X64680051Y-38774998D03*
G04 #@! TD*
D15*
G04 #@! TO.C,D37*
X23212547Y-90500000D03*
X24787547Y-90500000D03*
G04 #@! TD*
D11*
G04 #@! TO.C,R53*
X160021326Y-46462586D03*
X160742574Y-47183834D03*
G04 #@! TD*
G04 #@! TO.C,R127*
X61767789Y-34459049D03*
X62489037Y-35180297D03*
G04 #@! TD*
D15*
G04 #@! TO.C,D163*
X195502564Y-25269998D03*
X197077564Y-25269998D03*
G04 #@! TD*
D47*
G04 #@! TO.C,C13*
X51050047Y-76120000D03*
X51050047Y-77080000D03*
G04 #@! TD*
D16*
G04 #@! TO.C,R110*
X53250047Y-27279998D03*
X53250047Y-28299998D03*
G04 #@! TD*
D34*
G04 #@! TO.C,C7*
X221180047Y-67400000D03*
X220220047Y-67400000D03*
G04 #@! TD*
D21*
G04 #@! TO.C,R175*
X73690047Y-72200000D03*
X74710047Y-72200000D03*
G04 #@! TD*
D20*
G04 #@! TO.C,D146*
X49750047Y-30482498D03*
X49750047Y-32057498D03*
G04 #@! TD*
D16*
G04 #@! TO.C,R19*
X103950059Y-39260000D03*
X103950059Y-40280000D03*
G04 #@! TD*
D23*
G04 #@! TO.C,D125*
X203540055Y-44037500D03*
X203540055Y-42462500D03*
G04 #@! TD*
D48*
G04 #@! TO.C,U6*
X232900047Y-61637500D03*
X234800047Y-61637500D03*
X233850047Y-59362500D03*
G04 #@! TD*
D14*
G04 #@! TO.C,D142*
X91762555Y-37274998D03*
X90187555Y-37274998D03*
G04 #@! TD*
D10*
G04 #@! TO.C,R125*
X51250047Y-28269998D03*
X51250047Y-27249998D03*
G04 #@! TD*
D11*
G04 #@! TO.C,R131*
X244514255Y-46455515D03*
X245235503Y-47176763D03*
G04 #@! TD*
D14*
G04 #@! TO.C,D132*
X64922551Y-49269999D03*
X63347551Y-49269999D03*
G04 #@! TD*
D12*
G04 #@! TO.C,D115*
X42067388Y-41359042D03*
X40953694Y-40245348D03*
G04 #@! TD*
D10*
G04 #@! TO.C,R1*
X71600047Y-59255000D03*
X71600047Y-58235000D03*
G04 #@! TD*
G04 #@! TO.C,R155*
X68040055Y-35269998D03*
X68040055Y-34249998D03*
G04 #@! TD*
D15*
G04 #@! TO.C,D18*
X32712547Y-71000000D03*
X34287547Y-71000000D03*
G04 #@! TD*
G04 #@! TO.C,D19*
X38712547Y-71000000D03*
X40287547Y-71000000D03*
G04 #@! TD*
D47*
G04 #@! TO.C,C20*
X195100047Y-75445000D03*
X195100047Y-76405000D03*
G04 #@! TD*
D27*
G04 #@! TO.C,S3*
X60750047Y-92200000D03*
X60750047Y-83800000D03*
X65250047Y-92200000D03*
X65250047Y-83800000D03*
X63000047Y-83800000D03*
G04 #@! TD*
D20*
G04 #@! TO.C,D146*
X181750047Y-30482498D03*
X181750047Y-32057498D03*
G04 #@! TD*
D11*
G04 #@! TO.C,R42*
X222564507Y-29505766D03*
X223285755Y-30227014D03*
G04 #@! TD*
G04 #@! TO.C,R58*
X95510720Y-34451980D03*
X96231968Y-35173228D03*
G04 #@! TD*
D10*
G04 #@! TO.C,R97*
X233950059Y-31779998D03*
X233950059Y-30759998D03*
G04 #@! TD*
D21*
G04 #@! TO.C,R72*
X76975057Y-38774998D03*
X77995057Y-38774998D03*
G04 #@! TD*
D10*
G04 #@! TO.C,R9*
X114000047Y-56110000D03*
X114000047Y-55090000D03*
G04 #@! TD*
D13*
G04 #@! TO.C,C18*
X198120047Y-74600000D03*
X199080047Y-74600000D03*
G04 #@! TD*
D35*
G04 #@! TO.C,C11*
X156575047Y-55967500D03*
X156575047Y-55007500D03*
G04 #@! TD*
D14*
G04 #@! TO.C,D165*
X74712559Y-49269999D03*
X73137559Y-49269999D03*
G04 #@! TD*
D16*
G04 #@! TO.C,R156*
X70040055Y-27289998D03*
X70040055Y-28309998D03*
G04 #@! TD*
G04 #@! TO.C,R88*
X70040055Y-39270000D03*
X70040055Y-40290000D03*
G04 #@! TD*
D21*
G04 #@! TO.C,R129*
X229470057Y-38774998D03*
X230490057Y-38774998D03*
G04 #@! TD*
D23*
G04 #@! TO.C,D153*
X153240019Y-47552498D03*
X153240019Y-45977498D03*
G04 #@! TD*
D10*
G04 #@! TO.C,R76*
X166510031Y-35254997D03*
X166510031Y-34234997D03*
G04 #@! TD*
D13*
G04 #@! TO.C,C29*
X66120047Y-75600000D03*
X67080047Y-75600000D03*
G04 #@! TD*
D26*
G04 #@! TO.C,C2*
X228375047Y-68800000D03*
X226825047Y-68800000D03*
G04 #@! TD*
D23*
G04 #@! TO.C,D180*
X88490055Y-47552500D03*
X88490055Y-45977500D03*
G04 #@! TD*
D15*
G04 #@! TO.C,D31*
X23212547Y-84500000D03*
X24787547Y-84500000D03*
G04 #@! TD*
D21*
G04 #@! TO.C,R80*
X80525055Y-38774998D03*
X81545055Y-38774998D03*
G04 #@! TD*
D14*
G04 #@! TO.C,D75*
X176657538Y-49269999D03*
X175082538Y-49269999D03*
G04 #@! TD*
D16*
G04 #@! TO.C,R55*
X53250047Y-46255000D03*
X53250047Y-47275000D03*
G04 #@! TD*
D11*
G04 #@! TO.C,R94*
X174539382Y-43980641D03*
X175260630Y-44701889D03*
G04 #@! TD*
D14*
G04 #@! TO.C,D113*
X31427525Y-37274997D03*
X29852525Y-37274997D03*
G04 #@! TD*
D10*
G04 #@! TO.C,R30*
X51250047Y-40250000D03*
X51250047Y-39230000D03*
G04 #@! TD*
D13*
G04 #@! TO.C,C1*
X73320047Y-59145000D03*
X74280047Y-59145000D03*
G04 #@! TD*
D16*
G04 #@! TO.C,R118*
X185250047Y-30759998D03*
X185250047Y-31779998D03*
G04 #@! TD*
G04 #@! TO.C,R61*
X36510031Y-27259997D03*
X36510031Y-28279997D03*
G04 #@! TD*
D12*
G04 #@! TO.C,D152*
X244006906Y-43826845D03*
X242893212Y-42713151D03*
G04 #@! TD*
D15*
G04 #@! TO.C,D32*
X42212547Y-84500000D03*
X43787547Y-84500000D03*
G04 #@! TD*
D25*
G04 #@! TO.C,C42*
X242400047Y-70775000D03*
X242400047Y-69225000D03*
G04 #@! TD*
D16*
G04 #@! TO.C,R77*
X36510031Y-34249997D03*
X36510031Y-35269997D03*
G04 #@! TD*
D13*
G04 #@! TO.C,C12*
X53970047Y-74300000D03*
X54930047Y-74300000D03*
G04 #@! TD*
D47*
G04 #@! TO.C,C19*
X197700047Y-70220000D03*
X197700047Y-71180000D03*
G04 #@! TD*
D23*
G04 #@! TO.C,D139*
X186750047Y-28577498D03*
X186750047Y-27002498D03*
G04 #@! TD*
D15*
G04 #@! TO.C,D143*
X246197556Y-25269998D03*
X247772556Y-25269998D03*
G04 #@! TD*
D30*
G04 #@! TO.C,R101*
X173030079Y-23769998D03*
X172010081Y-23769998D03*
G04 #@! TD*
D16*
G04 #@! TO.C,R28*
X151740019Y-34294996D03*
X151740019Y-35314996D03*
G04 #@! TD*
D13*
G04 #@! TO.C,C35*
X70720047Y-73300000D03*
X71680047Y-73300000D03*
G04 #@! TD*
D16*
G04 #@! TO.C,R49*
X86990055Y-30759998D03*
X86990055Y-31779998D03*
G04 #@! TD*
D11*
G04 #@! TO.C,R82*
X227521328Y-46462587D03*
X228242576Y-47183835D03*
G04 #@! TD*
D15*
G04 #@! TO.C,D81*
X162047592Y-25269999D03*
X163622592Y-25269999D03*
G04 #@! TD*
D16*
G04 #@! TO.C,R41*
X218990055Y-27279998D03*
X218990055Y-28299998D03*
G04 #@! TD*
D11*
G04 #@! TO.C,R102*
X45014257Y-46455516D03*
X45735505Y-47176764D03*
G04 #@! TD*
D21*
G04 #@! TO.C,R177*
X78090047Y-57945000D03*
X79110047Y-57945000D03*
G04 #@! TD*
D13*
G04 #@! TO.C,C30*
X202720047Y-74300000D03*
X203680047Y-74300000D03*
G04 #@! TD*
D23*
G04 #@! TO.C,D192*
X203540055Y-32057498D03*
X203540055Y-30482498D03*
G04 #@! TD*
D54*
G04 #@! TO.C,S1*
X250250047Y-70750000D03*
X250250047Y-67750000D03*
X250250047Y-66250000D03*
D55*
X250900047Y-72150000D03*
X250900047Y-64850000D03*
X253100047Y-72150000D03*
X253100047Y-64850000D03*
G04 #@! TD*
D20*
G04 #@! TO.C,D80*
X249450059Y-42462500D03*
X249450059Y-44037500D03*
G04 #@! TD*
D26*
G04 #@! TO.C,C43*
X102625047Y-63300000D03*
X101075047Y-63300000D03*
G04 #@! TD*
D10*
G04 #@! TO.C,R97*
X101950059Y-31779998D03*
X101950059Y-30759998D03*
G04 #@! TD*
D21*
G04 #@! TO.C,R103*
X63625051Y-50769999D03*
X64645051Y-50769999D03*
G04 #@! TD*
D23*
G04 #@! TO.C,D125*
X71540055Y-44037500D03*
X71540055Y-42462500D03*
G04 #@! TD*
D15*
G04 #@! TO.C,D28*
X155212547Y-81500000D03*
X156787547Y-81500000D03*
G04 #@! TD*
D10*
G04 #@! TO.C,R105*
X101950059Y-28269998D03*
X101950059Y-27249998D03*
G04 #@! TD*
D30*
G04 #@! TO.C,R141*
X61295065Y-23769998D03*
X60275067Y-23769998D03*
G04 #@! TD*
D16*
G04 #@! TO.C,R124*
X19740019Y-46254998D03*
X19740019Y-47274998D03*
G04 #@! TD*
G04 #@! TO.C,R144*
X218990055Y-42740000D03*
X218990055Y-43760000D03*
G04 #@! TD*
D23*
G04 #@! TO.C,D155*
X54750047Y-35592498D03*
X54750047Y-34017498D03*
G04 #@! TD*
D14*
G04 #@! TO.C,D142*
X223762555Y-37274998D03*
X222187555Y-37274998D03*
G04 #@! TD*
D30*
G04 #@! TO.C,R85*
X48015081Y-23769999D03*
X46995083Y-23769999D03*
G04 #@! TD*
D11*
G04 #@! TO.C,R135*
X56800367Y-41491626D03*
X57521615Y-42212874D03*
G04 #@! TD*
D23*
G04 #@! TO.C,D137*
X153240019Y-40557498D03*
X153240019Y-38982498D03*
G04 #@! TD*
D15*
G04 #@! TO.C,D25*
X155212547Y-78000000D03*
X156787547Y-78000000D03*
G04 #@! TD*
G04 #@! TO.C,D5*
X32712547Y-61500000D03*
X34287547Y-61500000D03*
G04 #@! TD*
D20*
G04 #@! TO.C,D175*
X33010031Y-38967499D03*
X33010031Y-40542499D03*
G04 #@! TD*
D11*
G04 #@! TO.C,R142*
X59278775Y-43970034D03*
X60000023Y-44691282D03*
G04 #@! TD*
D10*
G04 #@! TO.C,R172*
X233950059Y-40250000D03*
X233950059Y-39230000D03*
G04 #@! TD*
D13*
G04 #@! TO.C,C38*
X202720047Y-68100000D03*
X203680047Y-68100000D03*
G04 #@! TD*
D14*
G04 #@! TO.C,D179*
X81787555Y-49269999D03*
X80212555Y-49269999D03*
G04 #@! TD*
D23*
G04 #@! TO.C,D41*
X153240019Y-32072496D03*
X153240019Y-30497496D03*
G04 #@! TD*
D10*
G04 #@! TO.C,R59*
X250950059Y-40250000D03*
X250950059Y-39230000D03*
G04 #@! TD*
D28*
G04 #@! TO.C,H5*
X165000047Y-100000000D03*
G04 #@! TD*
D15*
G04 #@! TO.C,D110*
X90157562Y-25269998D03*
X91732562Y-25269998D03*
G04 #@! TD*
D20*
G04 #@! TO.C,D198*
X66540055Y-26972498D03*
X66540055Y-28547498D03*
G04 #@! TD*
D39*
G04 #@! TO.C,D214*
X121000047Y-25850000D03*
X121000047Y-23750000D03*
G04 #@! TD*
D11*
G04 #@! TO.C,R94*
X42539382Y-43980641D03*
X43260630Y-44701889D03*
G04 #@! TD*
G04 #@! TO.C,R107*
X244514255Y-34455515D03*
X245235503Y-35176763D03*
G04 #@! TD*
D21*
G04 #@! TO.C,R167*
X162105025Y-50769998D03*
X163125025Y-50769998D03*
G04 #@! TD*
D14*
G04 #@! TO.C,D188*
X108727561Y-37274998D03*
X107152561Y-37274998D03*
G04 #@! TD*
D21*
G04 #@! TO.C,R4*
X76290047Y-59145000D03*
X77310047Y-59145000D03*
G04 #@! TD*
D10*
G04 #@! TO.C,R22*
X183250047Y-43760000D03*
X183250047Y-42740000D03*
G04 #@! TD*
D53*
G04 #@! TO.C,L1*
X199427547Y-72200000D03*
X200572547Y-72200000D03*
G04 #@! TD*
D14*
G04 #@! TO.C,D196*
X31402525Y-49269998D03*
X29827525Y-49269998D03*
G04 #@! TD*
D10*
G04 #@! TO.C,R169*
X68040055Y-28269998D03*
X68040055Y-27249998D03*
G04 #@! TD*
G04 #@! TO.C,R22*
X51250047Y-43760000D03*
X51250047Y-42740000D03*
G04 #@! TD*
D13*
G04 #@! TO.C,C36*
X70720047Y-72200000D03*
X71680047Y-72200000D03*
G04 #@! TD*
D23*
G04 #@! TO.C,D137*
X21240019Y-40557498D03*
X21240019Y-38982498D03*
G04 #@! TD*
D30*
G04 #@! TO.C,R122*
X111985056Y-23769998D03*
X110965058Y-23769998D03*
G04 #@! TD*
D11*
G04 #@! TO.C,R37*
X23046831Y-41488090D03*
X23768079Y-42209338D03*
G04 #@! TD*
D21*
G04 #@! TO.C,R178*
X112690047Y-67000000D03*
X113710047Y-67000000D03*
G04 #@! TD*
D12*
G04 #@! TO.C,D160*
X246492386Y-46312325D03*
X245378692Y-45198631D03*
G04 #@! TD*
D11*
G04 #@! TO.C,R164*
X208028775Y-31970034D03*
X208750023Y-32691282D03*
G04 #@! TD*
D15*
G04 #@! TO.C,D2*
X164727547Y-58000000D03*
X166302547Y-58000000D03*
G04 #@! TD*
D10*
G04 #@! TO.C,R63*
X68040055Y-47235000D03*
X68040055Y-46215000D03*
G04 #@! TD*
D16*
G04 #@! TO.C,R116*
X151740019Y-42739998D03*
X151740019Y-43759998D03*
G04 #@! TD*
D21*
G04 #@! TO.C,R140*
X175395038Y-38774998D03*
X176415038Y-38774998D03*
G04 #@! TD*
G04 #@! TO.C,R26*
X225945056Y-50769999D03*
X226965056Y-50769999D03*
G04 #@! TD*
D10*
G04 #@! TO.C,R158*
X101950059Y-47245000D03*
X101950059Y-46225000D03*
G04 #@! TD*
D12*
G04 #@! TO.C,D156*
X195745920Y-34315859D03*
X194632226Y-33202165D03*
G04 #@! TD*
D47*
G04 #@! TO.C,C17*
X196100047Y-75420000D03*
X196100047Y-76380000D03*
G04 #@! TD*
D15*
G04 #@! TO.C,D40*
X161212547Y-94000000D03*
X162787547Y-94000000D03*
G04 #@! TD*
D16*
G04 #@! TO.C,R124*
X151740019Y-46254998D03*
X151740019Y-47274998D03*
G04 #@! TD*
D56*
G04 #@! TO.C,U4*
X191550047Y-73887500D03*
X192050047Y-73887500D03*
X192550047Y-73887500D03*
X193050047Y-73887500D03*
X193550047Y-73887500D03*
X194050047Y-73887500D03*
X194550047Y-73887500D03*
X195050047Y-73887500D03*
D57*
X195737547Y-73200000D03*
X195737547Y-72700000D03*
X195737547Y-72200000D03*
X195737547Y-71700000D03*
X195737547Y-71200000D03*
X195737547Y-70700000D03*
X195737547Y-70200000D03*
X195737547Y-69700000D03*
D56*
X195050047Y-69012500D03*
X194550047Y-69012500D03*
X194050047Y-69012500D03*
X193550047Y-69012500D03*
X193050047Y-69012500D03*
X192550047Y-69012500D03*
X192050047Y-69012500D03*
X191550047Y-69012500D03*
D57*
X190862547Y-69700000D03*
X190862547Y-70200000D03*
X190862547Y-70700000D03*
X190862547Y-71200000D03*
X190862547Y-71700000D03*
X190862547Y-72200000D03*
X190862547Y-72700000D03*
X190862547Y-73200000D03*
D58*
X193300047Y-71450000D03*
G04 #@! TD*
D11*
G04 #@! TO.C,R171*
X78531931Y-34473191D03*
X79253179Y-35194439D03*
G04 #@! TD*
D47*
G04 #@! TO.C,C19*
X65700047Y-70220000D03*
X65700047Y-71180000D03*
G04 #@! TD*
D12*
G04 #@! TO.C,D128*
X244006906Y-31826845D03*
X242893212Y-30713151D03*
G04 #@! TD*
D23*
G04 #@! TO.C,D145*
X21240019Y-44037498D03*
X21240019Y-42462498D03*
G04 #@! TD*
D30*
G04 #@! TO.C,R16*
X81805049Y-23769998D03*
X80785051Y-23769998D03*
G04 #@! TD*
G04 #@! TO.C,R141*
X193295065Y-23769998D03*
X192275067Y-23769998D03*
G04 #@! TD*
D11*
G04 #@! TO.C,R25*
X76028775Y-43970034D03*
X76750023Y-44691282D03*
G04 #@! TD*
D30*
G04 #@! TO.C,R81*
X223455061Y-23769998D03*
X222435063Y-23769998D03*
G04 #@! TD*
D11*
G04 #@! TO.C,R86*
X172075114Y-41516374D03*
X172796362Y-42237622D03*
G04 #@! TD*
D36*
G04 #@! TO.C,C25*
X193800047Y-77225000D03*
X193800047Y-78775000D03*
G04 #@! TD*
D11*
G04 #@! TO.C,R70*
X42528775Y-31970034D03*
X43250023Y-32691282D03*
G04 #@! TD*
D12*
G04 #@! TO.C,D120*
X109514355Y-29334294D03*
X108400661Y-28220600D03*
G04 #@! TD*
D50*
G04 #@! TO.C,D1*
X111600047Y-52950000D03*
X111600047Y-55050000D03*
G04 #@! TD*
D20*
G04 #@! TO.C,D157*
X83490055Y-38952500D03*
X83490055Y-40527500D03*
G04 #@! TD*
G04 #@! TO.C,D72*
X117450059Y-45947500D03*
X117450059Y-47522500D03*
G04 #@! TD*
D15*
G04 #@! TO.C,D15*
X164712547Y-68000000D03*
X166287547Y-68000000D03*
G04 #@! TD*
D23*
G04 #@! TO.C,D190*
X170010031Y-44037499D03*
X170010031Y-42462499D03*
G04 #@! TD*
D10*
G04 #@! TO.C,R132*
X166510031Y-47259999D03*
X166510031Y-46239999D03*
G04 #@! TD*
D26*
G04 #@! TO.C,C26*
X59475047Y-77600000D03*
X57925047Y-77600000D03*
G04 #@! TD*
D10*
G04 #@! TO.C,R117*
X183250047Y-31769998D03*
X183250047Y-30749998D03*
G04 #@! TD*
D14*
G04 #@! TO.C,D121*
X24392527Y-37274996D03*
X22817527Y-37274996D03*
G04 #@! TD*
D28*
G04 #@! TO.C,H5*
X33000047Y-100000000D03*
G04 #@! TD*
D13*
G04 #@! TO.C,C18*
X66120047Y-74600000D03*
X67080047Y-74600000D03*
G04 #@! TD*
D23*
G04 #@! TO.C,D76*
X186750047Y-44037500D03*
X186750047Y-42462500D03*
G04 #@! TD*
D39*
G04 #@! TO.C,D214*
X253000047Y-25850000D03*
X253000047Y-23750000D03*
G04 #@! TD*
G04 #@! TO.C,D210*
X121000047Y-41050000D03*
X121000047Y-38950000D03*
G04 #@! TD*
D15*
G04 #@! TO.C,D130*
X171742580Y-25269998D03*
X173317580Y-25269998D03*
G04 #@! TD*
D10*
G04 #@! TO.C,R43*
X118950059Y-47235000D03*
X118950059Y-46215000D03*
G04 #@! TD*
D16*
G04 #@! TO.C,R57*
X218990055Y-34289998D03*
X218990055Y-35309998D03*
G04 #@! TD*
D15*
G04 #@! TO.C,D36*
X38712547Y-87500000D03*
X40287547Y-87500000D03*
G04 #@! TD*
D20*
G04 #@! TO.C,D88*
X249450059Y-38952500D03*
X249450059Y-40527500D03*
G04 #@! TD*
D30*
G04 #@! TO.C,R36*
X159820092Y-23769998D03*
X158800094Y-23769998D03*
G04 #@! TD*
D20*
G04 #@! TO.C,D85*
X83490055Y-26972498D03*
X83490055Y-28547498D03*
G04 #@! TD*
D36*
G04 #@! TO.C,C27*
X69100047Y-73925000D03*
X69100047Y-75475000D03*
G04 #@! TD*
D47*
G04 #@! TO.C,C9*
X163075047Y-58007500D03*
X163075047Y-58967500D03*
G04 #@! TD*
D14*
G04 #@! TO.C,D101*
X210272557Y-37274998D03*
X208697557Y-37274998D03*
G04 #@! TD*
D39*
G04 #@! TO.C,D209*
X253000047Y-37250000D03*
X253000047Y-35150000D03*
G04 #@! TD*
D21*
G04 #@! TO.C,R166*
X110940060Y-38774998D03*
X111960060Y-38774998D03*
G04 #@! TD*
D20*
G04 #@! TO.C,D175*
X165010031Y-38967499D03*
X165010031Y-40542499D03*
G04 #@! TD*
D42*
G04 #@! TO.C,D203*
X41550047Y-56000000D03*
X44450047Y-56000000D03*
G04 #@! TD*
D16*
G04 #@! TO.C,R55*
X185250047Y-46255000D03*
X185250047Y-47275000D03*
G04 #@! TD*
D15*
G04 #@! TO.C,D22*
X38712547Y-74500000D03*
X40287547Y-74500000D03*
G04 #@! TD*
D11*
G04 #@! TO.C,R50*
X93028775Y-31970034D03*
X93750023Y-32691282D03*
G04 #@! TD*
D15*
G04 #@! TO.C,D110*
X222157562Y-25269998D03*
X223732562Y-25269998D03*
G04 #@! TD*
D14*
G04 #@! TO.C,D44*
X57922555Y-37274998D03*
X56347555Y-37274998D03*
G04 #@! TD*
D15*
G04 #@! TO.C,D102*
X225667563Y-25269998D03*
X227242563Y-25269998D03*
G04 #@! TD*
D13*
G04 #@! TO.C,C30*
X70720047Y-74300000D03*
X71680047Y-74300000D03*
G04 #@! TD*
D54*
G04 #@! TO.C,S1*
X118250047Y-70750000D03*
X118250047Y-67750000D03*
X118250047Y-66250000D03*
D55*
X118900047Y-72150000D03*
X118900047Y-64850000D03*
X121100047Y-72150000D03*
X121100047Y-64850000D03*
G04 #@! TD*
D10*
G04 #@! TO.C,R145*
X250950059Y-31779998D03*
X250950059Y-30759998D03*
G04 #@! TD*
D28*
G04 #@! TO.C,H6*
X234000047Y-68700000D03*
G04 #@! TD*
D23*
G04 #@! TO.C,D117*
X203540055Y-40542500D03*
X203540055Y-38967500D03*
G04 #@! TD*
D14*
G04 #@! TO.C,D67*
X41172537Y-49269998D03*
X39597537Y-49269998D03*
G04 #@! TD*
D21*
G04 #@! TO.C,R113*
X222465055Y-38774998D03*
X223485055Y-38774998D03*
G04 #@! TD*
D11*
G04 #@! TO.C,R91*
X239546831Y-29488090D03*
X240268079Y-30209338D03*
G04 #@! TD*
D28*
G04 #@! TO.C,H6*
X102000047Y-68700000D03*
G04 #@! TD*
D15*
G04 #@! TO.C,D94*
X97162564Y-25269998D03*
X98737564Y-25269998D03*
G04 #@! TD*
D21*
G04 #@! TO.C,R5*
X214890047Y-56000000D03*
X215910047Y-56000000D03*
G04 #@! TD*
D56*
G04 #@! TO.C,U4*
X59550047Y-73887500D03*
X60050047Y-73887500D03*
X60550047Y-73887500D03*
X61050047Y-73887500D03*
X61550047Y-73887500D03*
X62050047Y-73887500D03*
X62550047Y-73887500D03*
X63050047Y-73887500D03*
D57*
X63737547Y-73200000D03*
X63737547Y-72700000D03*
X63737547Y-72200000D03*
X63737547Y-71700000D03*
X63737547Y-71200000D03*
X63737547Y-70700000D03*
X63737547Y-70200000D03*
X63737547Y-69700000D03*
D56*
X63050047Y-69012500D03*
X62550047Y-69012500D03*
X62050047Y-69012500D03*
X61550047Y-69012500D03*
X61050047Y-69012500D03*
X60550047Y-69012500D03*
X60050047Y-69012500D03*
X59550047Y-69012500D03*
D57*
X58862547Y-69700000D03*
X58862547Y-70200000D03*
X58862547Y-70700000D03*
X58862547Y-71200000D03*
X58862547Y-71700000D03*
X58862547Y-72200000D03*
X58862547Y-72700000D03*
X58862547Y-73200000D03*
D58*
X61300047Y-71450000D03*
G04 #@! TD*
D20*
G04 #@! TO.C,D154*
X181750047Y-26972498D03*
X181750047Y-28547498D03*
G04 #@! TD*
G04 #@! TO.C,D134*
X100450059Y-26972498D03*
X100450059Y-28547498D03*
G04 #@! TD*
D23*
G04 #@! TO.C,D153*
X21240019Y-47552498D03*
X21240019Y-45977498D03*
G04 #@! TD*
D10*
G04 #@! TO.C,R11*
X184553600Y-70920000D03*
X184553600Y-69900000D03*
G04 #@! TD*
G04 #@! TO.C,R68*
X34510031Y-28254997D03*
X34510031Y-27234997D03*
G04 #@! TD*
G04 #@! TO.C,R40*
X216990055Y-35269998D03*
X216990055Y-34249998D03*
G04 #@! TD*
D27*
G04 #@! TO.C,S3*
X192750047Y-92200000D03*
X192750047Y-83800000D03*
X197250047Y-92200000D03*
X197250047Y-83800000D03*
X195000047Y-83800000D03*
G04 #@! TD*
D11*
G04 #@! TO.C,R45*
X157528775Y-43970034D03*
X158250023Y-44691282D03*
G04 #@! TD*
D10*
G04 #@! TO.C,R146*
X166510031Y-40264999D03*
X166510031Y-39244999D03*
G04 #@! TD*
D30*
G04 #@! TO.C,R101*
X41030079Y-23769998D03*
X40010081Y-23769998D03*
G04 #@! TD*
D14*
G04 #@! TO.C,D112*
X247727559Y-49269999D03*
X246152559Y-49269999D03*
G04 #@! TD*
D12*
G04 #@! TO.C,D164*
X59010447Y-41556847D03*
X57896753Y-40443153D03*
G04 #@! TD*
D51*
G04 #@! TO.C,U1*
X75537547Y-57695000D03*
X75537547Y-56745000D03*
X75537547Y-55795000D03*
X73262547Y-55795000D03*
X73262547Y-56745000D03*
X73262547Y-57695000D03*
G04 #@! TD*
D20*
G04 #@! TO.C,D43*
X49750047Y-45947500D03*
X49750047Y-47522500D03*
G04 #@! TD*
D16*
G04 #@! TO.C,R90*
X103950059Y-27279998D03*
X103950059Y-28299998D03*
G04 #@! TD*
D21*
G04 #@! TO.C,R84*
X30145025Y-38774997D03*
X31165025Y-38774997D03*
G04 #@! TD*
D10*
G04 #@! TO.C,R14*
X183250047Y-47245000D03*
X183250047Y-46225000D03*
G04 #@! TD*
D14*
G04 #@! TO.C,D83*
X48157539Y-49269999D03*
X46582539Y-49269999D03*
G04 #@! TD*
D12*
G04 #@! TO.C,D178*
X195745921Y-46315860D03*
X194632227Y-45202166D03*
G04 #@! TD*
D35*
G04 #@! TO.C,C40*
X72700047Y-70160000D03*
X72700047Y-69200000D03*
G04 #@! TD*
D15*
G04 #@! TO.C,D31*
X155212547Y-84500000D03*
X156787547Y-84500000D03*
G04 #@! TD*
D34*
G04 #@! TO.C,C45*
X96080047Y-67400000D03*
X95120047Y-67400000D03*
G04 #@! TD*
D41*
G04 #@! TO.C,Q1*
X245000047Y-68850000D03*
X245000047Y-70750000D03*
X246875047Y-69800000D03*
G04 #@! TD*
D12*
G04 #@! TO.C,D71*
X92535566Y-29355505D03*
X91421872Y-28241811D03*
G04 #@! TD*
D14*
G04 #@! TO.C,D189*
X27877526Y-49269998D03*
X26302526Y-49269998D03*
G04 #@! TD*
D12*
G04 #@! TO.C,D79*
X227006906Y-31826845D03*
X225893212Y-30713151D03*
G04 #@! TD*
D43*
G04 #@! TO.C,J1*
X116245047Y-61200000D03*
X116245047Y-60400000D03*
D44*
X116245048Y-59250000D03*
X116245047Y-58250000D03*
X116245047Y-57750000D03*
X116245048Y-56750000D03*
D43*
X116245047Y-55600000D03*
X116245047Y-54800000D03*
X116245047Y-54800000D03*
X116245047Y-55600000D03*
D44*
X116245047Y-56250000D03*
X116245047Y-57250000D03*
X116245047Y-58750000D03*
X116245047Y-59750000D03*
D43*
X116245047Y-60400000D03*
X116245047Y-61200000D03*
D45*
X116820047Y-62320000D03*
D46*
X121000047Y-62320000D03*
D45*
X116820047Y-53680000D03*
D46*
X121000047Y-53680000D03*
G04 #@! TD*
D52*
G04 #@! TO.C,D204*
X244650047Y-62600000D03*
X241750047Y-62600000D03*
G04 #@! TD*
D11*
G04 #@! TO.C,R142*
X191278775Y-43970034D03*
X192000023Y-44691282D03*
G04 #@! TD*
D13*
G04 #@! TO.C,C38*
X70720047Y-68100000D03*
X71680047Y-68100000D03*
G04 #@! TD*
D30*
G04 #@! TO.C,R134*
X196800063Y-23769998D03*
X195780065Y-23769998D03*
G04 #@! TD*
D13*
G04 #@! TO.C,C29*
X198120047Y-75600000D03*
X199080047Y-75600000D03*
G04 #@! TD*
D11*
G04 #@! TO.C,R131*
X112514255Y-46455515D03*
X113235503Y-47176763D03*
G04 #@! TD*
D15*
G04 #@! TO.C,D27*
X19712547Y-81500000D03*
X21287547Y-81500000D03*
G04 #@! TD*
D16*
G04 #@! TO.C,R104*
X70040055Y-46255000D03*
X70040055Y-47275000D03*
G04 #@! TD*
D20*
G04 #@! TO.C,D168*
X33010031Y-42477499D03*
X33010031Y-44052499D03*
G04 #@! TD*
D25*
G04 #@! TO.C,C10*
X23275047Y-55762500D03*
X23275047Y-54212500D03*
G04 #@! TD*
D16*
G04 #@! TO.C,R39*
X53250047Y-39260000D03*
X53250047Y-40280000D03*
G04 #@! TD*
D21*
G04 #@! TO.C,R67*
X107405061Y-50769999D03*
X108425061Y-50769999D03*
G04 #@! TD*
D15*
G04 #@! TO.C,D26*
X174212547Y-78000000D03*
X175787547Y-78000000D03*
G04 #@! TD*
D21*
G04 #@! TO.C,R23*
X60130053Y-38774998D03*
X61150053Y-38774998D03*
G04 #@! TD*
D12*
G04 #@! TO.C,D107*
X178981780Y-34301719D03*
X177868086Y-33188025D03*
G04 #@! TD*
D20*
G04 #@! TO.C,D201*
X100450059Y-38952500D03*
X100450059Y-40527500D03*
G04 #@! TD*
D26*
G04 #@! TO.C,C26*
X191475047Y-77600000D03*
X189925047Y-77600000D03*
G04 #@! TD*
D11*
G04 #@! TO.C,R42*
X90564507Y-29505766D03*
X91285755Y-30227014D03*
G04 #@! TD*
D21*
G04 #@! TO.C,R133*
X39900037Y-38600000D03*
X40920037Y-38600000D03*
G04 #@! TD*
D23*
G04 #@! TO.C,D190*
X38010031Y-44037499D03*
X38010031Y-42462499D03*
G04 #@! TD*
D12*
G04 #@! TO.C,D91*
X174042638Y-29362576D03*
X172928944Y-28248882D03*
G04 #@! TD*
D38*
G04 #@! TO.C,C24*
X198925047Y-70700000D03*
X200475047Y-70700000D03*
G04 #@! TD*
D23*
G04 #@! TO.C,D68*
X186750047Y-40557500D03*
X186750047Y-38982500D03*
G04 #@! TD*
D12*
G04 #@! TO.C,D58*
X30259457Y-34319396D03*
X29145763Y-33205702D03*
G04 #@! TD*
D20*
G04 #@! TO.C,D97*
X33010031Y-26957497D03*
X33010031Y-28532497D03*
G04 #@! TD*
D11*
G04 #@! TO.C,R21*
X157788775Y-31970034D03*
X158510023Y-32691282D03*
G04 #@! TD*
D16*
G04 #@! TO.C,R35*
X235950059Y-46245000D03*
X235950059Y-47265000D03*
G04 #@! TD*
D36*
G04 #@! TO.C,C23*
X64900047Y-78225000D03*
X64900047Y-79775000D03*
G04 #@! TD*
D20*
G04 #@! TO.C,D43*
X181750047Y-45947500D03*
X181750047Y-47522500D03*
G04 #@! TD*
D15*
G04 #@! TO.C,D61*
X73417554Y-25269998D03*
X74992554Y-25269998D03*
G04 #@! TD*
D35*
G04 #@! TO.C,C5*
X219335047Y-54095000D03*
X219335047Y-53135000D03*
G04 #@! TD*
D23*
G04 #@! TO.C,D127*
X105450059Y-32057498D03*
X105450059Y-30482498D03*
G04 #@! TD*
D11*
G04 #@! TO.C,R74*
X225039382Y-43980641D03*
X225760630Y-44701889D03*
G04 #@! TD*
D53*
G04 #@! TO.C,L2*
X67427547Y-69200000D03*
X68572547Y-69200000D03*
G04 #@! TD*
D34*
G04 #@! TO.C,C33*
X71680047Y-67100000D03*
X70720047Y-67100000D03*
G04 #@! TD*
D14*
G04 #@! TO.C,D165*
X206712559Y-49269999D03*
X205137559Y-49269999D03*
G04 #@! TD*
D23*
G04 #@! TO.C,D56*
X105450059Y-44037500D03*
X105450059Y-42462500D03*
G04 #@! TD*
D20*
G04 #@! TO.C,D108*
X66540055Y-38952500D03*
X66540055Y-40527500D03*
G04 #@! TD*
G04 #@! TO.C,D100*
X198540055Y-42462500D03*
X198540055Y-44037500D03*
G04 #@! TD*
D15*
G04 #@! TO.C,D4*
X29712547Y-61500000D03*
X31287547Y-61500000D03*
G04 #@! TD*
D39*
G04 #@! TO.C,D213*
X121000047Y-29650000D03*
X121000047Y-27550000D03*
G04 #@! TD*
D53*
G04 #@! TO.C,L1*
X67427547Y-72200000D03*
X68572547Y-72200000D03*
G04 #@! TD*
D10*
G04 #@! TO.C,R43*
X250950059Y-47235000D03*
X250950059Y-46215000D03*
G04 #@! TD*
D30*
G04 #@! TO.C,R183*
X195510047Y-67400000D03*
X194490047Y-67400000D03*
G04 #@! TD*
D35*
G04 #@! TO.C,C6*
X84600047Y-62480000D03*
X84600047Y-61520000D03*
G04 #@! TD*
D20*
G04 #@! TO.C,D161*
X165010031Y-45962499D03*
X165010031Y-47537499D03*
G04 #@! TD*
D10*
G04 #@! TO.C,R145*
X118950059Y-31779998D03*
X118950059Y-30759998D03*
G04 #@! TD*
D16*
G04 #@! TO.C,R168*
X36510031Y-46254999D03*
X36510031Y-47274999D03*
G04 #@! TD*
D30*
G04 #@! TO.C,R44*
X24295093Y-23769998D03*
X23275095Y-23769998D03*
G04 #@! TD*
G04 #@! TO.C,R52*
X163330092Y-23769999D03*
X162310094Y-23769999D03*
G04 #@! TD*
D12*
G04 #@! TO.C,D91*
X42042638Y-29362576D03*
X40928944Y-28248882D03*
G04 #@! TD*
D16*
G04 #@! TO.C,R182*
X157000047Y-60090000D03*
X157000047Y-61110000D03*
G04 #@! TD*
D14*
G04 #@! TO.C,D104*
X112212560Y-49269999D03*
X110637560Y-49269999D03*
G04 #@! TD*
D21*
G04 #@! TO.C,R176*
X205690047Y-69200000D03*
X206710047Y-69200000D03*
G04 #@! TD*
D23*
G04 #@! TO.C,D57*
X153240019Y-35592496D03*
X153240019Y-34017496D03*
G04 #@! TD*
G04 #@! TO.C,D199*
X203540055Y-35577498D03*
X203540055Y-34002498D03*
G04 #@! TD*
D11*
G04 #@! TO.C,R164*
X76028775Y-31970034D03*
X76750023Y-32691282D03*
G04 #@! TD*
G04 #@! TO.C,R102*
X177014257Y-46455516D03*
X177735505Y-47176764D03*
G04 #@! TD*
D20*
G04 #@! TO.C,D77*
X83490055Y-30482498D03*
X83490055Y-32057498D03*
G04 #@! TD*
D59*
G04 #@! TO.C,BT1*
X41600047Y-59400000D03*
X41600047Y-46700000D03*
G04 #@! TD*
G04 #@! TO.C,BT1*
X173600047Y-59400000D03*
X173600047Y-46700000D03*
G04 #@! TD*
M02*
