M48
; DRILL file {KiCad 9.0.0} date 2025-03-19T00:13:37+0100
; FORMAT={-:-/ absolute / metric / decimal}
; #@! TF.CreationDate,2025-03-19T00:13:37+01:00
; #@! TF.GenerationSoftware,Kicad,Pcbnew,9.0.0
; #@! TF.FileFunction,NonPlated,1,2,NPTH
FMAT,2
METRIC
; #@! TA.AperFunction,NonPlated,NPTH,ComponentDrill
T1C0.500
; #@! TA.AperFunction,NonPlated,NPTH,ComponentDrill
T2C0.650
; #@! TA.AperFunction,NonPlated,NPTH,ComponentDrill
T3C0.900
; #@! TA.AperFunction,NonPlated,NPTH,ComponentDrill
T4C0.991
; #@! TA.AperFunction,NonPlated,NPTH,ComponentDrill
T5C1.152
; #@! TA.AperFunction,NonPlated,NPTH,ComponentDrill
T6C5.000
%
G90
G05
T1
X0.0Y-11.0
X0.0Y-104.0
X0.7Y-11.0
X0.7Y-104.0
X1.4Y-11.0
X1.4Y-104.0
X2.1Y-11.0
X2.1Y-104.0
X2.8Y-11.0
X2.8Y-104.0
X3.5Y-11.0
X3.5Y-104.0
X4.2Y-11.0
X4.2Y-104.0
X4.9Y-11.0
X4.9Y-104.0
X5.6Y-11.0
X5.6Y-104.0
X6.3Y-11.0
X6.3Y-104.0
X7.0Y-11.0
X7.0Y-104.0
X10.8Y-86.2
X10.8Y-85.486
X10.8Y-84.771
X10.8Y-84.057
X10.8Y-83.343
X10.8Y-82.629
X10.8Y-81.914
X10.8Y-81.2
X12.8Y-21.4
X12.8Y-20.686
X12.8Y-19.971
X12.8Y-19.257
X12.8Y-18.543
X12.8Y-17.829
X12.8Y-17.114
X12.8Y-16.4
X15.799Y-30.3
X15.799Y-31.014
X15.799Y-31.729
X15.8Y-32.443
X15.8Y-33.157
X15.8Y-33.871
X15.8Y-34.586
X15.8Y-35.3
X18.104Y-10.8
X18.818Y-10.8
X19.532Y-10.8
X20.246Y-10.8
X20.8Y-58.3
X20.8Y-59.014
X20.8Y-59.729
X20.8Y-60.443
X20.8Y-61.157
X20.8Y-61.871
X20.8Y-62.586
X20.8Y-63.3
X20.961Y-10.8
X21.675Y-10.8
X22.389Y-10.8
X23.104Y-10.8
X23.854Y-104.2
X24.568Y-104.2
X25.282Y-104.2
X25.996Y-104.2
X26.711Y-104.2
X27.425Y-104.2
X28.139Y-104.2
X28.854Y-104.2
X42.7Y-18.8
X43.414Y-18.8
X44.129Y-18.8
X44.843Y-18.8
X45.557Y-18.8
X46.271Y-18.8
X46.986Y-18.8
X47.7Y-18.8
X55.354Y-95.2
X56.068Y-95.2
X56.782Y-95.2
X57.496Y-95.2
X58.211Y-95.2
X58.925Y-95.2
X59.639Y-95.2
X60.354Y-95.2
X91.9Y-18.8
X92.614Y-18.8
X93.329Y-18.8
X94.043Y-18.8
X94.757Y-18.8
X95.471Y-18.8
X96.186Y-18.8
X96.9Y-18.8
X106.104Y-104.2
X106.818Y-104.2
X107.532Y-104.2
X108.246Y-104.2
X108.961Y-104.2
X109.675Y-104.2
X110.389Y-104.2
X111.104Y-104.2
X117.7Y-10.8
X118.2Y-93.9
X118.2Y-94.614
X118.2Y-95.329
X118.2Y-96.043
X118.2Y-96.757
X118.2Y-97.471
X118.2Y-98.186
X118.2Y-98.9
X118.414Y-10.8
X119.129Y-10.8
X119.843Y-10.8
X120.557Y-10.8
X121.271Y-10.8
X121.986Y-10.8
X122.7Y-10.8
X123.2Y-74.1
X123.2Y-74.814
X123.2Y-75.529
X123.2Y-76.243
X123.2Y-76.957
X123.2Y-77.671
X123.2Y-78.386
X123.2Y-79.1
X124.2Y-51.1
X124.2Y-50.386
X124.2Y-49.671
X124.2Y-48.957
X124.2Y-48.243
X124.2Y-47.529
X124.2Y-46.814
X124.2Y-46.1
X124.2Y-34.9
X124.2Y-34.186
X124.2Y-33.471
X124.2Y-32.757
X124.2Y-32.043
X124.2Y-31.329
X124.2Y-30.614
X124.201Y-29.9
X126.2Y-15.8
X126.2Y-16.514
X126.2Y-17.229
X126.2Y-17.943
X126.2Y-18.657
X126.2Y-19.371
X126.2Y-20.086
X126.2Y-20.8
X131.0Y-11.0
X131.0Y-104.0
X131.7Y-11.0
X131.7Y-104.0
X132.4Y-11.0
X132.4Y-104.0
X133.1Y-11.0
X133.1Y-104.0
X133.8Y-11.0
X133.8Y-104.0
X134.5Y-11.0
X134.5Y-104.0
X135.2Y-11.0
X135.2Y-104.0
X135.9Y-11.0
X135.9Y-104.0
X136.6Y-11.0
X136.6Y-104.0
X137.3Y-11.0
X137.3Y-104.0
X138.0Y-11.0
X138.0Y-104.0
X142.8Y-86.2
X142.8Y-85.486
X142.8Y-84.771
X142.8Y-84.057
X142.8Y-83.343
X142.8Y-82.629
X142.8Y-81.914
X142.8Y-81.2
X144.8Y-21.4
X144.8Y-20.686
X144.8Y-19.971
X144.8Y-19.257
X144.8Y-18.543
X144.8Y-17.829
X144.8Y-17.114
X144.8Y-16.4
X147.799Y-30.3
X147.799Y-31.014
X147.799Y-31.729
X147.8Y-32.443
X147.8Y-33.157
X147.8Y-33.871
X147.8Y-34.586
X147.8Y-35.3
X150.104Y-10.8
X150.818Y-10.8
X151.532Y-10.8
X152.246Y-10.8
X152.8Y-58.3
X152.8Y-59.014
X152.8Y-59.729
X152.8Y-60.443
X152.8Y-61.157
X152.8Y-61.871
X152.8Y-62.586
X152.8Y-63.3
X152.961Y-10.8
X153.675Y-10.8
X154.389Y-10.8
X155.104Y-10.8
X155.854Y-104.2
X156.568Y-104.2
X157.282Y-104.2
X157.996Y-104.2
X158.711Y-104.2
X159.425Y-104.2
X160.139Y-104.2
X160.854Y-104.2
X174.7Y-18.8
X175.414Y-18.8
X176.129Y-18.8
X176.843Y-18.8
X177.557Y-18.8
X178.271Y-18.8
X178.986Y-18.8
X179.7Y-18.8
X187.354Y-95.2
X188.068Y-95.2
X188.782Y-95.2
X189.496Y-95.2
X190.211Y-95.2
X190.925Y-95.2
X191.639Y-95.2
X192.354Y-95.2
X223.9Y-18.8
X224.614Y-18.8
X225.329Y-18.8
X226.043Y-18.8
X226.757Y-18.8
X227.471Y-18.8
X228.186Y-18.8
X228.9Y-18.8
X238.104Y-104.2
X238.818Y-104.2
X239.532Y-104.2
X240.246Y-104.2
X240.961Y-104.2
X241.675Y-104.2
X242.389Y-104.2
X243.104Y-104.2
X249.7Y-10.8
X250.2Y-93.9
X250.2Y-94.614
X250.2Y-95.329
X250.2Y-96.043
X250.2Y-96.757
X250.2Y-97.471
X250.2Y-98.186
X250.2Y-98.9
X250.414Y-10.8
X251.129Y-10.8
X251.843Y-10.8
X252.557Y-10.8
X253.271Y-10.8
X253.986Y-10.8
X254.7Y-10.8
X255.2Y-74.1
X255.2Y-74.814
X255.2Y-75.529
X255.2Y-76.243
X255.2Y-76.957
X255.2Y-77.671
X255.2Y-78.386
X255.2Y-79.1
X256.2Y-51.1
X256.2Y-50.386
X256.2Y-49.671
X256.2Y-48.957
X256.2Y-48.243
X256.2Y-47.529
X256.2Y-46.814
X256.2Y-46.1
X256.2Y-34.9
X256.2Y-34.186
X256.2Y-33.471
X256.2Y-32.757
X256.2Y-32.043
X256.2Y-31.329
X256.2Y-30.614
X256.201Y-29.9
X258.2Y-15.8
X258.2Y-16.514
X258.2Y-17.229
X258.2Y-17.943
X258.2Y-18.657
X258.2Y-19.371
X258.2Y-20.086
X258.2Y-20.8
X262.0Y-11.0
X262.0Y-104.0
X262.7Y-11.0
X262.7Y-104.0
X263.4Y-11.0
X263.4Y-104.0
X264.1Y-11.0
X264.1Y-104.0
X264.8Y-11.0
X264.8Y-104.0
X265.5Y-11.0
X265.5Y-104.0
X266.2Y-11.0
X266.2Y-104.0
X266.9Y-11.0
X266.9Y-104.0
X267.6Y-11.0
X267.6Y-104.0
X268.3Y-11.0
X268.3Y-104.0
X269.0Y-11.0
X269.0Y-104.0
T2
X117.32Y-55.11
X117.32Y-60.89
X249.32Y-55.11
X249.32Y-60.89
T3
X120.0Y-67.0
X120.0Y-70.0
X252.0Y-67.0
X252.0Y-70.0
T4
X100.86Y-53.349
X100.86Y-55.381
X108.48Y-54.365
X232.86Y-53.349
X232.86Y-55.381
X240.48Y-54.365
T5
X2.5Y-2.5
X2.5Y-112.5
X266.5Y-2.5
T6
X18.0Y-16.5
X121.0Y-16.5
X150.0Y-16.5
X253.0Y-16.5
M30
