M48
; DRILL file {KiCad 9.0.0} date 2025-03-19T00:13:37+0100
; FORMAT={-:-/ absolute / metric / decimal}
; #@! TF.CreationDate,2025-03-19T00:13:37+01:00
; #@! TF.GenerationSoftware,Kicad,Pcbnew,9.0.0
; #@! TF.FileFunction,Plated,1,2,PTH
FMAT,2
METRIC
; #@! TA.AperFunction,Plated,PTH,ViaDrill
T1C0.300
; #@! TA.AperFunction,Plated,PTH,ComponentDrill
T2C0.600
; #@! TA.AperFunction,Plated,PTH,ComponentDrill
T3C1.100
; #@! TA.AperFunction,Plated,PTH,ComponentDrill
T4C4.300
%
G90
G05
T1
X19.7Y-51.5
X20.0Y-79.7
X20.0Y-82.8
X20.6Y-86.6
X20.7Y-83.6
X21.154Y-37.5
X21.4Y-85.6
X22.0Y-79.1
X22.1Y-87.5
X22.2Y-82.4
X22.3Y-55.8
X22.5Y-27.4
X22.5Y-53.6
X22.8Y-57.2
X22.8Y-61.8
X23.0Y-58.2
X23.4Y-33.1
X23.5Y-79.2
X23.5Y-82.5
X23.5Y-85.6
X23.5Y-89.4
X23.7Y-45.3
X23.975Y-57.887
X24.5Y-75.5
X24.5Y-79.2
X24.575Y-54.387
X24.6Y-59.2
X25.254Y-72.854
X25.3Y-87.5
X25.5Y-93.2
X25.6Y-26.9
X25.6Y-35.1
X25.6Y-47.2
X25.8Y-59.1
X25.9Y-81.6
X26.1Y-91.4
X26.4Y-60.2
X26.454Y-63.75
X26.5Y-75.4
X26.654Y-40.6
X26.8Y-61.7
X27.4Y-71.9
X27.5Y-78.0
X27.6Y-40.9
X27.724Y-52.4
X27.775Y-56.987
X28.1Y-64.4
X28.154Y-69.2
X28.2Y-86.3
X28.3Y-80.7
X28.5Y-39.396
X28.524Y-52.4
X28.754Y-28.2
X28.8Y-67.2
X29.254Y-62.7
X29.5Y-52.4
X30.0Y-65.3
X30.0Y-71.8
X30.0Y-76.5
X30.054Y-63.2
X30.175Y-59.087
X30.4Y-52.4
X30.454Y-30.6
X30.6Y-47.2
X31.154Y-42.1
X31.2Y-54.2
X31.3Y-48.2
X31.4Y-44.3
X31.4Y-45.8
X31.454Y-40.6
X31.8Y-57.4
X31.9Y-52.4
X31.9Y-62.6
X32.154Y-65.85
X32.754Y-68.7
X33.03Y-59.5
X33.1Y-65.4
X33.2Y-48.7
X33.677Y-45.123
X33.854Y-62.6
X34.0Y-37.0
X34.0Y-53.3
X34.204Y-65.9
X34.5Y-49.7
X34.8Y-69.6
X34.9Y-24.7
X35.054Y-72.2
X35.1Y-48.8
X35.1Y-58.0
X35.131Y-32.9
X35.208Y-55.808
X35.3Y-86.3
X35.4Y-81.0
X35.454Y-60.1
X35.731Y-39.797
X35.8Y-51.5
X35.954Y-66.0
X36.0Y-37.0
X36.0Y-56.4
X36.0Y-62.5
X36.0Y-69.7
X36.9Y-66.4
X37.754Y-72.1
X37.8Y-74.5
X38.0Y-63.5
X38.0Y-67.2
X38.0Y-87.5
X38.754Y-60.1
X38.8Y-69.7
X38.9Y-54.7
X39.0Y-62.5
X39.0Y-68.4
X39.6Y-42.5
X40.0Y-34.0
X40.0Y-86.6
X40.3Y-43.716
X40.5Y-36.0
X40.754Y-65.9
X40.8Y-31.8
X40.8Y-71.0
X41.34Y-43.66
X41.4Y-22.3
X41.554Y-74.2
X41.7Y-80.6
X42.2Y-23.149
X42.254Y-50.3
X42.554Y-61.8
X42.654Y-76.0
X43.75Y-40.25
X44.6Y-27.8
X44.7Y-41.2
X45.0Y-42.2
X45.154Y-35.8
X46.011Y-47.743
X46.2Y-56.0
X46.9Y-43.2
X47.054Y-35.5
X47.8Y-30.9
X47.8Y-47.9
X47.8Y-78.6
X47.854Y-39.9
X48.0Y-42.2
X49.5Y-59.6
X49.541Y-24.075
X50.1Y-50.8
X50.2Y-21.6
X50.651Y-36.351
X50.754Y-45.3
X50.9Y-38.4
X51.03Y-23.77
X51.05Y-75.3
X52.2Y-40.1
X52.2Y-48.4
X52.629Y-32.8
X52.629Y-41.5
X52.7Y-50.8
X52.75Y-74.6
X52.9Y-25.27
X53.87Y-36.17
X53.9Y-71.2
X54.4Y-81.4
X55.3Y-67.5
X55.371Y-45.0
X55.7Y-70.0
X55.8Y-72.3
X56.1Y-66.3
X56.4Y-69.5
X56.5Y-73.9
X56.8Y-43.1
X57.0Y-77.6
X57.1Y-69.0
X57.1Y-72.9
X57.2Y-45.2
X57.2Y-67.7
X57.3Y-75.2
X57.8Y-69.9
X58.0Y-76.3
X58.215Y-31.785
X58.3Y-34.7
X59.2Y-47.2
X59.9Y-40.1
X60.2Y-65.8
X60.7Y-66.6
X60.854Y-35.2
X61.1Y-27.8
X61.15Y-67.85
X61.3Y-71.5
X61.8Y-40.9
X61.8Y-76.0
X61.8Y-79.8
X62.9Y-47.7
X62.9Y-77.1
X63.3Y-40.7
X63.4Y-80.8
X63.7Y-77.1
X64.0Y-74.0
X64.3Y-67.4
X64.4Y-69.4
X64.5Y-31.4
X64.9Y-80.8
X65.4Y-74.2
X65.6Y-76.2
X65.7Y-78.3
X66.3Y-71.6
X66.4Y-68.0
X66.405Y-37.595
X66.5Y-69.9
X66.7Y-25.4
X66.9Y-78.7
X67.0Y-60.1
X67.3Y-68.0
X67.9Y-59.6
X67.9Y-73.6
X67.9Y-74.6
X67.9Y-75.6
X68.0Y-78.0
X68.3Y-68.0
X68.8Y-37.8
X68.8Y-78.7
X69.0Y-35.2
X69.1Y-76.4
X69.15Y-59.35
X69.7Y-68.1
X70.2Y-70.7
X70.499Y-70.005
X70.503Y-71.394
X70.6Y-23.8
X70.7Y-75.3
X70.8Y-50.6
X71.3Y-37.2
X71.5Y-60.1
X71.5Y-64.6
X71.9Y-70.2
X71.9Y-71.1
X72.4Y-74.3
X72.6Y-54.345
X72.8Y-67.4
X72.8Y-68.1
X73.0Y-39.75
X73.0Y-73.3
X73.254Y-31.2
X73.8Y-45.2
X73.9Y-68.1
X73.9Y-73.3
X74.2Y-66.0
X74.3Y-34.3
X74.74Y-43.56
X74.8Y-64.9
X75.0Y-59.145
X75.0Y-68.1
X75.0Y-70.7
X75.0Y-73.3
X75.6Y-49.9
X75.8Y-69.2
X75.9Y-64.6
X76.2Y-47.3
X76.8Y-56.745
X76.954Y-41.3
X78.0Y-55.145
X78.4Y-35.6
X79.0Y-59.9
X79.2Y-81.2
X79.3Y-42.2
X79.4Y-39.396
X80.1Y-67.1
X80.7Y-61.5
X80.8Y-27.3
X80.8Y-30.4
X81.2Y-40.8
X81.954Y-39.996
X82.0Y-56.0
X82.1Y-64.0
X82.5Y-57.3
X82.5Y-58.5
X82.6Y-61.2
X83.1Y-54.4
X83.1Y-65.2
X83.4Y-63.8
X84.0Y-37.0
X84.2Y-57.3
X84.2Y-58.5
X84.6Y-56.0
X84.6Y-60.9
X85.2Y-48.5
X86.0Y-36.6
X86.4Y-49.4
X86.535Y-53.215
X86.6Y-50.8
X86.601Y-54.012
X86.8Y-25.6
X87.5Y-67.5
X87.8Y-61.4
X88.2Y-25.5
X88.2Y-57.7
X88.8Y-53.0
X89.0Y-64.4
X89.0Y-68.001
X89.0Y-70.9
X89.154Y-37.6
X89.89Y-30.743
X90.4Y-56.0
X90.454Y-39.7
X91.4Y-64.0
X91.5Y-46.9
X91.8Y-34.2
X92.4Y-64.0
X92.8Y-56.2
X93.8Y-47.4
X94.0Y-68.8
X94.2Y-67.4
X95.0Y-41.0
X95.6Y-64.2
X95.954Y-30.0
X96.1Y-42.0
X96.2Y-39.396
X96.2Y-57.0
X97.0Y-35.9
X97.254Y-30.4
X97.7Y-32.5
X97.8Y-55.6
X98.0Y-43.1
X98.5Y-40.2
X99.829Y-29.4
X99.9Y-63.2
X100.0Y-61.9
X100.77Y-48.9
X100.9Y-59.0
X101.4Y-44.8
X101.9Y-56.0
X102.2Y-62.0
X102.6Y-25.8
X102.8Y-52.8
X103.1Y-37.4
X103.4Y-56.0
X104.0Y-33.3
X104.5Y-59.0
X105.2Y-56.7
X105.5Y-50.1
X105.8Y-56.0
X105.8Y-61.6
X106.4Y-57.0
X106.654Y-33.0
X107.2Y-53.0
X107.2Y-65.6
X107.9Y-43.5
X108.4Y-62.6
X108.459Y-32.3
X109.6Y-35.4
X109.8Y-67.2
X110.4Y-68.0
X110.89Y-33.71
X111.0Y-27.4
X111.6Y-54.4
X112.654Y-41.5
X112.8Y-60.8
X113.3Y-38.7
X113.454Y-31.5
X114.0Y-54.3
X114.1Y-29.9
X114.4Y-67.0
X115.2Y-39.9
X115.4Y-41.8
X115.6Y-34.0
X115.7Y-73.3
X116.0Y-66.3
X116.0Y-71.1
X116.954Y-38.0
X117.725Y-56.8
X117.725Y-58.2
X118.9Y-26.4
X119.576Y-38.424
X120.2Y-26.8
X120.4Y-30.4
X120.4Y-42.0
X120.6Y-24.6
X120.6Y-28.2
X120.6Y-32.0
X120.6Y-36.0
X120.6Y-39.8
X121.0Y-34.2
X151.7Y-51.5
X152.0Y-79.7
X152.0Y-82.8
X152.6Y-86.6
X152.7Y-83.6
X153.154Y-37.5
X153.4Y-85.6
X154.0Y-79.1
X154.1Y-87.5
X154.2Y-82.4
X154.3Y-55.8
X154.5Y-27.4
X154.5Y-53.6
X154.8Y-57.2
X154.8Y-61.8
X155.0Y-58.2
X155.4Y-33.1
X155.5Y-79.2
X155.5Y-82.5
X155.5Y-85.6
X155.5Y-89.4
X155.7Y-45.3
X155.975Y-57.887
X156.5Y-75.5
X156.5Y-79.2
X156.575Y-54.387
X156.6Y-59.2
X157.254Y-72.854
X157.3Y-87.5
X157.5Y-93.2
X157.6Y-26.9
X157.6Y-35.1
X157.6Y-47.2
X157.8Y-59.1
X157.9Y-81.6
X158.1Y-91.4
X158.4Y-60.2
X158.454Y-63.75
X158.5Y-75.4
X158.654Y-40.6
X158.8Y-61.7
X159.4Y-71.9
X159.5Y-78.0
X159.6Y-40.9
X159.724Y-52.4
X159.775Y-56.987
X160.1Y-64.4
X160.154Y-69.2
X160.2Y-86.3
X160.3Y-80.7
X160.5Y-39.396
X160.524Y-52.4
X160.754Y-28.2
X160.8Y-67.2
X161.254Y-62.7
X161.5Y-52.4
X162.0Y-65.3
X162.0Y-71.8
X162.0Y-76.5
X162.054Y-63.2
X162.175Y-59.087
X162.4Y-52.4
X162.454Y-30.6
X162.6Y-47.2
X163.154Y-42.1
X163.2Y-54.2
X163.3Y-48.2
X163.4Y-44.3
X163.4Y-45.8
X163.454Y-40.6
X163.8Y-57.4
X163.9Y-52.4
X163.9Y-62.6
X164.154Y-65.85
X164.754Y-68.7
X165.03Y-59.5
X165.1Y-65.4
X165.2Y-48.7
X165.677Y-45.123
X165.854Y-62.6
X166.0Y-37.0
X166.0Y-53.3
X166.204Y-65.9
X166.5Y-49.7
X166.8Y-69.6
X166.9Y-24.7
X167.054Y-72.2
X167.1Y-48.8
X167.1Y-58.0
X167.131Y-32.9
X167.208Y-55.808
X167.3Y-86.3
X167.4Y-81.0
X167.454Y-60.1
X167.731Y-39.797
X167.8Y-51.5
X167.954Y-66.0
X168.0Y-37.0
X168.0Y-56.4
X168.0Y-62.5
X168.0Y-69.7
X168.9Y-66.4
X169.754Y-72.1
X169.8Y-74.5
X170.0Y-63.5
X170.0Y-67.2
X170.0Y-87.5
X170.754Y-60.1
X170.8Y-69.7
X170.9Y-54.7
X171.0Y-62.5
X171.0Y-68.4
X171.6Y-42.5
X172.0Y-34.0
X172.0Y-86.6
X172.3Y-43.716
X172.5Y-36.0
X172.754Y-65.9
X172.8Y-31.8
X172.8Y-71.0
X173.34Y-43.66
X173.4Y-22.3
X173.554Y-74.2
X173.7Y-80.6
X174.2Y-23.149
X174.254Y-50.3
X174.554Y-61.8
X174.654Y-76.0
X175.75Y-40.25
X176.6Y-27.8
X176.7Y-41.2
X177.0Y-42.2
X177.154Y-35.8
X178.011Y-47.743
X178.2Y-56.0
X178.9Y-43.2
X179.054Y-35.5
X179.8Y-30.9
X179.8Y-47.9
X179.8Y-78.6
X179.854Y-39.9
X180.0Y-42.2
X181.5Y-59.6
X181.541Y-24.075
X182.1Y-50.8
X182.2Y-21.6
X182.651Y-36.351
X182.754Y-45.3
X182.9Y-38.4
X183.03Y-23.77
X183.05Y-75.3
X184.2Y-40.1
X184.2Y-48.4
X184.629Y-32.8
X184.629Y-41.5
X184.7Y-50.8
X184.75Y-74.6
X184.9Y-25.27
X185.87Y-36.17
X185.9Y-71.2
X186.4Y-81.4
X187.3Y-67.5
X187.371Y-45.0
X187.7Y-70.0
X187.8Y-72.3
X188.1Y-66.3
X188.4Y-69.5
X188.5Y-73.9
X188.8Y-43.1
X189.0Y-77.6
X189.1Y-69.0
X189.1Y-72.9
X189.2Y-45.2
X189.2Y-67.7
X189.3Y-75.2
X189.8Y-69.9
X190.0Y-76.3
X190.215Y-31.785
X190.3Y-34.7
X191.2Y-47.2
X191.9Y-40.1
X192.2Y-65.8
X192.7Y-66.6
X192.854Y-35.2
X193.1Y-27.8
X193.15Y-67.85
X193.3Y-71.5
X193.8Y-40.9
X193.8Y-76.0
X193.8Y-79.8
X194.9Y-47.7
X194.9Y-77.1
X195.3Y-40.7
X195.4Y-80.8
X195.7Y-77.1
X196.0Y-74.0
X196.3Y-67.4
X196.4Y-69.4
X196.5Y-31.4
X196.9Y-80.8
X197.4Y-74.2
X197.6Y-76.2
X197.7Y-78.3
X198.3Y-71.6
X198.4Y-68.0
X198.405Y-37.595
X198.5Y-69.9
X198.7Y-25.4
X198.9Y-78.7
X199.0Y-60.1
X199.3Y-68.0
X199.9Y-59.6
X199.9Y-73.6
X199.9Y-74.6
X199.9Y-75.6
X200.0Y-78.0
X200.3Y-68.0
X200.8Y-37.8
X200.8Y-78.7
X201.0Y-35.2
X201.1Y-76.4
X201.15Y-59.35
X201.7Y-68.1
X202.2Y-70.7
X202.499Y-70.005
X202.503Y-71.394
X202.6Y-23.8
X202.7Y-75.3
X202.8Y-50.6
X203.3Y-37.2
X203.5Y-60.1
X203.5Y-64.6
X203.9Y-70.2
X203.9Y-71.1
X204.4Y-74.3
X204.6Y-54.345
X204.8Y-67.4
X204.8Y-68.1
X205.0Y-39.75
X205.0Y-73.3
X205.254Y-31.2
X205.8Y-45.2
X205.9Y-68.1
X205.9Y-73.3
X206.2Y-66.0
X206.3Y-34.3
X206.74Y-43.56
X206.8Y-64.9
X207.0Y-59.145
X207.0Y-68.1
X207.0Y-70.7
X207.0Y-73.3
X207.6Y-49.9
X207.8Y-69.2
X207.9Y-64.6
X208.2Y-47.3
X208.8Y-56.745
X208.954Y-41.3
X210.0Y-55.145
X210.4Y-35.6
X211.0Y-59.9
X211.2Y-81.2
X211.3Y-42.2
X211.4Y-39.396
X212.1Y-67.1
X212.7Y-61.5
X212.8Y-27.3
X212.8Y-30.4
X213.2Y-40.8
X213.954Y-39.996
X214.0Y-56.0
X214.1Y-64.0
X214.5Y-57.3
X214.5Y-58.5
X214.6Y-61.2
X215.1Y-54.4
X215.1Y-65.2
X215.4Y-63.8
X216.0Y-37.0
X216.2Y-57.3
X216.2Y-58.5
X216.6Y-56.0
X216.6Y-60.9
X217.2Y-48.5
X218.0Y-36.6
X218.4Y-49.4
X218.535Y-53.215
X218.6Y-50.8
X218.601Y-54.012
X218.8Y-25.6
X219.5Y-67.5
X219.8Y-61.4
X220.2Y-25.5
X220.2Y-57.7
X220.8Y-53.0
X221.0Y-64.4
X221.0Y-68.001
X221.0Y-70.9
X221.154Y-37.6
X221.89Y-30.743
X222.4Y-56.0
X222.454Y-39.7
X223.4Y-64.0
X223.5Y-46.9
X223.8Y-34.2
X224.4Y-64.0
X224.8Y-56.2
X225.8Y-47.4
X226.0Y-68.8
X226.2Y-67.4
X227.0Y-41.0
X227.6Y-64.2
X227.954Y-30.0
X228.1Y-42.0
X228.2Y-39.396
X228.2Y-57.0
X229.0Y-35.9
X229.254Y-30.4
X229.7Y-32.5
X229.8Y-55.6
X230.0Y-43.1
X230.5Y-40.2
X231.829Y-29.4
X231.9Y-63.2
X232.0Y-61.9
X232.77Y-48.9
X232.9Y-59.0
X233.4Y-44.8
X233.9Y-56.0
X234.2Y-62.0
X234.6Y-25.8
X234.8Y-52.8
X235.1Y-37.4
X235.4Y-56.0
X236.0Y-33.3
X236.5Y-59.0
X237.2Y-56.7
X237.5Y-50.1
X237.8Y-56.0
X237.8Y-61.6
X238.4Y-57.0
X238.654Y-33.0
X239.2Y-53.0
X239.2Y-65.6
X239.9Y-43.5
X240.4Y-62.6
X240.459Y-32.3
X241.6Y-35.4
X241.8Y-67.2
X242.4Y-68.0
X242.89Y-33.71
X243.0Y-27.4
X243.6Y-54.4
X244.654Y-41.5
X244.8Y-60.8
X245.3Y-38.7
X245.454Y-31.5
X246.0Y-54.3
X246.1Y-29.9
X246.4Y-67.0
X247.2Y-39.9
X247.4Y-41.8
X247.6Y-34.0
X247.7Y-73.3
X248.0Y-66.3
X248.0Y-71.1
X248.954Y-38.0
X249.725Y-56.8
X249.725Y-58.2
X250.9Y-26.4
X251.576Y-38.424
X252.2Y-26.8
X252.4Y-30.4
X252.4Y-42.0
X252.6Y-24.6
X252.6Y-28.2
X252.6Y-32.0
X252.6Y-36.0
X252.6Y-39.8
X253.0Y-34.2
T3
X41.6Y-46.7
X41.6Y-59.4
X173.6Y-46.7
X173.6Y-59.4
T4
X30.0Y-19.0
X33.0Y-100.0
X102.0Y-68.7
X109.0Y-19.0
X162.0Y-19.0
X165.0Y-100.0
X234.0Y-68.7
X241.0Y-19.0
T2
X116.27Y-53.68G85X117.37Y-53.68
G05
X116.27Y-62.32G85X117.37Y-62.32
G05
X120.6Y-53.68G85X121.4Y-53.68
G05
X120.6Y-62.32G85X121.4Y-62.32
G05
X248.27Y-53.68G85X249.37Y-53.68
G05
X248.27Y-62.32G85X249.37Y-62.32
G05
X252.6Y-53.68G85X253.4Y-53.68
G05
X252.6Y-62.32G85X253.4Y-62.32
G05
M30
