G04 #@! TF.GenerationSoftware,KiCad,Pcbnew,9.0.1*
G04 #@! TF.CreationDate,2025-05-04T22:53:25+02:00*
G04 #@! TF.ProjectId,dc2025_badge-panel,64633230-3235-45f6-9261-6467652d7061,rev?*
G04 #@! TF.SameCoordinates,Original*
G04 #@! TF.FileFunction,Soldermask,Top*
G04 #@! TF.FilePolarity,Negative*
%FSLAX46Y46*%
G04 Gerber Fmt 4.6, Leading zero omitted, Abs format (unit mm)*
G04 Created by KiCad (PCBNEW 9.0.1) date 2025-05-04 22:53:25*
%MOMM*%
%LPD*%
G01*
G04 APERTURE LIST*
G04 Aperture macros list*
%AMRoundRect*
0 Rectangle with rounded corners*
0 $1 Rounding radius*
0 $2 $3 $4 $5 $6 $7 $8 $9 X,Y pos of 4 corners*
0 Add a 4 corners polygon primitive as box body*
4,1,4,$2,$3,$4,$5,$6,$7,$8,$9,$2,$3,0*
0 Add four circle primitives for the rounded corners*
1,1,$1+$1,$2,$3*
1,1,$1+$1,$4,$5*
1,1,$1+$1,$6,$7*
1,1,$1+$1,$8,$9*
0 Add four rect primitives between the rounded corners*
20,1,$1+$1,$2,$3,$4,$5,0*
20,1,$1+$1,$4,$5,$6,$7,0*
20,1,$1+$1,$6,$7,$8,$9,0*
20,1,$1+$1,$8,$9,$2,$3,0*%
G04 Aperture macros list end*
%ADD10RoundRect,0.218750X-0.256250X0.218750X-0.256250X-0.218750X0.256250X-0.218750X0.256250X0.218750X0*%
%ADD11RoundRect,0.135000X-0.226274X-0.035355X-0.035355X-0.226274X0.226274X0.035355X0.035355X0.226274X0*%
%ADD12RoundRect,0.218750X0.218750X0.256250X-0.218750X0.256250X-0.218750X-0.256250X0.218750X-0.256250X0*%
%ADD13RoundRect,0.135000X-0.185000X0.135000X-0.185000X-0.135000X0.185000X-0.135000X0.185000X0.135000X0*%
%ADD14RoundRect,0.140000X-0.140000X-0.170000X0.140000X-0.170000X0.140000X0.170000X-0.140000X0.170000X0*%
%ADD15RoundRect,0.135000X0.185000X-0.135000X0.185000X0.135000X-0.185000X0.135000X-0.185000X-0.135000X0*%
%ADD16RoundRect,0.135000X0.135000X0.185000X-0.135000X0.185000X-0.135000X-0.185000X0.135000X-0.185000X0*%
%ADD17RoundRect,0.218750X-0.218750X-0.256250X0.218750X-0.256250X0.218750X0.256250X-0.218750X0.256250X0*%
%ADD18RoundRect,0.135000X-0.135000X-0.185000X0.135000X-0.185000X0.135000X0.185000X-0.135000X0.185000X0*%
%ADD19RoundRect,0.225000X-0.225000X-0.250000X0.225000X-0.250000X0.225000X0.250000X-0.225000X0.250000X0*%
%ADD20RoundRect,0.218750X0.335876X0.026517X0.026517X0.335876X-0.335876X-0.026517X-0.026517X-0.335876X0*%
%ADD21RoundRect,0.225000X-0.250000X0.225000X-0.250000X-0.225000X0.250000X-0.225000X0.250000X0.225000X0*%
%ADD22RoundRect,0.225000X0.250000X-0.225000X0.250000X0.225000X-0.250000X0.225000X-0.250000X-0.225000X0*%
%ADD23RoundRect,0.218750X0.256250X-0.218750X0.256250X0.218750X-0.256250X0.218750X-0.256250X-0.218750X0*%
%ADD24RoundRect,0.112500X-0.187500X-0.112500X0.187500X-0.112500X0.187500X0.112500X-0.187500X0.112500X0*%
%ADD25RoundRect,0.112500X0.112500X-0.187500X0.112500X0.187500X-0.112500X0.187500X-0.112500X-0.187500X0*%
%ADD26RoundRect,0.140000X-0.170000X0.140000X-0.170000X-0.140000X0.170000X-0.140000X0.170000X0.140000X0*%
%ADD27RoundRect,0.160000X-0.222500X-0.160000X0.222500X-0.160000X0.222500X0.160000X-0.222500X0.160000X0*%
%ADD28RoundRect,0.225000X0.225000X0.250000X-0.225000X0.250000X-0.225000X-0.250000X0.225000X-0.250000X0*%
%ADD29C,6.200000*%
%ADD30RoundRect,0.150000X-0.587500X-0.150000X0.587500X-0.150000X0.587500X0.150000X-0.587500X0.150000X0*%
%ADD31RoundRect,0.140000X0.170000X-0.140000X0.170000X0.140000X-0.170000X0.140000X-0.170000X-0.140000X0*%
%ADD32RoundRect,0.150000X0.150000X-0.512500X0.150000X0.512500X-0.150000X0.512500X-0.150000X-0.512500X0*%
%ADD33C,1.000000*%
%ADD34RoundRect,0.075000X-0.700000X-0.075000X0.700000X-0.075000X0.700000X0.075000X-0.700000X0.075000X0*%
%ADD35RoundRect,0.075000X-0.075000X-0.700000X0.075000X-0.700000X0.075000X0.700000X-0.075000X0.700000X0*%
%ADD36RoundRect,0.140000X0.140000X0.170000X-0.140000X0.170000X-0.140000X-0.170000X0.140000X-0.170000X0*%
%ADD37RoundRect,0.150000X0.512500X0.150000X-0.512500X0.150000X-0.512500X-0.150000X0.512500X-0.150000X0*%
%ADD38RoundRect,0.250000X-0.450000X0.400000X-0.450000X-0.400000X0.450000X-0.400000X0.450000X0.400000X0*%
%ADD39RoundRect,0.225000X-0.225000X-0.375000X0.225000X-0.375000X0.225000X0.375000X-0.225000X0.375000X0*%
%ADD40RoundRect,0.150000X-0.150000X0.512500X-0.150000X-0.512500X0.150000X-0.512500X0.150000X0.512500X0*%
%ADD41RoundRect,0.250000X-0.400000X-0.450000X0.400000X-0.450000X0.400000X0.450000X-0.400000X0.450000X0*%
%ADD42RoundRect,0.102000X0.700000X-0.800000X0.700000X0.800000X-0.700000X0.800000X-0.700000X-0.800000X0*%
%ADD43RoundRect,0.102000X0.750000X-0.350000X0.750000X0.350000X-0.750000X0.350000X-0.750000X-0.350000X0*%
%ADD44RoundRect,0.102000X0.400000X-0.500000X0.400000X0.500000X-0.400000X0.500000X-0.400000X-0.500000X0*%
%ADD45RoundRect,0.050000X-0.362500X-0.050000X0.362500X-0.050000X0.362500X0.050000X-0.362500X0.050000X0*%
%ADD46RoundRect,0.050000X-0.050000X-0.362500X0.050000X-0.362500X0.050000X0.362500X-0.050000X0.362500X0*%
%ADD47R,2.300000X2.300000*%
%ADD48RoundRect,0.150000X0.425000X-0.150000X0.425000X0.150000X-0.425000X0.150000X-0.425000X-0.150000X0*%
%ADD49RoundRect,0.075000X0.500000X-0.075000X0.500000X0.075000X-0.500000X0.075000X-0.500000X-0.075000X0*%
%ADD50O,2.100000X1.000000*%
%ADD51O,1.800000X1.000000*%
%ADD52RoundRect,0.075000X-0.175000X-0.175000X0.175000X-0.175000X0.175000X0.175000X-0.175000X0.175000X0*%
%ADD53RoundRect,0.062500X0.062500X-0.375000X0.062500X0.375000X-0.062500X0.375000X-0.062500X-0.375000X0*%
%ADD54RoundRect,0.062500X0.375000X-0.062500X0.375000X0.062500X-0.375000X0.062500X-0.375000X-0.062500X0*%
%ADD55R,3.500000X3.500000*%
%ADD56RoundRect,0.250000X0.400000X0.450000X-0.400000X0.450000X-0.400000X-0.450000X0.400000X-0.450000X0*%
%ADD57R,1.400000X1.200000*%
%ADD58RoundRect,0.112500X-0.112500X0.187500X-0.112500X-0.187500X0.112500X-0.187500X0.112500X0.187500X0*%
%ADD59C,2.540000*%
G04 APERTURE END LIST*
D10*
G04 #@! TO.C,D72*
X117450012Y-50947500D03*
X117450012Y-52522500D03*
G04 #@! TD*
D11*
G04 #@! TO.C,R164*
X76028728Y-36970034D03*
X76749976Y-37691282D03*
G04 #@! TD*
D12*
G04 #@! TO.C,D113*
X31427478Y-42274997D03*
X29852478Y-42274997D03*
G04 #@! TD*
D13*
G04 #@! TO.C,R55*
X183103553Y-51255000D03*
X183103553Y-52275000D03*
G04 #@! TD*
D14*
G04 #@! TO.C,C36*
X70720000Y-77200000D03*
X71680000Y-77200000D03*
G04 #@! TD*
D15*
G04 #@! TO.C,R145*
X118950012Y-36779998D03*
X118950012Y-35759998D03*
G04 #@! TD*
D16*
G04 #@! TO.C,R81*
X91455014Y-28769998D03*
X90435016Y-28769998D03*
G04 #@! TD*
D17*
G04 #@! TO.C,D6*
X165566053Y-66500000D03*
X167141053Y-66500000D03*
G04 #@! TD*
G04 #@! TO.C,D29*
X172066053Y-86500000D03*
X173641053Y-86500000D03*
G04 #@! TD*
D18*
G04 #@! TO.C,R26*
X223798562Y-55769999D03*
X224818562Y-55769999D03*
G04 #@! TD*
D12*
G04 #@! TO.C,D169*
X44682491Y-42274998D03*
X43107491Y-42274998D03*
G04 #@! TD*
D17*
G04 #@! TO.C,D151*
X240541063Y-30269998D03*
X242116063Y-30269998D03*
G04 #@! TD*
G04 #@! TO.C,D28*
X153066053Y-86500000D03*
X154641053Y-86500000D03*
G04 #@! TD*
D12*
G04 #@! TO.C,D176*
X178051045Y-42274998D03*
X176476045Y-42274998D03*
G04 #@! TD*
D19*
G04 #@! TO.C,C24*
X66925000Y-75700000D03*
X68475000Y-75700000D03*
G04 #@! TD*
D10*
G04 #@! TO.C,D191*
X196393561Y-35482498D03*
X196393561Y-37057498D03*
G04 #@! TD*
D20*
G04 #@! TO.C,D186*
X75507237Y-34327223D03*
X74393543Y-33213529D03*
G04 #@! TD*
D10*
G04 #@! TO.C,D138*
X49750000Y-38972498D03*
X49750000Y-40547498D03*
G04 #@! TD*
D18*
G04 #@! TO.C,R92*
X152963533Y-43600000D03*
X153983533Y-43600000D03*
G04 #@! TD*
D13*
G04 #@! TO.C,R163*
X199893561Y-35759998D03*
X199893561Y-36779998D03*
G04 #@! TD*
D14*
G04 #@! TO.C,C38*
X70720000Y-73100000D03*
X71680000Y-73100000D03*
G04 #@! TD*
D21*
G04 #@! TO.C,C28*
X63400000Y-83225000D03*
X63400000Y-84775000D03*
G04 #@! TD*
D20*
G04 #@! TO.C,D71*
X92535519Y-34355505D03*
X91421825Y-33241811D03*
G04 #@! TD*
D13*
G04 #@! TO.C,R61*
X36509984Y-32259997D03*
X36509984Y-33279997D03*
G04 #@! TD*
G04 #@! TO.C,R39*
X53250000Y-44260000D03*
X53250000Y-45280000D03*
G04 #@! TD*
D17*
G04 #@! TO.C,D24*
X19712500Y-82970000D03*
X21287500Y-82970000D03*
G04 #@! TD*
D18*
G04 #@! TO.C,R121*
X93960009Y-43774998D03*
X94980009Y-43774998D03*
G04 #@! TD*
D14*
G04 #@! TO.C,C18*
X66120000Y-79600000D03*
X67080000Y-79600000D03*
G04 #@! TD*
D16*
G04 #@! TO.C,R141*
X191148571Y-28769998D03*
X190128573Y-28769998D03*
G04 #@! TD*
D18*
G04 #@! TO.C,R64*
X73443553Y-43700000D03*
X74463553Y-43700000D03*
G04 #@! TD*
D17*
G04 #@! TO.C,D30*
X149566053Y-89500000D03*
X151141053Y-89500000D03*
G04 #@! TD*
D22*
G04 #@! TO.C,C10*
X153128553Y-60762500D03*
X153128553Y-59212500D03*
G04 #@! TD*
D23*
G04 #@! TO.C,D127*
X235303565Y-37057498D03*
X235303565Y-35482498D03*
G04 #@! TD*
D18*
G04 #@! TO.C,R159*
X237283567Y-43600000D03*
X238303567Y-43600000D03*
G04 #@! TD*
D13*
G04 #@! TO.C,R41*
X86990008Y-32279998D03*
X86990008Y-33299998D03*
G04 #@! TD*
D17*
G04 #@! TO.C,D151*
X110687510Y-30269998D03*
X112262510Y-30269998D03*
G04 #@! TD*
D18*
G04 #@! TO.C,R46*
X43359991Y-55769999D03*
X44379991Y-55769999D03*
G04 #@! TD*
D20*
G04 #@! TO.C,D152*
X241860412Y-48826845D03*
X240746718Y-47713151D03*
G04 #@! TD*
G04 #@! TO.C,D58*
X160112963Y-39319396D03*
X158999269Y-38205702D03*
G04 #@! TD*
D24*
G04 #@! TO.C,D208*
X180603553Y-86400000D03*
X182703553Y-86400000D03*
G04 #@! TD*
D13*
G04 #@! TO.C,R90*
X233803565Y-32279998D03*
X233803565Y-33299998D03*
G04 #@! TD*
D10*
G04 #@! TO.C,D108*
X66540008Y-43952500D03*
X66540008Y-45527500D03*
G04 #@! TD*
D17*
G04 #@! TO.C,D8*
X29712500Y-69500000D03*
X31287500Y-69500000D03*
G04 #@! TD*
D20*
G04 #@! TO.C,D128*
X241860412Y-36826845D03*
X240746718Y-35713151D03*
G04 #@! TD*
D23*
G04 #@! TO.C,D106*
X167863537Y-40547497D03*
X167863537Y-38972497D03*
G04 #@! TD*
D12*
G04 #@! TO.C,D172*
X208101063Y-54269999D03*
X206526063Y-54269999D03*
G04 #@! TD*
D25*
G04 #@! TO.C,D211*
X121000000Y-38250000D03*
X121000000Y-36150000D03*
G04 #@! TD*
D12*
G04 #@! TO.C,D96*
X238556067Y-54269999D03*
X236981067Y-54269999D03*
G04 #@! TD*
D16*
G04 #@! TO.C,R141*
X61295018Y-28769998D03*
X60275020Y-28769998D03*
G04 #@! TD*
D11*
G04 #@! TO.C,R29*
X28281279Y-39462585D03*
X29002527Y-40183833D03*
G04 #@! TD*
D15*
G04 #@! TO.C,R22*
X51250000Y-48760000D03*
X51250000Y-47740000D03*
G04 #@! TD*
D17*
G04 #@! TO.C,D143*
X114197509Y-30269998D03*
X115772509Y-30269998D03*
G04 #@! TD*
G04 #@! TO.C,D37*
X23212500Y-95500000D03*
X24787500Y-95500000D03*
G04 #@! TD*
D23*
G04 #@! TO.C,D49*
X151093525Y-33592496D03*
X151093525Y-32017496D03*
G04 #@! TD*
D17*
G04 #@! TO.C,D18*
X162566053Y-76000000D03*
X164141053Y-76000000D03*
G04 #@! TD*
D11*
G04 #@! TO.C,R115*
X107546784Y-46488090D03*
X108268032Y-47209338D03*
G04 #@! TD*
G04 #@! TO.C,R91*
X107546784Y-34488090D03*
X108268032Y-35209338D03*
G04 #@! TD*
D10*
G04 #@! TO.C,D59*
X49750000Y-43952500D03*
X49750000Y-45527500D03*
G04 #@! TD*
D13*
G04 #@! TO.C,R35*
X103950012Y-51245000D03*
X103950012Y-52265000D03*
G04 #@! TD*
D23*
G04 #@! TO.C,D137*
X151093525Y-45557498D03*
X151093525Y-43982498D03*
G04 #@! TD*
D17*
G04 #@! TO.C,D18*
X32712500Y-76000000D03*
X34287500Y-76000000D03*
G04 #@! TD*
D19*
G04 #@! TO.C,C41*
X107025000Y-72000000D03*
X108575000Y-72000000D03*
G04 #@! TD*
D15*
G04 #@! TO.C,R152*
X248803565Y-33269998D03*
X248803565Y-32249998D03*
G04 #@! TD*
D26*
G04 #@! TO.C,C20*
X63100000Y-80445000D03*
X63100000Y-81405000D03*
G04 #@! TD*
D17*
G04 #@! TO.C,D10*
X35712500Y-69500000D03*
X37287500Y-69500000D03*
G04 #@! TD*
D11*
G04 #@! TO.C,R33*
X78531884Y-51473191D03*
X79253132Y-52194439D03*
G04 #@! TD*
D20*
G04 #@! TO.C,D148*
X191110412Y-36826845D03*
X189996718Y-35713151D03*
G04 #@! TD*
D11*
G04 #@! TO.C,R37*
X152900337Y-46488090D03*
X153621585Y-47209338D03*
G04 #@! TD*
D10*
G04 #@! TO.C,D184*
X196393561Y-38972498D03*
X196393561Y-40547498D03*
G04 #@! TD*
D15*
G04 #@! TO.C,R162*
X68040008Y-36779998D03*
X68040008Y-35759998D03*
G04 #@! TD*
G04 #@! TO.C,R109*
X181103553Y-40269998D03*
X181103553Y-39249998D03*
G04 #@! TD*
D18*
G04 #@! TO.C,R84*
X159998531Y-43774997D03*
X161018531Y-43774997D03*
G04 #@! TD*
D17*
G04 #@! TO.C,D7*
X168566053Y-66500000D03*
X170141053Y-66500000D03*
G04 #@! TD*
D25*
G04 #@! TO.C,D211*
X250853553Y-38250000D03*
X250853553Y-36150000D03*
G04 #@! TD*
D11*
G04 #@! TO.C,R50*
X222882281Y-36970034D03*
X223603529Y-37691282D03*
G04 #@! TD*
D18*
G04 #@! TO.C,R64*
X203297106Y-43700000D03*
X204317106Y-43700000D03*
G04 #@! TD*
D10*
G04 #@! TO.C,D105*
X162863537Y-38957497D03*
X162863537Y-40532497D03*
G04 #@! TD*
D11*
G04 #@! TO.C,R78*
X45010673Y-39451980D03*
X45731921Y-40173228D03*
G04 #@! TD*
D20*
G04 #@! TO.C,D156*
X63745873Y-39315859D03*
X62632179Y-38202165D03*
G04 #@! TD*
D25*
G04 #@! TO.C,D214*
X121000000Y-30850000D03*
X121000000Y-28750000D03*
G04 #@! TD*
D12*
G04 #@! TO.C,D112*
X115727512Y-54269999D03*
X114152512Y-54269999D03*
G04 #@! TD*
D23*
G04 #@! TO.C,D127*
X105450012Y-37057498D03*
X105450012Y-35482498D03*
G04 #@! TD*
D20*
G04 #@! TO.C,D131*
X176835286Y-51301719D03*
X175721592Y-50188025D03*
G04 #@! TD*
D18*
G04 #@! TO.C,R23*
X189983559Y-43774998D03*
X191003559Y-43774998D03*
G04 #@! TD*
D17*
G04 #@! TO.C,D23*
X42212500Y-79500000D03*
X43787500Y-79500000D03*
G04 #@! TD*
G04 #@! TO.C,D24*
X149566053Y-82970000D03*
X151141053Y-82970000D03*
G04 #@! TD*
G04 #@! TO.C,D94*
X97162517Y-30269998D03*
X98737517Y-30269998D03*
G04 #@! TD*
D27*
G04 #@! TO.C,L2*
X197281053Y-74200000D03*
X198426053Y-74200000D03*
G04 #@! TD*
D28*
G04 #@! TO.C,C43*
X232478553Y-68300000D03*
X230928553Y-68300000D03*
G04 #@! TD*
D18*
G04 #@! TO.C,R75*
X240768566Y-55769999D03*
X241788566Y-55769999D03*
G04 #@! TD*
D15*
G04 #@! TO.C,R105*
X231803565Y-33269998D03*
X231803565Y-32249998D03*
G04 #@! TD*
D12*
G04 #@! TO.C,D179*
X81787508Y-54269999D03*
X80212508Y-54269999D03*
G04 #@! TD*
D13*
G04 #@! TO.C,R163*
X70040008Y-35759998D03*
X70040008Y-36779998D03*
G04 #@! TD*
D15*
G04 #@! TO.C,R158*
X231803565Y-52245000D03*
X231803565Y-51225000D03*
G04 #@! TD*
G04 #@! TO.C,R97*
X101950012Y-36779998D03*
X101950012Y-35759998D03*
G04 #@! TD*
D23*
G04 #@! TO.C,D64*
X105450012Y-52552500D03*
X105450012Y-50977500D03*
G04 #@! TD*
D17*
G04 #@! TO.C,D122*
X173096087Y-30269998D03*
X174671087Y-30269998D03*
G04 #@! TD*
D23*
G04 #@! TO.C,D147*
X54750000Y-37057498D03*
X54750000Y-35482498D03*
G04 #@! TD*
D13*
G04 #@! TO.C,R39*
X183103553Y-44260000D03*
X183103553Y-45280000D03*
G04 #@! TD*
D29*
G04 #@! TO.C,H3*
X30000000Y-24000000D03*
G04 #@! TD*
D17*
G04 #@! TO.C,D32*
X172066053Y-89500000D03*
X173641053Y-89500000D03*
G04 #@! TD*
G04 #@! TO.C,D159*
X107172511Y-30269998D03*
X108747511Y-30269998D03*
G04 #@! TD*
D13*
G04 #@! TO.C,R108*
X149593525Y-44259998D03*
X149593525Y-45279998D03*
G04 #@! TD*
D18*
G04 #@! TO.C,R160*
X156433532Y-55769998D03*
X157453532Y-55769998D03*
G04 #@! TD*
D20*
G04 #@! TO.C,D46*
X75610400Y-46556847D03*
X74496706Y-45443153D03*
G04 #@! TD*
D13*
G04 #@! TO.C,R19*
X233803565Y-44260000D03*
X233803565Y-45280000D03*
G04 #@! TD*
D17*
G04 #@! TO.C,D61*
X203271060Y-30269998D03*
X204846060Y-30269998D03*
G04 #@! TD*
D22*
G04 #@! TO.C,C4*
X213253553Y-67775000D03*
X213253553Y-66225000D03*
G04 #@! TD*
D13*
G04 #@! TO.C,R161*
X36509984Y-47739999D03*
X36509984Y-48759999D03*
G04 #@! TD*
D30*
G04 #@! TO.C,Q1*
X113000000Y-73850000D03*
X113000000Y-75750000D03*
X114875000Y-74800000D03*
G04 #@! TD*
D11*
G04 #@! TO.C,R99*
X239882281Y-36970034D03*
X240603529Y-37691282D03*
G04 #@! TD*
D31*
G04 #@! TO.C,C6*
X84600000Y-67480000D03*
X84600000Y-66520000D03*
G04 #@! TD*
D32*
G04 #@! TO.C,U6*
X230753553Y-66637500D03*
X232653553Y-66637500D03*
X231703553Y-64362500D03*
G04 #@! TD*
D17*
G04 #@! TO.C,D61*
X73417507Y-30269998D03*
X74992507Y-30269998D03*
G04 #@! TD*
D12*
G04 #@! TO.C,D202*
X245606065Y-42274998D03*
X244031065Y-42274998D03*
G04 #@! TD*
D17*
G04 #@! TO.C,D3*
X35712500Y-63000000D03*
X37287500Y-63000000D03*
G04 #@! TD*
D10*
G04 #@! TO.C,D92*
X66540008Y-50947500D03*
X66540008Y-52522500D03*
G04 #@! TD*
D26*
G04 #@! TO.C,C17*
X193953553Y-80420000D03*
X193953553Y-81380000D03*
G04 #@! TD*
D15*
G04 #@! TO.C,R56*
X84990008Y-33269998D03*
X84990008Y-32249998D03*
G04 #@! TD*
D12*
G04 #@! TO.C,D188*
X108727514Y-42274998D03*
X107152514Y-42274998D03*
G04 #@! TD*
D13*
G04 #@! TO.C,R179*
X71600000Y-61235000D03*
X71600000Y-62255000D03*
G04 #@! TD*
D20*
G04 #@! TO.C,D107*
X176835286Y-39301719D03*
X175721592Y-38188025D03*
G04 #@! TD*
D15*
G04 #@! TO.C,R56*
X214843561Y-33269998D03*
X214843561Y-32249998D03*
G04 #@! TD*
D17*
G04 #@! TO.C,D34*
X23227500Y-92500000D03*
X24802500Y-92500000D03*
G04 #@! TD*
D27*
G04 #@! TO.C,L2*
X67427500Y-74200000D03*
X68572500Y-74200000D03*
G04 #@! TD*
D23*
G04 #@! TO.C,D49*
X21239972Y-33592496D03*
X21239972Y-32017496D03*
G04 #@! TD*
G04 #@! TO.C,D41*
X151093525Y-37072496D03*
X151093525Y-35497496D03*
G04 #@! TD*
D31*
G04 #@! TO.C,C31*
X69700000Y-77200000D03*
X69700000Y-76240000D03*
G04 #@! TD*
D13*
G04 #@! TO.C,R118*
X53250000Y-35759998D03*
X53250000Y-36779998D03*
G04 #@! TD*
D12*
G04 #@! TO.C,D83*
X178011045Y-54269999D03*
X176436045Y-54269999D03*
G04 #@! TD*
D25*
G04 #@! TO.C,D213*
X250853553Y-34650000D03*
X250853553Y-32550000D03*
G04 #@! TD*
D10*
G04 #@! TO.C,D77*
X83490008Y-35482498D03*
X83490008Y-37057498D03*
G04 #@! TD*
D15*
G04 #@! TO.C,R155*
X197893561Y-40269998D03*
X197893561Y-39249998D03*
G04 #@! TD*
D20*
G04 #@! TO.C,D200*
X210363569Y-39330002D03*
X209249875Y-38216308D03*
G04 #@! TD*
D12*
G04 #@! TO.C,D101*
X208126063Y-42274998D03*
X206551063Y-42274998D03*
G04 #@! TD*
D18*
G04 #@! TO.C,R3*
X74490000Y-59145000D03*
X75510000Y-59145000D03*
G04 #@! TD*
D17*
G04 #@! TO.C,D15*
X162566053Y-73000000D03*
X164141053Y-73000000D03*
G04 #@! TD*
D14*
G04 #@! TO.C,C38*
X200573553Y-73100000D03*
X201533553Y-73100000D03*
G04 #@! TD*
D23*
G04 #@! TO.C,D98*
X167863537Y-37027497D03*
X167863537Y-35452497D03*
G04 #@! TD*
D33*
G04 #@! TO.C,KiKit_FID_T_2*
X259707106Y-2500000D03*
G04 #@! TD*
D12*
G04 #@! TO.C,D179*
X211641061Y-54269999D03*
X210066061Y-54269999D03*
G04 #@! TD*
D25*
G04 #@! TO.C,D214*
X250853553Y-30850000D03*
X250853553Y-28750000D03*
G04 #@! TD*
D13*
G04 #@! TO.C,R106*
X103950012Y-39279998D03*
X103950012Y-40299998D03*
G04 #@! TD*
D11*
G04 #@! TO.C,R99*
X110028728Y-36970034D03*
X110749976Y-37691282D03*
G04 #@! TD*
D34*
G04 #@! TO.C,U2*
X216178553Y-61250000D03*
X216178553Y-61750000D03*
X216178553Y-62250000D03*
X216178553Y-62750000D03*
X216178553Y-63250000D03*
X216178553Y-63750000D03*
X216178553Y-64250000D03*
X216178553Y-64750000D03*
X216178553Y-65250000D03*
X216178553Y-65750000D03*
X216178553Y-66250000D03*
X216178553Y-66750000D03*
X216178553Y-67250000D03*
X216178553Y-67750000D03*
X216178553Y-68250000D03*
X216178553Y-68750000D03*
D35*
X218103553Y-70675000D03*
X218603553Y-70675000D03*
X219103553Y-70675000D03*
X219603553Y-70675000D03*
X220103553Y-70675000D03*
X220603553Y-70675000D03*
X221103553Y-70675000D03*
X221603553Y-70675000D03*
X222103553Y-70675000D03*
X222603553Y-70675000D03*
X223103553Y-70675000D03*
X223603553Y-70675000D03*
X224103553Y-70675000D03*
X224603553Y-70675000D03*
X225103553Y-70675000D03*
X225603553Y-70675000D03*
D34*
X227528553Y-68750000D03*
X227528553Y-68250000D03*
X227528553Y-67750000D03*
X227528553Y-67250000D03*
X227528553Y-66750000D03*
X227528553Y-66250000D03*
X227528553Y-65750000D03*
X227528553Y-65250000D03*
X227528553Y-64750000D03*
X227528553Y-64250000D03*
X227528553Y-63750000D03*
X227528553Y-63250000D03*
X227528553Y-62750000D03*
X227528553Y-62250000D03*
X227528553Y-61750000D03*
X227528553Y-61250000D03*
D35*
X225603553Y-59325000D03*
X225103553Y-59325000D03*
X224603553Y-59325000D03*
X224103553Y-59325000D03*
X223603553Y-59325000D03*
X223103553Y-59325000D03*
X222603553Y-59325000D03*
X222103553Y-59325000D03*
X221603553Y-59325000D03*
X221103553Y-59325000D03*
X220603553Y-59325000D03*
X220103553Y-59325000D03*
X219603553Y-59325000D03*
X219103553Y-59325000D03*
X218603553Y-59325000D03*
X218103553Y-59325000D03*
G04 #@! TD*
D15*
G04 #@! TO.C,R158*
X101950012Y-52245000D03*
X101950012Y-51225000D03*
G04 #@! TD*
D31*
G04 #@! TO.C,C32*
X199553553Y-75160000D03*
X199553553Y-74200000D03*
G04 #@! TD*
D10*
G04 #@! TO.C,D69*
X213343561Y-38987498D03*
X213343561Y-40562498D03*
G04 #@! TD*
D17*
G04 #@! TO.C,D130*
X39742533Y-30269998D03*
X41317533Y-30269998D03*
G04 #@! TD*
D10*
G04 #@! TO.C,D198*
X196393561Y-31972498D03*
X196393561Y-33547498D03*
G04 #@! TD*
D16*
G04 #@! TO.C,R36*
X27820045Y-28769998D03*
X26800047Y-28769998D03*
G04 #@! TD*
D20*
G04 #@! TO.C,D178*
X63745874Y-51315860D03*
X62632180Y-50202166D03*
G04 #@! TD*
D17*
G04 #@! TO.C,D2*
X32727500Y-63000000D03*
X34302500Y-63000000D03*
G04 #@! TD*
D33*
G04 #@! TO.C,KiKit_FID_T_1*
X5000000Y-2500000D03*
G04 #@! TD*
D18*
G04 #@! TO.C,R18*
X90450008Y-55769999D03*
X91470008Y-55769999D03*
G04 #@! TD*
D17*
G04 #@! TO.C,D22*
X38712500Y-79500000D03*
X40287500Y-79500000D03*
G04 #@! TD*
D20*
G04 #@! TO.C,D171*
X61256859Y-48826845D03*
X60143165Y-47713151D03*
G04 #@! TD*
D10*
G04 #@! TO.C,D126*
X230303565Y-35482498D03*
X230303565Y-37057498D03*
G04 #@! TD*
G04 #@! TO.C,D146*
X49750000Y-35482498D03*
X49750000Y-37057498D03*
G04 #@! TD*
G04 #@! TO.C,D174*
X247303565Y-35482498D03*
X247303565Y-37057498D03*
G04 #@! TD*
D21*
G04 #@! TO.C,C28*
X193253553Y-83225000D03*
X193253553Y-84775000D03*
G04 #@! TD*
D17*
G04 #@! TO.C,D17*
X29712500Y-76000000D03*
X31287500Y-76000000D03*
G04 #@! TD*
D11*
G04 #@! TO.C,R142*
X189132281Y-48970034D03*
X189853529Y-49691282D03*
G04 #@! TD*
D17*
G04 #@! TO.C,D37*
X153066053Y-95500000D03*
X154641053Y-95500000D03*
G04 #@! TD*
D10*
G04 #@! TO.C,D85*
X213343561Y-31972498D03*
X213343561Y-33547498D03*
G04 #@! TD*
D20*
G04 #@! TO.C,D123*
X174360412Y-48826845D03*
X173246718Y-47713151D03*
G04 #@! TD*
D11*
G04 #@! TO.C,R107*
X242367761Y-39455515D03*
X243089009Y-40176763D03*
G04 #@! TD*
D15*
G04 #@! TO.C,R14*
X181103553Y-52245000D03*
X181103553Y-51225000D03*
G04 #@! TD*
D10*
G04 #@! TO.C,D201*
X230303565Y-43952500D03*
X230303565Y-45527500D03*
G04 #@! TD*
D14*
G04 #@! TO.C,C12*
X183823553Y-79300000D03*
X184783553Y-79300000D03*
G04 #@! TD*
D16*
G04 #@! TO.C,R81*
X221308567Y-28769998D03*
X220288569Y-28769998D03*
G04 #@! TD*
D11*
G04 #@! TO.C,R94*
X42539335Y-48980641D03*
X43260583Y-49701889D03*
G04 #@! TD*
D15*
G04 #@! TO.C,R43*
X248803565Y-52235000D03*
X248803565Y-51215000D03*
G04 #@! TD*
D16*
G04 #@! TO.C,R122*
X241838562Y-28769998D03*
X240818564Y-28769998D03*
G04 #@! TD*
D36*
G04 #@! TO.C,C15*
X188733553Y-72700000D03*
X187773553Y-72700000D03*
G04 #@! TD*
D11*
G04 #@! TO.C,R13*
X23306784Y-34488089D03*
X24028032Y-35209337D03*
G04 #@! TD*
D26*
G04 #@! TO.C,C9*
X160928553Y-63007500D03*
X160928553Y-63967500D03*
G04 #@! TD*
D23*
G04 #@! TO.C,D48*
X105450012Y-45557500D03*
X105450012Y-43982500D03*
G04 #@! TD*
D18*
G04 #@! TO.C,R95*
X189958559Y-55769999D03*
X190978559Y-55769999D03*
G04 #@! TD*
D10*
G04 #@! TO.C,D105*
X33009984Y-38957497D03*
X33009984Y-40532497D03*
G04 #@! TD*
D23*
G04 #@! TO.C,D155*
X184603553Y-40592498D03*
X184603553Y-39017498D03*
G04 #@! TD*
D13*
G04 #@! TO.C,R90*
X103950012Y-32279998D03*
X103950012Y-33299998D03*
G04 #@! TD*
D12*
G04 #@! TO.C,D142*
X221616061Y-42274998D03*
X220041061Y-42274998D03*
G04 #@! TD*
D13*
G04 #@! TO.C,R28*
X149593525Y-39294996D03*
X149593525Y-40314996D03*
G04 #@! TD*
D20*
G04 #@! TO.C,D46*
X205463953Y-46556847D03*
X204350259Y-45443153D03*
G04 #@! TD*
D37*
G04 #@! TO.C,U1*
X205391053Y-62695000D03*
X205391053Y-61745000D03*
X205391053Y-60795000D03*
X203116053Y-60795000D03*
X203116053Y-61745000D03*
X203116053Y-62695000D03*
G04 #@! TD*
D13*
G04 #@! TO.C,R35*
X233803565Y-51245000D03*
X233803565Y-52265000D03*
G04 #@! TD*
D17*
G04 #@! TO.C,D26*
X42212500Y-83000000D03*
X43787500Y-83000000D03*
G04 #@! TD*
D21*
G04 #@! TO.C,C27*
X69100000Y-78925000D03*
X69100000Y-80475000D03*
G04 #@! TD*
D16*
G04 #@! TO.C,R114*
X245348561Y-28769998D03*
X244328563Y-28769998D03*
G04 #@! TD*
D18*
G04 #@! TO.C,R38*
X169728543Y-55769998D03*
X170748543Y-55769998D03*
G04 #@! TD*
D31*
G04 #@! TO.C,C31*
X199553553Y-77200000D03*
X199553553Y-76240000D03*
G04 #@! TD*
D10*
G04 #@! TO.C,D100*
X196393561Y-47462500D03*
X196393561Y-49037500D03*
G04 #@! TD*
D16*
G04 #@! TO.C,R134*
X194653569Y-28769998D03*
X193633571Y-28769998D03*
G04 #@! TD*
D23*
G04 #@! TO.C,D173*
X218343561Y-49037500D03*
X218343561Y-47462500D03*
G04 #@! TD*
D18*
G04 #@! TO.C,R100*
X156473532Y-43774997D03*
X157493532Y-43774997D03*
G04 #@! TD*
D17*
G04 #@! TO.C,D19*
X38712500Y-76000000D03*
X40287500Y-76000000D03*
G04 #@! TD*
D12*
G04 #@! TO.C,D189*
X27877479Y-54269998D03*
X26302479Y-54269998D03*
G04 #@! TD*
D13*
G04 #@! TO.C,R156*
X70040008Y-32289998D03*
X70040008Y-33309998D03*
G04 #@! TD*
D17*
G04 #@! TO.C,D16*
X26212500Y-76000000D03*
X27787500Y-76000000D03*
G04 #@! TD*
D13*
G04 #@! TO.C,R108*
X19739972Y-44259998D03*
X19739972Y-45279998D03*
G04 #@! TD*
D16*
G04 #@! TO.C,R85*
X177868587Y-28769999D03*
X176848589Y-28769999D03*
G04 #@! TD*
G04 #@! TO.C,R16*
X81805002Y-28769998D03*
X80785004Y-28769998D03*
G04 #@! TD*
D17*
G04 #@! TO.C,D30*
X19712500Y-89500000D03*
X21287500Y-89500000D03*
G04 #@! TD*
D25*
G04 #@! TO.C,D209*
X250853553Y-42250000D03*
X250853553Y-40150000D03*
G04 #@! TD*
D15*
G04 #@! TO.C,R138*
X118950012Y-40269998D03*
X118950012Y-39249998D03*
G04 #@! TD*
D10*
G04 #@! TO.C,D194*
X230303565Y-47462500D03*
X230303565Y-49037500D03*
G04 #@! TD*
G04 #@! TO.C,D146*
X179603553Y-35482498D03*
X179603553Y-37057498D03*
G04 #@! TD*
D12*
G04 #@! TO.C,D165*
X74712512Y-54269999D03*
X73137512Y-54269999D03*
G04 #@! TD*
D29*
G04 #@! TO.C,H5*
X33000000Y-105000000D03*
G04 #@! TD*
D23*
G04 #@! TO.C,D155*
X54750000Y-40592498D03*
X54750000Y-39017498D03*
G04 #@! TD*
D13*
G04 #@! TO.C,R124*
X149593525Y-51254998D03*
X149593525Y-52274998D03*
G04 #@! TD*
D11*
G04 #@! TO.C,R66*
X90567996Y-46509303D03*
X91289244Y-47230551D03*
G04 #@! TD*
D15*
G04 #@! TO.C,R59*
X248803565Y-45250000D03*
X248803565Y-44230000D03*
G04 #@! TD*
D13*
G04 #@! TO.C,R49*
X86990008Y-35759998D03*
X86990008Y-36779998D03*
G04 #@! TD*
D15*
G04 #@! TO.C,R7*
X85400000Y-58620000D03*
X85400000Y-57600000D03*
G04 #@! TD*
D17*
G04 #@! TO.C,D22*
X168566053Y-79500000D03*
X170141053Y-79500000D03*
G04 #@! TD*
D10*
G04 #@! TO.C,D194*
X100450012Y-47462500D03*
X100450012Y-49037500D03*
G04 #@! TD*
D16*
G04 #@! TO.C,R73*
X94965015Y-28769999D03*
X93945017Y-28769999D03*
G04 #@! TD*
D29*
G04 #@! TO.C,H4*
X109000000Y-24000000D03*
G04 #@! TD*
D25*
G04 #@! TO.C,D213*
X121000000Y-34650000D03*
X121000000Y-32550000D03*
G04 #@! TD*
D17*
G04 #@! TO.C,D65*
X26522546Y-30269998D03*
X28097546Y-30269998D03*
G04 #@! TD*
G04 #@! TO.C,D13*
X26212500Y-73000000D03*
X27787500Y-73000000D03*
G04 #@! TD*
D12*
G04 #@! TO.C,D162*
X41197490Y-42274997D03*
X39622490Y-42274997D03*
G04 #@! TD*
D17*
G04 #@! TO.C,D40*
X159066053Y-99000000D03*
X160641053Y-99000000D03*
G04 #@! TD*
D10*
G04 #@! TO.C,D72*
X247303565Y-50947500D03*
X247303565Y-52522500D03*
G04 #@! TD*
D38*
G04 #@! TO.C,D206*
X237053553Y-63750000D03*
X237053553Y-66650000D03*
G04 #@! TD*
D39*
G04 #@! TO.C,D212*
X239403553Y-70000000D03*
X242703553Y-70000000D03*
G04 #@! TD*
D15*
G04 #@! TO.C,R152*
X118950012Y-33269998D03*
X118950012Y-32249998D03*
G04 #@! TD*
D17*
G04 #@! TO.C,D31*
X23212500Y-89500000D03*
X24787500Y-89500000D03*
G04 #@! TD*
D10*
G04 #@! TO.C,D154*
X179603553Y-31972498D03*
X179603553Y-33547498D03*
G04 #@! TD*
D12*
G04 #@! TO.C,D55*
X225101062Y-54269999D03*
X223526062Y-54269999D03*
G04 #@! TD*
D15*
G04 #@! TO.C,R79*
X197893561Y-45250000D03*
X197893561Y-44230000D03*
G04 #@! TD*
D13*
G04 #@! TO.C,R116*
X149593525Y-47739998D03*
X149593525Y-48759998D03*
G04 #@! TD*
D10*
G04 #@! TO.C,D118*
X230303565Y-38972498D03*
X230303565Y-40547498D03*
G04 #@! TD*
D23*
G04 #@! TO.C,D139*
X54750000Y-33577498D03*
X54750000Y-32002498D03*
G04 #@! TD*
D14*
G04 #@! TO.C,C35*
X70720000Y-78300000D03*
X71680000Y-78300000D03*
G04 #@! TD*
D31*
G04 #@! TO.C,C5*
X217188553Y-59095000D03*
X217188553Y-58135000D03*
G04 #@! TD*
D15*
G04 #@! TO.C,R63*
X197893561Y-52235000D03*
X197893561Y-51215000D03*
G04 #@! TD*
D20*
G04 #@! TO.C,D148*
X61256859Y-36826845D03*
X60143165Y-35713151D03*
G04 #@! TD*
D16*
G04 #@! TO.C,R24*
X78270004Y-28769998D03*
X77250006Y-28769998D03*
G04 #@! TD*
D10*
G04 #@! TO.C,D51*
X179603553Y-47462500D03*
X179603553Y-49037500D03*
G04 #@! TD*
D15*
G04 #@! TO.C,R128*
X84990008Y-45250000D03*
X84990008Y-44230000D03*
G04 #@! TD*
D11*
G04 #@! TO.C,R171*
X78531884Y-39473191D03*
X79253132Y-40194439D03*
G04 #@! TD*
D20*
G04 #@! TO.C,D50*
X157620412Y-36826845D03*
X156506718Y-35713151D03*
G04 #@! TD*
D11*
G04 #@! TO.C,R70*
X172382281Y-36970034D03*
X173103529Y-37691282D03*
G04 #@! TD*
D12*
G04 #@! TO.C,D83*
X48157492Y-54269999D03*
X46582492Y-54269999D03*
G04 #@! TD*
D13*
G04 #@! TO.C,R104*
X199893561Y-51255000D03*
X199893561Y-52275000D03*
G04 #@! TD*
D10*
G04 #@! TO.C,D80*
X247303565Y-47462500D03*
X247303565Y-49037500D03*
G04 #@! TD*
D20*
G04 #@! TO.C,D103*
X224860412Y-48826845D03*
X223746718Y-47713151D03*
G04 #@! TD*
D15*
G04 #@! TO.C,R138*
X248803565Y-40269998D03*
X248803565Y-39249998D03*
G04 #@! TD*
D13*
G04 #@! TO.C,R77*
X36509984Y-39249997D03*
X36509984Y-40269997D03*
G04 #@! TD*
D18*
G04 #@! TO.C,R72*
X206828563Y-43774998D03*
X207848563Y-43774998D03*
G04 #@! TD*
D36*
G04 #@! TO.C,C33*
X201533553Y-72100000D03*
X200573553Y-72100000D03*
G04 #@! TD*
D15*
G04 #@! TO.C,R181*
X153853553Y-66110000D03*
X153853553Y-65090000D03*
G04 #@! TD*
G04 #@! TO.C,R97*
X231803565Y-36779998D03*
X231803565Y-35759998D03*
G04 #@! TD*
G04 #@! TO.C,R117*
X51250000Y-36769998D03*
X51250000Y-35749998D03*
G04 #@! TD*
G04 #@! TO.C,R1*
X71600000Y-64255000D03*
X71600000Y-63235000D03*
G04 #@! TD*
D13*
G04 #@! TO.C,R47*
X183103553Y-47740000D03*
X183103553Y-48760000D03*
G04 #@! TD*
G04 #@! TO.C,R88*
X199893561Y-44270000D03*
X199893561Y-45290000D03*
G04 #@! TD*
D10*
G04 #@! TO.C,D43*
X49750000Y-50947500D03*
X49750000Y-52522500D03*
G04 #@! TD*
D18*
G04 #@! TO.C,R178*
X112690000Y-72000000D03*
X113710000Y-72000000D03*
G04 #@! TD*
D15*
G04 #@! TO.C,R40*
X214843561Y-40269998D03*
X214843561Y-39249998D03*
G04 #@! TD*
G04 #@! TO.C,R43*
X118950012Y-52235000D03*
X118950012Y-51215000D03*
G04 #@! TD*
D13*
G04 #@! TO.C,R154*
X166363537Y-44269999D03*
X166363537Y-45289999D03*
G04 #@! TD*
D12*
G04 #@! TO.C,D44*
X187776061Y-42274998D03*
X186201061Y-42274998D03*
G04 #@! TD*
D17*
G04 #@! TO.C,D170*
X189851072Y-30269998D03*
X191426072Y-30269998D03*
G04 #@! TD*
D23*
G04 #@! TO.C,D153*
X151093525Y-52552498D03*
X151093525Y-50977498D03*
G04 #@! TD*
D20*
G04 #@! TO.C,D193*
X207860412Y-36826845D03*
X206746718Y-35713151D03*
G04 #@! TD*
D23*
G04 #@! TO.C,D166*
X88490008Y-45557500D03*
X88490008Y-43982500D03*
G04 #@! TD*
D13*
G04 #@! TO.C,R170*
X70040008Y-39279998D03*
X70040008Y-40299998D03*
G04 #@! TD*
D15*
G04 #@! TO.C,R128*
X214843561Y-45250000D03*
X214843561Y-44230000D03*
G04 #@! TD*
D18*
G04 #@! TO.C,R147*
X176738545Y-43774998D03*
X177758545Y-43774998D03*
G04 #@! TD*
D36*
G04 #@! TO.C,C21*
X189533553Y-81300000D03*
X188573553Y-81300000D03*
G04 #@! TD*
D20*
G04 #@! TO.C,D58*
X30259410Y-39319396D03*
X29145716Y-38205702D03*
G04 #@! TD*
D13*
G04 #@! TO.C,R96*
X70040008Y-47740000D03*
X70040008Y-48760000D03*
G04 #@! TD*
D28*
G04 #@! TO.C,C2*
X226228553Y-73800000D03*
X224678553Y-73800000D03*
G04 #@! TD*
D11*
G04 #@! TO.C,R17*
X73536178Y-46477484D03*
X74257426Y-47198732D03*
G04 #@! TD*
D18*
G04 #@! TO.C,R177*
X78090000Y-62945000D03*
X79110000Y-62945000D03*
G04 #@! TD*
D23*
G04 #@! TO.C,D90*
X38009984Y-33547497D03*
X38009984Y-31972497D03*
G04 #@! TD*
D40*
G04 #@! TO.C,U5*
X108750000Y-73662500D03*
X106850000Y-73662500D03*
X107800000Y-75937500D03*
G04 #@! TD*
D20*
G04 #@! TO.C,D140*
X188632003Y-34348436D03*
X187518309Y-33234742D03*
G04 #@! TD*
D17*
G04 #@! TO.C,D122*
X43242534Y-30269998D03*
X44817534Y-30269998D03*
G04 #@! TD*
D21*
G04 #@! TO.C,C25*
X191653553Y-82225000D03*
X191653553Y-83775000D03*
G04 #@! TD*
D10*
G04 #@! TO.C,D149*
X213343561Y-47462500D03*
X213343561Y-49037500D03*
G04 #@! TD*
D17*
G04 #@! TO.C,D40*
X29212500Y-99000000D03*
X30787500Y-99000000D03*
G04 #@! TD*
D20*
G04 #@! TO.C,D79*
X95006859Y-36826845D03*
X93893165Y-35713151D03*
G04 #@! TD*
D11*
G04 #@! TO.C,R135*
X56800320Y-46491626D03*
X57521568Y-47212874D03*
G04 #@! TD*
D14*
G04 #@! TO.C,C29*
X66120000Y-80600000D03*
X67080000Y-80600000D03*
G04 #@! TD*
D15*
G04 #@! TO.C,R120*
X214843561Y-48760000D03*
X214843561Y-47740000D03*
G04 #@! TD*
D17*
G04 #@! TO.C,D163*
X63502517Y-30269998D03*
X65077517Y-30269998D03*
G04 #@! TD*
D10*
G04 #@! TO.C,D167*
X247303565Y-38972498D03*
X247303565Y-40547498D03*
G04 #@! TD*
D11*
G04 #@! TO.C,R53*
X28021279Y-51462586D03*
X28742527Y-52183834D03*
G04 #@! TD*
D17*
G04 #@! TO.C,D170*
X59997519Y-30269998D03*
X61572519Y-30269998D03*
G04 #@! TD*
D13*
G04 #@! TO.C,R69*
X36509984Y-35729997D03*
X36509984Y-36749997D03*
G04 #@! TD*
D26*
G04 #@! TO.C,C20*
X192953553Y-80445000D03*
X192953553Y-81405000D03*
G04 #@! TD*
D17*
G04 #@! TO.C,D5*
X32712500Y-66500000D03*
X34287500Y-66500000D03*
G04 #@! TD*
D31*
G04 #@! TO.C,C6*
X214453553Y-67480000D03*
X214453553Y-66520000D03*
G04 #@! TD*
D10*
G04 #@! TO.C,D118*
X100450012Y-38972498D03*
X100450012Y-40547498D03*
G04 #@! TD*
D20*
G04 #@! TO.C,D95*
X92546127Y-46366113D03*
X91432433Y-45252419D03*
G04 #@! TD*
D17*
G04 #@! TO.C,D130*
X169596086Y-30269998D03*
X171171086Y-30269998D03*
G04 #@! TD*
D12*
G04 #@! TO.C,D150*
X225111062Y-42274998D03*
X223536062Y-42274998D03*
G04 #@! TD*
D13*
G04 #@! TO.C,R6*
X85400000Y-55690000D03*
X85400000Y-56710000D03*
G04 #@! TD*
D23*
G04 #@! TO.C,D68*
X184603553Y-45557500D03*
X184603553Y-43982500D03*
G04 #@! TD*
D10*
G04 #@! TO.C,D154*
X49750000Y-31972498D03*
X49750000Y-33547498D03*
G04 #@! TD*
D13*
G04 #@! TO.C,R151*
X86990008Y-51265000D03*
X86990008Y-52285000D03*
G04 #@! TD*
D14*
G04 #@! TO.C,C12*
X53970000Y-79300000D03*
X54930000Y-79300000D03*
G04 #@! TD*
D10*
G04 #@! TO.C,D97*
X33009984Y-31957497D03*
X33009984Y-33532497D03*
G04 #@! TD*
G04 #@! TO.C,D85*
X83490008Y-31972498D03*
X83490008Y-33547498D03*
G04 #@! TD*
G04 #@! TO.C,D187*
X230303565Y-50947500D03*
X230303565Y-52522500D03*
G04 #@! TD*
D12*
G04 #@! TO.C,D129*
X157756032Y-42274997D03*
X156181032Y-42274997D03*
G04 #@! TD*
D13*
G04 #@! TO.C,R49*
X216843561Y-35759998D03*
X216843561Y-36779998D03*
G04 #@! TD*
D12*
G04 #@! TO.C,D196*
X31402478Y-54269998D03*
X29827478Y-54269998D03*
G04 #@! TD*
D13*
G04 #@! TO.C,R168*
X166363537Y-51254999D03*
X166363537Y-52274999D03*
G04 #@! TD*
D15*
G04 #@! TO.C,R146*
X164363537Y-45264999D03*
X164363537Y-44244999D03*
G04 #@! TD*
G04 #@! TO.C,R63*
X68040008Y-52235000D03*
X68040008Y-51215000D03*
G04 #@! TD*
D28*
G04 #@! TO.C,C43*
X102625000Y-68300000D03*
X101075000Y-68300000D03*
G04 #@! TD*
D12*
G04 #@! TO.C,D202*
X115752512Y-42274998D03*
X114177512Y-42274998D03*
G04 #@! TD*
D11*
G04 #@! TO.C,R115*
X237400337Y-46488090D03*
X238121585Y-47209338D03*
G04 #@! TD*
D18*
G04 #@! TO.C,R5*
X212743553Y-61000000D03*
X213763553Y-61000000D03*
G04 #@! TD*
G04 #@! TO.C,R92*
X23109980Y-43600000D03*
X24129980Y-43600000D03*
G04 #@! TD*
D15*
G04 #@! TO.C,R22*
X181103553Y-48760000D03*
X181103553Y-47740000D03*
G04 #@! TD*
D11*
G04 #@! TO.C,R17*
X203389731Y-46477484D03*
X204110979Y-47198732D03*
G04 #@! TD*
D14*
G04 #@! TO.C,C36*
X200573553Y-77200000D03*
X201533553Y-77200000D03*
G04 #@! TD*
D23*
G04 #@! TO.C,D192*
X201393561Y-37057498D03*
X201393561Y-35482498D03*
G04 #@! TD*
D16*
G04 #@! TO.C,R130*
X108470010Y-28769999D03*
X107450012Y-28769999D03*
G04 #@! TD*
D17*
G04 #@! TO.C,D31*
X153066053Y-89500000D03*
X154641053Y-89500000D03*
G04 #@! TD*
G04 #@! TO.C,D21*
X156066053Y-79500000D03*
X157641053Y-79500000D03*
G04 #@! TD*
D24*
G04 #@! TO.C,D207*
X189803553Y-86400000D03*
X191903553Y-86400000D03*
G04 #@! TD*
D20*
G04 #@! TO.C,D62*
X210363569Y-51330002D03*
X209249875Y-50216308D03*
G04 #@! TD*
D18*
G04 #@! TO.C,R4*
X206143553Y-64145000D03*
X207163553Y-64145000D03*
G04 #@! TD*
G04 #@! TO.C,R150*
X210353561Y-55769999D03*
X211373561Y-55769999D03*
G04 #@! TD*
D17*
G04 #@! TO.C,D110*
X90157515Y-30269998D03*
X91732515Y-30269998D03*
G04 #@! TD*
D33*
G04 #@! TO.C,KiKit_FID_T_3*
X5000000Y-117500046D03*
G04 #@! TD*
D12*
G04 #@! TO.C,D47*
X91737508Y-54269999D03*
X90162508Y-54269999D03*
G04 #@! TD*
D11*
G04 #@! TO.C,R74*
X222892888Y-48980641D03*
X223614136Y-49701889D03*
G04 #@! TD*
D23*
G04 #@! TO.C,D84*
X54750000Y-52552500D03*
X54750000Y-50977500D03*
G04 #@! TD*
D17*
G04 #@! TO.C,D13*
X156066053Y-73000000D03*
X157641053Y-73000000D03*
G04 #@! TD*
D23*
G04 #@! TO.C,D119*
X105450012Y-33577498D03*
X105450012Y-32002498D03*
G04 #@! TD*
D12*
G04 #@! TO.C,D52*
X191281059Y-42274998D03*
X189706059Y-42274998D03*
G04 #@! TD*
D23*
G04 #@! TO.C,D76*
X184603553Y-49037500D03*
X184603553Y-47462500D03*
G04 #@! TD*
D13*
G04 #@! TO.C,R118*
X183103553Y-35759998D03*
X183103553Y-36779998D03*
G04 #@! TD*
D31*
G04 #@! TO.C,C11*
X24575000Y-60967500D03*
X24575000Y-60007500D03*
G04 #@! TD*
D11*
G04 #@! TO.C,R86*
X169928620Y-46516374D03*
X170649868Y-47237622D03*
G04 #@! TD*
D14*
G04 #@! TO.C,C30*
X70720000Y-79300000D03*
X71680000Y-79300000D03*
G04 #@! TD*
D28*
G04 #@! TO.C,C26*
X189328553Y-82600000D03*
X187778553Y-82600000D03*
G04 #@! TD*
D17*
G04 #@! TO.C,D33*
X19712500Y-92500000D03*
X21287500Y-92500000D03*
G04 #@! TD*
D15*
G04 #@! TO.C,R76*
X164363537Y-40254997D03*
X164363537Y-39234997D03*
G04 #@! TD*
D17*
G04 #@! TO.C,D12*
X42212500Y-69500000D03*
X43787500Y-69500000D03*
G04 #@! TD*
D13*
G04 #@! TO.C,R170*
X199893561Y-39279998D03*
X199893561Y-40299998D03*
G04 #@! TD*
D18*
G04 #@! TO.C,R103*
X193478557Y-55769999D03*
X194498557Y-55769999D03*
G04 #@! TD*
D13*
G04 #@! TO.C,R182*
X25000000Y-65090000D03*
X25000000Y-66110000D03*
G04 #@! TD*
D17*
G04 #@! TO.C,D11*
X168566053Y-69500000D03*
X170141053Y-69500000D03*
G04 #@! TD*
G04 #@! TO.C,D25*
X23212500Y-83000000D03*
X24787500Y-83000000D03*
G04 #@! TD*
D18*
G04 #@! TO.C,R166*
X240793566Y-43774998D03*
X241813566Y-43774998D03*
G04 #@! TD*
D17*
G04 #@! TO.C,D26*
X172066053Y-83000000D03*
X173641053Y-83000000D03*
G04 #@! TD*
D18*
G04 #@! TO.C,R67*
X107405014Y-55769999D03*
X108425014Y-55769999D03*
G04 #@! TD*
D15*
G04 #@! TO.C,R125*
X181103553Y-33269998D03*
X181103553Y-32249998D03*
G04 #@! TD*
D17*
G04 #@! TO.C,D5*
X162566053Y-66500000D03*
X164141053Y-66500000D03*
G04 #@! TD*
D19*
G04 #@! TO.C,C34*
X66425000Y-82000000D03*
X67975000Y-82000000D03*
G04 #@! TD*
D17*
G04 #@! TO.C,D73*
X152866100Y-30269998D03*
X154441100Y-30269998D03*
G04 #@! TD*
D15*
G04 #@! TO.C,R169*
X68040008Y-33269998D03*
X68040008Y-32249998D03*
G04 #@! TD*
D10*
G04 #@! TO.C,D59*
X179603553Y-43952500D03*
X179603553Y-45527500D03*
G04 #@! TD*
D12*
G04 #@! TO.C,D93*
X204591065Y-42274998D03*
X203016065Y-42274998D03*
G04 #@! TD*
D16*
G04 #@! TO.C,R148*
X57775020Y-28769998D03*
X56755022Y-28769998D03*
G04 #@! TD*
D15*
G04 #@! TO.C,R112*
X214843561Y-52245000D03*
X214843561Y-51225000D03*
G04 #@! TD*
D12*
G04 #@! TO.C,D142*
X91762508Y-42274998D03*
X90187508Y-42274998D03*
G04 #@! TD*
D23*
G04 #@! TO.C,D166*
X218343561Y-45557500D03*
X218343561Y-43982500D03*
G04 #@! TD*
D21*
G04 #@! TO.C,C23*
X64900000Y-83225000D03*
X64900000Y-84775000D03*
G04 #@! TD*
D17*
G04 #@! TO.C,D73*
X23012547Y-30269998D03*
X24587547Y-30269998D03*
G04 #@! TD*
D41*
G04 #@! TO.C,D203*
X41550000Y-61000000D03*
X44450000Y-61000000D03*
G04 #@! TD*
D13*
G04 #@! TO.C,R161*
X166363537Y-47739999D03*
X166363537Y-48759999D03*
G04 #@! TD*
D20*
G04 #@! TO.C,D144*
X239378468Y-46344901D03*
X238264774Y-45231207D03*
G04 #@! TD*
D31*
G04 #@! TO.C,C3*
X78000000Y-61825000D03*
X78000000Y-60865000D03*
G04 #@! TD*
D15*
G04 #@! TO.C,R11*
X52553553Y-75920000D03*
X52553553Y-74900000D03*
G04 #@! TD*
D18*
G04 #@! TO.C,R166*
X110940013Y-43774998D03*
X111960013Y-43774998D03*
G04 #@! TD*
D17*
G04 #@! TO.C,D36*
X168566053Y-92500000D03*
X170141053Y-92500000D03*
G04 #@! TD*
D16*
G04 #@! TO.C,R101*
X41030032Y-28769998D03*
X40010034Y-28769998D03*
G04 #@! TD*
D10*
G04 #@! TO.C,D181*
X117450012Y-31972498D03*
X117450012Y-33547498D03*
G04 #@! TD*
D23*
G04 #@! TO.C,D86*
X218343561Y-40577498D03*
X218343561Y-39002498D03*
G04 #@! TD*
D20*
G04 #@! TO.C,D160*
X114492339Y-51312325D03*
X113378645Y-50198631D03*
G04 #@! TD*
D24*
G04 #@! TO.C,D207*
X59950000Y-86400000D03*
X62050000Y-86400000D03*
G04 #@! TD*
D20*
G04 #@! TO.C,D144*
X109524915Y-46344901D03*
X108411221Y-45231207D03*
G04 #@! TD*
D11*
G04 #@! TO.C,R127*
X61767742Y-39459049D03*
X62488990Y-40180297D03*
G04 #@! TD*
D17*
G04 #@! TO.C,D39*
X156066053Y-99000000D03*
X157641053Y-99000000D03*
G04 #@! TD*
D13*
G04 #@! TO.C,R8*
X22800000Y-65070000D03*
X22800000Y-66090000D03*
G04 #@! TD*
D31*
G04 #@! TO.C,C40*
X72700000Y-75160000D03*
X72700000Y-74200000D03*
G04 #@! TD*
D17*
G04 #@! TO.C,D102*
X223521069Y-30269998D03*
X225096069Y-30269998D03*
G04 #@! TD*
D15*
G04 #@! TO.C,R109*
X51250000Y-40269998D03*
X51250000Y-39249998D03*
G04 #@! TD*
D20*
G04 #@! TO.C,D82*
X159852963Y-51319396D03*
X158739269Y-50205702D03*
G04 #@! TD*
D13*
G04 #@! TO.C,R28*
X19739972Y-39294996D03*
X19739972Y-40314996D03*
G04 #@! TD*
D16*
G04 #@! TO.C,R36*
X157673598Y-28769998D03*
X156653600Y-28769998D03*
G04 #@! TD*
D23*
G04 #@! TO.C,D153*
X21239972Y-52552498D03*
X21239972Y-50977498D03*
G04 #@! TD*
D12*
G04 #@! TO.C,D124*
X191256059Y-54269999D03*
X189681059Y-54269999D03*
G04 #@! TD*
D15*
G04 #@! TO.C,R30*
X181103553Y-45250000D03*
X181103553Y-44230000D03*
G04 #@! TD*
D17*
G04 #@! TO.C,D20*
X153081053Y-79500000D03*
X154656053Y-79500000D03*
G04 #@! TD*
D16*
G04 #@! TO.C,R44*
X154148599Y-28769998D03*
X153128601Y-28769998D03*
G04 #@! TD*
D12*
G04 #@! TO.C,D121*
X24392480Y-42274996D03*
X22817480Y-42274996D03*
G04 #@! TD*
D17*
G04 #@! TO.C,D20*
X23227500Y-79500000D03*
X24802500Y-79500000D03*
G04 #@! TD*
D11*
G04 #@! TO.C,R142*
X59278728Y-48970034D03*
X59999976Y-49691282D03*
G04 #@! TD*
D16*
G04 #@! TO.C,R183*
X193363553Y-72400000D03*
X192343553Y-72400000D03*
G04 #@! TD*
D13*
G04 #@! TO.C,R6*
X215253553Y-55690000D03*
X215253553Y-56710000D03*
G04 #@! TD*
D10*
G04 #@! TO.C,D168*
X162863537Y-47477499D03*
X162863537Y-49052499D03*
G04 #@! TD*
D26*
G04 #@! TO.C,C9*
X31075000Y-63007500D03*
X31075000Y-63967500D03*
G04 #@! TD*
D17*
G04 #@! TO.C,D53*
X206841058Y-30269998D03*
X208416058Y-30269998D03*
G04 #@! TD*
D37*
G04 #@! TO.C,U1*
X75537500Y-62695000D03*
X75537500Y-61745000D03*
X75537500Y-60795000D03*
X73262500Y-60795000D03*
X73262500Y-61745000D03*
X73262500Y-62695000D03*
G04 #@! TD*
D15*
G04 #@! TO.C,R125*
X51250000Y-33269998D03*
X51250000Y-32249998D03*
G04 #@! TD*
D18*
G04 #@! TO.C,R160*
X26579979Y-55769998D03*
X27599979Y-55769998D03*
G04 #@! TD*
D39*
G04 #@! TO.C,D212*
X109550000Y-70000000D03*
X112850000Y-70000000D03*
G04 #@! TD*
D11*
G04 #@! TO.C,R58*
X95510673Y-39451980D03*
X96231921Y-40173228D03*
G04 #@! TD*
D20*
G04 #@! TO.C,D54*
X78006859Y-48826845D03*
X76893165Y-47713151D03*
G04 #@! TD*
D25*
G04 #@! TO.C,D210*
X250853553Y-46050000D03*
X250853553Y-43950000D03*
G04 #@! TD*
D23*
G04 #@! TO.C,D76*
X54750000Y-49037500D03*
X54750000Y-47462500D03*
G04 #@! TD*
D20*
G04 #@! TO.C,D66*
X154878469Y-46344900D03*
X153764775Y-45231206D03*
G04 #@! TD*
D12*
G04 #@! TO.C,D60*
X64947504Y-42274998D03*
X63372504Y-42274998D03*
G04 #@! TD*
D11*
G04 #@! TO.C,R107*
X112514208Y-39455515D03*
X113235456Y-40176763D03*
G04 #@! TD*
D23*
G04 #@! TO.C,D133*
X201393561Y-52537500D03*
X201393561Y-50962500D03*
G04 #@! TD*
D42*
G04 #@! TO.C,S3*
X190603553Y-97200000D03*
X190603553Y-88800000D03*
X195103553Y-97200000D03*
X195103553Y-88800000D03*
X192853553Y-88800000D03*
G04 #@! TD*
D17*
G04 #@! TO.C,D3*
X165566053Y-63000000D03*
X167141053Y-63000000D03*
G04 #@! TD*
D20*
G04 #@! TO.C,D111*
X227352965Y-51319398D03*
X226239271Y-50205704D03*
G04 #@! TD*
D23*
G04 #@! TO.C,D192*
X71540008Y-37057498D03*
X71540008Y-35482498D03*
G04 #@! TD*
D31*
G04 #@! TO.C,C11*
X154428553Y-60967500D03*
X154428553Y-60007500D03*
G04 #@! TD*
D43*
G04 #@! TO.C,S1*
X248103553Y-75750000D03*
X248103553Y-72750000D03*
X248103553Y-71250000D03*
D44*
X248753553Y-77150000D03*
X248753553Y-69850000D03*
X250953553Y-77150000D03*
X250953553Y-69850000D03*
G04 #@! TD*
D15*
G04 #@! TO.C,R14*
X51250000Y-52245000D03*
X51250000Y-51225000D03*
G04 #@! TD*
D10*
G04 #@! TO.C,D191*
X66540008Y-35482498D03*
X66540008Y-37057498D03*
G04 #@! TD*
D17*
G04 #@! TO.C,D38*
X26197500Y-95500000D03*
X27772500Y-95500000D03*
G04 #@! TD*
D14*
G04 #@! TO.C,C1*
X73320000Y-64145000D03*
X74280000Y-64145000D03*
G04 #@! TD*
D18*
G04 #@! TO.C,R140*
X43394991Y-43774998D03*
X44414991Y-43774998D03*
G04 #@! TD*
G04 #@! TO.C,R67*
X237258567Y-55769999D03*
X238278567Y-55769999D03*
G04 #@! TD*
D12*
G04 #@! TO.C,D104*
X242066066Y-54269999D03*
X240491066Y-54269999D03*
G04 #@! TD*
D10*
G04 #@! TO.C,D134*
X100450012Y-31972498D03*
X100450012Y-33547498D03*
G04 #@! TD*
D16*
G04 #@! TO.C,R16*
X211658555Y-28769998D03*
X210638557Y-28769998D03*
G04 #@! TD*
D15*
G04 #@! TO.C,R132*
X34509984Y-52259999D03*
X34509984Y-51239999D03*
G04 #@! TD*
D20*
G04 #@! TO.C,D115*
X171920894Y-46359042D03*
X170807200Y-45245348D03*
G04 #@! TD*
D10*
G04 #@! TO.C,D77*
X213343561Y-35482498D03*
X213343561Y-37057498D03*
G04 #@! TD*
G04 #@! TO.C,D187*
X100450012Y-50947500D03*
X100450012Y-52522500D03*
G04 #@! TD*
D20*
G04 #@! TO.C,D156*
X193599426Y-39315859D03*
X192485732Y-38202165D03*
G04 #@! TD*
D10*
G04 #@! TO.C,D198*
X66540008Y-31972498D03*
X66540008Y-33547498D03*
G04 #@! TD*
D11*
G04 #@! TO.C,R70*
X42528728Y-36970034D03*
X43249976Y-37691282D03*
G04 #@! TD*
D14*
G04 #@! TO.C,C30*
X200573553Y-79300000D03*
X201533553Y-79300000D03*
G04 #@! TD*
D23*
G04 #@! TO.C,D139*
X184603553Y-33577498D03*
X184603553Y-32002498D03*
G04 #@! TD*
D10*
G04 #@! TO.C,D126*
X100450012Y-35482498D03*
X100450012Y-37057498D03*
G04 #@! TD*
D13*
G04 #@! TO.C,R124*
X19739972Y-51254998D03*
X19739972Y-52274998D03*
G04 #@! TD*
D20*
G04 #@! TO.C,D87*
X97488805Y-39308791D03*
X96375111Y-38195097D03*
G04 #@! TD*
D11*
G04 #@! TO.C,R171*
X208385437Y-39473191D03*
X209106685Y-40194439D03*
G04 #@! TD*
D28*
G04 #@! TO.C,C26*
X59475000Y-82600000D03*
X57925000Y-82600000D03*
G04 #@! TD*
D16*
G04 #@! TO.C,R85*
X48015034Y-28769999D03*
X46995036Y-28769999D03*
G04 #@! TD*
D29*
G04 #@! TO.C,H3*
X159853553Y-24000000D03*
G04 #@! TD*
D15*
G04 #@! TO.C,R40*
X84990008Y-40269998D03*
X84990008Y-39249998D03*
G04 #@! TD*
D18*
G04 #@! TO.C,R34*
X97455010Y-55769999D03*
X98475010Y-55769999D03*
G04 #@! TD*
D16*
G04 #@! TO.C,R52*
X161183598Y-28769999D03*
X160163600Y-28769999D03*
G04 #@! TD*
G04 #@! TO.C,R130*
X238323563Y-28769999D03*
X237303565Y-28769999D03*
G04 #@! TD*
D12*
G04 #@! TO.C,D60*
X194801057Y-42274998D03*
X193226057Y-42274998D03*
G04 #@! TD*
D13*
G04 #@! TO.C,R88*
X70040008Y-44270000D03*
X70040008Y-45290000D03*
G04 #@! TD*
D14*
G04 #@! TO.C,C29*
X195973553Y-80600000D03*
X196933553Y-80600000D03*
G04 #@! TD*
D23*
G04 #@! TO.C,D133*
X71540008Y-52537500D03*
X71540008Y-50962500D03*
G04 #@! TD*
D17*
G04 #@! TO.C,D94*
X227016070Y-30269998D03*
X228591070Y-30269998D03*
G04 #@! TD*
D40*
G04 #@! TO.C,U5*
X238603553Y-73662500D03*
X236703553Y-73662500D03*
X237653553Y-75937500D03*
G04 #@! TD*
D28*
G04 #@! TO.C,C8*
X155228553Y-57600000D03*
X153678553Y-57600000D03*
G04 #@! TD*
D17*
G04 #@! TO.C,D110*
X220011068Y-30269998D03*
X221586068Y-30269998D03*
G04 #@! TD*
D12*
G04 #@! TO.C,D109*
X81812508Y-42274998D03*
X80237508Y-42274998D03*
G04 #@! TD*
D20*
G04 #@! TO.C,D91*
X171896144Y-34362576D03*
X170782450Y-33248882D03*
G04 #@! TD*
D15*
G04 #@! TO.C,R60*
X34509984Y-36764997D03*
X34509984Y-35744997D03*
G04 #@! TD*
D10*
G04 #@! TO.C,D168*
X33009984Y-47477499D03*
X33009984Y-49052499D03*
G04 #@! TD*
D20*
G04 #@! TO.C,D79*
X224860412Y-36826845D03*
X223746718Y-35713151D03*
G04 #@! TD*
D16*
G04 #@! TO.C,R65*
X98460015Y-28769998D03*
X97440017Y-28769998D03*
G04 #@! TD*
D23*
G04 #@! TO.C,D190*
X38009984Y-49037499D03*
X38009984Y-47462499D03*
G04 #@! TD*
G04 #@! TO.C,D70*
X218343561Y-33577498D03*
X218343561Y-32002498D03*
G04 #@! TD*
D20*
G04 #@! TO.C,D74*
X27506859Y-48826845D03*
X26393165Y-47713151D03*
G04 #@! TD*
D15*
G04 #@! TO.C,R165*
X101950012Y-48760000D03*
X101950012Y-47740000D03*
G04 #@! TD*
G04 #@! TO.C,R59*
X118950012Y-45250000D03*
X118950012Y-44230000D03*
G04 #@! TD*
D11*
G04 #@! TO.C,R33*
X208385437Y-51473191D03*
X209106685Y-52194439D03*
G04 #@! TD*
D19*
G04 #@! TO.C,C41*
X236878553Y-72000000D03*
X238428553Y-72000000D03*
G04 #@! TD*
D13*
G04 #@! TO.C,R96*
X199893561Y-47740000D03*
X199893561Y-48760000D03*
G04 #@! TD*
D23*
G04 #@! TO.C,D173*
X88490008Y-49037500D03*
X88490008Y-47462500D03*
G04 #@! TD*
D13*
G04 #@! TO.C,R110*
X183103553Y-32279998D03*
X183103553Y-33299998D03*
G04 #@! TD*
D45*
G04 #@! TO.C,U3*
X155716053Y-60762500D03*
X155716053Y-61162500D03*
X155716053Y-61562500D03*
X155716053Y-61962500D03*
X155716053Y-62362500D03*
X155716053Y-62762500D03*
X155716053Y-63162500D03*
D46*
X156453553Y-63900000D03*
X156853553Y-63900000D03*
X157253553Y-63900000D03*
X157653553Y-63900000D03*
X158053553Y-63900000D03*
X158453553Y-63900000D03*
X158853553Y-63900000D03*
D45*
X159591053Y-63162500D03*
X159591053Y-62762500D03*
X159591053Y-62362500D03*
X159591053Y-61962500D03*
X159591053Y-61562500D03*
X159591053Y-61162500D03*
X159591053Y-60762500D03*
D46*
X158853553Y-60025000D03*
X158453553Y-60025000D03*
X158053553Y-60025000D03*
X157653553Y-60025000D03*
X157253553Y-60025000D03*
X156853553Y-60025000D03*
X156453553Y-60025000D03*
D47*
X157653553Y-61962500D03*
G04 #@! TD*
D18*
G04 #@! TO.C,R34*
X227308563Y-55769999D03*
X228328563Y-55769999D03*
G04 #@! TD*
D20*
G04 #@! TO.C,D193*
X78006859Y-36826845D03*
X76893165Y-35713151D03*
G04 #@! TD*
D11*
G04 #@! TO.C,R135*
X186653873Y-46491626D03*
X187375121Y-47212874D03*
G04 #@! TD*
D17*
G04 #@! TO.C,D27*
X149566053Y-86500000D03*
X151141053Y-86500000D03*
G04 #@! TD*
D10*
G04 #@! TO.C,D88*
X247303565Y-43952500D03*
X247303565Y-45527500D03*
G04 #@! TD*
D14*
G04 #@! TO.C,C1*
X203173553Y-64145000D03*
X204133553Y-64145000D03*
G04 #@! TD*
D11*
G04 #@! TO.C,R123*
X239875210Y-48962963D03*
X240596458Y-49684211D03*
G04 #@! TD*
D12*
G04 #@! TO.C,D93*
X74737512Y-42274998D03*
X73162512Y-42274998D03*
G04 #@! TD*
D13*
G04 #@! TO.C,R10*
X243853553Y-64290000D03*
X243853553Y-65310000D03*
G04 #@! TD*
D18*
G04 #@! TO.C,R113*
X220318561Y-43774998D03*
X221338561Y-43774998D03*
G04 #@! TD*
D12*
G04 #@! TO.C,D113*
X161281031Y-42274997D03*
X159706031Y-42274997D03*
G04 #@! TD*
D18*
G04 #@! TO.C,R175*
X73690000Y-77200000D03*
X74710000Y-77200000D03*
G04 #@! TD*
D15*
G04 #@! TO.C,R68*
X164363537Y-33254997D03*
X164363537Y-32234997D03*
G04 #@! TD*
D13*
G04 #@! TO.C,R180*
X201453553Y-59235000D03*
X201453553Y-60255000D03*
G04 #@! TD*
D11*
G04 #@! TO.C,R102*
X174867763Y-51455516D03*
X175589011Y-52176764D03*
G04 #@! TD*
D29*
G04 #@! TO.C,H6*
X231853553Y-73700000D03*
G04 #@! TD*
D30*
G04 #@! TO.C,Q1*
X242853553Y-73850000D03*
X242853553Y-75750000D03*
X244728553Y-74800000D03*
G04 #@! TD*
D23*
G04 #@! TO.C,D98*
X38009984Y-37027497D03*
X38009984Y-35452497D03*
G04 #@! TD*
D17*
G04 #@! TO.C,D38*
X156051053Y-95500000D03*
X157626053Y-95500000D03*
G04 #@! TD*
D13*
G04 #@! TO.C,R27*
X103950012Y-47740000D03*
X103950012Y-48760000D03*
G04 #@! TD*
D23*
G04 #@! TO.C,D117*
X201393561Y-45542500D03*
X201393561Y-43967500D03*
G04 #@! TD*
D13*
G04 #@! TO.C,R12*
X149593525Y-35774996D03*
X149593525Y-36794996D03*
G04 #@! TD*
D18*
G04 #@! TO.C,R83*
X114430012Y-55769999D03*
X115450012Y-55769999D03*
G04 #@! TD*
G04 #@! TO.C,R100*
X26619979Y-43774997D03*
X27639979Y-43774997D03*
G04 #@! TD*
D11*
G04 #@! TO.C,R123*
X110021657Y-48962963D03*
X110742905Y-49684211D03*
G04 #@! TD*
D15*
G04 #@! TO.C,R71*
X68040008Y-48750000D03*
X68040008Y-47730000D03*
G04 #@! TD*
D20*
G04 #@! TO.C,D123*
X44506859Y-48826845D03*
X43393165Y-47713151D03*
G04 #@! TD*
D15*
G04 #@! TO.C,R48*
X84990008Y-36779998D03*
X84990008Y-35759998D03*
G04 #@! TD*
D17*
G04 #@! TO.C,D81*
X30047545Y-30269999D03*
X31622545Y-30269999D03*
G04 #@! TD*
D11*
G04 #@! TO.C,R131*
X242367761Y-51455515D03*
X243089009Y-52176763D03*
G04 #@! TD*
D18*
G04 #@! TO.C,R80*
X210378561Y-43774998D03*
X211398561Y-43774998D03*
G04 #@! TD*
D17*
G04 #@! TO.C,D11*
X38712500Y-69500000D03*
X40287500Y-69500000D03*
G04 #@! TD*
G04 #@! TO.C,D45*
X80507503Y-30269998D03*
X82082503Y-30269998D03*
G04 #@! TD*
D48*
G04 #@! TO.C,J1*
X246098553Y-66700000D03*
X246098553Y-65900000D03*
D49*
X246098554Y-64750000D03*
X246098553Y-63750000D03*
X246098553Y-63250000D03*
X246098554Y-62250000D03*
D48*
X246098553Y-61100000D03*
X246098553Y-60300000D03*
X246098553Y-60300000D03*
X246098553Y-61100000D03*
D49*
X246098553Y-61750000D03*
X246098553Y-62750000D03*
X246098553Y-64250000D03*
X246098553Y-65250000D03*
D48*
X246098553Y-65900000D03*
X246098553Y-66700000D03*
D50*
X246673553Y-67820000D03*
D51*
X250853553Y-67820000D03*
D50*
X246673553Y-59180000D03*
D51*
X250853553Y-59180000D03*
G04 #@! TD*
D11*
G04 #@! TO.C,R42*
X220418013Y-34505766D03*
X221139261Y-35227014D03*
G04 #@! TD*
D10*
G04 #@! TO.C,D161*
X33009984Y-50962499D03*
X33009984Y-52537499D03*
G04 #@! TD*
D18*
G04 #@! TO.C,R83*
X244283565Y-55769999D03*
X245303565Y-55769999D03*
G04 #@! TD*
D17*
G04 #@! TO.C,D2*
X162581053Y-63000000D03*
X164156053Y-63000000D03*
G04 #@! TD*
G04 #@! TO.C,D114*
X176581088Y-30269999D03*
X178156088Y-30269999D03*
G04 #@! TD*
D10*
G04 #@! TO.C,D167*
X117450012Y-38972498D03*
X117450012Y-40547498D03*
G04 #@! TD*
D36*
G04 #@! TO.C,C33*
X71680000Y-72100000D03*
X70720000Y-72100000D03*
G04 #@! TD*
D13*
G04 #@! TO.C,R41*
X216843561Y-32279998D03*
X216843561Y-33299998D03*
G04 #@! TD*
D11*
G04 #@! TO.C,R62*
X40071532Y-34512837D03*
X40792780Y-35234085D03*
G04 #@! TD*
D29*
G04 #@! TO.C,H5*
X162853553Y-105000000D03*
G04 #@! TD*
D52*
G04 #@! TO.C,AE1*
X206053553Y-82200000D03*
X209053553Y-86200000D03*
G04 #@! TD*
D12*
G04 #@! TO.C,D63*
X228596063Y-54269999D03*
X227021063Y-54269999D03*
G04 #@! TD*
D17*
G04 #@! TO.C,D32*
X42212500Y-89500000D03*
X43787500Y-89500000D03*
G04 #@! TD*
D13*
G04 #@! TO.C,R20*
X149593525Y-32294996D03*
X149593525Y-33314996D03*
G04 #@! TD*
D12*
G04 #@! TO.C,D182*
X24367480Y-54269997D03*
X22792480Y-54269997D03*
G04 #@! TD*
D23*
G04 #@! TO.C,D180*
X218343561Y-52552500D03*
X218343561Y-50977500D03*
G04 #@! TD*
D20*
G04 #@! TO.C,D50*
X27766859Y-36826845D03*
X26653165Y-35713151D03*
G04 #@! TD*
D15*
G04 #@! TO.C,R117*
X181103553Y-36769998D03*
X181103553Y-35749998D03*
G04 #@! TD*
D11*
G04 #@! TO.C,R29*
X158134832Y-39462585D03*
X158856080Y-40183833D03*
G04 #@! TD*
D18*
G04 #@! TO.C,R113*
X90465008Y-43774998D03*
X91485008Y-43774998D03*
G04 #@! TD*
G04 #@! TO.C,R87*
X56600008Y-55769999D03*
X57620008Y-55769999D03*
G04 #@! TD*
D25*
G04 #@! TO.C,D209*
X121000000Y-42250000D03*
X121000000Y-40150000D03*
G04 #@! TD*
D20*
G04 #@! TO.C,D164*
X59010400Y-46556847D03*
X57896706Y-45443153D03*
G04 #@! TD*
D17*
G04 #@! TO.C,D21*
X26212500Y-79500000D03*
X27787500Y-79500000D03*
G04 #@! TD*
D31*
G04 #@! TO.C,C40*
X202553553Y-75160000D03*
X202553553Y-74200000D03*
G04 #@! TD*
D18*
G04 #@! TO.C,R136*
X73415012Y-55769999D03*
X74435012Y-55769999D03*
G04 #@! TD*
D17*
G04 #@! TO.C,D81*
X159901098Y-30269999D03*
X161476098Y-30269999D03*
G04 #@! TD*
D18*
G04 #@! TO.C,R177*
X207943553Y-62945000D03*
X208963553Y-62945000D03*
G04 #@! TD*
D12*
G04 #@! TO.C,D116*
X187751061Y-54269999D03*
X186176061Y-54269999D03*
G04 #@! TD*
D11*
G04 #@! TO.C,R91*
X237400337Y-34488090D03*
X238121585Y-35209338D03*
G04 #@! TD*
D42*
G04 #@! TO.C,S2*
X50750000Y-97200000D03*
X50750000Y-88800000D03*
X55250000Y-97200000D03*
X55250000Y-88800000D03*
X53000000Y-88800000D03*
G04 #@! TD*
D53*
G04 #@! TO.C,U4*
X59550000Y-78887500D03*
X60050000Y-78887500D03*
X60550000Y-78887500D03*
X61050000Y-78887500D03*
X61550000Y-78887500D03*
X62050000Y-78887500D03*
X62550000Y-78887500D03*
X63050000Y-78887500D03*
D54*
X63737500Y-78200000D03*
X63737500Y-77700000D03*
X63737500Y-77200000D03*
X63737500Y-76700000D03*
X63737500Y-76200000D03*
X63737500Y-75700000D03*
X63737500Y-75200000D03*
X63737500Y-74700000D03*
D53*
X63050000Y-74012500D03*
X62550000Y-74012500D03*
X62050000Y-74012500D03*
X61550000Y-74012500D03*
X61050000Y-74012500D03*
X60550000Y-74012500D03*
X60050000Y-74012500D03*
X59550000Y-74012500D03*
D54*
X58862500Y-74700000D03*
X58862500Y-75200000D03*
X58862500Y-75700000D03*
X58862500Y-76200000D03*
X58862500Y-76700000D03*
X58862500Y-77200000D03*
X58862500Y-77700000D03*
X58862500Y-78200000D03*
D55*
X61300000Y-76450000D03*
G04 #@! TD*
D15*
G04 #@! TO.C,R105*
X101950012Y-33269998D03*
X101950012Y-32249998D03*
G04 #@! TD*
D22*
G04 #@! TO.C,C42*
X110400000Y-75775000D03*
X110400000Y-74225000D03*
G04 #@! TD*
D13*
G04 #@! TO.C,R182*
X154853553Y-65090000D03*
X154853553Y-66110000D03*
G04 #@! TD*
D18*
G04 #@! TO.C,R15*
X186478561Y-43700000D03*
X187498561Y-43700000D03*
G04 #@! TD*
D14*
G04 #@! TO.C,C37*
X200573553Y-74200000D03*
X201533553Y-74200000D03*
G04 #@! TD*
D23*
G04 #@! TO.C,D64*
X235303565Y-52552500D03*
X235303565Y-50977500D03*
G04 #@! TD*
D12*
G04 #@! TO.C,D75*
X174511044Y-54269999D03*
X172936044Y-54269999D03*
G04 #@! TD*
D38*
G04 #@! TO.C,D205*
X111600000Y-62150000D03*
X111600000Y-65050000D03*
G04 #@! TD*
D13*
G04 #@! TO.C,R98*
X103950012Y-35759998D03*
X103950012Y-36779998D03*
G04 #@! TD*
D12*
G04 #@! TO.C,D158*
X98767510Y-42274998D03*
X97192510Y-42274998D03*
G04 #@! TD*
D17*
G04 #@! TO.C,D14*
X29712500Y-73000000D03*
X31287500Y-73000000D03*
G04 #@! TD*
D32*
G04 #@! TO.C,U6*
X100900000Y-66637500D03*
X102800000Y-66637500D03*
X101850000Y-64362500D03*
G04 #@! TD*
D31*
G04 #@! TO.C,C39*
X202553553Y-77200000D03*
X202553553Y-76240000D03*
G04 #@! TD*
D17*
G04 #@! TO.C,D53*
X76987505Y-30269998D03*
X78562505Y-30269998D03*
G04 #@! TD*
D11*
G04 #@! TO.C,R62*
X169925085Y-34512837D03*
X170646333Y-35234085D03*
G04 #@! TD*
D36*
G04 #@! TO.C,C7*
X219033553Y-72400000D03*
X218073553Y-72400000D03*
G04 #@! TD*
D17*
G04 #@! TO.C,D7*
X38712500Y-66500000D03*
X40287500Y-66500000D03*
G04 #@! TD*
D16*
G04 #@! TO.C,R114*
X115495008Y-28769998D03*
X114475010Y-28769998D03*
G04 #@! TD*
G04 #@! TO.C,R32*
X204573559Y-28769998D03*
X203553561Y-28769998D03*
G04 #@! TD*
D15*
G04 #@! TO.C,R1*
X201453553Y-64255000D03*
X201453553Y-63235000D03*
G04 #@! TD*
D18*
G04 #@! TO.C,R178*
X242543553Y-72000000D03*
X243563553Y-72000000D03*
G04 #@! TD*
D15*
G04 #@! TO.C,R172*
X101950012Y-45250000D03*
X101950012Y-44230000D03*
G04 #@! TD*
D23*
G04 #@! TO.C,D106*
X38009984Y-40547497D03*
X38009984Y-38972497D03*
G04 #@! TD*
D15*
G04 #@! TO.C,R181*
X24000000Y-66110000D03*
X24000000Y-65090000D03*
G04 #@! TD*
D20*
G04 #@! TO.C,D164*
X188863953Y-46556847D03*
X187750259Y-45443153D03*
G04 #@! TD*
D12*
G04 #@! TO.C,D109*
X211666061Y-42274998D03*
X210091061Y-42274998D03*
G04 #@! TD*
D23*
G04 #@! TO.C,D197*
X167863537Y-52552499D03*
X167863537Y-50977499D03*
G04 #@! TD*
D36*
G04 #@! TO.C,C45*
X96080000Y-72400000D03*
X95120000Y-72400000D03*
G04 #@! TD*
D42*
G04 #@! TO.C,S3*
X60750000Y-97200000D03*
X60750000Y-88800000D03*
X65250000Y-97200000D03*
X65250000Y-88800000D03*
X63000000Y-88800000D03*
G04 #@! TD*
D15*
G04 #@! TO.C,R48*
X214843561Y-36779998D03*
X214843561Y-35759998D03*
G04 #@! TD*
D12*
G04 #@! TO.C,D195*
X112237513Y-42274998D03*
X110662513Y-42274998D03*
G04 #@! TD*
D20*
G04 #@! TO.C,D120*
X239367861Y-34334294D03*
X238254167Y-33220600D03*
G04 #@! TD*
D12*
G04 #@! TO.C,D67*
X171026043Y-54269998D03*
X169451043Y-54269998D03*
G04 #@! TD*
D23*
G04 #@! TO.C,D57*
X151093525Y-40592496D03*
X151093525Y-39017496D03*
G04 #@! TD*
D20*
G04 #@! TO.C,D136*
X244345892Y-39312325D03*
X243232198Y-38198631D03*
G04 #@! TD*
D18*
G04 #@! TO.C,R136*
X203268565Y-55769999D03*
X204288565Y-55769999D03*
G04 #@! TD*
G04 #@! TO.C,R3*
X204343553Y-59145000D03*
X205363553Y-59145000D03*
G04 #@! TD*
D12*
G04 #@! TO.C,D150*
X95257509Y-42274998D03*
X93682509Y-42274998D03*
G04 #@! TD*
D53*
G04 #@! TO.C,U4*
X189403553Y-78887500D03*
X189903553Y-78887500D03*
X190403553Y-78887500D03*
X190903553Y-78887500D03*
X191403553Y-78887500D03*
X191903553Y-78887500D03*
X192403553Y-78887500D03*
X192903553Y-78887500D03*
D54*
X193591053Y-78200000D03*
X193591053Y-77700000D03*
X193591053Y-77200000D03*
X193591053Y-76700000D03*
X193591053Y-76200000D03*
X193591053Y-75700000D03*
X193591053Y-75200000D03*
X193591053Y-74700000D03*
D53*
X192903553Y-74012500D03*
X192403553Y-74012500D03*
X191903553Y-74012500D03*
X191403553Y-74012500D03*
X190903553Y-74012500D03*
X190403553Y-74012500D03*
X189903553Y-74012500D03*
X189403553Y-74012500D03*
D54*
X188716053Y-74700000D03*
X188716053Y-75200000D03*
X188716053Y-75700000D03*
X188716053Y-76200000D03*
X188716053Y-76700000D03*
X188716053Y-77200000D03*
X188716053Y-77700000D03*
X188716053Y-78200000D03*
D55*
X191153553Y-76450000D03*
G04 #@! TD*
D14*
G04 #@! TO.C,C22*
X195973553Y-78600000D03*
X196933553Y-78600000D03*
G04 #@! TD*
D10*
G04 #@! TO.C,D157*
X83490008Y-43952500D03*
X83490008Y-45527500D03*
G04 #@! TD*
D12*
G04 #@! TO.C,D195*
X242091066Y-42274998D03*
X240516066Y-42274998D03*
G04 #@! TD*
D23*
G04 #@! TO.C,D78*
X88490008Y-37042498D03*
X88490008Y-35467498D03*
G04 #@! TD*
D12*
G04 #@! TO.C,D96*
X108702514Y-54269999D03*
X107127514Y-54269999D03*
G04 #@! TD*
D20*
G04 #@! TO.C,D42*
X155138468Y-34344899D03*
X154024774Y-33231205D03*
G04 #@! TD*
D23*
G04 #@! TO.C,D56*
X235303565Y-49037500D03*
X235303565Y-47462500D03*
G04 #@! TD*
D12*
G04 #@! TO.C,D188*
X238581067Y-42274998D03*
X237006067Y-42274998D03*
G04 #@! TD*
D15*
G04 #@! TO.C,R76*
X34509984Y-40254997D03*
X34509984Y-39234997D03*
G04 #@! TD*
D26*
G04 #@! TO.C,C13*
X180903553Y-81120000D03*
X180903553Y-82080000D03*
G04 #@! TD*
D18*
G04 #@! TO.C,R23*
X60130006Y-43774998D03*
X61150006Y-43774998D03*
G04 #@! TD*
D13*
G04 #@! TO.C,R27*
X233803565Y-47740000D03*
X233803565Y-48760000D03*
G04 #@! TD*
D20*
G04 #@! TO.C,D42*
X25284915Y-34344899D03*
X24171221Y-33231205D03*
G04 #@! TD*
D15*
G04 #@! TO.C,R162*
X197893561Y-36779998D03*
X197893561Y-35759998D03*
G04 #@! TD*
D10*
G04 #@! TO.C,D80*
X117450012Y-47462500D03*
X117450012Y-49037500D03*
G04 #@! TD*
D21*
G04 #@! TO.C,C23*
X194753553Y-83225000D03*
X194753553Y-84775000D03*
G04 #@! TD*
D11*
G04 #@! TO.C,R157*
X203382660Y-34470412D03*
X204103908Y-35191660D03*
G04 #@! TD*
G04 #@! TO.C,R111*
X56800319Y-34491627D03*
X57521567Y-35212875D03*
G04 #@! TD*
D13*
G04 #@! TO.C,R8*
X152653553Y-65070000D03*
X152653553Y-66090000D03*
G04 #@! TD*
D17*
G04 #@! TO.C,D45*
X210361056Y-30269998D03*
X211936056Y-30269998D03*
G04 #@! TD*
D29*
G04 #@! TO.C,H6*
X102000000Y-73700000D03*
G04 #@! TD*
D18*
G04 #@! TO.C,R167*
X159958531Y-55769998D03*
X160978531Y-55769998D03*
G04 #@! TD*
D15*
G04 #@! TO.C,R9*
X114000000Y-61110000D03*
X114000000Y-60090000D03*
G04 #@! TD*
D28*
G04 #@! TO.C,C14*
X58575000Y-71300000D03*
X57025000Y-71300000D03*
G04 #@! TD*
D15*
G04 #@! TO.C,R155*
X68040008Y-40269998D03*
X68040008Y-39249998D03*
G04 #@! TD*
D10*
G04 #@! TO.C,D51*
X49750000Y-47462500D03*
X49750000Y-49037500D03*
G04 #@! TD*
D11*
G04 #@! TO.C,R111*
X186653872Y-34491627D03*
X187375120Y-35212875D03*
G04 #@! TD*
D18*
G04 #@! TO.C,R31*
X193513557Y-43774998D03*
X194533557Y-43774998D03*
G04 #@! TD*
D20*
G04 #@! TO.C,D186*
X205360790Y-34327223D03*
X204247096Y-33213529D03*
G04 #@! TD*
D23*
G04 #@! TO.C,D125*
X201393561Y-49037500D03*
X201393561Y-47462500D03*
G04 #@! TD*
D17*
G04 #@! TO.C,D12*
X172066053Y-69500000D03*
X173641053Y-69500000D03*
G04 #@! TD*
D23*
G04 #@! TO.C,D84*
X184603553Y-52552500D03*
X184603553Y-50977500D03*
G04 #@! TD*
D16*
G04 #@! TO.C,R134*
X64800016Y-28769998D03*
X63780018Y-28769998D03*
G04 #@! TD*
D12*
G04 #@! TO.C,D121*
X154246033Y-42274996D03*
X152671033Y-42274996D03*
G04 #@! TD*
D23*
G04 #@! TO.C,D135*
X235303565Y-40577498D03*
X235303565Y-39002498D03*
G04 #@! TD*
D17*
G04 #@! TO.C,D177*
X186331074Y-30269998D03*
X187906074Y-30269998D03*
G04 #@! TD*
D20*
G04 #@! TO.C,D99*
X174360412Y-36826845D03*
X173246718Y-35713151D03*
G04 #@! TD*
D23*
G04 #@! TO.C,D145*
X21239972Y-49037498D03*
X21239972Y-47462498D03*
G04 #@! TD*
D11*
G04 #@! TO.C,R13*
X153160337Y-34488089D03*
X153881585Y-35209337D03*
G04 #@! TD*
D23*
G04 #@! TO.C,D56*
X105450012Y-49037500D03*
X105450012Y-47462500D03*
G04 #@! TD*
D15*
G04 #@! TO.C,R51*
X248803565Y-48750000D03*
X248803565Y-47730000D03*
G04 #@! TD*
D18*
G04 #@! TO.C,R173*
X244308565Y-43774998D03*
X245328565Y-43774998D03*
G04 #@! TD*
D23*
G04 #@! TO.C,D68*
X54750000Y-45557500D03*
X54750000Y-43982500D03*
G04 #@! TD*
D17*
G04 #@! TO.C,D9*
X162566053Y-69500000D03*
X164141053Y-69500000D03*
G04 #@! TD*
D15*
G04 #@! TO.C,R146*
X34509984Y-45264999D03*
X34509984Y-44244999D03*
G04 #@! TD*
D11*
G04 #@! TO.C,R157*
X73529107Y-34470412D03*
X74250355Y-35191660D03*
G04 #@! TD*
D13*
G04 #@! TO.C,R69*
X166363537Y-35729997D03*
X166363537Y-36749997D03*
G04 #@! TD*
D11*
G04 #@! TO.C,R21*
X25788728Y-36970034D03*
X26509976Y-37691282D03*
G04 #@! TD*
D14*
G04 #@! TO.C,C22*
X66120000Y-78600000D03*
X67080000Y-78600000D03*
G04 #@! TD*
D11*
G04 #@! TO.C,R127*
X191621295Y-39459049D03*
X192342543Y-40180297D03*
G04 #@! TD*
D12*
G04 #@! TO.C,D124*
X61402506Y-54269999D03*
X59827506Y-54269999D03*
G04 #@! TD*
D15*
G04 #@! TO.C,R165*
X231803565Y-48760000D03*
X231803565Y-47740000D03*
G04 #@! TD*
D38*
G04 #@! TO.C,D206*
X107200000Y-63750000D03*
X107200000Y-66650000D03*
G04 #@! TD*
D18*
G04 #@! TO.C,R95*
X60105006Y-55769999D03*
X61125006Y-55769999D03*
G04 #@! TD*
D15*
G04 #@! TO.C,R11*
X182407106Y-75920000D03*
X182407106Y-74900000D03*
G04 #@! TD*
D20*
G04 #@! TO.C,D91*
X42042591Y-34362576D03*
X40928897Y-33248882D03*
G04 #@! TD*
D56*
G04 #@! TO.C,D204*
X242503553Y-67600000D03*
X239603553Y-67600000D03*
G04 #@! TD*
D17*
G04 #@! TO.C,D34*
X153081053Y-92500000D03*
X154656053Y-92500000D03*
G04 #@! TD*
D12*
G04 #@! TO.C,D129*
X27902479Y-42274997D03*
X26327479Y-42274997D03*
G04 #@! TD*
D10*
G04 #@! TO.C,D175*
X33009984Y-43967499D03*
X33009984Y-45542499D03*
G04 #@! TD*
D11*
G04 #@! TO.C,R149*
X191621295Y-51459049D03*
X192342543Y-52180297D03*
G04 #@! TD*
D27*
G04 #@! TO.C,L1*
X67427500Y-77200000D03*
X68572500Y-77200000D03*
G04 #@! TD*
D57*
G04 #@! TO.C,Y1*
X184803553Y-80800000D03*
X182603553Y-80800000D03*
X182603553Y-82500000D03*
X184803553Y-82500000D03*
G04 #@! TD*
D13*
G04 #@! TO.C,R154*
X36509984Y-44269999D03*
X36509984Y-45289999D03*
G04 #@! TD*
D15*
G04 #@! TO.C,R132*
X164363537Y-52259999D03*
X164363537Y-51239999D03*
G04 #@! TD*
D31*
G04 #@! TO.C,C32*
X69700000Y-75160000D03*
X69700000Y-74200000D03*
G04 #@! TD*
D15*
G04 #@! TO.C,R79*
X68040008Y-45250000D03*
X68040008Y-44230000D03*
G04 #@! TD*
D20*
G04 #@! TO.C,D160*
X244345892Y-51312325D03*
X243232198Y-50198631D03*
G04 #@! TD*
D23*
G04 #@! TO.C,D185*
X201393561Y-33577498D03*
X201393561Y-32002498D03*
G04 #@! TD*
D16*
G04 #@! TO.C,R52*
X31330045Y-28769999D03*
X30310047Y-28769999D03*
G04 #@! TD*
D22*
G04 #@! TO.C,C10*
X23275000Y-60762500D03*
X23275000Y-59212500D03*
G04 #@! TD*
D12*
G04 #@! TO.C,D162*
X171051043Y-42274997D03*
X169476043Y-42274997D03*
G04 #@! TD*
D13*
G04 #@! TO.C,R20*
X19739972Y-32294996D03*
X19739972Y-33314996D03*
G04 #@! TD*
D20*
G04 #@! TO.C,D131*
X46981733Y-51301719D03*
X45868039Y-50188025D03*
G04 #@! TD*
D17*
G04 #@! TO.C,D10*
X165566053Y-69500000D03*
X167141053Y-69500000D03*
G04 #@! TD*
D13*
G04 #@! TO.C,R98*
X233803565Y-35759998D03*
X233803565Y-36779998D03*
G04 #@! TD*
G04 #@! TO.C,R61*
X166363537Y-32259997D03*
X166363537Y-33279997D03*
G04 #@! TD*
D56*
G04 #@! TO.C,D204*
X112650000Y-67600000D03*
X109750000Y-67600000D03*
G04 #@! TD*
D10*
G04 #@! TO.C,D69*
X83490008Y-38987498D03*
X83490008Y-40562498D03*
G04 #@! TD*
D20*
G04 #@! TO.C,D82*
X29999410Y-51319396D03*
X28885716Y-50205702D03*
G04 #@! TD*
D12*
G04 #@! TO.C,D55*
X95247509Y-54269999D03*
X93672509Y-54269999D03*
G04 #@! TD*
D16*
G04 #@! TO.C,R122*
X111985009Y-28769998D03*
X110965011Y-28769998D03*
G04 #@! TD*
D13*
G04 #@! TO.C,R47*
X53250000Y-47740000D03*
X53250000Y-48760000D03*
G04 #@! TD*
D17*
G04 #@! TO.C,D14*
X159566053Y-73000000D03*
X161141053Y-73000000D03*
G04 #@! TD*
D20*
G04 #@! TO.C,D66*
X25024916Y-46344900D03*
X23911222Y-45231206D03*
G04 #@! TD*
G04 #@! TO.C,D74*
X157360412Y-48826845D03*
X156246718Y-47713151D03*
G04 #@! TD*
D12*
G04 #@! TO.C,D101*
X78272510Y-42274998D03*
X76697510Y-42274998D03*
G04 #@! TD*
D23*
G04 #@! TO.C,D117*
X71540008Y-45542500D03*
X71540008Y-43967500D03*
G04 #@! TD*
D18*
G04 #@! TO.C,R54*
X176713545Y-55769999D03*
X177733545Y-55769999D03*
G04 #@! TD*
D11*
G04 #@! TO.C,R78*
X174864226Y-39451980D03*
X175585474Y-40173228D03*
G04 #@! TD*
D17*
G04 #@! TO.C,D39*
X26212500Y-99000000D03*
X27787500Y-99000000D03*
G04 #@! TD*
D18*
G04 #@! TO.C,R75*
X110915013Y-55769999D03*
X111935013Y-55769999D03*
G04 #@! TD*
D23*
G04 #@! TO.C,D137*
X21239972Y-45557498D03*
X21239972Y-43982498D03*
G04 #@! TD*
D20*
G04 #@! TO.C,D178*
X193599427Y-51315860D03*
X192485733Y-50202166D03*
G04 #@! TD*
D18*
G04 #@! TO.C,R80*
X80525008Y-43774998D03*
X81545008Y-43774998D03*
G04 #@! TD*
D52*
G04 #@! TO.C,AE1*
X76200000Y-82200000D03*
X79200000Y-86200000D03*
G04 #@! TD*
D12*
G04 #@! TO.C,D196*
X161256031Y-54269998D03*
X159681031Y-54269998D03*
G04 #@! TD*
D15*
G04 #@! TO.C,R112*
X84990008Y-52245000D03*
X84990008Y-51225000D03*
G04 #@! TD*
D17*
G04 #@! TO.C,D19*
X168566053Y-76000000D03*
X170141053Y-76000000D03*
G04 #@! TD*
D16*
G04 #@! TO.C,R148*
X187628573Y-28769998D03*
X186608575Y-28769998D03*
G04 #@! TD*
D20*
G04 #@! TO.C,D120*
X109514308Y-34334294D03*
X108400614Y-33220600D03*
G04 #@! TD*
D15*
G04 #@! TO.C,R139*
X164363537Y-48774999D03*
X164363537Y-47754999D03*
G04 #@! TD*
D23*
G04 #@! TO.C,D70*
X88490008Y-33577498D03*
X88490008Y-32002498D03*
G04 #@! TD*
D12*
G04 #@! TO.C,D165*
X204566065Y-54269999D03*
X202991065Y-54269999D03*
G04 #@! TD*
D20*
G04 #@! TO.C,D111*
X97499412Y-51319398D03*
X96385718Y-50205704D03*
G04 #@! TD*
D13*
G04 #@! TO.C,R106*
X233803565Y-39279998D03*
X233803565Y-40299998D03*
G04 #@! TD*
D20*
G04 #@! TO.C,D152*
X112006859Y-48826845D03*
X110893165Y-47713151D03*
G04 #@! TD*
D18*
G04 #@! TO.C,R153*
X23069980Y-55769997D03*
X24089980Y-55769997D03*
G04 #@! TD*
D23*
G04 #@! TO.C,D147*
X184603553Y-37057498D03*
X184603553Y-35482498D03*
G04 #@! TD*
D17*
G04 #@! TO.C,D114*
X46727535Y-30269999D03*
X48302535Y-30269999D03*
G04 #@! TD*
D15*
G04 #@! TO.C,R172*
X231803565Y-45250000D03*
X231803565Y-44230000D03*
G04 #@! TD*
D38*
G04 #@! TO.C,D205*
X241453553Y-62150000D03*
X241453553Y-65050000D03*
G04 #@! TD*
D20*
G04 #@! TO.C,D107*
X46981733Y-39301719D03*
X45868039Y-38188025D03*
G04 #@! TD*
D13*
G04 #@! TO.C,R144*
X216843561Y-47740000D03*
X216843561Y-48760000D03*
G04 #@! TD*
D15*
G04 #@! TO.C,R139*
X34509984Y-48774999D03*
X34509984Y-47754999D03*
G04 #@! TD*
G04 #@! TO.C,R68*
X34509984Y-33254997D03*
X34509984Y-32234997D03*
G04 #@! TD*
D17*
G04 #@! TO.C,D4*
X159566053Y-66500000D03*
X161141053Y-66500000D03*
G04 #@! TD*
D15*
G04 #@! TO.C,R89*
X231803565Y-40269998D03*
X231803565Y-39249998D03*
G04 #@! TD*
D17*
G04 #@! TO.C,D28*
X23212500Y-86500000D03*
X24787500Y-86500000D03*
G04 #@! TD*
D20*
G04 #@! TO.C,D71*
X222389072Y-34355505D03*
X221275378Y-33241811D03*
G04 #@! TD*
D18*
G04 #@! TO.C,R72*
X76975010Y-43774998D03*
X77995010Y-43774998D03*
G04 #@! TD*
D20*
G04 #@! TO.C,D87*
X227342358Y-39308791D03*
X226228664Y-38195097D03*
G04 #@! TD*
D15*
G04 #@! TO.C,R120*
X84990008Y-48760000D03*
X84990008Y-47740000D03*
G04 #@! TD*
D13*
G04 #@! TO.C,R126*
X53250000Y-39289998D03*
X53250000Y-40309998D03*
G04 #@! TD*
G04 #@! TO.C,R104*
X70040008Y-51255000D03*
X70040008Y-52275000D03*
G04 #@! TD*
D18*
G04 #@! TO.C,R84*
X30144978Y-43774997D03*
X31164978Y-43774997D03*
G04 #@! TD*
D23*
G04 #@! TO.C,D199*
X201393561Y-40577498D03*
X201393561Y-39002498D03*
G04 #@! TD*
D11*
G04 #@! TO.C,R86*
X40075067Y-46516374D03*
X40796315Y-47237622D03*
G04 #@! TD*
D36*
G04 #@! TO.C,C21*
X59680000Y-81300000D03*
X58720000Y-81300000D03*
G04 #@! TD*
D15*
G04 #@! TO.C,R7*
X215253553Y-58620000D03*
X215253553Y-57600000D03*
G04 #@! TD*
D13*
G04 #@! TO.C,R19*
X103950012Y-44260000D03*
X103950012Y-45280000D03*
G04 #@! TD*
D20*
G04 #@! TO.C,D99*
X44506859Y-36826845D03*
X43393165Y-35713151D03*
G04 #@! TD*
G04 #@! TO.C,D136*
X114492339Y-39312325D03*
X113378645Y-38198631D03*
G04 #@! TD*
D27*
G04 #@! TO.C,L1*
X197281053Y-77200000D03*
X198426053Y-77200000D03*
G04 #@! TD*
D13*
G04 #@! TO.C,R180*
X71600000Y-59235000D03*
X71600000Y-60255000D03*
G04 #@! TD*
D18*
G04 #@! TO.C,R173*
X114455012Y-43774998D03*
X115475012Y-43774998D03*
G04 #@! TD*
D23*
G04 #@! TO.C,D125*
X71540008Y-49037500D03*
X71540008Y-47462500D03*
G04 #@! TD*
D19*
G04 #@! TO.C,C24*
X196778553Y-75700000D03*
X198328553Y-75700000D03*
G04 #@! TD*
D16*
G04 #@! TO.C,R44*
X24295046Y-28769998D03*
X23275048Y-28769998D03*
G04 #@! TD*
D13*
G04 #@! TO.C,R137*
X86990008Y-44260000D03*
X86990008Y-45280000D03*
G04 #@! TD*
D18*
G04 #@! TO.C,R140*
X173248544Y-43774998D03*
X174268544Y-43774998D03*
G04 #@! TD*
D20*
G04 #@! TO.C,D200*
X80510016Y-39330002D03*
X79396322Y-38216308D03*
G04 #@! TD*
D22*
G04 #@! TO.C,C42*
X240253553Y-75775000D03*
X240253553Y-74225000D03*
G04 #@! TD*
D31*
G04 #@! TO.C,C5*
X87335000Y-59095000D03*
X87335000Y-58135000D03*
G04 #@! TD*
D12*
G04 #@! TO.C,D67*
X41172490Y-54269998D03*
X39597490Y-54269998D03*
G04 #@! TD*
D15*
G04 #@! TO.C,R71*
X197893561Y-48750000D03*
X197893561Y-47730000D03*
G04 #@! TD*
D36*
G04 #@! TO.C,C16*
X59080000Y-80200000D03*
X58120000Y-80200000D03*
G04 #@! TD*
D58*
G04 #@! TO.C,D1*
X111600000Y-57950000D03*
X111600000Y-60050000D03*
G04 #@! TD*
D18*
G04 #@! TO.C,R175*
X203543553Y-77200000D03*
X204563553Y-77200000D03*
G04 #@! TD*
G04 #@! TO.C,R147*
X46884992Y-43774998D03*
X47904992Y-43774998D03*
G04 #@! TD*
D11*
G04 #@! TO.C,R74*
X93039335Y-48980641D03*
X93760583Y-49701889D03*
G04 #@! TD*
D23*
G04 #@! TO.C,D183*
X38009984Y-45572499D03*
X38009984Y-43997499D03*
G04 #@! TD*
D18*
G04 #@! TO.C,R46*
X173213544Y-55769999D03*
X174233544Y-55769999D03*
G04 #@! TD*
G04 #@! TO.C,R143*
X206803563Y-55769999D03*
X207823563Y-55769999D03*
G04 #@! TD*
D57*
G04 #@! TO.C,Y1*
X54950000Y-80800000D03*
X52750000Y-80800000D03*
X52750000Y-82500000D03*
X54950000Y-82500000D03*
G04 #@! TD*
D36*
G04 #@! TO.C,C45*
X225933553Y-72400000D03*
X224973553Y-72400000D03*
G04 #@! TD*
D10*
G04 #@! TO.C,D175*
X162863537Y-43967499D03*
X162863537Y-45542499D03*
G04 #@! TD*
D12*
G04 #@! TO.C,D52*
X61427506Y-42274998D03*
X59852506Y-42274998D03*
G04 #@! TD*
D18*
G04 #@! TO.C,R26*
X93945009Y-55769999D03*
X94965009Y-55769999D03*
G04 #@! TD*
G04 #@! TO.C,R143*
X76950010Y-55769999D03*
X77970010Y-55769999D03*
G04 #@! TD*
D20*
G04 #@! TO.C,D171*
X191110412Y-48826845D03*
X189996718Y-47713151D03*
G04 #@! TD*
D10*
G04 #@! TO.C,D100*
X66540008Y-47462500D03*
X66540008Y-49037500D03*
G04 #@! TD*
D21*
G04 #@! TO.C,C25*
X61800000Y-82225000D03*
X61800000Y-83775000D03*
G04 #@! TD*
D12*
G04 #@! TO.C,D172*
X78247510Y-54269999D03*
X76672510Y-54269999D03*
G04 #@! TD*
D13*
G04 #@! TO.C,R168*
X36509984Y-51254999D03*
X36509984Y-52274999D03*
G04 #@! TD*
D43*
G04 #@! TO.C,S1*
X118250000Y-75750000D03*
X118250000Y-72750000D03*
X118250000Y-71250000D03*
D44*
X118900000Y-77150000D03*
X118900000Y-69850000D03*
X121100000Y-77150000D03*
X121100000Y-69850000D03*
G04 #@! TD*
D17*
G04 #@! TO.C,D25*
X153066053Y-83000000D03*
X154641053Y-83000000D03*
G04 #@! TD*
D16*
G04 #@! TO.C,R93*
X44540033Y-28769998D03*
X43520035Y-28769998D03*
G04 #@! TD*
D20*
G04 #@! TO.C,D62*
X80510016Y-51330002D03*
X79396322Y-50216308D03*
G04 #@! TD*
D13*
G04 #@! TO.C,R137*
X216843561Y-44260000D03*
X216843561Y-45280000D03*
G04 #@! TD*
D16*
G04 #@! TO.C,R101*
X170883585Y-28769998D03*
X169863587Y-28769998D03*
G04 #@! TD*
D23*
G04 #@! TO.C,D86*
X88490008Y-40577498D03*
X88490008Y-39002498D03*
G04 #@! TD*
D11*
G04 #@! TO.C,R42*
X90564460Y-34505766D03*
X91285708Y-35227014D03*
G04 #@! TD*
D17*
G04 #@! TO.C,D16*
X156066053Y-76000000D03*
X157641053Y-76000000D03*
G04 #@! TD*
D11*
G04 #@! TO.C,R164*
X205882281Y-36970034D03*
X206603529Y-37691282D03*
G04 #@! TD*
D13*
G04 #@! TO.C,R57*
X86990008Y-39289998D03*
X86990008Y-40309998D03*
G04 #@! TD*
D26*
G04 #@! TO.C,C19*
X195553553Y-75220000D03*
X195553553Y-76180000D03*
G04 #@! TD*
D42*
G04 #@! TO.C,S2*
X180603553Y-97200000D03*
X180603553Y-88800000D03*
X185103553Y-97200000D03*
X185103553Y-88800000D03*
X182853553Y-88800000D03*
G04 #@! TD*
D23*
G04 #@! TO.C,D199*
X71540008Y-40577498D03*
X71540008Y-39002498D03*
G04 #@! TD*
D12*
G04 #@! TO.C,D63*
X98742510Y-54269999D03*
X97167510Y-54269999D03*
G04 #@! TD*
D11*
G04 #@! TO.C,R94*
X172392888Y-48980641D03*
X173114136Y-49701889D03*
G04 #@! TD*
D10*
G04 #@! TO.C,D97*
X162863537Y-31957497D03*
X162863537Y-33532497D03*
G04 #@! TD*
D20*
G04 #@! TO.C,D115*
X42067341Y-46359042D03*
X40953647Y-45245348D03*
G04 #@! TD*
D34*
G04 #@! TO.C,U2*
X86325000Y-61250000D03*
X86325000Y-61750000D03*
X86325000Y-62250000D03*
X86325000Y-62750000D03*
X86325000Y-63250000D03*
X86325000Y-63750000D03*
X86325000Y-64250000D03*
X86325000Y-64750000D03*
X86325000Y-65250000D03*
X86325000Y-65750000D03*
X86325000Y-66250000D03*
X86325000Y-66750000D03*
X86325000Y-67250000D03*
X86325000Y-67750000D03*
X86325000Y-68250000D03*
X86325000Y-68750000D03*
D35*
X88250000Y-70675000D03*
X88750000Y-70675000D03*
X89250000Y-70675000D03*
X89750000Y-70675000D03*
X90250000Y-70675000D03*
X90750000Y-70675000D03*
X91250000Y-70675000D03*
X91750000Y-70675000D03*
X92250000Y-70675000D03*
X92750000Y-70675000D03*
X93250000Y-70675000D03*
X93750000Y-70675000D03*
X94250000Y-70675000D03*
X94750000Y-70675000D03*
X95250000Y-70675000D03*
X95750000Y-70675000D03*
D34*
X97675000Y-68750000D03*
X97675000Y-68250000D03*
X97675000Y-67750000D03*
X97675000Y-67250000D03*
X97675000Y-66750000D03*
X97675000Y-66250000D03*
X97675000Y-65750000D03*
X97675000Y-65250000D03*
X97675000Y-64750000D03*
X97675000Y-64250000D03*
X97675000Y-63750000D03*
X97675000Y-63250000D03*
X97675000Y-62750000D03*
X97675000Y-62250000D03*
X97675000Y-61750000D03*
X97675000Y-61250000D03*
D35*
X95750000Y-59325000D03*
X95250000Y-59325000D03*
X94750000Y-59325000D03*
X94250000Y-59325000D03*
X93750000Y-59325000D03*
X93250000Y-59325000D03*
X92750000Y-59325000D03*
X92250000Y-59325000D03*
X91750000Y-59325000D03*
X91250000Y-59325000D03*
X90750000Y-59325000D03*
X90250000Y-59325000D03*
X89750000Y-59325000D03*
X89250000Y-59325000D03*
X88750000Y-59325000D03*
X88250000Y-59325000D03*
G04 #@! TD*
D26*
G04 #@! TO.C,C13*
X51050000Y-81120000D03*
X51050000Y-82080000D03*
G04 #@! TD*
D17*
G04 #@! TO.C,D27*
X19712500Y-86500000D03*
X21287500Y-86500000D03*
G04 #@! TD*
G04 #@! TO.C,D102*
X93667516Y-30269998D03*
X95242516Y-30269998D03*
G04 #@! TD*
D22*
G04 #@! TO.C,C4*
X83400000Y-67775000D03*
X83400000Y-66225000D03*
G04 #@! TD*
D14*
G04 #@! TO.C,C37*
X70720000Y-74200000D03*
X71680000Y-74200000D03*
G04 #@! TD*
D18*
G04 #@! TO.C,R150*
X80500008Y-55769999D03*
X81520008Y-55769999D03*
G04 #@! TD*
D17*
G04 #@! TO.C,D35*
X35712500Y-76000000D03*
X37287500Y-76000000D03*
G04 #@! TD*
D12*
G04 #@! TO.C,D132*
X64922504Y-54269999D03*
X63347504Y-54269999D03*
G04 #@! TD*
D17*
G04 #@! TO.C,D17*
X159566053Y-76000000D03*
X161141053Y-76000000D03*
G04 #@! TD*
D11*
G04 #@! TO.C,R45*
X25528728Y-48970034D03*
X26249976Y-49691282D03*
G04 #@! TD*
D16*
G04 #@! TO.C,R65*
X228313568Y-28769998D03*
X227293570Y-28769998D03*
G04 #@! TD*
D15*
G04 #@! TO.C,R89*
X101950012Y-40269998D03*
X101950012Y-39249998D03*
G04 #@! TD*
D36*
G04 #@! TO.C,C7*
X89180000Y-72400000D03*
X88220000Y-72400000D03*
G04 #@! TD*
D26*
G04 #@! TO.C,C17*
X64100000Y-80420000D03*
X64100000Y-81380000D03*
G04 #@! TD*
D21*
G04 #@! TO.C,C27*
X198953553Y-78925000D03*
X198953553Y-80475000D03*
G04 #@! TD*
D23*
G04 #@! TO.C,D78*
X218343561Y-37042498D03*
X218343561Y-35467498D03*
G04 #@! TD*
D28*
G04 #@! TO.C,C8*
X25375000Y-57600000D03*
X23825000Y-57600000D03*
G04 #@! TD*
D20*
G04 #@! TO.C,D95*
X222399680Y-46366113D03*
X221285986Y-45252419D03*
G04 #@! TD*
D18*
G04 #@! TO.C,R133*
X169753543Y-43600000D03*
X170773543Y-43600000D03*
G04 #@! TD*
D17*
G04 #@! TO.C,D29*
X42212500Y-86500000D03*
X43787500Y-86500000D03*
G04 #@! TD*
D36*
G04 #@! TO.C,C16*
X188933553Y-80200000D03*
X187973553Y-80200000D03*
G04 #@! TD*
D18*
G04 #@! TO.C,R159*
X107430014Y-43600000D03*
X108450014Y-43600000D03*
G04 #@! TD*
D10*
G04 #@! TO.C,D43*
X179603553Y-50947500D03*
X179603553Y-52522500D03*
G04 #@! TD*
D12*
G04 #@! TO.C,D75*
X44657491Y-54269999D03*
X43082491Y-54269999D03*
G04 #@! TD*
D23*
G04 #@! TO.C,D145*
X151093525Y-49037498D03*
X151093525Y-47462498D03*
G04 #@! TD*
D18*
G04 #@! TO.C,R18*
X220303561Y-55769999D03*
X221323561Y-55769999D03*
G04 #@! TD*
D23*
G04 #@! TO.C,D48*
X235303565Y-45557500D03*
X235303565Y-43982500D03*
G04 #@! TD*
D10*
G04 #@! TO.C,D201*
X100450012Y-43952500D03*
X100450012Y-45527500D03*
G04 #@! TD*
D12*
G04 #@! TO.C,D158*
X228621063Y-42274998D03*
X227046063Y-42274998D03*
G04 #@! TD*
D10*
G04 #@! TO.C,D108*
X196393561Y-43952500D03*
X196393561Y-45527500D03*
G04 #@! TD*
D17*
G04 #@! TO.C,D143*
X244051062Y-30269998D03*
X245626062Y-30269998D03*
G04 #@! TD*
G04 #@! TO.C,D9*
X32712500Y-69500000D03*
X34287500Y-69500000D03*
G04 #@! TD*
D12*
G04 #@! TO.C,D47*
X221591061Y-54269999D03*
X220016061Y-54269999D03*
G04 #@! TD*
D10*
G04 #@! TO.C,D157*
X213343561Y-43952500D03*
X213343561Y-45527500D03*
G04 #@! TD*
D11*
G04 #@! TO.C,R50*
X93028728Y-36970034D03*
X93749976Y-37691282D03*
G04 #@! TD*
D13*
G04 #@! TO.C,R12*
X19739972Y-35774996D03*
X19739972Y-36794996D03*
G04 #@! TD*
D16*
G04 #@! TO.C,R32*
X74720006Y-28769998D03*
X73700008Y-28769998D03*
G04 #@! TD*
D13*
G04 #@! TO.C,R156*
X199893561Y-32289998D03*
X199893561Y-33309998D03*
G04 #@! TD*
D11*
G04 #@! TO.C,R58*
X225364226Y-39451980D03*
X226085474Y-40173228D03*
G04 #@! TD*
D18*
G04 #@! TO.C,R5*
X82890000Y-61000000D03*
X83910000Y-61000000D03*
G04 #@! TD*
D17*
G04 #@! TO.C,D36*
X38712500Y-92500000D03*
X40287500Y-92500000D03*
G04 #@! TD*
G04 #@! TO.C,D159*
X237026064Y-30269998D03*
X238601064Y-30269998D03*
G04 #@! TD*
D23*
G04 #@! TO.C,D183*
X167863537Y-45572499D03*
X167863537Y-43997499D03*
G04 #@! TD*
D17*
G04 #@! TO.C,D35*
X165566053Y-76000000D03*
X167141053Y-76000000D03*
G04 #@! TD*
D23*
G04 #@! TO.C,D190*
X167863537Y-49037499D03*
X167863537Y-47462499D03*
G04 #@! TD*
D28*
G04 #@! TO.C,C2*
X96375000Y-73800000D03*
X94825000Y-73800000D03*
G04 #@! TD*
D18*
G04 #@! TO.C,R167*
X30104978Y-55769998D03*
X31124978Y-55769998D03*
G04 #@! TD*
G04 #@! TO.C,R153*
X152923533Y-55769997D03*
X153943533Y-55769997D03*
G04 #@! TD*
D10*
G04 #@! TO.C,D134*
X230303565Y-31972498D03*
X230303565Y-33547498D03*
G04 #@! TD*
D18*
G04 #@! TO.C,R129*
X97470010Y-43774998D03*
X98490010Y-43774998D03*
G04 #@! TD*
D29*
G04 #@! TO.C,H4*
X238853553Y-24000000D03*
G04 #@! TD*
D18*
G04 #@! TO.C,R54*
X46859992Y-55769999D03*
X47879992Y-55769999D03*
G04 #@! TD*
G04 #@! TO.C,R133*
X39899990Y-43600000D03*
X40919990Y-43600000D03*
G04 #@! TD*
D20*
G04 #@! TO.C,D103*
X95006859Y-48826845D03*
X93893165Y-47713151D03*
G04 #@! TD*
D11*
G04 #@! TO.C,R119*
X59278728Y-36970034D03*
X59999976Y-37691282D03*
G04 #@! TD*
G04 #@! TO.C,R131*
X112514208Y-51455515D03*
X113235456Y-52176763D03*
G04 #@! TD*
D17*
G04 #@! TO.C,D23*
X172066053Y-79500000D03*
X173641053Y-79500000D03*
G04 #@! TD*
D10*
G04 #@! TO.C,D88*
X117450012Y-43952500D03*
X117450012Y-45527500D03*
G04 #@! TD*
D18*
G04 #@! TO.C,R129*
X227323563Y-43774998D03*
X228343563Y-43774998D03*
G04 #@! TD*
D10*
G04 #@! TO.C,D174*
X117450012Y-35482498D03*
X117450012Y-37057498D03*
G04 #@! TD*
D11*
G04 #@! TO.C,R102*
X45014210Y-51455516D03*
X45735458Y-52176764D03*
G04 #@! TD*
D18*
G04 #@! TO.C,R31*
X63660004Y-43774998D03*
X64680004Y-43774998D03*
G04 #@! TD*
D17*
G04 #@! TO.C,D8*
X159566053Y-69500000D03*
X161141053Y-69500000D03*
G04 #@! TD*
D16*
G04 #@! TO.C,R93*
X174393586Y-28769998D03*
X173373588Y-28769998D03*
G04 #@! TD*
D10*
G04 #@! TO.C,D89*
X162863537Y-35467497D03*
X162863537Y-37042497D03*
G04 #@! TD*
G04 #@! TO.C,D138*
X179603553Y-38972498D03*
X179603553Y-40547498D03*
G04 #@! TD*
D13*
G04 #@! TO.C,R126*
X183103553Y-39289998D03*
X183103553Y-40309998D03*
G04 #@! TD*
D23*
G04 #@! TO.C,D197*
X38009984Y-52552499D03*
X38009984Y-50977499D03*
G04 #@! TD*
D13*
G04 #@! TO.C,R144*
X86990008Y-47740000D03*
X86990008Y-48760000D03*
G04 #@! TD*
D11*
G04 #@! TO.C,R45*
X155382281Y-48970034D03*
X156103529Y-49691282D03*
G04 #@! TD*
D14*
G04 #@! TO.C,C18*
X195973553Y-79600000D03*
X196933553Y-79600000D03*
G04 #@! TD*
D28*
G04 #@! TO.C,C14*
X188428553Y-71300000D03*
X186878553Y-71300000D03*
G04 #@! TD*
D15*
G04 #@! TO.C,R145*
X248803565Y-36779998D03*
X248803565Y-35759998D03*
G04 #@! TD*
D12*
G04 #@! TO.C,D104*
X112212513Y-54269999D03*
X110637513Y-54269999D03*
G04 #@! TD*
G04 #@! TO.C,D132*
X194776057Y-54269999D03*
X193201057Y-54269999D03*
G04 #@! TD*
D13*
G04 #@! TO.C,R77*
X166363537Y-39249997D03*
X166363537Y-40269997D03*
G04 #@! TD*
D12*
G04 #@! TO.C,D44*
X57922508Y-42274998D03*
X56347508Y-42274998D03*
G04 #@! TD*
D15*
G04 #@! TO.C,R30*
X51250000Y-45250000D03*
X51250000Y-44230000D03*
G04 #@! TD*
D11*
G04 #@! TO.C,R37*
X23046784Y-46488090D03*
X23768032Y-47209338D03*
G04 #@! TD*
D12*
G04 #@! TO.C,D169*
X174536044Y-42274998D03*
X172961044Y-42274998D03*
G04 #@! TD*
D23*
G04 #@! TO.C,D57*
X21239972Y-40592496D03*
X21239972Y-39017496D03*
G04 #@! TD*
D11*
G04 #@! TO.C,R82*
X95521281Y-51462587D03*
X96242529Y-52183835D03*
G04 #@! TD*
D18*
G04 #@! TO.C,R121*
X223813562Y-43774998D03*
X224833562Y-43774998D03*
G04 #@! TD*
D58*
G04 #@! TO.C,D1*
X241453553Y-57950000D03*
X241453553Y-60050000D03*
G04 #@! TD*
D13*
G04 #@! TO.C,R55*
X53250000Y-51255000D03*
X53250000Y-52275000D03*
G04 #@! TD*
D10*
G04 #@! TO.C,D141*
X83490008Y-50947500D03*
X83490008Y-52522500D03*
G04 #@! TD*
D14*
G04 #@! TO.C,C35*
X200573553Y-78300000D03*
X201533553Y-78300000D03*
G04 #@! TD*
D20*
G04 #@! TO.C,D140*
X58778450Y-34348436D03*
X57664756Y-33234742D03*
G04 #@! TD*
D12*
G04 #@! TO.C,D176*
X48197492Y-42274998D03*
X46622492Y-42274998D03*
G04 #@! TD*
D15*
G04 #@! TO.C,R51*
X118950012Y-48750000D03*
X118950012Y-47730000D03*
G04 #@! TD*
D20*
G04 #@! TO.C,D128*
X112006859Y-36826845D03*
X110893165Y-35713151D03*
G04 #@! TD*
D21*
G04 #@! TO.C,C44*
X104450000Y-65087500D03*
X104450000Y-66637500D03*
G04 #@! TD*
D11*
G04 #@! TO.C,R25*
X205882281Y-48970034D03*
X206603529Y-49691282D03*
G04 #@! TD*
G04 #@! TO.C,R66*
X220421549Y-46509303D03*
X221142797Y-47230551D03*
G04 #@! TD*
D18*
G04 #@! TO.C,R87*
X186453561Y-55769999D03*
X187473561Y-55769999D03*
G04 #@! TD*
D36*
G04 #@! TO.C,C15*
X58880000Y-72700000D03*
X57920000Y-72700000D03*
G04 #@! TD*
D11*
G04 #@! TO.C,R53*
X157874832Y-51462586D03*
X158596080Y-52183834D03*
G04 #@! TD*
D23*
G04 #@! TO.C,D185*
X71540008Y-33577498D03*
X71540008Y-32002498D03*
G04 #@! TD*
G04 #@! TO.C,D135*
X105450012Y-40577498D03*
X105450012Y-39002498D03*
G04 #@! TD*
G04 #@! TO.C,D41*
X21239972Y-37072496D03*
X21239972Y-35497496D03*
G04 #@! TD*
D10*
G04 #@! TO.C,D141*
X213343561Y-50947500D03*
X213343561Y-52522500D03*
G04 #@! TD*
G04 #@! TO.C,D161*
X162863537Y-50962499D03*
X162863537Y-52537499D03*
G04 #@! TD*
D20*
G04 #@! TO.C,D54*
X207860412Y-48826845D03*
X206746718Y-47713151D03*
G04 #@! TD*
D23*
G04 #@! TO.C,D180*
X88490008Y-52552500D03*
X88490008Y-50977500D03*
G04 #@! TD*
D10*
G04 #@! TO.C,D149*
X83490008Y-47462500D03*
X83490008Y-49037500D03*
G04 #@! TD*
D48*
G04 #@! TO.C,J1*
X116245000Y-66700000D03*
X116245000Y-65900000D03*
D49*
X116245001Y-64750000D03*
X116245000Y-63750000D03*
X116245000Y-63250000D03*
X116245001Y-62250000D03*
D48*
X116245000Y-61100000D03*
X116245000Y-60300000D03*
X116245000Y-60300000D03*
X116245000Y-61100000D03*
D49*
X116245000Y-61750000D03*
X116245000Y-62750000D03*
X116245000Y-64250000D03*
X116245000Y-65250000D03*
D48*
X116245000Y-65900000D03*
X116245000Y-66700000D03*
D50*
X116820000Y-67820000D03*
D51*
X121000000Y-67820000D03*
D50*
X116820000Y-59180000D03*
D51*
X121000000Y-59180000D03*
G04 #@! TD*
D18*
G04 #@! TO.C,R176*
X203543553Y-74200000D03*
X204563553Y-74200000D03*
G04 #@! TD*
D10*
G04 #@! TO.C,D89*
X33009984Y-35467497D03*
X33009984Y-37042497D03*
G04 #@! TD*
D16*
G04 #@! TO.C,R73*
X224818568Y-28769999D03*
X223798570Y-28769999D03*
G04 #@! TD*
D17*
G04 #@! TO.C,D6*
X35712500Y-66500000D03*
X37287500Y-66500000D03*
G04 #@! TD*
G04 #@! TO.C,D4*
X29712500Y-66500000D03*
X31287500Y-66500000D03*
G04 #@! TD*
D12*
G04 #@! TO.C,D116*
X57897508Y-54269999D03*
X56322508Y-54269999D03*
G04 #@! TD*
D13*
G04 #@! TO.C,R110*
X53250000Y-32279998D03*
X53250000Y-33299998D03*
G04 #@! TD*
D18*
G04 #@! TO.C,R38*
X39874990Y-55769998D03*
X40894990Y-55769998D03*
G04 #@! TD*
D23*
G04 #@! TO.C,D119*
X235303565Y-33577498D03*
X235303565Y-32002498D03*
G04 #@! TD*
D15*
G04 #@! TO.C,R169*
X197893561Y-33269998D03*
X197893561Y-32249998D03*
G04 #@! TD*
D25*
G04 #@! TO.C,D210*
X121000000Y-46050000D03*
X121000000Y-43950000D03*
G04 #@! TD*
D13*
G04 #@! TO.C,R10*
X114000000Y-64290000D03*
X114000000Y-65310000D03*
G04 #@! TD*
D11*
G04 #@! TO.C,R149*
X61767742Y-51459049D03*
X62488990Y-52180297D03*
G04 #@! TD*
D16*
G04 #@! TO.C,R183*
X63510000Y-72400000D03*
X62490000Y-72400000D03*
G04 #@! TD*
D13*
G04 #@! TO.C,R57*
X216843561Y-39289998D03*
X216843561Y-40309998D03*
G04 #@! TD*
D17*
G04 #@! TO.C,D65*
X156376099Y-30269998D03*
X157951099Y-30269998D03*
G04 #@! TD*
D23*
G04 #@! TO.C,D90*
X167863537Y-33547497D03*
X167863537Y-31972497D03*
G04 #@! TD*
D19*
G04 #@! TO.C,C34*
X196278553Y-82000000D03*
X197828553Y-82000000D03*
G04 #@! TD*
D17*
G04 #@! TO.C,D15*
X32712500Y-73000000D03*
X34287500Y-73000000D03*
G04 #@! TD*
D10*
G04 #@! TO.C,D184*
X66540008Y-38972498D03*
X66540008Y-40547498D03*
G04 #@! TD*
D11*
G04 #@! TO.C,R119*
X189132281Y-36970034D03*
X189853529Y-37691282D03*
G04 #@! TD*
D18*
G04 #@! TO.C,R176*
X73690000Y-74200000D03*
X74710000Y-74200000D03*
G04 #@! TD*
G04 #@! TO.C,R103*
X63625004Y-55769999D03*
X64645004Y-55769999D03*
G04 #@! TD*
D17*
G04 #@! TO.C,D163*
X193356070Y-30269998D03*
X194931070Y-30269998D03*
G04 #@! TD*
D13*
G04 #@! TO.C,R116*
X19739972Y-47739998D03*
X19739972Y-48759998D03*
G04 #@! TD*
D10*
G04 #@! TO.C,D92*
X196393561Y-50947500D03*
X196393561Y-52522500D03*
G04 #@! TD*
D18*
G04 #@! TO.C,R15*
X56625008Y-43700000D03*
X57645008Y-43700000D03*
G04 #@! TD*
D45*
G04 #@! TO.C,U3*
X25862500Y-60762500D03*
X25862500Y-61162500D03*
X25862500Y-61562500D03*
X25862500Y-61962500D03*
X25862500Y-62362500D03*
X25862500Y-62762500D03*
X25862500Y-63162500D03*
D46*
X26600000Y-63900000D03*
X27000000Y-63900000D03*
X27400000Y-63900000D03*
X27800000Y-63900000D03*
X28200000Y-63900000D03*
X28600000Y-63900000D03*
X29000000Y-63900000D03*
D45*
X29737500Y-63162500D03*
X29737500Y-62762500D03*
X29737500Y-62362500D03*
X29737500Y-61962500D03*
X29737500Y-61562500D03*
X29737500Y-61162500D03*
X29737500Y-60762500D03*
D46*
X29000000Y-60025000D03*
X28600000Y-60025000D03*
X28200000Y-60025000D03*
X27800000Y-60025000D03*
X27400000Y-60025000D03*
X27000000Y-60025000D03*
X26600000Y-60025000D03*
D47*
X27800000Y-61962500D03*
G04 #@! TD*
D12*
G04 #@! TO.C,D112*
X245581065Y-54269999D03*
X244006065Y-54269999D03*
G04 #@! TD*
D21*
G04 #@! TO.C,C44*
X234303553Y-65087500D03*
X234303553Y-66637500D03*
G04 #@! TD*
D31*
G04 #@! TO.C,C3*
X207853553Y-61825000D03*
X207853553Y-60865000D03*
G04 #@! TD*
D26*
G04 #@! TO.C,C19*
X65700000Y-75220000D03*
X65700000Y-76180000D03*
G04 #@! TD*
D24*
G04 #@! TO.C,D208*
X50750000Y-86400000D03*
X52850000Y-86400000D03*
G04 #@! TD*
D15*
G04 #@! TO.C,R60*
X164363537Y-36764997D03*
X164363537Y-35744997D03*
G04 #@! TD*
D10*
G04 #@! TO.C,D181*
X247303565Y-31972498D03*
X247303565Y-33547498D03*
G04 #@! TD*
D31*
G04 #@! TO.C,C39*
X72700000Y-77200000D03*
X72700000Y-76240000D03*
G04 #@! TD*
D12*
G04 #@! TO.C,D189*
X157731032Y-54269998D03*
X156156032Y-54269998D03*
G04 #@! TD*
D17*
G04 #@! TO.C,D33*
X149566053Y-92500000D03*
X151141053Y-92500000D03*
G04 #@! TD*
D18*
G04 #@! TO.C,R4*
X76290000Y-64145000D03*
X77310000Y-64145000D03*
G04 #@! TD*
D13*
G04 #@! TO.C,R151*
X216843561Y-51265000D03*
X216843561Y-52285000D03*
G04 #@! TD*
D11*
G04 #@! TO.C,R82*
X225374834Y-51462587D03*
X226096082Y-52183835D03*
G04 #@! TD*
D15*
G04 #@! TO.C,R9*
X243853553Y-61110000D03*
X243853553Y-60090000D03*
G04 #@! TD*
D41*
G04 #@! TO.C,D203*
X171403553Y-61000000D03*
X174303553Y-61000000D03*
G04 #@! TD*
D12*
G04 #@! TO.C,D182*
X154221033Y-54269997D03*
X152646033Y-54269997D03*
G04 #@! TD*
D17*
G04 #@! TO.C,D177*
X56477521Y-30269998D03*
X58052521Y-30269998D03*
G04 #@! TD*
D16*
G04 #@! TO.C,R24*
X208123557Y-28769998D03*
X207103559Y-28769998D03*
G04 #@! TD*
D13*
G04 #@! TO.C,R179*
X201453553Y-61235000D03*
X201453553Y-62255000D03*
G04 #@! TD*
D11*
G04 #@! TO.C,R21*
X155642281Y-36970034D03*
X156363529Y-37691282D03*
G04 #@! TD*
G04 #@! TO.C,R25*
X76028728Y-48970034D03*
X76749976Y-49691282D03*
G04 #@! TD*
D59*
G04 #@! TO.C,BT1*
X41600000Y-64400000D03*
X41600000Y-51700000D03*
G04 #@! TD*
G04 #@! TO.C,BT1*
X171453553Y-64400000D03*
X171453553Y-51700000D03*
G04 #@! TD*
M02*
