G04 #@! TF.GenerationSoftware,KiCad,Pcbnew,9.0.1*
G04 #@! TF.CreationDate,2025-05-04T22:53:25+02:00*
G04 #@! TF.ProjectId,dc2025_badge-panel,64633230-3235-45f6-9261-6467652d7061,rev?*
G04 #@! TF.SameCoordinates,Original*
G04 #@! TF.FileFunction,Other,Comment*
%FSLAX46Y46*%
G04 Gerber Fmt 4.6, Leading zero omitted, Abs format (unit mm)*
G04 Created by KiCad (PCBNEW 9.0.1) date 2025-05-04 22:53:25*
%MOMM*%
%LPD*%
G01*
G04 APERTURE LIST*
%ADD10C,0.125000*%
%ADD11C,0.070000*%
%ADD12C,0.150000*%
G04 APERTURE END LIST*
D10*
X100098572Y-56339809D02*
X100003334Y-56339809D01*
X100003334Y-56339809D02*
X99955715Y-56363619D01*
X99955715Y-56363619D02*
X99931905Y-56387428D01*
X99931905Y-56387428D02*
X99884286Y-56458857D01*
X99884286Y-56458857D02*
X99860477Y-56554095D01*
X99860477Y-56554095D02*
X99860477Y-56744571D01*
X99860477Y-56744571D02*
X99884286Y-56792190D01*
X99884286Y-56792190D02*
X99908096Y-56816000D01*
X99908096Y-56816000D02*
X99955715Y-56839809D01*
X99955715Y-56839809D02*
X100050953Y-56839809D01*
X100050953Y-56839809D02*
X100098572Y-56816000D01*
X100098572Y-56816000D02*
X100122381Y-56792190D01*
X100122381Y-56792190D02*
X100146191Y-56744571D01*
X100146191Y-56744571D02*
X100146191Y-56625523D01*
X100146191Y-56625523D02*
X100122381Y-56577904D01*
X100122381Y-56577904D02*
X100098572Y-56554095D01*
X100098572Y-56554095D02*
X100050953Y-56530285D01*
X100050953Y-56530285D02*
X99955715Y-56530285D01*
X99955715Y-56530285D02*
X99908096Y-56554095D01*
X99908096Y-56554095D02*
X99884286Y-56577904D01*
X99884286Y-56577904D02*
X99860477Y-56625523D01*
X100360476Y-56792190D02*
X100384286Y-56816000D01*
X100384286Y-56816000D02*
X100360476Y-56839809D01*
X100360476Y-56839809D02*
X100336667Y-56816000D01*
X100336667Y-56816000D02*
X100360476Y-56792190D01*
X100360476Y-56792190D02*
X100360476Y-56839809D01*
X100550952Y-56339809D02*
X100860476Y-56339809D01*
X100860476Y-56339809D02*
X100693809Y-56530285D01*
X100693809Y-56530285D02*
X100765238Y-56530285D01*
X100765238Y-56530285D02*
X100812857Y-56554095D01*
X100812857Y-56554095D02*
X100836666Y-56577904D01*
X100836666Y-56577904D02*
X100860476Y-56625523D01*
X100860476Y-56625523D02*
X100860476Y-56744571D01*
X100860476Y-56744571D02*
X100836666Y-56792190D01*
X100836666Y-56792190D02*
X100812857Y-56816000D01*
X100812857Y-56816000D02*
X100765238Y-56839809D01*
X100765238Y-56839809D02*
X100622381Y-56839809D01*
X100622381Y-56839809D02*
X100574762Y-56816000D01*
X100574762Y-56816000D02*
X100550952Y-56792190D01*
X101312856Y-56339809D02*
X101074761Y-56339809D01*
X101074761Y-56339809D02*
X101050952Y-56577904D01*
X101050952Y-56577904D02*
X101074761Y-56554095D01*
X101074761Y-56554095D02*
X101122380Y-56530285D01*
X101122380Y-56530285D02*
X101241428Y-56530285D01*
X101241428Y-56530285D02*
X101289047Y-56554095D01*
X101289047Y-56554095D02*
X101312856Y-56577904D01*
X101312856Y-56577904D02*
X101336666Y-56625523D01*
X101336666Y-56625523D02*
X101336666Y-56744571D01*
X101336666Y-56744571D02*
X101312856Y-56792190D01*
X101312856Y-56792190D02*
X101289047Y-56816000D01*
X101289047Y-56816000D02*
X101241428Y-56839809D01*
X101241428Y-56839809D02*
X101122380Y-56839809D01*
X101122380Y-56839809D02*
X101074761Y-56816000D01*
X101074761Y-56816000D02*
X101050952Y-56792190D01*
X101550951Y-56839809D02*
X101550951Y-56506476D01*
X101550951Y-56554095D02*
X101574761Y-56530285D01*
X101574761Y-56530285D02*
X101622380Y-56506476D01*
X101622380Y-56506476D02*
X101693808Y-56506476D01*
X101693808Y-56506476D02*
X101741427Y-56530285D01*
X101741427Y-56530285D02*
X101765237Y-56577904D01*
X101765237Y-56577904D02*
X101765237Y-56839809D01*
X101765237Y-56577904D02*
X101789046Y-56530285D01*
X101789046Y-56530285D02*
X101836665Y-56506476D01*
X101836665Y-56506476D02*
X101908094Y-56506476D01*
X101908094Y-56506476D02*
X101955713Y-56530285D01*
X101955713Y-56530285D02*
X101979523Y-56577904D01*
X101979523Y-56577904D02*
X101979523Y-56839809D01*
X102217618Y-56839809D02*
X102217618Y-56506476D01*
X102217618Y-56554095D02*
X102241428Y-56530285D01*
X102241428Y-56530285D02*
X102289047Y-56506476D01*
X102289047Y-56506476D02*
X102360475Y-56506476D01*
X102360475Y-56506476D02*
X102408094Y-56530285D01*
X102408094Y-56530285D02*
X102431904Y-56577904D01*
X102431904Y-56577904D02*
X102431904Y-56839809D01*
X102431904Y-56577904D02*
X102455713Y-56530285D01*
X102455713Y-56530285D02*
X102503332Y-56506476D01*
X102503332Y-56506476D02*
X102574761Y-56506476D01*
X102574761Y-56506476D02*
X102622380Y-56530285D01*
X102622380Y-56530285D02*
X102646190Y-56577904D01*
X102646190Y-56577904D02*
X102646190Y-56839809D01*
X103217618Y-56339809D02*
X103550951Y-56339809D01*
X103550951Y-56339809D02*
X103217618Y-56839809D01*
X103217618Y-56839809D02*
X103550951Y-56839809D01*
X103741427Y-56649333D02*
X104122380Y-56649333D01*
X104360475Y-56839809D02*
X104360475Y-56339809D01*
X104646189Y-56839809D02*
X104431904Y-56554095D01*
X104646189Y-56339809D02*
X104360475Y-56625523D01*
X104860475Y-56577904D02*
X105027142Y-56577904D01*
X105098570Y-56839809D02*
X104860475Y-56839809D01*
X104860475Y-56839809D02*
X104860475Y-56339809D01*
X104860475Y-56339809D02*
X105098570Y-56339809D01*
X105312856Y-56577904D02*
X105479523Y-56577904D01*
X105550951Y-56839809D02*
X105312856Y-56839809D01*
X105312856Y-56839809D02*
X105312856Y-56339809D01*
X105312856Y-56339809D02*
X105550951Y-56339809D01*
X105765237Y-56839809D02*
X105765237Y-56339809D01*
X105765237Y-56339809D02*
X105955713Y-56339809D01*
X105955713Y-56339809D02*
X106003332Y-56363619D01*
X106003332Y-56363619D02*
X106027142Y-56387428D01*
X106027142Y-56387428D02*
X106050951Y-56435047D01*
X106050951Y-56435047D02*
X106050951Y-56506476D01*
X106050951Y-56506476D02*
X106027142Y-56554095D01*
X106027142Y-56554095D02*
X106003332Y-56577904D01*
X106003332Y-56577904D02*
X105955713Y-56601714D01*
X105955713Y-56601714D02*
X105765237Y-56601714D01*
X106360475Y-56339809D02*
X106455713Y-56339809D01*
X106455713Y-56339809D02*
X106503332Y-56363619D01*
X106503332Y-56363619D02*
X106550951Y-56411238D01*
X106550951Y-56411238D02*
X106574761Y-56506476D01*
X106574761Y-56506476D02*
X106574761Y-56673142D01*
X106574761Y-56673142D02*
X106550951Y-56768380D01*
X106550951Y-56768380D02*
X106503332Y-56816000D01*
X106503332Y-56816000D02*
X106455713Y-56839809D01*
X106455713Y-56839809D02*
X106360475Y-56839809D01*
X106360475Y-56839809D02*
X106312856Y-56816000D01*
X106312856Y-56816000D02*
X106265237Y-56768380D01*
X106265237Y-56768380D02*
X106241428Y-56673142D01*
X106241428Y-56673142D02*
X106241428Y-56506476D01*
X106241428Y-56506476D02*
X106265237Y-56411238D01*
X106265237Y-56411238D02*
X106312856Y-56363619D01*
X106312856Y-56363619D02*
X106360475Y-56339809D01*
X106789047Y-56339809D02*
X106789047Y-56744571D01*
X106789047Y-56744571D02*
X106812857Y-56792190D01*
X106812857Y-56792190D02*
X106836666Y-56816000D01*
X106836666Y-56816000D02*
X106884285Y-56839809D01*
X106884285Y-56839809D02*
X106979523Y-56839809D01*
X106979523Y-56839809D02*
X107027142Y-56816000D01*
X107027142Y-56816000D02*
X107050952Y-56792190D01*
X107050952Y-56792190D02*
X107074761Y-56744571D01*
X107074761Y-56744571D02*
X107074761Y-56339809D01*
X107241429Y-56339809D02*
X107527143Y-56339809D01*
X107384286Y-56839809D02*
X107384286Y-56339809D01*
X100098572Y-61839809D02*
X100003334Y-61839809D01*
X100003334Y-61839809D02*
X99955715Y-61863619D01*
X99955715Y-61863619D02*
X99931905Y-61887428D01*
X99931905Y-61887428D02*
X99884286Y-61958857D01*
X99884286Y-61958857D02*
X99860477Y-62054095D01*
X99860477Y-62054095D02*
X99860477Y-62244571D01*
X99860477Y-62244571D02*
X99884286Y-62292190D01*
X99884286Y-62292190D02*
X99908096Y-62316000D01*
X99908096Y-62316000D02*
X99955715Y-62339809D01*
X99955715Y-62339809D02*
X100050953Y-62339809D01*
X100050953Y-62339809D02*
X100098572Y-62316000D01*
X100098572Y-62316000D02*
X100122381Y-62292190D01*
X100122381Y-62292190D02*
X100146191Y-62244571D01*
X100146191Y-62244571D02*
X100146191Y-62125523D01*
X100146191Y-62125523D02*
X100122381Y-62077904D01*
X100122381Y-62077904D02*
X100098572Y-62054095D01*
X100098572Y-62054095D02*
X100050953Y-62030285D01*
X100050953Y-62030285D02*
X99955715Y-62030285D01*
X99955715Y-62030285D02*
X99908096Y-62054095D01*
X99908096Y-62054095D02*
X99884286Y-62077904D01*
X99884286Y-62077904D02*
X99860477Y-62125523D01*
X100360476Y-62292190D02*
X100384286Y-62316000D01*
X100384286Y-62316000D02*
X100360476Y-62339809D01*
X100360476Y-62339809D02*
X100336667Y-62316000D01*
X100336667Y-62316000D02*
X100360476Y-62292190D01*
X100360476Y-62292190D02*
X100360476Y-62339809D01*
X100550952Y-61839809D02*
X100860476Y-61839809D01*
X100860476Y-61839809D02*
X100693809Y-62030285D01*
X100693809Y-62030285D02*
X100765238Y-62030285D01*
X100765238Y-62030285D02*
X100812857Y-62054095D01*
X100812857Y-62054095D02*
X100836666Y-62077904D01*
X100836666Y-62077904D02*
X100860476Y-62125523D01*
X100860476Y-62125523D02*
X100860476Y-62244571D01*
X100860476Y-62244571D02*
X100836666Y-62292190D01*
X100836666Y-62292190D02*
X100812857Y-62316000D01*
X100812857Y-62316000D02*
X100765238Y-62339809D01*
X100765238Y-62339809D02*
X100622381Y-62339809D01*
X100622381Y-62339809D02*
X100574762Y-62316000D01*
X100574762Y-62316000D02*
X100550952Y-62292190D01*
X101312856Y-61839809D02*
X101074761Y-61839809D01*
X101074761Y-61839809D02*
X101050952Y-62077904D01*
X101050952Y-62077904D02*
X101074761Y-62054095D01*
X101074761Y-62054095D02*
X101122380Y-62030285D01*
X101122380Y-62030285D02*
X101241428Y-62030285D01*
X101241428Y-62030285D02*
X101289047Y-62054095D01*
X101289047Y-62054095D02*
X101312856Y-62077904D01*
X101312856Y-62077904D02*
X101336666Y-62125523D01*
X101336666Y-62125523D02*
X101336666Y-62244571D01*
X101336666Y-62244571D02*
X101312856Y-62292190D01*
X101312856Y-62292190D02*
X101289047Y-62316000D01*
X101289047Y-62316000D02*
X101241428Y-62339809D01*
X101241428Y-62339809D02*
X101122380Y-62339809D01*
X101122380Y-62339809D02*
X101074761Y-62316000D01*
X101074761Y-62316000D02*
X101050952Y-62292190D01*
X101550951Y-62339809D02*
X101550951Y-62006476D01*
X101550951Y-62054095D02*
X101574761Y-62030285D01*
X101574761Y-62030285D02*
X101622380Y-62006476D01*
X101622380Y-62006476D02*
X101693808Y-62006476D01*
X101693808Y-62006476D02*
X101741427Y-62030285D01*
X101741427Y-62030285D02*
X101765237Y-62077904D01*
X101765237Y-62077904D02*
X101765237Y-62339809D01*
X101765237Y-62077904D02*
X101789046Y-62030285D01*
X101789046Y-62030285D02*
X101836665Y-62006476D01*
X101836665Y-62006476D02*
X101908094Y-62006476D01*
X101908094Y-62006476D02*
X101955713Y-62030285D01*
X101955713Y-62030285D02*
X101979523Y-62077904D01*
X101979523Y-62077904D02*
X101979523Y-62339809D01*
X102217618Y-62339809D02*
X102217618Y-62006476D01*
X102217618Y-62054095D02*
X102241428Y-62030285D01*
X102241428Y-62030285D02*
X102289047Y-62006476D01*
X102289047Y-62006476D02*
X102360475Y-62006476D01*
X102360475Y-62006476D02*
X102408094Y-62030285D01*
X102408094Y-62030285D02*
X102431904Y-62077904D01*
X102431904Y-62077904D02*
X102431904Y-62339809D01*
X102431904Y-62077904D02*
X102455713Y-62030285D01*
X102455713Y-62030285D02*
X102503332Y-62006476D01*
X102503332Y-62006476D02*
X102574761Y-62006476D01*
X102574761Y-62006476D02*
X102622380Y-62030285D01*
X102622380Y-62030285D02*
X102646190Y-62077904D01*
X102646190Y-62077904D02*
X102646190Y-62339809D01*
X103217618Y-61839809D02*
X103550951Y-61839809D01*
X103550951Y-61839809D02*
X103217618Y-62339809D01*
X103217618Y-62339809D02*
X103550951Y-62339809D01*
X103741427Y-62149333D02*
X104122380Y-62149333D01*
X104360475Y-62339809D02*
X104360475Y-61839809D01*
X104646189Y-62339809D02*
X104431904Y-62054095D01*
X104646189Y-61839809D02*
X104360475Y-62125523D01*
X104860475Y-62077904D02*
X105027142Y-62077904D01*
X105098570Y-62339809D02*
X104860475Y-62339809D01*
X104860475Y-62339809D02*
X104860475Y-61839809D01*
X104860475Y-61839809D02*
X105098570Y-61839809D01*
X105312856Y-62077904D02*
X105479523Y-62077904D01*
X105550951Y-62339809D02*
X105312856Y-62339809D01*
X105312856Y-62339809D02*
X105312856Y-61839809D01*
X105312856Y-61839809D02*
X105550951Y-61839809D01*
X105765237Y-62339809D02*
X105765237Y-61839809D01*
X105765237Y-61839809D02*
X105955713Y-61839809D01*
X105955713Y-61839809D02*
X106003332Y-61863619D01*
X106003332Y-61863619D02*
X106027142Y-61887428D01*
X106027142Y-61887428D02*
X106050951Y-61935047D01*
X106050951Y-61935047D02*
X106050951Y-62006476D01*
X106050951Y-62006476D02*
X106027142Y-62054095D01*
X106027142Y-62054095D02*
X106003332Y-62077904D01*
X106003332Y-62077904D02*
X105955713Y-62101714D01*
X105955713Y-62101714D02*
X105765237Y-62101714D01*
X106360475Y-61839809D02*
X106455713Y-61839809D01*
X106455713Y-61839809D02*
X106503332Y-61863619D01*
X106503332Y-61863619D02*
X106550951Y-61911238D01*
X106550951Y-61911238D02*
X106574761Y-62006476D01*
X106574761Y-62006476D02*
X106574761Y-62173142D01*
X106574761Y-62173142D02*
X106550951Y-62268380D01*
X106550951Y-62268380D02*
X106503332Y-62316000D01*
X106503332Y-62316000D02*
X106455713Y-62339809D01*
X106455713Y-62339809D02*
X106360475Y-62339809D01*
X106360475Y-62339809D02*
X106312856Y-62316000D01*
X106312856Y-62316000D02*
X106265237Y-62268380D01*
X106265237Y-62268380D02*
X106241428Y-62173142D01*
X106241428Y-62173142D02*
X106241428Y-62006476D01*
X106241428Y-62006476D02*
X106265237Y-61911238D01*
X106265237Y-61911238D02*
X106312856Y-61863619D01*
X106312856Y-61863619D02*
X106360475Y-61839809D01*
X106789047Y-61839809D02*
X106789047Y-62244571D01*
X106789047Y-62244571D02*
X106812857Y-62292190D01*
X106812857Y-62292190D02*
X106836666Y-62316000D01*
X106836666Y-62316000D02*
X106884285Y-62339809D01*
X106884285Y-62339809D02*
X106979523Y-62339809D01*
X106979523Y-62339809D02*
X107027142Y-62316000D01*
X107027142Y-62316000D02*
X107050952Y-62292190D01*
X107050952Y-62292190D02*
X107074761Y-62244571D01*
X107074761Y-62244571D02*
X107074761Y-61839809D01*
X107241429Y-61839809D02*
X107527143Y-61839809D01*
X107384286Y-62339809D02*
X107384286Y-61839809D01*
D11*
X103431904Y-59546407D02*
X103431904Y-59146407D01*
X103660475Y-59546407D02*
X103489046Y-59317836D01*
X103660475Y-59146407D02*
X103431904Y-59374979D01*
X103831904Y-59336883D02*
X103965237Y-59336883D01*
X104022380Y-59546407D02*
X103831904Y-59546407D01*
X103831904Y-59546407D02*
X103831904Y-59146407D01*
X103831904Y-59146407D02*
X104022380Y-59146407D01*
X104193809Y-59336883D02*
X104327142Y-59336883D01*
X104384285Y-59546407D02*
X104193809Y-59546407D01*
X104193809Y-59546407D02*
X104193809Y-59146407D01*
X104193809Y-59146407D02*
X104384285Y-59146407D01*
X104555714Y-59546407D02*
X104555714Y-59146407D01*
X104555714Y-59146407D02*
X104708095Y-59146407D01*
X104708095Y-59146407D02*
X104746190Y-59165455D01*
X104746190Y-59165455D02*
X104765237Y-59184502D01*
X104765237Y-59184502D02*
X104784285Y-59222598D01*
X104784285Y-59222598D02*
X104784285Y-59279740D01*
X104784285Y-59279740D02*
X104765237Y-59317836D01*
X104765237Y-59317836D02*
X104746190Y-59336883D01*
X104746190Y-59336883D02*
X104708095Y-59355931D01*
X104708095Y-59355931D02*
X104555714Y-59355931D01*
X105031904Y-59146407D02*
X105108095Y-59146407D01*
X105108095Y-59146407D02*
X105146190Y-59165455D01*
X105146190Y-59165455D02*
X105184285Y-59203550D01*
X105184285Y-59203550D02*
X105203333Y-59279740D01*
X105203333Y-59279740D02*
X105203333Y-59413074D01*
X105203333Y-59413074D02*
X105184285Y-59489264D01*
X105184285Y-59489264D02*
X105146190Y-59527360D01*
X105146190Y-59527360D02*
X105108095Y-59546407D01*
X105108095Y-59546407D02*
X105031904Y-59546407D01*
X105031904Y-59546407D02*
X104993809Y-59527360D01*
X104993809Y-59527360D02*
X104955714Y-59489264D01*
X104955714Y-59489264D02*
X104936666Y-59413074D01*
X104936666Y-59413074D02*
X104936666Y-59279740D01*
X104936666Y-59279740D02*
X104955714Y-59203550D01*
X104955714Y-59203550D02*
X104993809Y-59165455D01*
X104993809Y-59165455D02*
X105031904Y-59146407D01*
X105374762Y-59146407D02*
X105374762Y-59470217D01*
X105374762Y-59470217D02*
X105393809Y-59508312D01*
X105393809Y-59508312D02*
X105412857Y-59527360D01*
X105412857Y-59527360D02*
X105450952Y-59546407D01*
X105450952Y-59546407D02*
X105527143Y-59546407D01*
X105527143Y-59546407D02*
X105565238Y-59527360D01*
X105565238Y-59527360D02*
X105584285Y-59508312D01*
X105584285Y-59508312D02*
X105603333Y-59470217D01*
X105603333Y-59470217D02*
X105603333Y-59146407D01*
X105736667Y-59146407D02*
X105965238Y-59146407D01*
X105850952Y-59546407D02*
X105850952Y-59146407D01*
D10*
X229952125Y-61839809D02*
X229856887Y-61839809D01*
X229856887Y-61839809D02*
X229809268Y-61863619D01*
X229809268Y-61863619D02*
X229785458Y-61887428D01*
X229785458Y-61887428D02*
X229737839Y-61958857D01*
X229737839Y-61958857D02*
X229714030Y-62054095D01*
X229714030Y-62054095D02*
X229714030Y-62244571D01*
X229714030Y-62244571D02*
X229737839Y-62292190D01*
X229737839Y-62292190D02*
X229761649Y-62316000D01*
X229761649Y-62316000D02*
X229809268Y-62339809D01*
X229809268Y-62339809D02*
X229904506Y-62339809D01*
X229904506Y-62339809D02*
X229952125Y-62316000D01*
X229952125Y-62316000D02*
X229975934Y-62292190D01*
X229975934Y-62292190D02*
X229999744Y-62244571D01*
X229999744Y-62244571D02*
X229999744Y-62125523D01*
X229999744Y-62125523D02*
X229975934Y-62077904D01*
X229975934Y-62077904D02*
X229952125Y-62054095D01*
X229952125Y-62054095D02*
X229904506Y-62030285D01*
X229904506Y-62030285D02*
X229809268Y-62030285D01*
X229809268Y-62030285D02*
X229761649Y-62054095D01*
X229761649Y-62054095D02*
X229737839Y-62077904D01*
X229737839Y-62077904D02*
X229714030Y-62125523D01*
X230214029Y-62292190D02*
X230237839Y-62316000D01*
X230237839Y-62316000D02*
X230214029Y-62339809D01*
X230214029Y-62339809D02*
X230190220Y-62316000D01*
X230190220Y-62316000D02*
X230214029Y-62292190D01*
X230214029Y-62292190D02*
X230214029Y-62339809D01*
X230404505Y-61839809D02*
X230714029Y-61839809D01*
X230714029Y-61839809D02*
X230547362Y-62030285D01*
X230547362Y-62030285D02*
X230618791Y-62030285D01*
X230618791Y-62030285D02*
X230666410Y-62054095D01*
X230666410Y-62054095D02*
X230690219Y-62077904D01*
X230690219Y-62077904D02*
X230714029Y-62125523D01*
X230714029Y-62125523D02*
X230714029Y-62244571D01*
X230714029Y-62244571D02*
X230690219Y-62292190D01*
X230690219Y-62292190D02*
X230666410Y-62316000D01*
X230666410Y-62316000D02*
X230618791Y-62339809D01*
X230618791Y-62339809D02*
X230475934Y-62339809D01*
X230475934Y-62339809D02*
X230428315Y-62316000D01*
X230428315Y-62316000D02*
X230404505Y-62292190D01*
X231166409Y-61839809D02*
X230928314Y-61839809D01*
X230928314Y-61839809D02*
X230904505Y-62077904D01*
X230904505Y-62077904D02*
X230928314Y-62054095D01*
X230928314Y-62054095D02*
X230975933Y-62030285D01*
X230975933Y-62030285D02*
X231094981Y-62030285D01*
X231094981Y-62030285D02*
X231142600Y-62054095D01*
X231142600Y-62054095D02*
X231166409Y-62077904D01*
X231166409Y-62077904D02*
X231190219Y-62125523D01*
X231190219Y-62125523D02*
X231190219Y-62244571D01*
X231190219Y-62244571D02*
X231166409Y-62292190D01*
X231166409Y-62292190D02*
X231142600Y-62316000D01*
X231142600Y-62316000D02*
X231094981Y-62339809D01*
X231094981Y-62339809D02*
X230975933Y-62339809D01*
X230975933Y-62339809D02*
X230928314Y-62316000D01*
X230928314Y-62316000D02*
X230904505Y-62292190D01*
X231404504Y-62339809D02*
X231404504Y-62006476D01*
X231404504Y-62054095D02*
X231428314Y-62030285D01*
X231428314Y-62030285D02*
X231475933Y-62006476D01*
X231475933Y-62006476D02*
X231547361Y-62006476D01*
X231547361Y-62006476D02*
X231594980Y-62030285D01*
X231594980Y-62030285D02*
X231618790Y-62077904D01*
X231618790Y-62077904D02*
X231618790Y-62339809D01*
X231618790Y-62077904D02*
X231642599Y-62030285D01*
X231642599Y-62030285D02*
X231690218Y-62006476D01*
X231690218Y-62006476D02*
X231761647Y-62006476D01*
X231761647Y-62006476D02*
X231809266Y-62030285D01*
X231809266Y-62030285D02*
X231833076Y-62077904D01*
X231833076Y-62077904D02*
X231833076Y-62339809D01*
X232071171Y-62339809D02*
X232071171Y-62006476D01*
X232071171Y-62054095D02*
X232094981Y-62030285D01*
X232094981Y-62030285D02*
X232142600Y-62006476D01*
X232142600Y-62006476D02*
X232214028Y-62006476D01*
X232214028Y-62006476D02*
X232261647Y-62030285D01*
X232261647Y-62030285D02*
X232285457Y-62077904D01*
X232285457Y-62077904D02*
X232285457Y-62339809D01*
X232285457Y-62077904D02*
X232309266Y-62030285D01*
X232309266Y-62030285D02*
X232356885Y-62006476D01*
X232356885Y-62006476D02*
X232428314Y-62006476D01*
X232428314Y-62006476D02*
X232475933Y-62030285D01*
X232475933Y-62030285D02*
X232499743Y-62077904D01*
X232499743Y-62077904D02*
X232499743Y-62339809D01*
X233071171Y-61839809D02*
X233404504Y-61839809D01*
X233404504Y-61839809D02*
X233071171Y-62339809D01*
X233071171Y-62339809D02*
X233404504Y-62339809D01*
X233594980Y-62149333D02*
X233975933Y-62149333D01*
X234214028Y-62339809D02*
X234214028Y-61839809D01*
X234499742Y-62339809D02*
X234285457Y-62054095D01*
X234499742Y-61839809D02*
X234214028Y-62125523D01*
X234714028Y-62077904D02*
X234880695Y-62077904D01*
X234952123Y-62339809D02*
X234714028Y-62339809D01*
X234714028Y-62339809D02*
X234714028Y-61839809D01*
X234714028Y-61839809D02*
X234952123Y-61839809D01*
X235166409Y-62077904D02*
X235333076Y-62077904D01*
X235404504Y-62339809D02*
X235166409Y-62339809D01*
X235166409Y-62339809D02*
X235166409Y-61839809D01*
X235166409Y-61839809D02*
X235404504Y-61839809D01*
X235618790Y-62339809D02*
X235618790Y-61839809D01*
X235618790Y-61839809D02*
X235809266Y-61839809D01*
X235809266Y-61839809D02*
X235856885Y-61863619D01*
X235856885Y-61863619D02*
X235880695Y-61887428D01*
X235880695Y-61887428D02*
X235904504Y-61935047D01*
X235904504Y-61935047D02*
X235904504Y-62006476D01*
X235904504Y-62006476D02*
X235880695Y-62054095D01*
X235880695Y-62054095D02*
X235856885Y-62077904D01*
X235856885Y-62077904D02*
X235809266Y-62101714D01*
X235809266Y-62101714D02*
X235618790Y-62101714D01*
X236214028Y-61839809D02*
X236309266Y-61839809D01*
X236309266Y-61839809D02*
X236356885Y-61863619D01*
X236356885Y-61863619D02*
X236404504Y-61911238D01*
X236404504Y-61911238D02*
X236428314Y-62006476D01*
X236428314Y-62006476D02*
X236428314Y-62173142D01*
X236428314Y-62173142D02*
X236404504Y-62268380D01*
X236404504Y-62268380D02*
X236356885Y-62316000D01*
X236356885Y-62316000D02*
X236309266Y-62339809D01*
X236309266Y-62339809D02*
X236214028Y-62339809D01*
X236214028Y-62339809D02*
X236166409Y-62316000D01*
X236166409Y-62316000D02*
X236118790Y-62268380D01*
X236118790Y-62268380D02*
X236094981Y-62173142D01*
X236094981Y-62173142D02*
X236094981Y-62006476D01*
X236094981Y-62006476D02*
X236118790Y-61911238D01*
X236118790Y-61911238D02*
X236166409Y-61863619D01*
X236166409Y-61863619D02*
X236214028Y-61839809D01*
X236642600Y-61839809D02*
X236642600Y-62244571D01*
X236642600Y-62244571D02*
X236666410Y-62292190D01*
X236666410Y-62292190D02*
X236690219Y-62316000D01*
X236690219Y-62316000D02*
X236737838Y-62339809D01*
X236737838Y-62339809D02*
X236833076Y-62339809D01*
X236833076Y-62339809D02*
X236880695Y-62316000D01*
X236880695Y-62316000D02*
X236904505Y-62292190D01*
X236904505Y-62292190D02*
X236928314Y-62244571D01*
X236928314Y-62244571D02*
X236928314Y-61839809D01*
X237094982Y-61839809D02*
X237380696Y-61839809D01*
X237237839Y-62339809D02*
X237237839Y-61839809D01*
D11*
X233285457Y-59546407D02*
X233285457Y-59146407D01*
X233514028Y-59546407D02*
X233342599Y-59317836D01*
X233514028Y-59146407D02*
X233285457Y-59374979D01*
X233685457Y-59336883D02*
X233818790Y-59336883D01*
X233875933Y-59546407D02*
X233685457Y-59546407D01*
X233685457Y-59546407D02*
X233685457Y-59146407D01*
X233685457Y-59146407D02*
X233875933Y-59146407D01*
X234047362Y-59336883D02*
X234180695Y-59336883D01*
X234237838Y-59546407D02*
X234047362Y-59546407D01*
X234047362Y-59546407D02*
X234047362Y-59146407D01*
X234047362Y-59146407D02*
X234237838Y-59146407D01*
X234409267Y-59546407D02*
X234409267Y-59146407D01*
X234409267Y-59146407D02*
X234561648Y-59146407D01*
X234561648Y-59146407D02*
X234599743Y-59165455D01*
X234599743Y-59165455D02*
X234618790Y-59184502D01*
X234618790Y-59184502D02*
X234637838Y-59222598D01*
X234637838Y-59222598D02*
X234637838Y-59279740D01*
X234637838Y-59279740D02*
X234618790Y-59317836D01*
X234618790Y-59317836D02*
X234599743Y-59336883D01*
X234599743Y-59336883D02*
X234561648Y-59355931D01*
X234561648Y-59355931D02*
X234409267Y-59355931D01*
X234885457Y-59146407D02*
X234961648Y-59146407D01*
X234961648Y-59146407D02*
X234999743Y-59165455D01*
X234999743Y-59165455D02*
X235037838Y-59203550D01*
X235037838Y-59203550D02*
X235056886Y-59279740D01*
X235056886Y-59279740D02*
X235056886Y-59413074D01*
X235056886Y-59413074D02*
X235037838Y-59489264D01*
X235037838Y-59489264D02*
X234999743Y-59527360D01*
X234999743Y-59527360D02*
X234961648Y-59546407D01*
X234961648Y-59546407D02*
X234885457Y-59546407D01*
X234885457Y-59546407D02*
X234847362Y-59527360D01*
X234847362Y-59527360D02*
X234809267Y-59489264D01*
X234809267Y-59489264D02*
X234790219Y-59413074D01*
X234790219Y-59413074D02*
X234790219Y-59279740D01*
X234790219Y-59279740D02*
X234809267Y-59203550D01*
X234809267Y-59203550D02*
X234847362Y-59165455D01*
X234847362Y-59165455D02*
X234885457Y-59146407D01*
X235228315Y-59146407D02*
X235228315Y-59470217D01*
X235228315Y-59470217D02*
X235247362Y-59508312D01*
X235247362Y-59508312D02*
X235266410Y-59527360D01*
X235266410Y-59527360D02*
X235304505Y-59546407D01*
X235304505Y-59546407D02*
X235380696Y-59546407D01*
X235380696Y-59546407D02*
X235418791Y-59527360D01*
X235418791Y-59527360D02*
X235437838Y-59508312D01*
X235437838Y-59508312D02*
X235456886Y-59470217D01*
X235456886Y-59470217D02*
X235456886Y-59146407D01*
X235590220Y-59146407D02*
X235818791Y-59146407D01*
X235704505Y-59546407D02*
X235704505Y-59146407D01*
D10*
X229952125Y-56339809D02*
X229856887Y-56339809D01*
X229856887Y-56339809D02*
X229809268Y-56363619D01*
X229809268Y-56363619D02*
X229785458Y-56387428D01*
X229785458Y-56387428D02*
X229737839Y-56458857D01*
X229737839Y-56458857D02*
X229714030Y-56554095D01*
X229714030Y-56554095D02*
X229714030Y-56744571D01*
X229714030Y-56744571D02*
X229737839Y-56792190D01*
X229737839Y-56792190D02*
X229761649Y-56816000D01*
X229761649Y-56816000D02*
X229809268Y-56839809D01*
X229809268Y-56839809D02*
X229904506Y-56839809D01*
X229904506Y-56839809D02*
X229952125Y-56816000D01*
X229952125Y-56816000D02*
X229975934Y-56792190D01*
X229975934Y-56792190D02*
X229999744Y-56744571D01*
X229999744Y-56744571D02*
X229999744Y-56625523D01*
X229999744Y-56625523D02*
X229975934Y-56577904D01*
X229975934Y-56577904D02*
X229952125Y-56554095D01*
X229952125Y-56554095D02*
X229904506Y-56530285D01*
X229904506Y-56530285D02*
X229809268Y-56530285D01*
X229809268Y-56530285D02*
X229761649Y-56554095D01*
X229761649Y-56554095D02*
X229737839Y-56577904D01*
X229737839Y-56577904D02*
X229714030Y-56625523D01*
X230214029Y-56792190D02*
X230237839Y-56816000D01*
X230237839Y-56816000D02*
X230214029Y-56839809D01*
X230214029Y-56839809D02*
X230190220Y-56816000D01*
X230190220Y-56816000D02*
X230214029Y-56792190D01*
X230214029Y-56792190D02*
X230214029Y-56839809D01*
X230404505Y-56339809D02*
X230714029Y-56339809D01*
X230714029Y-56339809D02*
X230547362Y-56530285D01*
X230547362Y-56530285D02*
X230618791Y-56530285D01*
X230618791Y-56530285D02*
X230666410Y-56554095D01*
X230666410Y-56554095D02*
X230690219Y-56577904D01*
X230690219Y-56577904D02*
X230714029Y-56625523D01*
X230714029Y-56625523D02*
X230714029Y-56744571D01*
X230714029Y-56744571D02*
X230690219Y-56792190D01*
X230690219Y-56792190D02*
X230666410Y-56816000D01*
X230666410Y-56816000D02*
X230618791Y-56839809D01*
X230618791Y-56839809D02*
X230475934Y-56839809D01*
X230475934Y-56839809D02*
X230428315Y-56816000D01*
X230428315Y-56816000D02*
X230404505Y-56792190D01*
X231166409Y-56339809D02*
X230928314Y-56339809D01*
X230928314Y-56339809D02*
X230904505Y-56577904D01*
X230904505Y-56577904D02*
X230928314Y-56554095D01*
X230928314Y-56554095D02*
X230975933Y-56530285D01*
X230975933Y-56530285D02*
X231094981Y-56530285D01*
X231094981Y-56530285D02*
X231142600Y-56554095D01*
X231142600Y-56554095D02*
X231166409Y-56577904D01*
X231166409Y-56577904D02*
X231190219Y-56625523D01*
X231190219Y-56625523D02*
X231190219Y-56744571D01*
X231190219Y-56744571D02*
X231166409Y-56792190D01*
X231166409Y-56792190D02*
X231142600Y-56816000D01*
X231142600Y-56816000D02*
X231094981Y-56839809D01*
X231094981Y-56839809D02*
X230975933Y-56839809D01*
X230975933Y-56839809D02*
X230928314Y-56816000D01*
X230928314Y-56816000D02*
X230904505Y-56792190D01*
X231404504Y-56839809D02*
X231404504Y-56506476D01*
X231404504Y-56554095D02*
X231428314Y-56530285D01*
X231428314Y-56530285D02*
X231475933Y-56506476D01*
X231475933Y-56506476D02*
X231547361Y-56506476D01*
X231547361Y-56506476D02*
X231594980Y-56530285D01*
X231594980Y-56530285D02*
X231618790Y-56577904D01*
X231618790Y-56577904D02*
X231618790Y-56839809D01*
X231618790Y-56577904D02*
X231642599Y-56530285D01*
X231642599Y-56530285D02*
X231690218Y-56506476D01*
X231690218Y-56506476D02*
X231761647Y-56506476D01*
X231761647Y-56506476D02*
X231809266Y-56530285D01*
X231809266Y-56530285D02*
X231833076Y-56577904D01*
X231833076Y-56577904D02*
X231833076Y-56839809D01*
X232071171Y-56839809D02*
X232071171Y-56506476D01*
X232071171Y-56554095D02*
X232094981Y-56530285D01*
X232094981Y-56530285D02*
X232142600Y-56506476D01*
X232142600Y-56506476D02*
X232214028Y-56506476D01*
X232214028Y-56506476D02*
X232261647Y-56530285D01*
X232261647Y-56530285D02*
X232285457Y-56577904D01*
X232285457Y-56577904D02*
X232285457Y-56839809D01*
X232285457Y-56577904D02*
X232309266Y-56530285D01*
X232309266Y-56530285D02*
X232356885Y-56506476D01*
X232356885Y-56506476D02*
X232428314Y-56506476D01*
X232428314Y-56506476D02*
X232475933Y-56530285D01*
X232475933Y-56530285D02*
X232499743Y-56577904D01*
X232499743Y-56577904D02*
X232499743Y-56839809D01*
X233071171Y-56339809D02*
X233404504Y-56339809D01*
X233404504Y-56339809D02*
X233071171Y-56839809D01*
X233071171Y-56839809D02*
X233404504Y-56839809D01*
X233594980Y-56649333D02*
X233975933Y-56649333D01*
X234214028Y-56839809D02*
X234214028Y-56339809D01*
X234499742Y-56839809D02*
X234285457Y-56554095D01*
X234499742Y-56339809D02*
X234214028Y-56625523D01*
X234714028Y-56577904D02*
X234880695Y-56577904D01*
X234952123Y-56839809D02*
X234714028Y-56839809D01*
X234714028Y-56839809D02*
X234714028Y-56339809D01*
X234714028Y-56339809D02*
X234952123Y-56339809D01*
X235166409Y-56577904D02*
X235333076Y-56577904D01*
X235404504Y-56839809D02*
X235166409Y-56839809D01*
X235166409Y-56839809D02*
X235166409Y-56339809D01*
X235166409Y-56339809D02*
X235404504Y-56339809D01*
X235618790Y-56839809D02*
X235618790Y-56339809D01*
X235618790Y-56339809D02*
X235809266Y-56339809D01*
X235809266Y-56339809D02*
X235856885Y-56363619D01*
X235856885Y-56363619D02*
X235880695Y-56387428D01*
X235880695Y-56387428D02*
X235904504Y-56435047D01*
X235904504Y-56435047D02*
X235904504Y-56506476D01*
X235904504Y-56506476D02*
X235880695Y-56554095D01*
X235880695Y-56554095D02*
X235856885Y-56577904D01*
X235856885Y-56577904D02*
X235809266Y-56601714D01*
X235809266Y-56601714D02*
X235618790Y-56601714D01*
X236214028Y-56339809D02*
X236309266Y-56339809D01*
X236309266Y-56339809D02*
X236356885Y-56363619D01*
X236356885Y-56363619D02*
X236404504Y-56411238D01*
X236404504Y-56411238D02*
X236428314Y-56506476D01*
X236428314Y-56506476D02*
X236428314Y-56673142D01*
X236428314Y-56673142D02*
X236404504Y-56768380D01*
X236404504Y-56768380D02*
X236356885Y-56816000D01*
X236356885Y-56816000D02*
X236309266Y-56839809D01*
X236309266Y-56839809D02*
X236214028Y-56839809D01*
X236214028Y-56839809D02*
X236166409Y-56816000D01*
X236166409Y-56816000D02*
X236118790Y-56768380D01*
X236118790Y-56768380D02*
X236094981Y-56673142D01*
X236094981Y-56673142D02*
X236094981Y-56506476D01*
X236094981Y-56506476D02*
X236118790Y-56411238D01*
X236118790Y-56411238D02*
X236166409Y-56363619D01*
X236166409Y-56363619D02*
X236214028Y-56339809D01*
X236642600Y-56339809D02*
X236642600Y-56744571D01*
X236642600Y-56744571D02*
X236666410Y-56792190D01*
X236666410Y-56792190D02*
X236690219Y-56816000D01*
X236690219Y-56816000D02*
X236737838Y-56839809D01*
X236737838Y-56839809D02*
X236833076Y-56839809D01*
X236833076Y-56839809D02*
X236880695Y-56816000D01*
X236880695Y-56816000D02*
X236904505Y-56792190D01*
X236904505Y-56792190D02*
X236928314Y-56744571D01*
X236928314Y-56744571D02*
X236928314Y-56339809D01*
X237094982Y-56339809D02*
X237380696Y-56339809D01*
X237237839Y-56839809D02*
X237237839Y-56339809D01*
D12*
G04 #@! TO.C,H1*
X74853553Y-17000000D02*
G75*
G02*
X64853553Y-17000000I-5000000J0D01*
G01*
X64853553Y-17000000D02*
G75*
G02*
X74853553Y-17000000I5000000J0D01*
G01*
X204707106Y-17000000D02*
G75*
G02*
X194707106Y-17000000I-5000000J0D01*
G01*
X194707106Y-17000000D02*
G75*
G02*
X204707106Y-17000000I5000000J0D01*
G01*
G04 #@! TD*
M02*
