M48
; DRILL file {KiCad 9.0.1} date 2025-05-04T22:53:25+0200
; FORMAT={-:-/ absolute / metric / decimal}
; #@! TF.CreationDate,2025-05-04T22:53:25+02:00
; #@! TF.GenerationSoftware,Kicad,Pcbnew,9.0.1
; #@! TF.FileFunction,NonPlated,1,2,NPTH
FMAT,2
METRIC
; #@! TA.AperFunction,NonPlated,NPTH,ComponentDrill
T1C0.500
; #@! TA.AperFunction,NonPlated,NPTH,ComponentDrill
T2C0.650
; #@! TA.AperFunction,NonPlated,NPTH,ComponentDrill
T3C0.900
; #@! TA.AperFunction,NonPlated,NPTH,ComponentDrill
T4C0.991
; #@! TA.AperFunction,NonPlated,NPTH,ComponentDrill
T5C1.152
; #@! TA.AperFunction,NonPlated,NPTH,ComponentDrill
T6C5.000
%
G90
G05
T1
X0.0Y-11.0
X0.0Y-109.0
X0.7Y-11.0
X0.7Y-109.0
X1.4Y-11.0
X1.4Y-109.0
X2.1Y-11.0
X2.1Y-109.0
X2.8Y-11.0
X2.8Y-109.0
X3.5Y-11.0
X3.5Y-109.0
X4.2Y-11.0
X4.2Y-109.0
X4.9Y-11.0
X4.9Y-109.0
X5.6Y-11.0
X5.6Y-109.0
X6.3Y-11.0
X6.3Y-109.0
X7.0Y-11.0
X7.0Y-109.0
X10.8Y-86.2
X10.8Y-86.914
X10.8Y-87.629
X10.8Y-88.343
X10.8Y-89.057
X10.8Y-89.771
X10.8Y-90.486
X10.8Y-91.2
X15.654Y-29.5
X15.654Y-30.214
X15.654Y-30.929
X15.654Y-31.643
X15.654Y-32.357
X15.654Y-33.071
X15.654Y-33.786
X15.654Y-34.5
X23.854Y-109.2
X24.568Y-109.2
X25.282Y-109.2
X25.996Y-109.2
X26.711Y-109.2
X27.425Y-109.2
X28.139Y-109.2
X28.854Y-109.2
X41.654Y-21.8
X42.368Y-21.8
X43.082Y-21.8
X43.796Y-21.8
X44.511Y-21.8
X45.225Y-21.8
X45.939Y-21.8
X46.654Y-21.8
X93.654Y-21.8
X94.368Y-21.8
X95.082Y-21.8
X95.796Y-21.8
X96.511Y-21.8
X97.225Y-21.8
X97.939Y-21.8
X98.654Y-21.8
X106.104Y-109.2
X106.818Y-109.2
X107.532Y-109.2
X108.246Y-109.2
X108.961Y-109.2
X109.675Y-109.2
X110.389Y-109.2
X111.104Y-109.2
X123.2Y-79.1
X123.2Y-79.814
X123.2Y-80.529
X123.2Y-81.243
X123.2Y-81.957
X123.2Y-82.671
X123.2Y-83.386
X123.2Y-84.1
X124.054Y-29.0
X124.054Y-29.714
X124.054Y-30.429
X124.054Y-31.143
X124.054Y-31.857
X124.054Y-32.571
X124.054Y-33.286
X124.054Y-34.0
X128.854Y-11.0
X128.854Y-109.0
X129.554Y-11.0
X129.554Y-109.0
X130.254Y-11.0
X130.254Y-109.0
X130.954Y-11.0
X130.954Y-109.0
X131.654Y-11.0
X131.654Y-109.0
X132.354Y-11.0
X132.354Y-109.0
X133.054Y-11.0
X133.054Y-109.0
X133.754Y-11.0
X133.754Y-109.0
X134.454Y-11.0
X134.454Y-109.0
X135.154Y-11.0
X135.154Y-109.0
X135.854Y-11.0
X135.854Y-109.0
X140.654Y-86.2
X140.654Y-86.914
X140.654Y-87.629
X140.654Y-88.343
X140.654Y-89.057
X140.654Y-89.771
X140.654Y-90.486
X140.654Y-91.2
X145.508Y-29.5
X145.508Y-30.214
X145.508Y-30.929
X145.508Y-31.643
X145.508Y-32.357
X145.508Y-33.071
X145.508Y-33.786
X145.508Y-34.5
X153.707Y-109.2
X154.421Y-109.2
X155.136Y-109.2
X155.85Y-109.2
X156.564Y-109.2
X157.279Y-109.2
X157.993Y-109.2
X158.707Y-109.2
X171.507Y-21.8
X172.221Y-21.8
X172.936Y-21.8
X173.65Y-21.8
X174.364Y-21.8
X175.079Y-21.8
X175.793Y-21.8
X176.507Y-21.8
X223.507Y-21.8
X224.221Y-21.8
X224.936Y-21.8
X225.65Y-21.8
X226.364Y-21.8
X227.079Y-21.8
X227.793Y-21.8
X228.507Y-21.8
X235.957Y-109.2
X236.671Y-109.2
X237.386Y-109.2
X238.1Y-109.2
X238.814Y-109.2
X239.529Y-109.2
X240.243Y-109.2
X240.957Y-109.2
X253.054Y-79.1
X253.054Y-79.814
X253.054Y-80.529
X253.054Y-81.243
X253.054Y-81.957
X253.054Y-82.671
X253.054Y-83.386
X253.054Y-84.1
X253.907Y-29.0
X253.907Y-29.714
X253.907Y-30.429
X253.907Y-31.143
X253.907Y-31.857
X253.907Y-32.571
X253.907Y-33.286
X253.907Y-34.0
X257.707Y-11.0
X257.707Y-109.0
X258.407Y-11.0
X258.407Y-109.0
X259.107Y-11.0
X259.107Y-109.0
X259.807Y-11.0
X259.807Y-109.0
X260.507Y-11.0
X260.507Y-109.0
X261.207Y-11.0
X261.207Y-109.0
X261.907Y-11.0
X261.907Y-109.0
X262.607Y-11.0
X262.607Y-109.0
X263.307Y-11.0
X263.307Y-109.0
X264.007Y-11.0
X264.007Y-109.0
X264.707Y-11.0
X264.707Y-109.0
T2
X117.32Y-60.61
X117.32Y-66.39
X247.174Y-60.61
X247.174Y-66.39
T3
X120.0Y-72.0
X120.0Y-75.0
X249.854Y-72.0
X249.854Y-75.0
T4
X100.86Y-58.349
X100.86Y-60.381
X108.48Y-59.365
X230.714Y-58.349
X230.714Y-60.381
X238.334Y-59.365
T5
X2.5Y-2.5
X2.5Y-117.5
X262.207Y-2.5
T6
X69.854Y-17.0
X199.707Y-17.0
M30
